<?xml version="1.0" encoding="UTF-8"?>
<svg id="Layer_2" data-name="Layer 2" xmlns="http://www.w3.org/2000/svg" viewBox="0 0 1366 161.4">
  <defs>
    <style>
      .cls-1 {
        stroke-width: 0px;
      }
    </style>
  </defs>
  <g id="Layer_2-2" data-name="Layer 2">
    <path class="cls-1" d="M1366,103.33v58.07H0V36.57c9.68.27,13.7,11.86,17.28,19.75,2.42,5.33,8.79,15.03,15.21,16.46,7.46,1.66,14-11.23,14.44-17.88.36-5.28-.17-9.6,1.73-14.81,2.01-5.5,4.18-10.76,6.61-16.1,2.92-6.4,4.99-13.48,8.67-19.48,3.25-5.3,6.09-5.42,12.04-2.95,3.17,1.31,6.39,3.42,9.32,5.21,3.64,2.23,5.03,5.35,8.01,7.86,3.88,3.25,8.15.07,12.19,1.95,3.86,1.8,5.87,7.26,6.2,11.14.29,3.49-1.95,10.04,1.06,12.51,5.58,4.55,6.11-6.39,8.5-8.86,5.64-5.84,9.89-.87,13.25,3.71,2.75,3.74,4.51,4.26,9.44,4.37,3.22.08,5.02-.24,6.07-1.25,1.62-1.57.49-3.18,1.61-6.49,1.11-3.27,2.79-3.22,7.31-8.86,3.4-4.24,3.43-5.5,4.52-5.47,3.17.08,8.01,10.95,7.2,19.4-.12,1.18-.41,3.96.98,6.82.61,1.25,1.65,2.4,3.49,3.73,4.08,2.96,8.6,6.55,13.56,7.22,2.82.39,5.41-.18,8.16,1.19,4.2,2.1,5.69,6.66,8.46,10.23,2.39,3.07,5.84,7.44,9.09,9.68,4.86,3.34,5.1-1.35,6.25-5.94,1.25-5.05,2.95-9.74,5.34-14.34,3.4-6.55,5.75-13.67,9.34-20.11,2.91-5.21,7.44-8.48,13.28-10.3,5.67-1.77,7.06,1.93,9.62,6.72,2.35,4.41,3.19,5.04,7.57,5.66,5.09.72,7.7,1.9,11.53,5.71,1.63,1.62,3.04,3.44,4.87,4.85,2.43,1.87,5.6,2.54,7.99,4.36,6.14,4.68,9.72,16.75,13.75,23.1,5.09.22,7.49-10.85,9.51-14.03,2.52-3.95,4.63-6.33,9.49-6.9,10.96-1.29,11.48,8.27,17.08,14.6,5.63,6.36,13.62-7.96,19.63-10.46,9.44-3.93,13.93,8.38,22.76,9.48,4.77.59,8.67-1.77,13.16-2.28,6.83-.78,10,6.26,13.23,11.52,2.7,4.38,5.27,8.85,7.4,13.55.72,1.58,2.01,6.47,4.1,7.97,5.11,3.66,12.42-.22,16.81-3.1,6.87-4.51,11.66-11.04,15.94-17.89,2.17-3.49,5.33-11.24,9.15-12.62,4-1.44,7.77,2.12,10.89,4.57,3.09,2.44,3.94,4.1,7.91,2.95,4.01-1.16,5.75-3.57,9.47-.71,6.38,4.89,5.77,18.93,7.77,26.29,1.14,4.19,2.09,7.64,4.65,10.06.41.38,1.97,1.75,4.15,2.45,6.56,2.12,15.76-2.76,19.77-9.7,1.47-2.56.18-1.83,4.01-15.08.38-1.35,1.82-5.65,4.9-10.29,2.82-4.24,5.72-5.31,10.21-3.1,2.5,1.22,5.2,3,5.4,5.81.25,3.39-3.51,6.96-.03,10.22,3.42,3.21,7.05-.73,9.94-2.89,5.83-4.37,13.45-10.88,20.8-12.35,12.88-2.57,10.93,18.58,21.48,17.27,6.36-.78,5.83-8.42,13.71-4.65,9.37,4.48,20.03,22.99,32.03,18.43,7.85-2.98,13.21-14.47,21.64-14.96,10.84-.63,9.97,14.97,17.59,19.22,4.14,2.31,8.88-1.95,13.19.55,2.23,1.29,4.39,5.88,6.02,7.32,2.25,1.98,4.65,2.33,7.31,3.27,5.35,1.89,6.85,2.8,10.05-2.35,6.56-10.52.06-23.87,5.8-33.98,6.24-.28,7.93,9.86,11.71,13.53,4.17-6.23,4.98-14.08,10.39-19.49,4.67-4.66,8.96-8.38,13.11-13.5,3.69-4.56,8.09-4.68,13.14-6.94,3.85-1.71,8.06-5.89,12.41-2.62,2.11,1.59,2.84,5.66,3.63,7.94,1.88,5.47,3.66,10.99,5.75,16.39,1.96,5.05,5.07,17.39,11.53,17.28,1.23-.02,2.24-1.7,4.04-1.57,3.54.26,6.98,4.87,10.14,6.32,2.14.99,3.51.92,5.78,1.43,2.94.65,5.43,2.32,8.37,3.22,4.61-3.22,1.93-10.12,3.87-14.53,1.64-3.73,4.79-6.19,7.82-8.99,2.28-2.11,6.15-5.9,9.5-6.42,4.3-.67,6.9,4.33,10.41,3.33,3.57-1.01,1.55-5.36,5.03-6.78,2.52-1.03,9.16,4.59,11.7,5.02,2.46.41,9.19-.08,11.64-1.46,6.41-3.61,2.7-7.08,3.73-13.27,3.27-1.73,4.8,2.04,7.06,3.45,4,2.48,2.8.65,6.05-1.23,3.54-2.04,5.77-3.66,8.19-6.97,4.02-5.49,5.94-13.64,8.35-19.89,2.17-5.65,2.29-13.42,9.5-13.79,5.52-.28,10.51,5.91,14.41,9.79,2.13,2.12,7.2,5.94,7.92,8.82,2.79-1.06,4.84-2.41,5.56-4.44,7.89,4.4,10.5,12.28,14.23,20.16,4.31,9.12,11.58,11.02,19.25,17.25,8.35,6.79,14.67,6.26,20.83-2,1.56-2.09,3.3-7.08,5.86-7.74,4.05-1.04,9.2,3.9,13.22,4.69,3.32-3.98,5.6-10.16,10.64-11.78,7.47-2.41,8.9,3.82,16.1,5.04,11.35,1.93,13.95-15.71,21-21.21,7.46,2.61,12.41,8.74,17.48,14.6,4.12,5.4,8.3,10.75,12.55,16.05,2.95,2.32,5.26,2.09,6.92-.69,2.19-1.73,3.76-3.95,4.71-6.65,1.32-2.45,3.02-2.93,5.1-1.44,6.61.51,8.96,9.72,14.26,12.59,2.28-1.68,2.14-4.69,2.93-7.2,1.43-4.57,4.15-7.46,6.41-11.59,1.68-3.08,2.56-5.96,4.98-8.56,4-4.3,11.88-8.13,17.71-8.33,5.69-.19,7.77,2.44,12.39,4.59,10.05,4.69,22.78-6.65,30.87-10.09,9.85-4.19,16.58-5.35,25.18,2.92,5.62,5.42,9.27,12.11,15.75,16.57,2.44-1.03,3.32-4.16,5.19-5.02,4.19-1.94,8.81.93,12.23,3.14,6.38,4.11,11.3,10.41,16.53,15.89,3.8,3.98,9.17,11.12,15.45,9.77,3.23-.7,5.56-2.69,9.07-.79,2.63,1.43,3.67,6.43,6.09,7.62,6.25,3.06,8.89-10.56,11.66-13.04,8.2,4.69,8.11,15.35,11.19,23.51,2.09,5.52,4.19,6.77,8.62,6.89Z"/>
  </g>
</svg>