<?xml version="1.0" encoding="UTF-8"?>
<svg id="Layer_2" data-name="Layer 2" xmlns="http://www.w3.org/2000/svg" viewBox="0 0 1366 114.44">
  <defs>
    <style>
      .cls-1 {
        stroke-width: 0px;
      }
    </style>
  </defs>
  <g id="Layer_2-2" data-name="Layer 2">
    <path class="cls-1" d="M1366,36.74v77.7H0v-58.42c2.8-3.15,5.78-6.28,8.84-8.08,3-1.77,5.62-1.62,8.5.17,2.59,1.61,4.1,7.34,7.63,6.52,1.88-2.84,1.66-11.79,5.58-12.55,3.68,3.59,2.61,8.77,5.53,12.59,1.97,2.58,6.62,4.54,9.76,5.33,11.05,2.8,10.54-8,19.15-10.94,3.66-1.25,4.32.36,7.8-2.37,4.05-3.17,5.74-6.87,11.2-7.54,11.26-1.37,13.58-10.04,20.99-17.3,7.67-7.51,9.95,11.31,13.15,15.92,3.89,5.59,6.31,3.3,11.52,1.38,4.09-1.5,5.89-.65,9.1,1.89,4.31,3.41,7.27,7.89,11.91,11.22,2.8,2,5.92,4.74,9.05,6.26,5.47,2.65,7.37-.54,13.39-1.76,3.73-.75,7.75-.56,11.48-.07,12.03,1.6,17.86-5.74,26.02-13.53,10.24-9.78,12.15,3.06,21.01,6.64,6.59,2.67,10.06-8.7,17.13-8.53.99.31,1.85.86,2.57,1.65,2.84.75,5.32-.06,7.44-2.42,3.95-3.08,4.27-6.34,9.02-7.05,6.5-.97,13.29,6.14,18.08,9.66,2.75,2.02,7.46,7.13,11.04,7.42,2.93.23,4.49-1.46,6.98-2.66,2.85-1.38,6.02-2.56,9.07-3.4,5.69-1.56,6.94-1.54,11.26,2.52,1.69,1.84,3.39,3.68,5.09,5.52,1.12,1.91,2.64,2.43,4.54,1.55,2.67-.89,4.98-.28,6.93,1.84.81,1.97,2.19,3.11,4.14,3.43,1.78-2.46,3.86-6.51,7.58-5.77,6.03,1.2,4.77,7.74,11.48,4.43,9.2-4.54,5.29-17.72,17.06-17.57,6.02.08,7.49.89,11.54-4.37,2.22-2.9,4.68-6.73,7.91-8.53,10.02-5.57,18.29,12.75,24.53,17.43,8.35,6.26,13.78-1.68,22.7.27,8.56,1.88,13.05,10.56,21.15,12.84,5.12,1.44,10.17-2.41,14.67,1.38,1.89,2.46,3.81,4.9,5.75,7.33.97.91,2.08,1.35,3.32,1.32,1.74,1.73,4.16,6.18,7.02,6.33,4.27-6.07,5.19-15.2,12.86-17.68,2.52-.81,5.15-.17,7.69-1.25,3.02-1.29,5.31-4.05,7.22-6.66,1.58-2.14,2.67-5.52,5.22-6.53,2.68-1.07,6.1,1.33,8.87,1.25,9.19-.27,9.95-13.86,18.96-10.19,3.09,1.26,6.14,3.41,9.63,3.48,5.78.11,11.16-4.25,16.83-4.97,6.21-.8,11.86,2.31,17.79,2.45,4.08.1,9.6.01,13.57,1.02,8.06,2.05,6.91,8.47,11.31,14.34,7.06-5.6,4.17-17.04,15.41-11.36,2.85,1.44,3.68,1.8,6.69,1.54,1.9-.16,3.55-1.11,5.58-.7,2.18.44,3.51,2.08,5.62,2.66,2.95.81,5.94-1.2,8.87-.39,3.7,1.01,3.35,4.59,6.78,5.68,5.75,1.83,14.82-6.57,19.29-9.27,8.04-4.84,14.93-8.73,19.51-16.95,1.99-3.6,2.45-4.95,6.05-6.49,1.73.29,3.28-.1,4.64-1.17,2.39-1.31,4.83-2.51,7.33-3.61,3.7-1.16,7.71-.76,11.43-1.73,2.38-.62,4.65-2.1,7.19-2.08,3.41.01,4.88,2.32,8.19.47,2.56-1.43,1.92-5.68,5.48-6.28,3.17,4.32,5.57,8.5,9.45,12.26,3.76-3.16.9-8.23,4.35-11.79,3.28,4.93,4.27,10.31,7.67,15.07,2.74-2.01,5.23-6.5,8.18-7.39,3.68-1.11,4.8,1.17,8.58,2.74,5.29,2.2,7.9-.42,12.58-2.16,4.6-1.71,8.44,1.1,13.11-.14,8.22-2.19,10.61-9.77,19.43-3.81,3.56,2.41,6.02,4.94,10.47,5.82,5.23,1.04,10.86-.21,16.16.21,9.12.73,16.04,6.7,25.14,4.67,9.82-2.19,18.47-7.69,28.7-7.5,9.29.17,12.65,9.26,15.81,17.13,1.82,4.54,3.91,9.29,4.99,14.09.65,2.84.14,9.6,4.59,9.56,4.93-5.1,10.05-12.75,18.19-11.02,3.68.78,7.36,5.12,11.5,4.6,5.73-.71,7.72-7.7,12.24-10.11,2.74-1.46,6.16-.4,9.08-.72,3.97-.44,8.91-2.14,12.44-3.99,2.25-1.18,4.37-4.77,7.39-4.53,4.05.32,7.56,6.3,10.73,8.27,3.97-2.44,6.13-6.28,11.38-6.48,2.39-.1,6.79.7,9.28,1.06,2.07-.55,3.99-.13,5.76,1.24,2.49,2.31,4.93,4.65,7.34,7.04,5.27,1.99,4.58-3.4,7.91-4.67,6.51-2.51,9.85,5.13,15.85,7.27,5.55.61,11.1,1.09,16.66,1.44,5.42,1.19,10.63,3,15.61,5.42,10.03,2.43,9.31-6.19,16.06-10.15,5.97-3.5,12.05,4.55,17.68,5.68,5.01,1.01,11.6.91,16.74.98,4.21.19,7.91-1.17,11.11-4.06,6.1-2.58,11.81-1.71,17.13,2.6,5.59,3.69,10.74,7.91,15.44,12.68,5.56,4.34,11.8,5.53,18.72,3.56,6.16-2.06,12.43-2.66,18.84-1.81,4.32,1.36,8.46,3.15,12.4,5.36,2.93,2.14,6.22,2.98,9.9,2.53,3.68-2.85,7.56-5.41,11.63-7.68,4.69-.45,9.38-.76,14.09-.93,6.86-3.24,13.19-7.35,18.96-12.32,4.88-4.73,10.63-7.46,17.24-8.2,5.53,1.08,10.88,2.72,16.06,4.94,2.79.58,4.49.53,5.81-.02Z"/>
  </g>
</svg>