<?xml version="1.0" encoding="UTF-8"?>
<svg id="Layer_2" data-name="Layer 2" xmlns="http://www.w3.org/2000/svg" viewBox="0 0 1366 143.19">
  <defs>
    <style>
      .cls-1 {
        stroke-width: 0px;
      }
    </style>
  </defs>
  <g id="Layer_2-2" data-name="Layer 2">
    <path class="cls-1" d="M1366,75.71v67.48H0V.31C6.63.46,13.44.08,19.98,0c9.3-.11,14.86,5.77,22.1,11.47,5.14,4.05,8.18,6.42,14.63,7.34,10.39,1.48,22.75-1.73,33.31-1.77,6.34-.03,12.68.11,19.02.1,8.54-.01,13.03-.17,20.52,4.82,5.31,3.54,11.9,9.31,15.47,14.69,3.21,4.85,5.32,9.28,9.71,13.25,7.41,6.7,12.17,12.65,22.31,14.43,12.39,2.18,24.76-2.1,36.46,3.77,20.69,10.38,39.65-1.2,60.86-1.51,7.77-.12,13.65,3.25,20.97,5.46,7.64,2.3,15.55,1.34,23.26-.1,4.91-.92,8.25-3.22,12.88-4.47,3.74-1.01,8.73.52,12.63,1.25,4.63.88,8.24,3.69,13.05,3.32,4.37-.33,8.08-1.63,12.54-1.57,6.95.1,16.89-2,22.82,2.19,8.29,5.86,9.85,11.25,20.79,11.16,7.51-.07,15.03-.02,22.54-.02,10.97.01,18.48,1.53,27.19,9.42,4.45,4.03,7.41,8.88,13.71,9.79,1.95.29,5.12.08,7.19-.03,4.23-.2,6.14-2.64,9.67-3.62,5.82-1.6,14.52-.75,20.67-.41,5.21.28,9.42,2.98,14.34,3.79,9.14,1.48,13.96-5.33,21.93-8.28,9.82-3.64,19.65.03,29,3.19,9.59,3.24,20.56.71,30.44,1.96,9.45,1.18,18.93-1.13,28.18-3.05,4.51-.94,9.45-.8,13.6-2.45,6.84-2.71,11.71-8.86,18.36-11.87,4.76-2.15,9.27-1.73,14.19-2.11,5.36-.41,7.22-3.54,11.78-5.5,10.92-4.7,17.63,2.07,26.71,7.04,10.02,5.48,17.47.12,27.72.23,9.56.11,19.14,0,28.7,0,10.07,0,21.73,1.91,31.5-.08,5.01-1.02,6.19-4.76,10.19-7.19,5.67-3.45,11.86-.2,17.47,1.61,7.02,2.26,11.09,2.55,17.94-.14,8.22-3.21,15.95-7.57,24.95-7.71,8.41-.13,14.12,4.57,22.05,5.74,9.25,1.37,15.98-4.19,24.6-5.56,9.82-1.57,21.66,2.07,31.34,3.46,9.61,1.37,17.47-1.84,26.54-4.03,10.04-2.43,20.53-.8,30.76-2.09,17.76-2.25,35.36-6.82,53.45-5.2,7.63.69,9.44,6.07,15.74,8.5,8.46,3.25,20.89-1.43,29.35-2.98,13.76-2.51,28.68-4.6,42.72-5.42,10.55-.61,17.94,4.88,27.98,5.84,8.3.8,15.49-2.54,23.42-3.66,5.98-.84,17.11-1.67,23.31.15,6.19,1.82,9.68,7.25,13.76,11.23,4.17,4.08,10.95,7.34,16.62,9.04,15.56,4.69,35.67,3.51,51.5.81,10.11-1.72,20.78-.46,30.73,1.14,9.34,1.49,13.14-4.83,20.45-9.42.13-.08.26-.16.4-.24Z"/>
  </g>
</svg>