<?xml version="1.0" encoding="UTF-8"?>
<svg id="Layer_2" data-name="Layer 2" xmlns="http://www.w3.org/2000/svg" viewBox="0 0 1366 85.98">
  <defs>
    <style>
      .cls-1 {
        stroke-width: 0px;
      }
    </style>
  </defs>
  <g id="Layer_2-2" data-name="Layer 2">
    <path class="cls-1" d="M1366,27.13v58.85H0V23.99c2.49,1.4,5.15,2.2,7.82,1.77,2.94-.48,5.48-2.5,8.59-2.72,2.2-.16,3.94,1.26,5.75,1.26,2.18-.01,5.67-1.01,7.81-1.77,4.99-1.79,7.28-7.89,12.17-8.27,2.1-.16,4.02,1.22,6.3.85,2.46-.39,3.91-1.94,6.22-2.74,4.31-1.48,7.59,2.2,11.18.69,4.63-1.94,3.6-9.46,10.08-2.79,3.1,3.19,3.56,5.53,8.23,3.76,2.12-.8,2.93-2.42,5.33-1.65,2.79.88,3.25,4.13,4.89,6.2,3.67,4.62,6.07,3.33,11.47,4.46,5.17,1.07,7.95,7.47,12.56,7.34,4.38-.12,5.67-2.43,10.3-.94,6.76,2.18,7.23-2.9,13.43-4.59,4.11-1.12,5.93.76,9.38,2.27,5.03,2.22,8.86-.68,10-6.34,4.06-1.18,8.16,13.26,12.66,14.69,1.04-3.09.72-13.43,4.29-14.88,7.74,2.08,7.81,13.75,14.05,19.55,1.8-8.84-.14-14.53,10.05-17.12,3.88-.99,6.48,1.11,9.9.93,4.65-.25,7.52-6.32,11.42-8.1,4.25-1.95,7.7-.23,11.81-2.55,6.55-3.71,8.34-3.33,15.06-.04,3.84,1.88,7.3,3.1,10.81,5.65,2.59,1.87,6.76,7.09,9.96,7.55,5.32.78,8.13-5.26,12.03-7.75,3.31-2.11,5.7-.6,8.85-1.85,10.48-4.16,6.3-22.43,21.12-15.18,3.96,1.94,8.12,5.17,12.9,4.12,3.86-.85,5.5-4.44,9.81-4.37,8.87.15,13.39,13.68,22.53,12.95,3.51-.28,5.77-3.23,9.43-3.27,5.58-.06,7.73,4.52,11.52,7.57,2.21,1.77,7.09,3.78,10,3.75,3.5-.04,6.25-2.15,10.01-1.73,6.19.68,8.62,5.97,12.32,10.6,2.22,2.77,8.08,13.8,12.04,14.54,7.24,1.34,15-8.95,19.1-13.39,5.54-5.99,8.73-2.6,13.21,3.26,6.09,7.97,9.46,5.07,15.69-2.16,3.24-3.96,6.17-8.12,8.81-12.5,1.37-2.56,2.7-5.14,4.01-7.73,4.05-3.43,7.85-.72,12.49,1.82,5.49,3,6.16,3.96,12.28,2.44,7.03-1.76,8.2-1.49,14.9,2.76,2.91,1.85,6.38,5.74,9.71,6.9,4.97,1.72,7.43-2.77,11.62,1.66,4.07,4.31,3.67,13.06,9.39,16.23,6.13-4.42,11.63.17,18.08-3.88,6.44-4.05,10.8-10.13,18.28-12.43,4.47-1.37,8.33-2.18,12.3-4.8,3.94-2.61,7.99-8.06,13.17-6.99,4.15.86,5.65,5.55,10.66,3.55,1.59-.63,2.62-2.98,4.53-3.44,4.4-1.07,6.82,2.1,9.65,4.5,6.28,5.35,6.71,1.63,11.99-2.49,8.63-6.73,6.14,7.08,11.72,9.29,1.45.58,4.67-1.1,6.23-1.13,4.64-.1,6.33,2.43,10.17,3.91,5.37,2.08,10.8-.41,16.16,1.2,6.99,2.09,7.21,10.5,15.61,7.57,7.19-2.5,11.52-9.16,18.04-12.6,4.3-2.28,11.16-8.67,15.98-8.28,5.09.41,7.24,4.41,10.8,7.17,5.92,4.57,6.37-.24,11.87-1.51,2.62-.6,5.29.14,8-.34,5.57-1,9.81-4.43,14.61-7.13,6.3-3.54,9.11-1.69,13.51,3.48,4.01,4.71,5.67,7.91,12.07,6.07,6.69-1.91,11.91-6.4,18.24-9.2,7.05-3.12,12.56-1.64,18.75,3.08,2.66,2.04,5.17,6.17,8.71,6.86,3.62.7,6.22-2.01,9.43-2.7,6-1.3,11.47,1.63,16.12,5.07,7.43,5.48,7.22,3.22,15.81,1.68,9.35-1.68,13.26,4.57,21.47,6.26,8.49,1.75,16.85-5.69,25.43-5.47,10.67.27,15.9,8.45,27.23,3.41,4.87-2.17,9.62-6.4,15.33-5.16,3.33.72,2.7,2.46,6.38.41,2.83-1.59,4.46-9.36,6.49-12.16,3.73-5.14,5.4-3.27,10.6-2.83,4.89.42,7.51.89,12.25-1.22,7.41-3.29,15.13-9.76,23.33-10.8,5.02-.64,8.93.22,13.89,1.05,4.06.67,6.99-.09,10.91.24,5.96.5,9.58,5.32,15.15,6.75,4.71,1.21,8.28-.2,12.26-2.56,2.65-1.58,5.37-5.73,8.74-5.56,8.21.4,9.83,12.88,19.58,10.91,6.44-1.3,9.03-7.71,14.7-9.36,2.62-2.61,5.58-2.24,8.86,1.1,3.12,2.5,6.25,5.01,9.37,7.51,6.43,5.24,10.6,10.43,19.29,9.37,5.54-.67,10.66-3.29,16.27-2.69,3.89.41,7.23,3.63,10.86,3.98,6.09.59,12.09-6.45,17.16-9.03,5.77-2.93,11.24-3.79,17.68-2.3,4.88,1.14,8.39,4.1,13.67,3.22,5.8-.97,6.92-3.62,14.04-1.81,6.67,1.7,14.07,13.59,21.29,13.22,2.83-.14,5.65-2.59,8.71-2.51,7.27.19,12.23,7.44,16.38,12.14,1.12,1.28,5.98,7.89,9.72,7.24,3.58-.62,5.63-5.7,7.39-8.43,3.7-5.74,5.77-9.89,13.25-10.17,4.85-.18,8.92,1.09,12.54.74Z"/>
  </g>
</svg>