<?xml version="1.0" encoding="UTF-8"?>
<svg id="Layer_2" data-name="Layer 2" xmlns="http://www.w3.org/2000/svg" viewBox="0 0 1366 151.32">
  <defs>
    <style>
      .cls-1 {
        stroke-width: 0px;
      }
    </style>
  </defs>
  <g id="Layer_2-2" data-name="Layer 2">
    <path class="cls-1" d="M1366,58.05v93.27H0V35.27c1.52.88,3.1,2.13,4.98,3.58,6.19,4.77,13.88,7.9,19.8,12.83,2.68,2.24,4.56,6.13,8.63,6.1,3.01-.02,6.99-3.39,9.19-5.15,6.87-5.51,9.05-11.32,15.66-2.44,4.17,5.59,6.19,11.96,9.86,17.68,2.19,3.41,9.34,12.1,13.06,12.44,2.91-4.08,2.15-12.13,9.92-10.41,5.74,1.28,13.5,10.12,16.89,14.74,2.49,3.4,4.16,8.92,9.24,9.09,2.4.08,4.79-1.53,7.39-1.45,5.26.16,9.08,3.8,12.82,7.1,6.1,5.4,15.32,15.91,23.72,10.33,6.41-4.25,8.84-11.73,10.48-18.81,1.06-4.59-.6-10.35.86-14.56.68-1.99,3.15-4.6,5.69-4.29,4.28.52,4.91,6.35,7.73,8.71,2.16-4.09,3.27-7.99,3.66-12.6.19-2.23-.94-6.1-.16-8.09,3.02-7.64,11.33,2.03,13.8,5.5,2.98,4.19,3.74,9.13,6.27,13.52,2.83,4.9,9.28,10.51,14.39,13.05,8.67-4.35,11.26-16.35,20.05-20.64,8.6-4.2,13.76,3.96,20.15,7.77,5.61,3.34,11.37-1.76,16.07-4.74,4.64-2.95,7.76-5.46,13.32-3.89,4.76,1.33,9.79,4.38,13.91,6.84,2.56,1.53,6.79,5.45,10.08,5.34,4.94-.17,11.26-8.62,13.38-12.56,1.88-3.51,1.4-11.23,5.39-13.27,4.3,1.26,3.82,6.78,7.86,8.32,2.94-4.49-.16-10.6,2.89-14.71,2.61-3.52,6.24-1.74,9.34-3.99,5.89-4.28-1.34-13.61,2.76-26.02,3.02-9.14,9.89-14.07,12.45-15.91,3.46-2.48,8.05-5.78,12-4.32,3.08,1.14,3.07,4.16,7.68,13.92,4.35,9.22,5.61,9.17,7.2,14.4,2.05,6.74.13,7.39,1.44,16.32,2.09,14.3,6.24,14.15,6.79,24.09.23,4.15-1.03,8.91,1.79,12.27,3.06,3.65,7.04,3.26,10.75,1.05,3.41-2.04,6.92-4.84,9.44-7.88,3.66-4.41,3.5-8.18,9.71-5.64,4.5,1.85,8.48,9.69,12.89,10.41,4.08.67,3.39-2.16,5.81-3.92,3.84-2.8,9.1-.48,12.63-3.69,2.94-2.68,4.36-8.75,5.79-12.29,2.59-6.43,5.22-13.47,13.49-7.87,4.76,3.22,10.8,13.81,16.72,14.66,5.44.79,7.69-7.29,12.91-8.03,7.15-1.01,10.34,8.18,15.99,10.63,4.49,1.95,6.53-.8,11.05-1.24,10.32-1,18.22,16.61,26.49,7.16,2.42-2.78,4.09-6.06,6.38-8.9,4.55-5.61,9.95-3.28,15.69-.85,2.3.97,4.8,2.87,7.17,3.56,5.54,1.6,9.39-1.62,13.5-4.84,7.3-5.72,13.03-15.52,20.84-20.44,4.82-3.03,9.19.81,14.12.24,6.84-.78,13.28-9.57,17.06-14.22,4.37-5.38,8.19-15.11,14.17-18.88,7.56-4.76,17.14,9.71,23.48,13.51,10.95,6.54,20.95-4.53,30.87-8.6,8.5-3.49,15.7.48,22.88,5.85,8.71,6.52,16.13,15.22,23.08,23.54,4.72,5.64,9.81,19.19,18.63,17.17,6.92-1.58,10.87-7.87,16.26-11.32,5.9-3.79,10.24.39,15.49,3.78,6.26,4.04,5.98.66,10.42-2.71,7.35-5.57,13.29,8.23,17.92,12.85,4.2-2.02,7.72-5.11,12.47-4.92,4.86.2,9.04,2.84,12.51,6.23,2.83,2.76,5.22,6.21,7.62,9.34,1.81,2.37,4.58,7.87,7.53,9.44,4.7-2.52,3.89-4.76,10.19-2.59,4.34,1.5,9.93,7.01,14.35,3.08,2.97-2.66,2.13-8.2,6.46-9.63,5.99-1.99,12.25,5.71,18.74,4.7,7.64-1.2,10.58-9.33,17.17-11.81,6.39-2.41,12.61,4.3,19,2.28,7.41-2.34,7.78-12,12.47-16.74,5.94-5.99,13.84,1.47,19.58,4.25,7.72-2.8,3.11-20.41,14.47-18.23,8.45,1.62,17.35,15.5,22,20.94,5.74,6.71,10.86,13.91,16.69,20.52,5.3-.21,6.08-7.4,7.78-11.29,2.9-6.63,7.22-6.84,13.68-4.91,5.4,1.6,14.12,9.18,20.19,4.6,1.84-1.39,6.53-6.41,8.15-8.1,4.35-4.52,3.61-12.81,8.41-16.68,4.16-3.36,6.97-.75,11.19-1.52,6.19-1.13,5-4.24,7.5-9.07,2.25-4.35,4.45-4.32,9.19-4.6,4.03-.23,4.86.45,7.65-3.21,1.48-1.93,1.75-4.62,3.5-6.39,9.02-9.13,17.89,9.41,21.68,14.55,4.75,6.42,8.9,14.43,15.72,18.84,2.06,1.34,4.28,2.38,6.65,3.12,2.83.82,4.72-.09,5.68-2.74,2.77-3.32,4.66-7.14,5.64-11.48.84-5.14,3.54-8.57,8.12-10.3,6.48,5.63,9.58,12.48,10.83,20.93.66,4.47-.4,8.92,1.82,13.08,5.49,10.3,15.33,4.57,22.86,11.26,4.16,3.71,6.5,15.5,14.52,13.33,2.97-.8,4.28-3.91,7.61-3.55,4.49.49,5.27,6.57,8.53,9.05,4.07-3.32,5.07-9.45,10.92-9.12,2.04.12,4.17,2.01,6.47,2.13,5.82.29,10.38-3.45,14.33-7.23,6.6-6.32,12.61-15.13,20.5-19.82,4.5-2.68,10.09-3.63,15.57-4.14Z"/>
  </g>
</svg>