<?xml version="1.0" encoding="UTF-8"?>
<svg id="Layer_2" data-name="Layer 2" xmlns="http://www.w3.org/2000/svg" viewBox="0 0 1366 156.02">
  <defs>
    <style>
      .cls-1 {
        stroke-width: 0px;
      }
    </style>
  </defs>
  <g id="Layer_2-2" data-name="Layer 2">
    <path class="cls-1" d="M1366,76.71v79.31H0V.23c.91-.02,1.75-.02,2.52-.02C6.35.21,10.63-.42,14.37.5c2.74.66,5.17,2.46,7.65,3.62,3.99,1.88,6.89,1.83,11.15,1.85,6.95,0,12.57.19,19.34,2.29,7.8,2.43,13.67,7.27,21.9,7.19,14.09-.14,28.41-.61,42.49-.03,9.39.38,17.42,7.89,25.92,11.55,8.82,3.8,19.79,1.47,29.32,1.77,8.45.27,16.33,3.65,22.76,9.06,8.7,7.33,19.24,17.95,30.98,19.48,9.93,1.3,20.78.08,30.83.08h41.65c9.34,0,18.91,1.2,27.56-2.86,4.5-2.11,7.21-3.75,12.65-2.62,7.59,1.58,14.38,5.83,22.17,7,7.67,1.15,14.27.13,21.87,2.77,3.93,1.36,7.43,3.22,11.64,3.4,2.88.12,5.81-.56,8.61.22,4.46,1.24,10.4,5.84,14.42,8.28,4.65,2.82,9.63,6.07,14.68,8.19,6.58,2.76,14.14,2.37,21.07,2.33,12.42-.06,25.29-.96,37.69-.18,5.72.36,8.29,3.73,13.28,5.53,4.87,1.74,11.01,2.15,16.05,2.3,7.95.22,15.98-.08,23.94-.07,5.87,0,12.68-1.23,18.07,1.1,12.76,5.51,20.88,17.04,35.17,19.46,14.62,2.48,31.86-3.44,45.68,2.28,15.74,6.52,27.74-9.52,35.94-21.12,7.42-10.49,18.5-12.88,30.87-14.67,10.31-1.5,19.32,4.56,27.38-4.15,3.54-3.82,4.38-5.44,9.71-6.8,6.5-1.67,7.9-.64,13.17-5.47,5.22-4.78,11.85-4.96,18.74-4.92,3.49.02,7.22.44,10.66-.28,6.82-1.43,13.69-6.3,20.66-7.05,5.39-.58,13.18,1.32,17.77,3.63,5.3,2.68,8.97,5.89,14.99,7.12,11.75,2.38,21.2-5.15,32.59-2.04,5.84,1.6,9.48,2.69,15.46.8,7.63-2.4,13.41-6.59,20.41-10.1,10.32-5.18,26.88,4.41,35.29,9.97,3.41,2.25,6.14,4.88,9.96,6.35,7.34,2.81,16.61,1.19,24.41,2.09,28.59,3.29,58,.66,86.77.98,8.69.1,17.01-1.84,25.59-1.99,13.33-.24,26.7.04,40.03.04,9.96,0,20.17-.55,30.13-.1,8.27.38,16.16,1.97,24.58,1.99,6.8.02,10.55-.34,16.53-3.85,4.04-2.36,8.96-4.56,13.82-3.88,14.51,2.03,24.84,15.37,39.46,17.83,6.15,1.04,11.88,1.36,18.09,1.35,4.69-.01,10.58-1.02,15,.6,9.72,3.57,11.99,10.73,23.47,8.67,6.96-1.25,13.05-5.06,19.98-6.5,7.66-1.6,15.51.35,22.97-1.92,3.08-.93,5.92-2.55,8.66-4.36Z"/>
  </g>
</svg>