<?xml version="1.0" encoding="UTF-8"?>
<svg id="Layer_2" data-name="Layer 2" xmlns="http://www.w3.org/2000/svg" viewBox="0 0 1366 112.04">
  <defs>
    <style>
      .cls-1, .cls-2 {
        stroke-width: 0px;
      }

      .cls-2 {
        fill: #fff;
      }
    </style>
  </defs>
  <g id="Layer_2-2" data-name="Layer 2">
    <path class="cls-2" d="M1366,24.75v67.28H0v-59.49c11.99.37,22.35-5.37,33.31-9.8,14.12-5.71,28.49,1.4,41.67,6.32,14.98,5.59,27.59-4.5,40.47-10.6,8.95-4.25,17.02-3.3,27.01-3.3,6.66,0,13.48.55,20.09-.29,15.65-2,30.35-8.52,46.24-9.33,13.04-.66,25.83,1.85,38.39,4.29,6.84,1.33,11.94,5.1,19.1,5.36,8.12.29,14.79-1.88,22.52-3.46,8.4-1.72,16.22.73,24.28,2.99,13.55,3.8,25.4.08,38.73-3.86,8.33-2.47,16.68-4.83,25.02-7.27,3.27-.95,7.32-2.91,10.72-3.42,8.67-1.3,19.7,5.33,27.01,9.32,7.85,4.29,11.49,6.43,20.77,3.85,6.22-1.73,12.93-3.79,19.42-3.98,8.13-.24,16.37,2.09,24.1,4.41,5.67,1.7,11.15,1.41,17.1,1.39,7.1-.03,11.32,1.68,18.23,3.73,6.89,2.03,11.91,3.54,18.03,7.27,2.6,1.57,5.29,3.14,8.07,4.38,6.52,2.9,13.33,5.21,20.23,6.99,15.4,3.98,31.6,2.39,47.44,2.39s32.25.67,48.28.14c9.1-.3,18.2-5.34,27.08-3.74,5.86,1.05,10.02,3.47,14.6,7.04,5.51,4.28,10.27,5.59,17.56,4.99,12.02-.98,23.5-6.89,35.45-8.5,6.26-.84,9.37-.09,15.99-2.55,10.42-3.87,20.29-7.73,31.16-10.31,2.63-.62,5.73-1.69,8.35-2.01,4.83-.6,8.66,2.16,13.16,3.12,8.03,1.73,15.48-1.61,23.46-1.51,3.91.05,7.82-.09,11.72-.05,6.25.08,11.6,1.99,17.93,1.95,5.17-.03,10.95-.71,15.99.43,7.48,1.68,12.55.74,12.42,10.35,6.83,2.19,23.96,4.99,29.84-.02,5.02-4.28,3.85-12.41,9.45-16.51,12.04-8.81,30.14-4.75,43.83-7.16,10.34-1.82,20.88-.35,31.42-2.27,3.31-.6,11.88-3.83,15.91-3.29,4.32,2.09,8.21,4.77,11.69,8.07,4.78,3.91,9.52,7.87,14.21,11.88,8.93,6.99,15.4,8.65,27.02,6.21,9.08-1.91,16.78-6.53,25.26-9.88,5.34-2.11,10.92-3.41,16.63-3.56,7.32-.19,14.42.73,21.12,3.86,16.81,7.85,35.2,16.19,53.08,20.99,18.16,4.88,38.58,7.41,55.68-1.59,13.94-7.33,32.17-3.6,47.2-3.99,7.77-.2,14.54-1.05,21.32-5.34,4.04-2.55,7.36-6.16,11.63-8.36,5.18-2.66,11.46-3.72,17.2-3.65,4.13.05,8.27.08,12.41.09Z"/>
    <path class="cls-1" d="M1366,44.76v67.28H0v-59.49c11.99.37,22.35-5.37,33.31-9.8,14.12-5.71,28.49,1.4,41.67,6.32,14.98,5.59,27.59-4.5,40.47-10.6,8.95-4.25,17.02-3.3,27.01-3.3,6.66,0,13.48.55,20.09-.29,15.65-2,30.35-8.52,46.24-9.33,13.04-.66,25.83,1.85,38.39,4.29,6.84,1.33,11.94,5.1,19.1,5.36,8.12.29,14.79-1.88,22.52-3.46,8.4-1.72,16.22.73,24.28,2.99,13.55,3.8,25.4.08,38.73-3.86,8.33-2.47,16.68-4.83,25.02-7.27,3.27-.95,7.32-2.91,10.72-3.42,8.67-1.3,19.7,5.33,27.01,9.32,7.85,4.29,11.49,6.43,20.77,3.85,6.22-1.73,12.93-3.79,19.42-3.98,8.13-.24,16.37,2.09,24.1,4.41,5.67,1.7,11.15,1.41,17.1,1.39,7.1-.03,11.32,1.68,18.23,3.73,6.89,2.03,11.91,3.54,18.03,7.27,2.6,1.57,5.29,3.14,8.07,4.38,6.52,2.9,13.33,5.21,20.23,6.99,15.4,3.98,31.6,2.39,47.44,2.39s32.25.67,48.28.14c9.1-.3,18.2-5.34,27.08-3.74,5.86,1.05,10.02,3.47,14.6,7.04,5.51,4.28,10.27,5.59,17.56,4.99,12.02-.98,23.5-6.89,35.45-8.5,6.26-.84,9.37-.09,15.99-2.55,10.42-3.87,20.29-7.73,31.16-10.31,2.63-.62,5.73-1.69,8.35-2.01,4.83-.6,8.66,2.16,13.16,3.12,8.03,1.73,15.48-1.61,23.46-1.51,3.91.05,7.82-.09,11.72-.05,6.25.08,11.6,1.99,17.93,1.95,5.17-.03,10.95-.71,15.99.43,7.48,1.68,12.55.74,12.42,10.35,6.83,2.19,23.96,4.99,29.84-.02,5.02-4.28,3.85-12.41,9.45-16.51,12.04-8.81,30.14-4.75,43.83-7.16,10.34-1.82,20.88-.35,31.42-2.27,3.31-.6,11.88-3.83,15.91-3.29,4.32,2.09,8.21,4.77,11.69,8.07,4.78,3.91,9.52,7.87,14.21,11.88,8.93,6.99,15.4,8.65,27.02,6.21,9.08-1.91,16.78-6.53,25.26-9.88,5.34-2.11,10.92-3.41,16.63-3.56,7.32-.19,14.42.73,21.12,3.86,16.81,7.85,35.2,16.19,53.08,20.99,18.16,4.88,38.58,7.41,55.68-1.59,13.94-7.33,32.17-3.6,47.2-3.99,7.77-.2,14.54-1.05,21.32-5.34,4.04-2.55,7.36-6.16,11.63-8.36,5.18-2.66,11.46-3.72,17.2-3.65,4.13.05,8.27.08,12.41.09Z"/>
  </g>
</svg>