<?xml version="1.0" encoding="UTF-8"?>
<svg id="Layer_2" data-name="Layer 2" xmlns="http://www.w3.org/2000/svg" viewBox="0 0 1366 93.77">
  <defs>
    <style>
      .cls-1 {
        stroke-width: 0px;
      }
    </style>
  </defs>
  <g id="Layer_2-2" data-name="Layer 2">
    <path class="cls-1" d="M1366,28.04v65.73H0V17.23c4.89-1.6,8.99-2.2,14.42-2.2,6.29,0,12.48.22,18.02-2.97,3.67-2.11,6.76-4.81,10.71-6.66,6.46-3.01,8.58-.38,14.97.21,8.91.82,18.83-1.82,27.58.05,10.19,2.19,14.75,14.56,23.91,19.02,8.67,4.22,19.27-1.42,27.63-4.86,6.25-2.58,13.32-7.52,20.32-6.86,6.26.58,9.06,5.07,14.48,7.54,6.33,2.89,11.85.34,17.7-2.57,3.65-1.82,8.34-5.67,12.29-6.65,5.24-1.28,10.38,1.54,14.71,4.13,4.86,2.91,9.62,6.31,15.15,7.84,7.63,2.11,15.8-.08,23.47-1.55,7.9-1.52,14.22-2.86,22.21-2.86,13.87,0,27.75.07,41.63,0,4.73-.02,8.82-.28,13.4,1.02,5.99,1.7,11.26,5.26,17.14,7.19,6.13,2.01,13.21-3.5,19.83-4.46,5.22-.76,9.23-.79,14.5-2.9,7.64-3.04,14.12-8.56,22.82-6.31,11.44,2.97,15.54,17.1,28.41,13.18,3-.92,5.65-3.02,8.62-3.77,3.92-.99,7.26.61,10.99,1.33,4.18.82,9.14,1.04,13.32.1,7.33-1.65,8.98-4.3,16.64-2.63,2.62.57,5.25,1.16,7.74,2.16,2.23.9,4.24,2.97,6.37,3.66,7.3,2.39,18.01-5.55,25.32-8.3,4.74-1.79,13.39-5.75,18.64-5.77,4.51-.02,9.62,4.38,14.17,5.37,5.58,1.2,10.53,1.23,16.18.18,6.27-1.17,10.5-2.5,16.6.1,8.34,3.56,13.98,11.27,21.54,16,5.6,3.51,10.65,5.24,17.32,5.67,8.69.55,18.76-.54,27.36-1.78,6.02-.87,11.68-2.81,17.76-2.98,8.55-.24,15.08,2.52,22.21,7.44,4.54,3.15,9,8.34,14.26,9.99,4.91,1.55,13.13-1.79,18.06-2.99,8.99-2.18,17.81-4.85,26.57-7.82,9.58-3.25,19.33-6.42,29.12-9.01,7.45-1.97,14.95-1.24,22.61-2.37,9.12-1.34,18.35-3.67,26.79-7.46,11.15-5.01,19.02-14.19,29.5-20.11,4.08-2.31,6.85-3.74,11.62-3.57,5.7.21,10.94,3.51,16.16,5.6,17.01,6.83,32.15,1.5,49.47-.04,6.47-.58,13.3,2.67,19.4,4.54,9.55,2.93,17.36,2.91,27.39,1.21,7.14-1.21,15.72-4.54,22.82-2.01,6.52,2.33,10.41,6.65,15.11,11.29,12.02,11.88,29.48,9.7,45.2,9.67,18.2-.05,35.51-.45,53.54-3.43,13.86-2.28,27.24,2.39,40.91,1.64,5.16-.29,9.22-2.77,13.97-4.82,4.94-2.13,13-8.17,18.76-6.1,6.85,2.45,12.96,16.17,21.87,9.67,2.05-1.49,2.07-4.44,3.72-6.21,2.24-2.4,3.53-1.98,6.61-2.71,1.97-.46,5.57-1.9,7.87-1.32,4.73,1.18,5.25,6.72,8.76,9.33,9.77,7.25,32.04-.81,42.02-3.82,6.56-1.97,13.78-2.87,20.62-2.54,7.17.36,14.29,1.34,21.4,2.26,6.49.84,14.69-2.04,20.29.65,3.58,1.73,4.64,4.51,9.08,5.46,2.3.49,4.4.28,6.42-.29Z"/>
  </g>
</svg>