<?xml version="1.0" encoding="UTF-8"?>
<svg id="Layer_2" data-name="Layer 2" xmlns="http://www.w3.org/2000/svg" viewBox="0 0 518.69 676.41">
  <defs>
    <style>
      .cls-1 {
        stroke-width: 0px;
      }
    </style>
  </defs>
  <g id="Logo">
    <g>
      <path class="cls-1" d="M0,172.41L32.13,2.31h42.84l31.71,170.1h-34.65l-5.67-35.91h-24.99l-5.88,35.91H0ZM44.73,114.03h18.06l-9.03-66.36-9.03,66.36Z"/>
      <path class="cls-1" d="M123.9,172.41V2.31h26.46l34.86,81.9V2.31h31.08v170.1h-25.41l-34.86-88.2v88.2h-32.13Z"/>
      <path class="cls-1" d="M257.04,172.41V30.24h-25.62V2.31h88.83v27.93h-25.41v142.17h-37.8Z"/>
      <path class="cls-1" d="M335.15,172.41V2.31h76.44v25.62h-38.85v42.21h29.61v26.04h-29.61v50.82h39.27v25.41h-76.86Z"/>
      <path class="cls-1" d="M474.17,174.93c-10.64,0-19.53-1.89-26.67-5.67-7.14-3.78-12.53-9.62-16.17-17.54-3.64-7.91-5.67-18.17-6.09-30.77l32.13-4.83c.14,7.28.8,13.16,2,17.64,1.19,4.48,2.87,7.7,5.04,9.66,2.17,1.96,4.79,2.94,7.88,2.94,3.92,0,6.47-1.33,7.67-3.99,1.19-2.66,1.78-5.46,1.78-8.4,0-7-1.68-12.92-5.04-17.74-3.36-4.83-7.91-9.69-13.65-14.6l-14.7-12.81c-6.44-5.46-11.87-11.65-16.28-18.58-4.41-6.93-6.61-15.5-6.61-25.73,0-14.42,4.27-25.44,12.81-33.07,8.54-7.63,20.16-11.45,34.86-11.45,9.1,0,16.41,1.54,21.94,4.62,5.53,3.08,9.73,7.11,12.6,12.08,2.87,4.97,4.83,10.22,5.88,15.75,1.05,5.53,1.64,10.81,1.79,15.85l-32.34,3.99c-.14-5.04-.46-9.41-.95-13.12-.49-3.71-1.51-6.58-3.04-8.61-1.54-2.03-3.92-3.04-7.14-3.04-3.5,0-6.06,1.47-7.67,4.41-1.61,2.94-2.42,5.88-2.42,8.82,0,6.3,1.5,11.44,4.51,15.44,3.01,3.99,6.96,8.16,11.87,12.49l14.07,12.39c7.42,6.3,13.68,13.44,18.8,21.42,5.11,7.98,7.66,17.85,7.66,29.61,0,7.98-1.82,15.22-5.46,21.73-3.64,6.51-8.79,11.65-15.43,15.44-6.65,3.78-14.53,5.67-23.62,5.67Z"/>
      <path class="cls-1" d="M8.19,424.41v-170.1h43.05c14.84,0,26.39,1.86,34.65,5.56,8.26,3.71,14.07,9.52,17.43,17.43,3.36,7.91,5.04,18.17,5.04,30.77v61.74c0,12.74-1.68,23.14-5.04,31.18-3.36,8.05-9.13,13.96-17.33,17.75-8.19,3.78-19.63,5.67-34.33,5.67H8.19ZM45.78,398.37h5.88c5.74,0,9.87-.84,12.39-2.52,2.52-1.68,4.1-4.2,4.73-7.56s.94-7.56.94-12.6v-74.13c0-5.04-.39-9.1-1.15-12.18-.77-3.08-2.42-5.32-4.94-6.72-2.52-1.4-6.58-2.1-12.18-2.1h-5.67v117.81Z"/>
      <path class="cls-1" d="M179.97,426.93c-12.74,0-22.82-2.24-30.24-6.72-7.42-4.48-12.74-10.92-15.96-19.32-3.22-8.4-4.83-18.41-4.83-30.03v-63.21c0-11.76,1.61-21.77,4.83-30.03,3.22-8.26,8.54-14.59,15.96-19,7.42-4.41,17.5-6.62,30.24-6.62s23.06,2.21,30.56,6.62c7.49,4.41,12.84,10.75,16.06,19,3.22,8.26,4.83,18.27,4.83,30.03v63.21c0,11.62-1.61,21.63-4.83,30.03-3.22,8.4-8.58,14.84-16.06,19.32-7.49,4.48-17.68,6.72-30.56,6.72ZM179.97,400.26c3.92,0,6.79-.98,8.61-2.94,1.82-1.96,3.01-4.48,3.57-7.56.56-3.08.84-6.23.84-9.45v-81.9c0-3.36-.28-6.54-.84-9.56-.56-3.01-1.75-5.49-3.57-7.45-1.82-1.96-4.69-2.94-8.61-2.94-3.64,0-6.37.98-8.19,2.94-1.82,1.96-3.01,4.45-3.57,7.45-.56,3.01-.84,6.2-.84,9.56v81.9c0,3.22.24,6.37.73,9.45.49,3.08,1.61,5.6,3.36,7.56,1.75,1.96,4.58,2.94,8.5,2.94Z"/>
      <path class="cls-1" d="M8.19,676.41v-170.1h73.5v25.41h-35.91v42.84h31.29v26.25h-31.29v75.6H8.19Z"/>
      <path class="cls-1" d="M99.33,676.41v-170.1h76.44v25.62h-38.85v42.21h29.61v26.04h-29.61v50.82h39.27v25.41h-76.86Z"/>
      <path class="cls-1" d="M193.2,676.41v-170.1h76.44v25.62h-38.85v42.21h29.61v26.04h-29.61v50.82h39.27v25.41h-76.86Z"/>
      <path class="cls-1" d="M287.06,676.41v-170.1h43.05c14.84,0,26.39,1.86,34.65,5.56,8.26,3.71,14.07,9.52,17.43,17.43,3.36,7.91,5.04,18.17,5.04,30.77v61.74c0,12.74-1.68,23.14-5.04,31.18-3.36,8.05-9.14,13.96-17.33,17.75-8.19,3.78-19.64,5.67-34.33,5.67h-43.47ZM324.65,650.37h5.88c5.74,0,9.87-.84,12.39-2.52,2.52-1.68,4.09-4.2,4.72-7.56.63-3.36.95-7.56.95-12.6v-74.13c0-5.04-.39-9.1-1.16-12.18-.77-3.08-2.42-5.32-4.93-6.72-2.52-1.4-6.58-2.1-12.18-2.1h-5.67v117.81Z"/>
    </g>
  </g>
</svg>