<?xml version="1.0" encoding="UTF-8"?>
<svg id="Layer_2" data-name="Layer 2" xmlns="http://www.w3.org/2000/svg" viewBox="0 0 250.18 327.36">
  <defs>
    <style>
      .cls-1 {
        fill: #ddd9cd;
        stroke-width: 0px;
      }
    </style>
  </defs>
  <g id="Layer_5" data-name="Layer 5">
    <path class="cls-1" d="M181.87,274.13c-4.84-.82-10.59-2.16-16.86-4.44-6.78-2.45-12.4-5.32-16.86-7.98-11.87-7.33-33.11-26.65-33.11-26.65,0,0,18.12,11.3,34.11,19.47,3.27-25.15,4.97-58.33-.12-96.62-3.92-29.57-10.93-54.98-18.22-75.49-13.34-4.24-22.69-5.46-22.69-5.46,6.48-.13,18.2,1.11,28.51,2.69,37.57,5.08,64.37,20.74,76.28,28.58.44-10.45,2.29-25.62,8.87-42.58,8.29-21.38,20.37-36.04,28.39-44.36-5.02-2.48-10.4-5.41-15.97-8.87-6.71-4.15-12.6-8.37-17.74-12.42-20.09,13.4-59.26,35.63-113.56,42.58-44.48,5.7-80.96-1.15-102.91-7.1,5.89,5.96,15.35,17.09,21.29,33.71,4.31,12.07,5.27,22.8,5.32,30.16,10.98-5.82,31.9-15.47,59.87-19.5,5.59,26.74,10.2,66.63,2.24,113.54-6.69,39.44-20,70.44-31.05,91.38.14,4.83.96,12.21,4.44,20.4,4.95,11.68,12.65,18.81,16.86,22.18,7.22-6,20.01-15.01,38.15-20.4,22.04-6.56,40.83-4.45,50.57-2.66.12-3.39.71-8.09,2.66-13.31,3.21-8.55,8.45-14.07,11.53-16.86Z"/>
  </g>
</svg>