<?xml version="1.0" encoding="UTF-8"?>
<svg id="Layer_2" data-name="Layer 2" xmlns="http://www.w3.org/2000/svg" viewBox="0 0 1003.38 365.21">
  <defs>
    <style>
      .cls-1 {
        fill: #ddd9cd;
        stroke-width: 0px;
      }
    </style>
  </defs>
  <g id="Layer_5" data-name="Layer 5">
    <g>
      <path class="cls-1" d="M181.87,274.13c-4.84-.82-10.59-2.16-16.86-4.44-6.78-2.45-12.4-5.32-16.86-7.98-11.87-7.33-33.11-26.65-33.11-26.65,0,0,18.12,11.3,34.11,19.47,3.27-25.15,4.97-58.33-.12-96.62-3.92-29.57-10.93-54.98-18.22-75.49-13.34-4.24-22.69-5.46-22.69-5.46,6.48-.13,18.2,1.11,28.51,2.69,37.57,5.08,64.37,20.74,76.28,28.58.44-10.45,2.29-25.62,8.87-42.58,8.29-21.38,20.37-36.04,28.39-44.36-5.02-2.48-10.4-5.41-15.97-8.87-6.71-4.15-12.6-8.37-17.74-12.42-20.09,13.4-59.26,35.63-113.56,42.58-44.48,5.7-80.96-1.15-102.91-7.1,5.89,5.96,15.35,17.09,21.29,33.71,4.31,12.07,5.27,22.8,5.32,30.16,10.98-5.82,31.9-15.47,59.87-19.5,5.59,26.74,10.2,66.63,2.24,113.54-6.69,39.44-20,70.44-31.05,91.38.14,4.83.96,12.21,4.44,20.4,4.95,11.68,12.65,18.81,16.86,22.18,7.22-6,20.01-15.01,38.15-20.4,22.04-6.56,40.83-4.45,50.57-2.66.12-3.39.71-8.09,2.66-13.31,3.21-8.55,8.45-14.07,11.53-16.86Z"/>
      <path class="cls-1" d="M643.19,128.64c7.2-4.06,15.9-9.78,24.84-17.74,8.4-7.48,14.78-14.94,19.52-21.29-1.23-6.51-2.21-14.97-1.77-24.84.41-9.16,1.92-16.97,3.55-23.07-8.41,1.32-19.68,2.23-32.82.89-14.92-1.52-27.01-5.41-35.49-8.87,5.96,10.35,13.11,25.31,17.74,44.36,4.98,20.47,5.22,38.19,4.44,50.57Z"/>
      <path class="cls-1" d="M418.74,293.65c-3.75-4.63-7.68-7.76-10.65-9.76-8.52,2.45-35.03,8.85-63.88-3.55-44.09-18.95-54.84-65.21-55.89-70.09,22.92-12.46,34.21-38.91,27.5-62.99-7.31-26.24-34.28-43.58-62.49-39.03-6.5,4.07-22.34,12.76-43.97,12.42-29.75-.46-49.29-17.67-54.12-22.18,6.07,23.21,11.59,52.3,13.31,86.05,1.42,27.96-.09,52.82-2.66,73.63,5.46,1.87,11.38,3.68,17.74,5.32,4.42,1.14,8.68,2.1,12.77,2.92,7.63.99,15.53,1.24,23.02,1.44,0,0-12.51,3.05-23.99,3.94-4.45,5.48-9.7,13.33-13.58,23.64-5.31,14.13-5.66,26.52-5.32,33.71,8.52-1.34,19.77-2.23,32.82-.89,17.61,1.81,31.56,6.95,40.81,11.25-5.15-14.03-10.17-30.27-14.19-48.51-2.91-13.2-4.92-25.69-6.28-37.29h0c-2.37-15.27-5.74-35.13-9.36-64.73,0,0,6.08,24.45,12.35,46.37,18.15,12.69,42.11,32.77,63.62,62.75,16.43,22.91,26.63,44.85,33.04,62.1,4.56-2.09,12.9-5.22,23.74-5.32,11.44-.11,20.21,3.19,24.84,5.32,4.32-7.45,10.08-16.04,17.74-24.84,10.87-12.49,22.01-21.38,31.05-27.5-1.3-3.62-3.66-8.85-7.98-14.19ZM261.71,171.22c-2.86,2.36-7.91,5.89-15.08,7.98-8.94,2.61-16.55,1.6-20.4.82v-17.67c2.86.21,6.88.2,11.53-.89,5.59-1.3,9.79-3.57,12.42-5.29.94.14,5.61.96,8.87,5.29,3.18,4.22,2.77,8.78,2.66,9.76Z"/>
      <path class="cls-1" d="M233.32,91.38c7.24,2,18.79,4.21,32.82,2.66,9.98-1.1,18.12-3.77,23.95-6.21,2.38.85,42.32,15.94,51.46,58.55,5.99,27.92-3.52,57.08-24.84,76.3,2.17,5.46,11.39,26.86,35.49,39.04,18.94,9.57,37.21,8.47,48.34,6.3-14.42-11.25-33.51-24.33-33.51-24.33,15.67,5.27,27.28,10.94,43.64,21.6.02,0,.06-.02.08-.03,1.87,1.17,3.91,2.54,6.07,4.12,0,0,0,0,0,0h0c4.71,3.45,9.99,7.91,15.22,13.62,7.74,8.45,12.77,16.76,15.97,23.07,4.97.51,10.98.69,17.74,0,11.22-1.15,20.28-4.29,26.61-7.1-5.34-10.42-12.76-28.25-14.19-51.46-.99-16.02,1.19-29.47,3.55-39.03-7.39-8.58-14.79-17.15-22.18-25.73-6.2,4.1-15.77,9.35-28.39,12.42-18.6,4.53-34.25,1.99-42.58,0-.82-5.35-1.47-11.29-1.77-17.74-.27-5.73-.23-11.08,0-15.97,4.87-.97,9.73-1.95,14.6-2.92,3.59-7.43,7.63-14.5,7.63-14.5-1.22,2.84-5.55,18.81-7.15,29.8,12.12-.58,24.25-1.15,36.37-1.73-.06-7.15.36-15.54,1.77-24.84,1.34-8.79,3.28-16.53,5.32-23.07-3.3.35-9.19.53-15.97-1.77-5.88-1.99-10.02-5.03-12.42-7.1-3.53,3.11-9.42,7.54-17.74,10.65-7.08,2.64-13.38,3.38-17.74,3.55-2.08-7.73-4.01-16.65-5.32-26.61-1.39-10.49-1.83-20.05-1.77-28.39,3.91,1.9,9.3,4.03,15.97,5.32,5.33,1.03,10.12,1.27,14.12,1.16-1.48-15.84-4-29.79-4-29.79,0,0,8.47,26.34,12.73,45.58,4.51.56,9.02,1.13,13.53,1.69,4.73.59,9.46,1.18,14.19,1.77,2.79-9.91,6.27-20.63,10.65-31.94,4.55-11.77,9.39-22.43,14.19-31.94-8.28-5.91-16.56-11.83-24.84-17.74-17.77,5.8-45.88,12.65-80.73,11.53-33.89-1.08-60.87-9.27-78.07-15.97-8.96,7.52-21.26,19.62-31.94,37.26-9.21,15.21-14.12,29.44-16.86,39.92Z"/>
      <path class="cls-1" d="M636.09,268.81c-2.36-11.87-4.49-24.59-6.21-38.15-1.74-13.75-2.87-26.79-3.55-39.04-5.77,1.08-12.99,1.95-21.29,1.77-4.21-.08-8.13-.43-11.75-.92h-.02c-15.95-1.86-29.5-6.28-51.33-18.04,0,0,22.76,8.57,43.65,12.38,7.69-4.59,17.3-11.54,26.54-21.81,10.01-11.14,15.99-22.21,19.52-30.16-3.87-10.06-7.67-21.95-10.65-35.49-2.55-11.66-4.05-22.43-4.86-31.97-15.12-.25-38.24-2.43-64.34-12.38-28.73-10.97-48.72-26.63-60.33-37.26-4.92,7.24-10.31,16.41-15.08,27.5-4.21,9.78-7,18.85-8.87,26.61,7.4,3.41,14.8,6.83,22.19,10.24,17.13,6.53,30.25,7.73,42.35,9.96,0,0-23.14-.3-39.55-2.85,7.69,27.47,14.8,61.74,17.6,101.53,3.05,43.44.09,81.25-4.39,111.16,16.35-5.55,32.78-12.68,32.78-12.68-7.86,5.45-28.87,20.58-55,27.5-14.36,4.11-26.95,4.21-35.49,3.55-6.64,3.37-15.75,8.91-24.84,17.74-8.59,8.35-14.2,16.76-17.74,23.07,20.8,3.96,82.8,12.94,148.16-20.4,43.93-22.41,69.93-54.02,82.51-71.86ZM558.91,115.33c4.97.75,9.46.94,13.31.89.55,2.31,1.38,5.04,2.66,7.98,1.4,3.23,3,5.89,4.44,7.98-2.98,1.61-6.3,3.66-9.76,6.21-3.5,2.57-6.44,5.18-8.87,7.56-5.32-2.52-10.65-5.04-15.97-7.56-.62-5.86-1.21-11.78-1.77-17.74-.3-3.26-.6-6.51-.89-9.76,4.47,1.7,10.15,3.42,16.86,4.44ZM571.33,264.37c-5.25,3.44-10.2,5.64-14.19,7.1v-39.48c3.21,1.99,8.68,4.79,15.97,5.77,4.19.57,7.84.37,10.65,0,.59,4.74,1.19,9.46,1.77,14.19-3.14,3.64-7.79,8.22-14.19,12.42Z"/>
      <path class="cls-1" d="M989.18,171.22c-1.67-42.84,4.27-78.78,10.65-104.68-4.8-4.32-9.91-9.33-15.08-15.08-5.55-6.17-10.26-12.17-14.23-17.74-11.37,4.52-29.84,10.26-53.19,10.65-24.67.41-44.2-5.33-55.89-9.76-2.24,4.28-5.14,9.13-8.87,14.19-3.64,4.94-7.3,9.06-10.65,12.42-3.3,29.88-4.77,84.67,22.18,142.83,9.46,20.41,20.53,37.19,31.05,50.57-.19,5.66-1.3,15.78-7.1,26.61-3.99,7.44-8.81,12.66-12.42,15.97,4.83,4.61,10.63,11.03,15.97,19.52,4.06,6.45,6.88,12.56,8.87,17.74,13.56-7.76,28.94-15.65,46.13-23.07,13.05-5.63,25.54-10.3,37.26-14.19,1.6-5.24,3.86-11.28,7.1-17.74,4.02-8.01,8.46-14.5,12.42-19.52-6.55-22.94-12.81-53.08-14.19-88.72ZM947.04,230.87c3.78,19.59,12.12,37.94,12.12,37.94,0,0-12.6-18.01-21.31-35.88-13.61-15.39-29.88-38.16-40.93-68.8-8.14-22.56-11.16-43.09-12.12-59.06-15.38-10.03-25.53-22.33-25.53-22.33,0,0,11.71,9.54,25.78,15.96,7.22,2.91,19.87,6.86,35.82,5.99,7.43-.4,13.91-1.76,19.26-3.36,7.71-18.45,20.1-31.81,20.1-31.81,0,0-9.35,18.06-13.62,37.1-2.74,15.28-4.83,32.79-5.33,52.19-.7,27.52,2,51.85,5.77,72.06Z"/>
      <path class="cls-1" d="M853.45,232.44c-8.88-15.37-12.55-29.64-14.19-39.04l-11.94,19.12c3.12,19.6,8.57,48.63,8.57,48.63-2.69-8.52-8.14-27.56-12.33-42.6l-.09.15c-5.38-20.26-10.76-40.51-16.15-60.77-14.49,16.26-28.98,32.53-43.47,48.79-3.38-15.23-6.3-34.82-6.21-57.67.1-23.25,3.29-43.21,6.97-58.82,2.21-11.02,5.05-19.89,11.23-30.17,0,0-4.06,15.68-5.85,33.15,3.71,5.24,9.4,11.61,17.81,16.82,16.81,10.41,33.53,9.43,39.03,8.87-1.91-13.54-3.11-30.41-1.77-49.68,1.06-15.25,3.47-28.69,6.21-39.92-14.89,1.92-33.96,3.02-55.89.89-19.2-1.87-35.67-5.73-48.79-9.76-9.31,29.16-18.8,69.45-20.4,117.99-1.28,38.84,2.83,72.33,7.98,98.47,6.63,6.44,14.07,14.65,21.29,24.84,9.2,12.98,15.37,25.37,19.52,35.49,4.2-11.34,8.63-22.88,13.31-34.6,4.1-10.28,8.25-20.34,12.42-30.16,1.68,13.49,5.92,34.21,17.74,56.78,10.35,19.74,22.74,33.72,31.94,42.58,3.99-9.83,9.65-21.45,17.74-33.71,10.18-15.43,21.07-27.09,30.16-35.49-6.95-6.06-16.59-15.89-24.84-30.16Z"/>
      <path class="cls-1" d="M707.07,253.41c-5.66-8.54-15.04-25.62-17.74-69.45-1.29-20.84-1.22-50.29,5.11-85.48-7.53,9.93-17.63,21.48-30.84,32.95-10.31,8.95-20.33,15.94-29.21,21.37,6.54,17.3,13.09,38.53,17.67,63.22,4.54,24.45,6.08,46.49,6.21,65.07,15.01-4.97,31.5-11.6,31.5-11.6-14.32,10.11-19.16,13.97-43.91,22.22-5.88,2.25-11.45,3.99-16.57,5.34-2.33,6.85-5.55,14.74-10.04,23.15-4.09,7.67-8.4,14.19-12.42,19.59,16.92-5.61,37.83-11.05,62.1-14.25,20.99-2.76,39.88-3.24,55.89-2.67-.41-6.33-.51-13.51,0-21.37.61-9.42,1.97-17.79,3.55-24.93-5.96-4.76-14.08-12.27-21.29-23.15Z"/>
    </g>
  </g>
</svg>