<?xml version="1.0" encoding="UTF-8"?>
<svg id="Layer_2" data-name="Layer 2" xmlns="http://www.w3.org/2000/svg" viewBox="0 0 188.14 113.94">
  <defs>
    <style>
      .cls-1 {
        stroke-dasharray: 0 0 2.01 2.01;
      }

      .cls-1, .cls-2, .cls-3, .cls-4, .cls-5, .cls-6 {
        fill: none;
        stroke: #f2e9dc;
        stroke-linejoin: round;
        stroke-width: .5px;
      }

      .cls-2 {
        stroke-dasharray: 0 0 1.98 1.98;
      }

      .cls-3 {
        stroke-dasharray: 0 0 2 2;
      }

      .cls-4 {
        stroke-dasharray: 0 0 1.87 1.87;
      }

      .cls-6 {
        stroke-dasharray: 0 0 2 2;
      }
    </style>
  </defs>
  <g id="Layer_3" data-name="Layer 3">
    <g>
      <g>
        <g>
          <polyline class="cls-5" points="108.23 94.28 109.18 93.98 109.18 94.98"/>
          <line class="cls-4" x1="109.18" y1="96.85" x2="109.18" y2="103.39"/>
          <polyline class="cls-5" points="109.18 104.32 109.18 105.32 108.23 105.62"/>
          <line class="cls-2" x1="106.35" y1="106.22" x2="84.7" y2="113.09"/>
          <polyline class="cls-5" points="83.76 113.39 82.8 113.69 82.8 112.69"/>
          <line class="cls-4" x1="82.8" y1="110.82" x2="82.8" y2="104.29"/>
          <polyline class="cls-5" points="82.8 103.35 82.8 102.35 83.76 102.05"/>
          <polyline class="cls-2" points="85.64 101.45 87.74 100.78 107.29 94.58"/>
        </g>
        <g>
          <polyline class="cls-5" points="81.83 102.14 82.8 102.35 82.8 103.35"/>
          <line class="cls-4" x1="82.8" y1="105.22" x2="82.8" y2="111.76"/>
          <polyline class="cls-5" points="82.8 112.69 82.8 113.69 81.83 113.48"/>
          <line class="cls-1" x1="79.86" y1="113.07" x2="2.21" y2="96.55"/>
          <polyline class="cls-5" points="1.23 96.34 .25 96.13 .25 95.13"/>
          <line class="cls-4" x1=".25" y1="93.26" x2=".25" y2="86.73"/>
          <polyline class="cls-5" points=".25 85.79 .25 84.79 1.23 85"/>
          <polyline class="cls-1" points="3.2 85.42 21.8 89.37 80.84 101.93"/>
        </g>
        <g>
          <path class="cls-5" d="M108.2,93.78l.98.21-.95.3"/>
          <polyline class="cls-6" points="106.32 94.89 82.8 102.35 2.21 85.21"/>
          <polyline class="cls-5" points="1.23 85 .25 84.79 1.2 84.49"/>
          <path class="cls-3" d="M3.11,83.9l23.56-7.38c26.85,5.68,53.7,11.37,80.56,17.05"/>
        </g>
      </g>
      <g>
        <g>
          <polyline class="cls-5" points="134.54 68.77 135.49 68.47 135.49 69.47"/>
          <line class="cls-4" x1="135.49" y1="71.34" x2="135.49" y2="77.88"/>
          <polyline class="cls-5" points="135.49 78.81 135.49 79.81 134.54 80.11"/>
          <line class="cls-2" x1="132.66" y1="80.71" x2="111.01" y2="87.58"/>
          <polyline class="cls-5" points="110.07 87.88 109.11 88.18 109.11 87.18"/>
          <line class="cls-4" x1="109.11" y1="85.31" x2="109.11" y2="78.77"/>
          <polyline class="cls-5" points="109.11 77.84 109.11 76.84 110.06 76.54"/>
          <polyline class="cls-2" points="111.95 75.94 114.05 75.27 133.6 69.07"/>
        </g>
        <g>
          <polyline class="cls-5" points="108.13 76.63 109.11 76.84 109.11 77.84"/>
          <line class="cls-4" x1="109.11" y1="79.71" x2="109.11" y2="86.25"/>
          <polyline class="cls-5" points="109.11 87.18 109.11 88.18 108.13 87.97"/>
          <line class="cls-1" x1="106.17" y1="87.55" x2="28.52" y2="71.04"/>
          <polyline class="cls-5" points="27.54 70.83 26.56 70.62 26.56 69.62"/>
          <line class="cls-4" x1="26.56" y1="67.75" x2="26.56" y2="61.21"/>
          <polyline class="cls-5" points="26.56 60.28 26.56 59.28 27.54 59.49"/>
          <polyline class="cls-1" points="29.51 59.91 48.11 63.86 107.15 76.42"/>
        </g>
        <g>
          <path class="cls-5" d="M134.51,68.27l.98.21-.95.3"/>
          <polyline class="cls-6" points="132.63 69.38 109.11 76.84 28.52 59.7"/>
          <polyline class="cls-5" points="27.54 59.49 26.56 59.28 27.51 58.98"/>
          <path class="cls-3" d="M29.42,58.39l23.56-7.38c26.85,5.68,53.7,11.37,80.56,17.05"/>
        </g>
      </g>
      <g>
        <g>
          <polyline class="cls-5" points="160.63 43.53 161.58 43.23 161.58 44.23"/>
          <line class="cls-4" x1="161.58" y1="46.1" x2="161.58" y2="52.63"/>
          <polyline class="cls-5" points="161.58 53.57 161.58 54.57 160.63 54.87"/>
          <line class="cls-2" x1="158.74" y1="55.47" x2="137.09" y2="62.34"/>
          <polyline class="cls-5" points="136.15 62.63 135.2 62.94 135.2 61.94"/>
          <line class="cls-4" x1="135.2" y1="60.07" x2="135.2" y2="53.53"/>
          <polyline class="cls-5" points="135.2 52.6 135.2 51.6 136.15 51.29"/>
          <polyline class="cls-2" points="138.03 50.7 140.14 50.03 159.68 43.83"/>
        </g>
        <g>
          <polyline class="cls-5" points="134.22 51.39 135.2 51.6 135.2 52.6"/>
          <line class="cls-4" x1="135.2" y1="54.47" x2="135.2" y2="61"/>
          <polyline class="cls-5" points="135.2 61.94 135.2 62.94 134.22 62.73"/>
          <line class="cls-1" x1="132.26" y1="62.31" x2="54.61" y2="45.79"/>
          <polyline class="cls-5" points="53.63 45.59 52.65 45.38 52.65 44.38"/>
          <line class="cls-4" x1="52.65" y1="42.51" x2="52.65" y2="35.97"/>
          <polyline class="cls-5" points="52.65 35.04 52.65 34.04 53.63 34.25"/>
          <polyline class="cls-1" points="55.59 34.66 74.2 38.62 133.24 51.18"/>
        </g>
        <g>
          <path class="cls-5" d="M160.6,43.02c.33.07.65.14.98.21l-.95.3"/>
          <polyline class="cls-6" points="158.72 44.14 135.2 51.6 54.6 34.46"/>
          <polyline class="cls-5" points="53.62 34.25 52.65 34.04 53.6 33.74"/>
          <path class="cls-3" d="M55.51,33.14l23.56-7.38,80.56,17.05"/>
        </g>
      </g>
      <g>
        <g>
          <polyline class="cls-5" points="186.93 18.02 187.89 17.72 187.89 18.72"/>
          <line class="cls-4" x1="187.89" y1="20.58" x2="187.89" y2="27.12"/>
          <polyline class="cls-5" points="187.89 28.06 187.89 29.06 186.93 29.36"/>
          <line class="cls-2" x1="185.05" y1="29.96" x2="163.4" y2="36.82"/>
          <polyline class="cls-5" points="162.46 37.12 161.51 37.43 161.51 36.43"/>
          <line class="cls-4" x1="161.51" y1="34.56" x2="161.51" y2="28.02"/>
          <polyline class="cls-5" points="161.51 27.09 161.51 26.09 162.46 25.78"/>
          <polyline class="cls-2" points="164.34 25.18 166.45 24.52 185.99 18.32"/>
        </g>
        <g>
          <polyline class="cls-5" points="160.53 25.88 161.51 26.09 161.51 27.09"/>
          <line class="cls-4" x1="161.51" y1="28.95" x2="161.51" y2="35.49"/>
          <polyline class="cls-5" points="161.51 36.43 161.51 37.43 160.53 37.22"/>
          <line class="cls-1" x1="158.56" y1="36.8" x2="80.92" y2="20.28"/>
          <polyline class="cls-5" points="79.94 20.07 78.96 19.87 78.96 18.87"/>
          <line class="cls-4" x1="78.96" y1="17" x2="78.96" y2="10.46"/>
          <polyline class="cls-5" points="78.96 9.53 78.96 8.53 79.94 8.73"/>
          <polyline class="cls-1" points="81.9 9.15 100.51 13.11 159.55 25.67"/>
        </g>
        <g>
          <path class="cls-5" d="M186.91,17.51c.33.07.65.14.98.21l-.95.3"/>
          <polyline class="cls-6" points="185.03 18.63 161.51 26.08 80.91 8.94"/>
          <polyline class="cls-5" points="79.93 8.74 78.95 8.53 79.91 8.23"/>
          <path class="cls-3" d="M81.82,7.63L105.37.25c26.85,5.68,53.7,11.37,80.56,17.05"/>
        </g>
      </g>
    </g>
  </g>
</svg>