<?xml version="1.0" encoding="UTF-8"?>
<svg id="Layer_2" data-name="Layer 2" xmlns="http://www.w3.org/2000/svg" viewBox="0 0 531.88 780">
  <defs>
    <style>
      .cls-1 {
        fill: #0d1b2a;
        stroke-width: 0px;
      }
    </style>
  </defs>
  <g id="Elementos">
    <g>
      <polygon class="cls-1" points="358.83 5.91 358.83 11.83 173.05 11.83 173.05 5.91 178.41 0 353.04 0 358.83 5.91"/>
      <polygon class="cls-1" points="364.76 22.34 364.76 28.91 167.12 28.91 167.12 22.34 172.82 15.77 358.6 15.77 364.76 22.34"/>
      <polygon class="cls-1" points="371.06 40.59 371.06 47.89 160.82 47.89 160.82 40.59 166.88 33.29 364.51 33.29 371.06 40.59"/>
      <polygon class="cls-1" points="377.77 60.87 377.77 68.98 154.11 68.98 154.11 60.87 160.56 52.76 370.8 52.76 377.77 60.87"/>
      <polygon class="cls-1" points="384.91 83.4 384.91 92.42 146.97 92.42 146.97 83.4 153.83 74.39 377.5 74.39 384.91 83.4"/>
      <polygon class="cls-1" points="392.51 108.44 392.51 118.45 139.37 118.45 139.37 108.44 146.67 98.43 384.62 98.43 392.51 108.44"/>
      <polygon class="cls-1" points="400.58 136.26 400.58 147.39 131.29 147.39 131.29 136.26 139.06 125.13 392.19 125.13 400.58 136.26"/>
      <polygon class="cls-1" points="409.18 167.17 409.18 179.53 122.7 179.53 122.7 167.17 130.96 154.8 400.25 154.8 409.18 167.17"/>
      <polygon class="cls-1" points="418.32 201.51 418.32 215.25 113.56 215.25 113.56 201.51 122.35 187.77 408.83 187.77 418.32 201.51"/>
      <polygon class="cls-1" points="428.05 239.67 428.05 254.93 103.83 254.93 103.83 239.67 113.18 224.41 417.95 224.41 428.05 239.67"/>
      <polygon class="cls-1" points="438.4 282.07 438.4 299.03 93.48 299.03 93.48 282.07 103.43 265.11 427.65 265.11 438.4 282.07"/>
      <polygon class="cls-1" points="449.4 329.18 449.4 348.02 82.48 348.02 82.48 329.18 93.06 310.34 437.97 310.34 449.4 329.18"/>
      <polygon class="cls-1" points="461.11 381.53 461.11 402.46 70.77 402.46 70.77 381.53 82.02 360.59 448.95 360.59 461.11 381.53"/>
      <polygon class="cls-1" points="473.57 439.69 473.57 462.95 58.31 462.95 58.31 439.69 70.28 416.42 460.63 416.42 473.57 439.69"/>
      <polygon class="cls-1" points="486.82 504.31 486.82 530.16 45.05 530.16 45.05 504.31 57.8 478.46 473.06 478.46 486.82 504.31"/>
      <polygon class="cls-1" points="500.92 576.11 500.92 604.83 30.96 604.83 30.96 576.11 44.51 547.39 486.28 547.39 500.92 576.11"/>
      <polygon class="cls-1" points="515.92 655.89 515.92 687.81 15.96 687.81 15.96 655.89 30.38 623.98 500.35 623.98 515.92 655.89"/>
      <polygon class="cls-1" points="531.88 744.54 531.88 780 0 780 0 744.54 15.34 709.08 515.31 709.08 531.88 744.54"/>
    </g>
  </g>
</svg>