<?xml version="1.0" encoding="UTF-8"?>
<svg id="Layer_2" data-name="Layer 2" xmlns="http://www.w3.org/2000/svg" viewBox="0 0 225 225">
  <defs>
    <style>
      .cls-1 {
        stroke-width: 0px;
      }
    </style>
  </defs>
  <g id="Elementos">
    <g>
      <path class="cls-1" d="M93.93,50.72c-.46.22-24.09,4.81-32.14,6.45l16.23,19.29,41.25,9.36,39.51-28.74.63-.46.53.54c.12.18,24.03,24.65,24.09,24.84,0,0,5.87,13.46,6.72,15.41l16.09-9.38-16.08,9.92c-.29.16-.19.2-.34-.11l-7.22-15.47c.49.57-20.28-19.83-23.96-23.42l-36.18,27.73,29.99,6.8,1.39.32-.71,1.22-18.26,31.31,14.71,22.31.18.27-.09.31-8.1,28.59c6.14,1.82,64.72,19.08,64.77,19.1.02.02,8.12,8.48,15.43,16.11,1.68-3.15,2.64-6.73,2.64-10.53V22.5c0-12.38-10.12-22.5-22.5-22.5H38.21l53.15,48.37,2.57,2.34Z"/>
      <path class="cls-1" d="M206.68,197.24c.46.21-65.44-18.56-65.35-18.51l-.53-.15.15-.53,7.86-28.88-15.06-22.34-.29-.43.26-.46,17.49-30.72-52.57-11.35-.9,40.35v.63s-.55.3-.55.3l-27.7,15.39-.37.21-.36-.2-18.96-10.25-36.3,40.35,35.77-41.4.28-.32.39.2,19.16,9.87,26.48-15.41.1-40.35-18.77-4.05-.47-.1-.32-.37-18.47-21.5-1.74-2.03,2.63-.56s22.48-4.77,27.88-5.92L31.81,0h-9.31C10.12,0,0,10.12,0,22.5v180c0,12.38,10.12,22.5,22.5,22.5h180c8.51,0,15.96-4.79,19.78-11.8-7.39-7.56-15.6-15.96-15.6-15.96Z"/>
    </g>
  </g>
</svg>