<?xml version="1.0" encoding="UTF-8"?>
<svg id="Layer_2" data-name="Layer 2" xmlns="http://www.w3.org/2000/svg" viewBox="0 0 267.66 260.02">
  <defs>
    <style>
      .cls-1 {
        stroke-width: 0px;
      }
    </style>
  </defs>
  <g id="Elementos">
    <g>
      <polygon class="cls-1" points="0 100.99 0 142.31 64.88 137.85 0 100.99"/>
      <polygon class="cls-1" points="124.91 129 12.41 41.77 12.41 90.9 77.38 132.27 124.91 129"/>
      <polygon class="cls-1" points="46.28 254.08 80.27 254.08 93.14 210.68 46.28 254.08"/>
      <path class="cls-1" d="M95.59,155.72L2.2,195.81v41.71c0,12.38,10.12,22.5,22.5,22.5h0l52.91-43.63,17.99-60.67Z"/>
      <path class="cls-1" d="M73.4,2.65H30.23c-11.83,0-21.57,9.25-22.42,20.87l70.38,57.36L73.4,2.65Z"/>
      <polygon class="cls-1" points="13.46 146.84 13.46 181.03 125.96 136.09 13.46 146.84"/>
      <polygon class="cls-1" points="267.66 158.56 267.66 105.54 155.16 135.21 267.66 158.56"/>
      <polygon class="cls-1" points="135.18 121.65 157.71 80.37 127.57 9.15 92.11 9.15 93.18 87.42 135.18 121.65"/>
      <polygon class="cls-1" points="140.34 132.27 252.84 99.83 252.84 61.13 183.45 58.56 140.34 132.27"/>
      <path class="cls-1" d="M262.94,47.11v-15.46c0-12.38-10.12-22.5-22.5-22.5h-24.2l-22.65,38.72,69.35-.76Z"/>
      <polygon class="cls-1" points="200.56 0 135.86 0 161.71 71.17 200.56 0"/>
      <polygon class="cls-1" points="135.18 139.2 116.09 147.4 89.4 251.7 136.8 251.7 168.21 181.4 135.18 139.2"/>
      <path class="cls-1" d="M237.26,255.23c10.99-1.46,19.55-10.91,19.55-22.28v-64.15l-112.5-25.85,92.95,112.28Z"/>
      <polygon class="cls-1" points="145.71 260.02 228.26 260.02 173.26 189.76 145.71 260.02"/>
    </g>
  </g>
</svg>