<?xml version="1.0" encoding="UTF-8"?>
<svg id="Layer_2" data-name="Layer 2" xmlns="http://www.w3.org/2000/svg" viewBox="0 0 206.64 206.4">
  <defs>
    <style>
      .cls-1 {
        stroke-width: 0px;
      }
    </style>
  </defs>
  <g id="Elementos">
    <path class="cls-1" d="M206.64,206.4h-.29c-6.65-6.8-13.18-13.48-13.18-13.48.46.21-65.43-18.56-65.35-18.51l-.52-.15.14-.53,7.87-28.88-15.06-22.34-.3-.43.27-.47,17.49-30.71-52.57-11.36-.9,40.35-.02.63-.53.3-27.7,15.38-.37.21-.36-.19-18.96-10.26L0,166.32l35.77-41.4.27-.32.39.2,19.16,9.87,26.49-15.41.09-40.36-18.77-4.05-.46-.1-.32-.38-18.48-21.5-1.74-2.03,2.63-.56s22.48-4.77,27.89-5.92L23.16,0h6.29l48.4,44.05,2.58,2.35c-.47.22-24.09,4.81-32.15,6.44l16.23,19.3,41.25,9.36,39.51-28.75.63-.46.52.55c.12.18,24.03,24.64,24.09,24.83,0,0,5.87,13.47,6.72,15.41l16.09-9.38-16.08,9.92c-.29.17-.19.2-.34-.1l-7.21-15.47h0c-.42-.31-20.36-19.92-23.96-23.43l-36.18,27.74,29.99,6.8,1.39.32-.71,1.22-18.26,31.31,14.71,22.31.18.28-.09.31-8.1,28.59c6.14,1.82,64.72,19.08,64.76,19.1.02.02,6.59,6.87,13.22,13.8Z"/>
  </g>
</svg>