<?xml version="1.0" encoding="UTF-8"?>
<svg id="Layer_2" data-name="Layer 2" xmlns="http://www.w3.org/2000/svg" viewBox="0 0 294.32 251.28">
  <defs>
    <style>
      .cls-1 {
        fill: #1d1e1c;
        stroke-width: 0px;
      }
    </style>
  </defs>
  <g id="Layer_1-2" data-name="Layer 1">
    <path class="cls-1" d="M0,217.87c6.41-7.83,13.53-15.05,21.08-21.78,7.57-6.7,15.64-12.86,24.28-18.14,8.64-5.25,17.85-9.65,27.6-12.42,4.87-1.37,9.86-2.37,14.9-2.8,5.04-.47,10.13-.35,15.16.23,5.03.62,10,1.77,14.74,3.55,4.75,1.77,9.26,4.18,13.37,7.15,8.26,5.92,14.78,14.04,19.44,23.03,2.33,4.5,4.23,9.22,5.66,14.08.71,2.43,1.31,4.9,1.7,7.41.51,2.52.13,5.11-.18,7.6-.68,5.02-1.57,9.99-2.18,15.01-.27,2.5-.59,5.04-.34,7.51.09.59.21,1.26.59,1.61.15.15.5.19.79.25.3.05.62.09.93.13,1.25.13,2.51.2,3.77.27,10.09.41,20.21.34,30.32.23,10.11-.13,20.22-.38,30.31-.86,5.05-.26,10.1-.54,15.11-1.09,1.25-.15,2.5-.31,3.73-.55.61-.13,1.24-.27,1.75-.52.45-.24.67-.88.83-1.45.58-2.41.54-4.97.53-7.48-.1-5.04-.56-10.08-1.14-15.09-.6-5.01-1.32-10.02-2.35-14.96-.27-1.23-.55-2.46-.92-3.65-.19-.57-.4-1.24-.72-1.6-.14-.1-.49-.18-.78-.23-.3-.05-.61-.09-.92-.12-2.5-.22-5.03-.22-7.55-.23-5.05.02-10.1.17-15.15.37-10.1.41-20.19.98-30.27,1.8-2.52.21-5.03.44-7.54.72-1.25.14-2.51.29-3.75.48-.62.09-1.24.19-1.85.32-.6.15-1.25.22-1.61.62-.87.84-1.58,1.91-2.27,2.95-.69,1.05-1.33,2.13-1.96,3.23-1.24,2.19-2.4,4.44-3.45,6.73-1.02,2.29-2.06,4.63-2.53,7.05-.05.3-.08.6-.07.89,0,.28.09.56.22.64.09.09.47.04.78.06h.95s3.79-.01,3.79-.01l15.16-.11c10.11-.11,20.22-.27,30.32-.55,5.05-.15,10.1-.32,15.15-.58,2.52-.13,5.04-.28,7.56-.49,2.5-.23,5.06-.4,7.45-1.01.28-.08.6-.2.74-.32.03.01.07-.17.11-.28.01-.14.05-.27.04-.41,0-.57-.17-1.16-.4-1.71-.48-1.12-1.2-2.15-1.99-3.11-1.6-1.89-3.56-3.55-5.78-4.62-1.11-.52-2.32-.89-3.51-.85-1.21.09-2.44.38-3.64.73-2.4.71-4.74,1.69-7.14,2.51-2.39.84-4.87,1.51-7.4,1.86-2.54.4-5.13.19-7.64-.1-5.04-.63-9.99-1.7-14.94-2.73-2.47-.49-4.96-1.11-7.41-1.35-.15,0-.3-.01-.43,0-.07,0-.12.02-.16.03l-.24.07c-.31.09-.63.17-.94.24-.63.13-1.26.23-1.9.3-1.28.13-2.58.17-3.88-.15-.64-.17-1.32-.45-1.78-1.05-.47-.62-.49-1.38-.44-2.03.15-1.33.6-2.52.99-3.73.4-1.2.8-2.39.96-3.6.08-.6.1-1.21-.02-1.78l-.51-1.81c-2.58-9.79-5.01-19.6-7.49-29.4l-7.42-29.41c-.63-2.44-1.24-4.92-1.91-7.31-.02-.05-.04-.14-.05-.16,0,0-.03-.03-.07-.06-.09-.07-.22-.13-.36-.19-.27-.12-.56-.22-.86-.32l-1.8-.57c-1.21-.38-2.43-.78-3.59-1.38-.58-.3-1.15-.65-1.64-1.14-.24-.24-.46-.54-.61-.85-.15-.3-.28-.6-.39-.92-.43-1.27-.31-2.78.46-3.92.37-.57.95-1.05,1.51-1.35.56-.32,1.13-.59,1.68-.89.55-.29,1.09-.6,1.51-.98.4-.34.53-.93.65-1.52.1-.6.14-1.22.17-1.84.02-.33,0-.59.06-1,.1-.39.27-.66.42-.95.29-.55.62-1.11.65-1.61,0-.46-.31-1.09-.55-1.64-.52-1.16-1.09-2.29-1.35-3.64-.12-1.42.48-2.68,1.21-3.76.38-.54.82-1.04,1.37-1.45.28-.2.58-.38.95-.48.4-.09.66-.08.99-.13,1.26-.12,2.55-.24,3.86-.07.64.1,1.37.29,1.89.81.49.45.89,1,1.25,1.5.09.12.18.24.27.33.06.09.22.11.11.11-.11.05,0,0,.01-.04.04-.05.08-.1.12-.17.08-.12.16-.25.23-.38.29-.54.55-1.11.8-1.68.98-2.31,1.79-4.7,2.5-7.11.73-2.41,1.21-4.88,1.86-7.34.63-2.45,1.33-4.89,2.07-7.31l1.14-3.62.58-1.79c.15-.59.26-1.2.29-1.81.04-.6,0-1.21-.19-1.76-.08-.24-.26-.55-.36-.89-.1-.33-.16-.67-.17-1.02-.01-.69.14-1.36.46-1.98.09-.15.17-.3.32-.46.15-.14.27-.23.41-.33l.76-.56c.98-.74,1.9-1.61,2.34-2.71.45-1.13.72-2.37.98-3.6.25-1.23.45-2.47.6-3.72.09-.64.09-1.2.13-1.88.06-.65.19-1.29.35-1.91.65-2.47,2.01-4.92,4.3-6.29,2.18-1.28,4.32-2.61,6.43-3.99,1.05-.69,2.12-1.38,3.12-2.11.96-.82,1.98-1.55,2.74-2.51.79-.91,1.03-2.15.88-3.34-.08-.59-.26-1.18-.51-1.72-.25-.54-.62-1.04-.95-1.6-1.31-2.18-2.52-4.41-3.59-6.71-.53-1.16-1.03-2.33-1.36-3.59-.3-1.18-.86-2.32-1.31-3.52-.45-1.19-.79-2.48-.75-3.8.04-1.32.47-2.6,1.13-3.72.66-1.11,1.35-2.13,1.98-3.24.65-1.08,1.21-2.21,2.02-3.25.83-1.06,2.01-1.74,3.25-2.16.32-.1.63-.16.85-.28.22-.12.42-.33.62-.57.4-.47.72-.99,1.11-1.52.39-.52.86-1.04,1.51-1.33.66-.32,1.52-.18,2.06.28.27.2.53.5.69.78.16.26.32.47.51.52.4.11,1.01-.26,1.45-.62.23-.19.43-.4.62-.64.19-.23.37-.52.71-.75.36-.22.78-.22,1.11-.17.33.05.65.11.97.22.32.11.67.28.92.59.25.32.33.69.37,1.02.06.66.04,1.28.14,1.87.1.6.3,1.11.8,1.39.48.29,1.08.4,1.68.41.16,0,.28-.02.51.02.19.03.36.1.53.18.32.16.61.42.8.74.19.32.28.68.29,1.04l-.04.96c0,.3.02.61.08.88.03.13.08.26.14.36.03.05.06.09.1.12.01.02.11.07.19.16.5.57.7,1.2.82,1.87.05.33.07.67.05,1.01-.02.18-.02.32-.02.45.01.14.02.28.05.43.12.58.35,1.16.6,1.73.25.57.53,1.13.81,1.71.14.29.28.57.4.88.06.15.12.3.17.48.03.08.05.18.05.29,0,.09,0,.19-.02.27-.2,1.32-.63,2.5-1.04,3.71-.44,1.2-.86,2.38-1.47,3.55-.04.08-.09.15-.16.23-.02.13-.45.23-.51.13-.22-.1-.33-.21-.46-.32-.25-.22-.47-.45-.69-.68l-1.28-1.4c-.42-.47-.85-.93-1.29-1.37-.22-.21-.45-.43-.68-.58-.13-.09-.16-.1-.34-.13l-.46-.08c-.61-.1-1.22-.13-1.8-.03-.29.05-.56.14-.9.23l-.93.21c-2.48.52-4.97.99-7.46,1.41-.63.1-1.25.21-1.89.29-.61.07-1.19.23-1.79.43-.3.1-.59.21-.92.3-.31.08-.71.18-1.11-.02-.1-.04-.18-.12-.25-.18l-.17-.16-.35-.33c-.23-.23-.45-.46-.67-.71-.42-.5-.83-1.04-1-1.73-.02-.1-.04-.16-.05-.28,0-.12.02-.26.08-.36.11-.21.27-.33.42-.43.3-.2.61-.31.93-.41,1.25-.39,2.52-.54,3.78-.68.56-.05,1.15-.32,1.74-.54.59-.22,1.18-.47,1.83-.62.71-.14,1.33-.03,1.97.01.63.05,1.26.11,1.87.1.31,0,.58-.03.87-.12l.89-.28,1.81-.58c.61-.18,1.23-.35,1.88-.45.31-.05.71-.06,1-.02l.94.09h.05s.04.03.04.03c1.33.7,2.66,1.35,3.88,2.34.33.31.48.6.74.86.23.25.57.55.71.98.04.07.06.28.05.36,0,.11-.01.2-.02.3l-.07.56-.18,1.11c-.54,2.94-1.15,5.85-1.89,8.75-.1.36-.19.72-.31,1.09-.06.18-.11.36-.24.57-.13.2-.31.34-.49.45-.75.4-1.53.44-2.29.46-.76.01-1.52-.04-2.27-.15-.76-.12-1.48-.3-2.21-.47-1.45-.35-2.9-.72-4.33-1.14-.72-.21-1.43-.43-2.14-.7-.74-.29-1.35-.65-2.03-.98h0s-.01-.01-.01-.01c-.65-.41-1.27-.84-1.88-1.32-.63-.47-1.13-1.08-1.64-1.61l-.02-.02v-.03c-.97-1.91-1.81-3.86-2.54-5.86-.71-2-1.35-4.06-1.55-6.21-.06-1.06-.07-2.22.51-3.23.58-.98,1.51-1.65,2.46-2.15,1.93-.99,4.05-1.46,6.14-1.8,1.05-.16,2.11-.28,3.18-.36.53-.04,1.06-.06,1.6-.07.58.02,1.09.15,1.62.27,2.07.55,4.05,1.31,6.02,2.14.98.43,1.95.84,2.88,1.43l.18.12s.06.05.09.07c.03.1.06-.09.13.29-.48.38-.27.08-.38.16l-.11-.04-.19-.08-.73-.33-1.44-.66c-1.92-.86-3.89-1.66-5.92-2.15-1.02-.23-2.05-.4-3.08-.29-1.06.09-2.11.17-3.16.29-2.09.24-4.2.55-6.1,1.4-.94.43-1.82,1.02-2.38,1.86-.59.83-.7,1.87-.66,2.91.11,2.08.65,4.14,1.27,6.15.63,2.01,1.38,3.99,2.23,5.92.21.48.44.96.67,1.42.12.23.24.48.38.63.16.17.37.32.58.46.86.56,1.83.99,2.8,1.41,1.94.82,3.94,1.52,5.95,2.18,1.01.33,2.02.64,3.03.92.52.14.99.28,1.51.27.52.01,1.04-.02,1.57-.04.27-.01.53-.02.81,0,.14,0,.28.02.45.07.08.03.2.07.27.23.07.16,0,.3,0,.33-.13.49-.21,1.02-.3,1.54l-.25,1.57c-.09.51-.11,1.05-.22,1.58-.2,1.07-.65,2.1-1.32,2.96-.68.85-1.58,1.52-2.53,2.02-3.79,1.95-7.76,3.47-11.24,5.85-1.74,1.18-3.32,2.59-4.5,4.33-1.22,1.71-1.93,3.7-2.61,5.71-.37.99-.8,2.05-1.67,2.77-.84.71-1.79,1.21-2.77,1.65-.98.42-2.01.76-3.07.95-.53.08-1.08.15-1.65.03-.33-.08-.51-.25-.71-.22-.2,0-.39.12-.55.29-.34.35-.52.83-.81,1.32-.31.46-.66.86-1.05,1.25-.72.82-1.98,1.12-2.24,2.03-.07.97-.03,2.08.26,3.05.15.49.38.94.71,1.31.35.38.73.76,1.1,1.13l4.55,4.44c.19.19.37.38.55.59.17.2.34.38.53.58.36.38.78.79.92,1.39.07.3,0,.62-.13.89-.16.28-.25.45-.37.7-.22.48-.44.96-.65,1.44-1.68,3.88-3.28,7.81-4.87,11.73l-2.36,5.9c-.39.98-.78,1.97-1.14,2.96-.35.98-.62,2.02-.92,3.03-.59,2.03-1.21,4.07-1.91,6.07-.36,1-.74,1.99-1.19,2.96-.23.48-.48.96-.77,1.41-.32.46-.67.83-.95,1.27-1.16,1.74-1.91,3.74-2.99,5.59-.28.46-.57.92-.98,1.3-.4.42-1.04.58-1.58.52-1.11-.12-2.15-.69-2.79-1.61-.32-.46-.47-1.1-.23-1.66.25-.51.52-.94.78-1.41.53-.92,1.05-1.84,1.55-2.77.5-.93.99-1.87,1.36-2.84.36-.97.45-2.03.52-3.08.07-1.05.08-2.11.12-3.17,0-.53.08-1.07.07-1.58,0-.52-.07-1.04-.17-1.55-.21-1.01-.55-2.04-1.21-2.81-.33-.38-.76-.68-1.24-.76-.52-.09-1.04-.18-1.56-.23-1.04-.12-2.1-.12-3.09.17-.98.29-1.85.94-2.39,1.82-.6.84-.81,1.93-.41,2.88.37.96,1.13,1.72,1.79,2.56.3.42.7.9.63,1.54-.11.56-.34,1.04-.57,1.52-.48.95-.98,1.88-1.22,2.89-.12.5-.18,1.02-.19,1.54,0,.51.11,1.02.45,1.37.69.72,1.94.62,2.81,1.41.43.41.6.96.73,1.48.13.52.2,1.05.34,1.55.24,1.01.85,1.9,1.74,2.43,1.89.9,3.69,2.12,5.67,2.77.99.32,2.05.44,3.07.29,1.03-.14,2.01-.55,2.94-1.03.91-.49,1.78-1.14,2.27-2.04.24-.45.37-.95.41-1.46.02-.26.02-.52.02-.78,0-.24-.07-.49-.14-.74-.32-.98-.85-1.91-1.47-2.75-.63-.81-1.39-1.64-2.36-1.88-.49-.08-1,0-1.44.24-.44.24-.8.63-1.09,1.05-.59.85-.95,1.86-1.19,2.87-.08.46.03,1.02.08,1.53l.23,1.57.52,3.13,1.12,6.25,4.73,24.97,2.36,12.49,1.13,6.25.52,3.14c.08.53.16,1.05.2,1.59,0,.55-.04,1.06-.06,1.6-.2,4.22-.46,8.5-1.72,12.59-.33,1.01-.74,2.01-1.32,2.91-.04.06-.07.11-.11.17-.03.03-.04.06-.09.1,0,.08-.28.03-.26-.07-.04-.2,0-.31.01-.45.04-.27.1-.53.16-.79.12-.52.26-1.03.4-1.54.56-2.05,1.17-4.07,1.8-6.1v.06s-7.71-31.82-7.71-31.82l-3.8-15.92-1.86-7.97-.9-3.99-.43-2-.2-1.01c-.03-.18-.07-.31-.06-.55,0,0,0-.05.04-.09.05-.05.06-.04.06-.04h.03s.06-.03.06-.03l.12-.04.24-.08.15-.05.03.15c3.19,15.2,6.43,30.4,9.83,45.55.85,3.79,1.72,7.57,2.62,11.35.45,1.89.91,3.77,1.41,5.65.25.94.5,1.87.8,2.79.08.23.15.46.24.67.04.1.1.23.14.26.04.02-.09-.05-.14.02-.02.02,0,0,0-.02.01-.04.03-.1.04-.16.09-.46.13-.95.18-1.43.6-7.73.84-15.5,1.17-23.26l1.64-46.57.42-11.64c.08-1.94.15-3.88.27-5.82.25-1.97.72-3.83,1.1-5.74.8-3.8,1.63-7.6,2.49-11.38l.66-2.84c.25-.95.39-1.88.78-2.85.25-.48.74-.81,1.23-.96.49-.15.99-.21,1.47-.25l2.91-.18h.02s.02,0,.02,0c4.83.76,9.63,1.74,14.33,3.11,2.35.69,4.67,1.49,6.89,2.54,1.11.53,2.19,1.13,3.17,1.89.99.78,1.77,1.72,2.61,2.61,1.65,1.81,3.22,3.7,4.53,5.79,1.31,2.08,2.33,4.37,2.74,6.82.23,1.22.22,2.47.17,3.69-.06,1.21-.08,2.43-.09,3.65-.02,2.44-.02,4.88,0,7.32.06,9.76.21,19.52.38,29.28l.27,14.64c.15,4.88.03,9.77.68,14.6.59,4.84,1.36,9.66,2.37,14.42.26,1.19.53,2.38.87,3.54.18.58.35,1.15.62,1.67.29.55.53,1.13.72,1.72.38,1.18.58,2.46.36,3.72-.11.63-.33,1.24-.69,1.78-.34.56-.91.94-1.07,1.39-.2.35.57.69.87,1.33.16.32.2.68.18,1.01-.03.33-.08.66-.28.98-.2.32-.54.52-.85.62-.32.11-.64.15-.95.18-.62.06-1.23.07-1.84.09-2.42.07-4.83.47-7.06,1.4-.56.22-1.11.48-1.65.75-.28.14-.51.28-.82.43-.31.14-.68.19-1.02.15-.7-.1-1.25-.5-1.72-.92-.47-.43-.86-.92-1.23-1.42-1.43-2.03-2.45-4.27-3.42-6.52-1.89-4.52-3.41-9.17-4.83-13.84-1.41-4.68-2.69-9.39-3.89-14.13-1.2-4.74-2.32-9.49-3.34-14.27-.25-1.2-.5-2.39-.72-3.6-.05-.3-.11-.6-.14-.92-.04-.3-.08-.57-.15-.88-.13-.59-.27-1.18-.42-1.77-.61-2.36-1.27-4.71-1.94-7.05-2.68-9.39-5.48-18.74-8.12-28.14-.65-2.36-1.31-4.7-1.85-7.1-.31-1.23-.25-2.49-.26-3.7,0-1.22.04-2.45.09-3.67.21-4.88.53-9.76,1.19-14.62.18-1.21.37-2.42.68-3.63.17-.61.3-1.19.71-1.81.12-.16.37-.33.64-.3.25.02.43.14.57.24.28.22.48.48.67.74.73,1.04,1.23,2.17,1.73,3.29.49,1.13.93,2.27,1.35,3.42,1.66,4.61,3,9.32,4.1,14.09,1.15,4.77,1.63,9.66,2.33,14.48.67,4.83,1.35,9.67,2.08,14.49.73,4.82,1.5,9.64,2.38,14.44.9,4.79,1.81,9.59,3.25,14.22,1.49,4.62,3.78,8.94,5.99,13.29,1.1,2.18,2.18,4.39,3.03,6.7.85,2.3,1.42,4.78,1.36,7.27,0,2.43.09,4.86.34,7.28.13,1.2.3,2.4.56,3.58.26,1.17.6,2.34,1.19,3.33.3.49.67.92,1.13,1.15.46.22,1.04.24,1.59.15,1.13-.19,2.21-.74,3.14-1.44.9-.71,1.76-1.64,1.94-2.7.04-.26.03-.52-.04-.76l-.28-.86-.55-1.75-8.73-27.95c-1.49-4.64-2.94-9.31-4.58-13.89-.2-.58-.42-1.14-.65-1.68-.25-.56-.47-1.2-.61-1.79-.31-1.2-.53-2.4-.75-3.61-.42-2.41-.76-4.83-1.08-7.25-.64-4.84-1.18-9.7-1.69-14.55l-.74-7.29c-.08-2.43-.96-4.68-1.82-6.96-1.77-4.53-3.86-8.94-6.01-13.31-2.18-4.35-4.39-8.73-6.95-12.84-.16-.25-.33-.5-.51-.72-.09-.11-.18-.22-.24-.25-.07-.04-.14-.09-.21-.15.03.29-.52-.66.18-.76.45.06.67.17.98.27l.87.33c.57.23,1.14.47,1.7.74.59.29,1.07.61,1.61.92,2.11,1.22,4.23,2.43,6.38,3.54,1.07.58,2.17,1,3.33,1.44l3.41,1.33,6.83,2.63c1.14.43,2.28.86,3.43,1.25.6.19,1.19.46,1.73.78.13.07.26.15.32.16.04,0,.04.01.15-.06.04-.03.1-.08.15-.12.02-.02.04-.04.07-.1.06-.1.11-.22.16-.36.36-1.1.53-2.32.69-3.51.15-1.2.27-2.41.34-3.62,0-4.83-.19-9.75-.19-14.62,0-2.44-.01-4.88.11-7.34.04-.61.08-1.25.22-1.87.14-.61.32-1.2.49-1.79l1.09-3.5c.72-2.32,1.48-4.66,1.87-7.02.21-1.13-.04-2.31-.35-3.46-.32-1.15-.75-2.29-1.23-3.39-.48-1.11-1.01-2.2-1.6-3.25-.59-1.04-1.21-2.13-1.98-2.95-1.78-1.61-3.6-3.3-5.49-4.76-.23-.17-.49-.35-.71-.46-.06-.03-.11-.04-.06-.04,0,0-.03,0-.07.03-.09.05-.2.12-.3.21-.42.37-.81.84-1.19,1.31-.76.94-1.5,1.92-2.29,2.86-.4.47-.81.94-1.26,1.37-.44.45-1,.83-1.52,1.14-1.05.64-2.12,1.23-3.18,1.83-2.12,1.2-4.25,2.4-6.32,3.67-1.03.64-2.05,1.3-3.02,2.01-.48.36-.95.73-1.37,1.14-.21.2-.4.42-.55.63-.15.24-.3.5-.43.76-1.05,2.16-1.86,4.48-2.78,6.74-.45,1.14-.92,2.27-1.43,3.39-.26.56-.53,1.11-.84,1.66-.33.54-.62,1.09-1.2,1.55-.58.41-1.18.59-1.77.79-.59.19-1.19.35-1.78.5-1.18.31-2.36.6-3.48,1.02-.55.21-1.1.46-1.49.8-.19.17-.33.37-.37.56-.02.1-.01.2,0,.31l.11.43c.33,1.15.76,2.28,1.28,3.36.53,1.07,1.15,2.11,1.95,2.95.4.42.85.78,1.36,1,.23.1.56.22.73.21.19,0,.4-.1.59-.27.77-.74,1.26-1.92,1.71-3.01.45-1.12.84-2.27,1.23-3.43.39-1.16.78-2.32,1.24-3.46.24-.57.49-1.14.82-1.7.17-.28.36-.55.64-.8.14-.12.32-.24.54-.29.19-.04.33-.05.5-.08,1.3-.09,2.51.15,3.72.27,1.2.14,2.4.21,3.57.06.58-.08,1.16-.2,1.7-.41.27-.09.54-.22.88-.33.17-.05.34-.09.58-.08.12,0,.26.04.41.15.14.11.22.29.24.41.05.5-.11.77-.22,1.08-.13.3-.27.58-.41.85-.29.55-.61,1.08-.92,1.6-.6,1.04-1.32,2.1-1.67,3.14-.25,1.1-.29,2.34-.24,3.53.07,1.17.2,2.44.71,3.38.23.39.79.73,1.27,1.04.51.31,1.04.59,1.58.85.54.26,1.09.5,1.65.7.54.19,1.17.39,1.61.35-.07.14.12-.2.16-.46.07-.28.12-.57.16-.86.08-.59.13-1.19.18-1.8.16-2.42.16-4.85.08-7.28-.05-1.21-.11-2.43-.26-3.62-.08-.58-.15-1.21-.39-1.66-.13-.3-.3-.52-.36-.99-.01-.13.03-.34.18-.48.14-.13.27-.16.37-.19.21-.04.37-.05.54-.05,2.49.09,4.89.41,7.26.09,1.17-.17,2.34-.45,3.39-.98,1.05-.51,1.99-1.27,2.57-2.24.56-1,.92-2.17,1.15-3.33.22-1.17.33-2.37.22-3.54-.11-1.17-.43-2.32-1.05-3.3-.18-.29-.34-.67-.29-1.1.05-.43.31-.77.58-.99.54-.46,1.14-.7,1.72-.92,2.37-.81,4.78-1.19,7.15-1.75,2.37-.55,4.73-1.12,6.84-2.27,2.18-1.15,4.48-2.04,6.7-3,1.1-.49,2.18-1.02,3.16-1.7.98-.67,1.85-1.48,2.65-2.39,3.17-3.67,6.02-7.65,8.82-11.63,1.39-2,2.76-4.02,4.03-6.08.65-1.04,1.23-2.05,1.72-3.18.52-1.11,1.06-2.21,1.63-3.29.57-1.09,1.17-2.16,1.83-3.2.65-1.03,1.39-2.09,2.33-2.93.87-.82,1.81-1.66,2.12-2.69.33-1.02-.47-2-1.47-2.55-2.04-1.16-4.45-1.77-6.79-2.28-.59-.12-1.19-.23-1.78-.3-.58-.1-1.09-.01-1.64.17-1.06.36-1.91,1.21-2.23,2.29-.3,1.06-.28,2.33-.18,3.48.12,1.15.52,2.3,1.41,2.94.34.27.49.55.66.82.17.27.31.55.46.82.29.55.55,1.11.8,1.67.5,1.12.96,2.26,1.39,3.41.86,2.3,1.63,4.63,2.18,7.04.27,1.19.47,2.48.42,3.71v3.66s0,.04,0,.04v.05c-.14.51-.24,1.06-.3,1.59-.05.52-.07,1.09.08,1.47.04.09.08.14.12.17.04.02.07.03.21.04.25.01.53,0,.8,0,.54-.03,1.09-.07,1.64-.13,1.1-.12,2.19-.27,3.27-.48.54-.11,1.07-.22,1.59-.37.49-.14,1.08-.34,1.34-.58.41-.46.98-.78,1.55-.97.57-.19,1.19-.28,1.81-.19.62.08,1.29.42,1.63,1.02l.77,1.51c.25.5.52,1.01.67,1.62.07.3.12.65-.02,1.03-.14.39-.51.65-.82.75-.67.21-1.2.15-1.75.2l-1.66.1h.05c-1.83.38-3.67.79-5.48,1.28-.9.25-1.81.5-2.64.85-.2.09-.41.19-.54.28-.04.03-.05.04-.06.05-.02.02-.07.1-.1.14l-.22.3c-.31.38-.63.74-.98,1.08-.35.34-.72.66-1.14.94-.42.26-.87.57-1.55.54-.38-.06-.56-.21-.79-.32-.22-.13-.42-.26-.62-.39-.39-.26-.77-.52-1.16-.7-.4-.18-.74-.25-1.17-.16-.45.07-.91.17-1.37.27l-2.75.63-2.73.68-.33.09s-.09.03-.1.04c-.04,0,.02.02.07-.14.01-.15-.02-.13,0-.11l.09.11c.07.09.15.19.23.31.32.45.45,1.07.37,1.6-.07.54-.29,1.01-.45,1.43-.17.44-.35.88-.55,1.32-.2.44-.42.88-.75,1.3-.3.41-.82.81-1.43.85-.59.04-1.12-.18-1.56-.45-.44-.27-.81-.61-1.15-.98-.65-.75-1.22-1.65-1.22-2.79.01-.56.31-1.15.75-1.49.43-.32.87-.56,1.37-.72,1-.3,2.08-.22,3.04.27l.14.07.04.17,1.9,9.08c.31,1.51.6,3.05.85,4.56.29,1.51.63,3.02.97,4.52.68,3.01,1.39,6.02,2.12,9.02.76,3.01,1.42,5.98,2.49,8.9l-.05-.09c.75,1.11,1.47,2.23,2.16,3.38.34.58.67,1.16.98,1.77.15.3.3.61.42.94.06.16.12.34.17.52.05.19.06.44.05.59,0,.34-.02.7-.12,1.08-.09.38-.35.79-.72,1.01-.36.22-.74.3-1.09.34-.36.05-.76.05-1.14-.07-.38-.11-.75-.34-1.01-.67-.25-.34-.38-.74-.4-1.13-.02-.38,0-.75.16-1.15.15-.39.48-.72.83-.9.35-.19.7-.29,1.05-.35.42-.08.83,0,1.18.14.71.28,1.28.77,1.7,1.37.42.59.69,1.41.46,2.2-.25.8-.86,1.28-1.41,1.69-2.3,1.57-4.94,2.32-7.59,2.78-2.66.44-5.39.41-8.05.02-2.66-.39-5.28-1.07-7.75-2.19-.61-.29-1.22-.61-1.79-.99-.56-.39-1.15-.83-1.52-1.52-.09-.18-.18-.36-.2-.63-.04-.27.17-.64.4-.75.45-.24.81-.22,1.16-.23.7,0,1.37.09,2.02.14.63.05,1.37.13,1.78-.04.42-.2.74-.78.87-1.35.06-.29.09-.59.05-.85-.04-.28-.16-.43-.25-.44-.09-.04-.49.12-.79.2l-.95.29.23-.2c-.19.42-.37.87-.51,1.3-.07.22-.13.44-.15.63-.01.09,0,.19,0,.18,0,0-.04-.07-.1-.08-.04-.02-.05,0-.03-.01.04,0,.14-.06.22-.1,0,0,.06-.06.1-.15.09-.16.17-.38.24-.6.14-.44.24-.9.34-1.37.37-1.87.61-3.79.87-5.71.13-.96.25-1.92.41-2.88.15-.98.4-1.92.6-2.86l1.23-5.66,2.41-11.34,1.16-5.67c.05-.24.07-.44.15-.75.08-.28.21-.53.37-.75.33-.44.7-.83,1.31-1.03.16-.04.36-.07.58.02.23.09.37.31.42.48.1.35.06.63.01.89-.11.53-.29.98-.4,1.43-.91,3.71-1.59,7.54-2.32,11.33l-2.15,11.4c-.37,1.9-.73,3.8-1.15,5.69-.11.47-.21.95-.37,1.45-.16.45-.29.88-.39,1.35-.19.92-.28,1.87-.22,2.79.08.89.29,1.93,1.14,1.87.98.12,1.93.31,2.88.47.95.16,1.9.33,2.84.43.47.04.95.09,1.36.04.41-.07.92-.22,1.38-.33l-.25.29c.12-1.73.16-3.5-.02-5.21-.28-1.7-.49-3.51-.65-5.25-.34-3.52-.62-7-1.2-10.49-.4-3.52-.58-7.04-.76-10.56-.09-1.76-.15-3.53-.16-5.3,0-.89,0-1.77.13-2.69.05-.24.06-.46.26-.76.05-.07.15-.18.32-.21.25-.04.41.23.38.21.02.05.04.08.05.11.04.13.07.24.1.35.1.45.17.88.24,1.32,1.03,6.99,1.77,13.99,2.57,21l1.15,10.51.57,5.25.07.65c.02.2.07.48,0,.75-.05.28-.24.56-.48.71-.23.15-.46.23-.66.31-.46.2-1,.18-1.45.09-.46-.1-.99-.28-1.29-.82-.26-.59,0-1.13.23-1.53.27-.4.62-.79,1.16-.95.27-.08.6-.05.85.09.26.14.42.33.57.51.3.38.51.78.72,1.16.2.36.45.79.68.89.02.03.39.01.6.07.24.05.45.12.63.14.35.05.64-.11.94-.41.3-.29.57-.62.81-.97.24-.35.45-.72.57-1.09.06-.19.09-.38.07-.53-.01-.08-.03-.13-.07-.19-.09-.17-.1-.25-.15-.37-.28-.85-.51-1.7-.75-2.55l-1.38-5.11c-1.78-6.82-3.49-13.66-5.07-20.53-.39-1.72-.77-3.44-1.13-5.17-.35-1.73-.72-3.45-.89-5.24-.01-.23-.03-.45,0-.72.06-.3.12-.41.1-.59,0-.3-.31-.42-.73-.47-.41-.04-.84-.02-1.29-.02-.23,0-.46,0-.71-.05-.12-.03-.26-.06-.4-.15-.14-.07-.28-.31-.28-.43-.09-.55.03-.98.16-1.43.13-.44.32-.86.55-1.26.45-.8,1.07-1.51,1.84-2.02.76-.52,1.7-.79,2.58-.88l2.62-.33c.87-.12,1.74-.24,2.57-.45.42-.11.82-.24,1.22-.4.43-.19.88-.29,1.3-.39,3.46-.76,6.93-1.34,10.38-2.03,1.72-.35,3.46-.69,5.13-1.17.21-.06.41-.13.61-.21.1-.04.19-.08.27-.12l.11-.06c.06-.04.12-.08.19-.12.29-.13.62-.07.84.05.23.12.42.28.59.45.65.68,1.07,1.49,1.43,2.32.34.83.62,1.69.71,2.61.06.46-.03.95-.07,1.36l-.15,1.32c-.06.44-.14.89-.3,1.34-.16.44-.48.89-.95,1.11-.48.21-.96.2-1.42.17-.46-.04-.92-.16-1.34-.35-.85-.37-1.6-1.01-2.01-1.87-.42-.86-.43-1.83-.29-2.73.16-.9.52-1.79,1.18-2.47.33-.34.75-.62,1.25-.71.51-.11,1.07.13,1.4.46.69.67,1.06,1.51,1.39,2.34.32.84.56,1.7.76,2.56.43,1.72.58,3.51.95,5.2.81,3.41,1.88,6.77,2.95,10.12,1.08,3.35,2.21,6.69,3.35,10.02,1.15,3.33,2.32,6.65,3.52,9.96l.91,2.48c.23.85.83,1.43,1.42,2.1.59.65,1.19,1.36,1.54,2.22.36.86.39,1.84.13,2.72-.12.44-.29.86-.52,1.27-.23.4-.52.8-.96,1.04-.44.26-1.01.23-1.45.04-.45-.18-.82-.47-1.15-.79-.33-.32-.62-.67-.88-1.04-.13-.19-.25-.38-.35-.6-.11-.23-.15-.46-.2-.67-.18-.88-.3-1.78-.14-2.7.08-.45.26-.94.66-1.27.41-.33.93-.41,1.42-.32,1,.23,1.58,1.1,1.96,1.89.19.41.34.85.44,1.29.05.22.09.45.11.68.02.26-.04.5-.11.73-.33.89-.95,1.58-1.59,2.2-.66.61-1.4,1.14-2.2,1.55-.8.42-1.68.65-2.54.86-1.73.4-3.5.59-5.27.68-3.53.14-7.09-.09-10.55-.88-1.73-.42-3.4-1.1-4.91-2.05-.76-.47-1.47-1.01-2.12-1.64-.32-.32-.62-.65-.87-1.04-.12-.2-.24-.4-.3-.64-.06-.23-.09-.55.12-.79.23-.23.4-.27.6-.4.19-.11.39-.22.61-.31.21-.09.45-.17.71-.16.26,0,.52.1.71.25.4.26.67.72.84,1.12l.51,1.22c.17.4.36.79.61,1.12.25.33.58.58.96.59.82,0,1.68-.3,2.35-.8.67-.5,1.15-1.27,1.13-2.1-.01-.83-.37-1.66-.82-2.37-.48-.7-1.1-1.36-1.84-1.7-.34-.16-.8-.08-1.24-.09-.43.02-.86.07-1.24.22-.39.14-.68.42-.81.79-.11.36-.13.87.06,1.1.18.22.65,0,.95-.25.33-.26.61-.59.86-.94.5-.7.84-1.5,1.09-2.34l.81-2.52v.02s2.5-16.01,2.5-16.01l1.28-8,.66-4c.25-1.33.4-2.67.77-3.99.2-.65.34-1.3.67-1.94.1-.14.19-.37.51-.38.29.06.37.26.48.37.22.26.43.54.59.86.62,1.31.35,2.77.05,4.07-.57,2.64-1.1,5.29-1.64,7.93l-3.14,15.9c-.5,2.65-1.02,5.31-1.45,7.97-.1.64-.08,1.35-.26,2.02-.14.67-.35,1.31-.47,1.97-.05.29-.1.73.08.79.28.06.64.09.97.13l2.02.18c2.69.21,5.39.39,8.08.56,1.34.07,2.71.19,4.03.2.65-.06,1.31-.25,1.94-.45.63-.22,1.27-.46,1.79-.84.26-.21.47-.42.31-.72l-.3-.96-.62-1.93-1.25-3.85-2.5-7.71-4.98-15.42c-.83-2.56-1.62-5.17-2.4-7.73-.5-1.25-1.06-2.48-1.66-3.69-.61-1.2-1.22-2.42-2.05-3.46-.11-.12-.22-.25-.35-.33-.12-.11-.23-.07-.41-.03-.33.07-.65.15-.98.24-.65.18-1.3.37-1.94.57-1.29.42-2.55.83-3.74,1.51-1.26.51-2.55.93-3.88,1.22-.33.07-.67.13-1.01.15-.17.01-.35.01-.52,0-.16-.03-.39-.07-.49-.29,0-.74.11-1.36.15-2.05.11-1.35.2-2.69.23-4.04.02-.67.02-1.35-.02-2.02-.05-.67-.18-1.33-.34-1.98-.32-1.3-.7-2.61-1.27-3.82-.15-.32-.29-.55-.56-.84-.07-.42.16-.7.3-1.01.34-.59.73-1.14,1.13-1.69l1.21-1.62c.2-.27.4-.54.59-.82.08-.14.2-.29.2-.42,0-.15-.02-.32-.05-.48-.3-1.3-.82-2.56-1.32-3.81-.52-1.25-1.06-2.48-1.66-3.69-.29-.61-.65-1.17-.98-1.77-.31-.6-.58-1.23-.84-1.85-.27-.61-.5-1.26-.86-1.81-.1-.13-.21-.25-.28-.11-.08.11-.07.29-.05.44.05.33.14.65.25.97.43,1.27,1,2.5,1.44,3.79.11.32.21.65.28.98.03.17.06.34.05.52,0,.18-.1.35-.17.5-.33.6-.72,1.15-1.1,1.71-.77,1.11-1.57,2.2-2.38,3.28-1.62,2.17-3.27,4.3-4.95,6.42-1.7,2.1-3.36,4.24-5.27,6.16-1.07.87-2.37,1.32-3.62,1.82-1.27.47-2.55.89-3.85,1.28-2.59.78-5.21,1.45-7.84,2.06-2.64.58-5.27,1.23-7.97,1.45-1.35.11-2.71.14-4.05,0-1.34-.15-2.71-.4-3.88-1.12l.05-.06c1.15.7,2.52.95,3.84,1.1,1.34.14,2.69.11,4.04,0,2.69-.23,5.32-.87,7.96-1.46,2.63-.61,5.25-1.28,7.83-2.07,1.29-.39,2.58-.81,3.84-1.28,1.24-.5,2.55-.96,3.58-1.81,1.89-1.91,3.55-4.06,5.25-6.16,1.68-2.11,3.33-4.25,4.94-6.42.81-1.08,1.6-2.17,2.37-3.28.38-.56.76-1.11,1.09-1.7.19-.28.17-.6.1-.93-.07-.33-.17-.65-.27-.97-.44-1.27-1-2.5-1.44-3.79-.11-.32-.21-.65-.26-.99-.01-.17-.05-.36.07-.54.04-.09.2-.16.3-.09.09.05.15.13.2.2.38.58.61,1.22.88,1.84.26.62.53,1.24.84,1.84.32.58.7,1.16.99,1.77.6,1.21,1.15,2.45,1.67,3.7.5,1.25,1.02,2.5,1.34,3.84.03.17.07.34.06.52-.02.22-.14.34-.22.49-.19.28-.39.56-.59.83l-1.21,1.62c-.4.55-.79,1.09-1.12,1.68-.15.28-.35.62-.29.88.2.19.42.54.55.83.58,1.24.96,2.54,1.28,3.85.15.66.29,1.33.34,2.01.05.68.04,1.36.03,2.03-.03,1.35-.12,2.7-.23,4.05-.04.66-.14,1.38-.15,1.98.1.22.53.2.84.19.33-.02.66-.08.99-.15,1.31-.29,2.6-.7,3.84-1.21,1.16-.66,2.48-1.1,3.76-1.51.64-.21,1.29-.4,1.95-.58.33-.09.66-.17.99-.24.09-.01.16-.03.27-.04.12,0,.21.05.29.1.15.1.27.23.38.36.86,1.08,1.46,2.3,2.07,3.5.6,1.21,1.16,2.44,1.67,3.7.8,2.59,1.58,5.17,2.41,7.74l4.99,15.42,2.51,7.71,1.25,3.85.62,1.93.31.97c.06.14.11.41-.02.58-.1.17-.24.29-.38.4-.57.41-1.22.65-1.86.88-.65.21-1.3.39-2,.46-1.38-.01-2.71-.13-4.06-.2-2.7-.17-5.39-.34-8.09-.56l-2.02-.18c-.34-.04-.66-.05-1.04-.14-.26-.11-.28-.38-.29-.54,0-.18.02-.36.05-.53.12-.68.33-1.32.47-1.98.17-.65.15-1.3.26-2,.43-2.67.94-5.32,1.44-7.98l3.12-15.91c.54-2.65,1.06-5.3,1.63-7.94.3-1.29.54-2.69-.03-3.88-.14-.29-.34-.55-.55-.8-.11-.13-.22-.27-.28-.26-.04-.02-.16.1-.23.23-.29.56-.45,1.24-.64,1.88-.36,1.28-.51,2.64-.76,3.96l-.66,4-1.27,8-2.49,16.01h0s0,.03,0,.03l-.8,2.52c-.25.85-.61,1.7-1.13,2.43-.26.37-.56.72-.92,1.01-.18.14-.38.27-.62.36-.22.09-.58.1-.79-.14-.2-.23-.22-.49-.23-.73,0-.24.03-.47.1-.71.16-.47.56-.84,1.01-1,.44-.17.9-.22,1.35-.24.22-.01.45,0,.67,0,.2-.02.5.03.71.12.87.39,1.49,1.08,2,1.82.49.76.87,1.62.88,2.56.02.95-.53,1.84-1.27,2.38-.74.55-1.63.88-2.57.87-.52-.01-.96-.36-1.23-.72-.28-.37-.48-.78-.66-1.19l-.51-1.22c-.18-.4-.38-.74-.72-.97-.63-.51-1.54.19-2.15.57-.19.22-.01.68.21,1.01.22.35.52.68.82.98.62.6,1.32,1.13,2.06,1.59,1.48.93,3.11,1.59,4.8,2,3.41.78,6.95,1,10.45.86,1.75-.08,3.5-.27,5.2-.67.85-.21,1.69-.43,2.45-.83.77-.39,1.48-.9,2.11-1.49.62-.59,1.21-1.27,1.49-2.04.07-.19.1-.39.09-.57-.02-.21-.05-.42-.1-.62-.09-.42-.23-.82-.41-1.21-.35-.75-.9-1.51-1.68-1.67-.38-.07-.8,0-1.09.24-.29.24-.45.63-.52,1.03-.14.82-.03,1.7.14,2.54.05.21.09.43.17.59.09.18.2.37.32.54.24.35.52.68.82.98.59.57,1.43,1.07,2.12.68.67-.39,1.04-1.26,1.28-2.05.23-.81.21-1.68-.12-2.46-.32-.78-.88-1.45-1.47-2.1-.29-.33-.6-.65-.88-1.01-.29-.35-.49-.82-.63-1.22l-.91-2.48c-1.2-3.31-2.38-6.64-3.53-9.97-1.15-3.33-2.28-6.67-3.37-10.02-1.07-3.36-2.15-6.72-2.97-10.16-.39-1.76-.52-3.49-.95-5.19-.2-.85-.44-1.69-.75-2.5-.31-.8-.69-1.61-1.28-2.17-.3-.28-.64-.42-1.01-.35-.37.07-.72.29-1,.58-.57.59-.91,1.4-1.05,2.23-.13.83-.11,1.71.25,2.44.35.74,1.02,1.31,1.78,1.64.74.32,1.68.46,2.38.19.69-.32.87-1.25.98-2.09l.15-1.31c.05-.46.12-.85.07-1.27-.08-.84-.34-1.67-.67-2.47-.34-.78-.76-1.57-1.33-2.16-.28-.29-.65-.52-.88-.4l-.27.17c-.11.06-.22.11-.33.15-.22.08-.43.15-.64.22-1.72.49-3.44.83-5.17,1.19-3.45.7-6.94,1.28-10.36,2.04-.43.11-.85.19-1.22.37-.42.18-.85.32-1.29.43-.87.22-1.75.35-2.63.47l-2.62.34c-.86.1-1.66.33-2.36.8-.7.46-1.27,1.11-1.68,1.85-.21.37-.38.76-.5,1.16-.12.39-.21.84-.15,1.17-.05.19.48.24.88.23.43,0,.88-.03,1.35.02.24.03.48.06.73.21.26.13.46.46.46.74.03.26-.09.57-.11.7-.02.17,0,.39,0,.6.17,1.72.54,3.45.89,5.17.36,1.72.74,3.44,1.13,5.16,1.58,6.86,3.3,13.69,5.09,20.51l1.38,5.1c.24.84.48,1.7.75,2.52l.09.25c.08.13.13.28.15.42.03.29-.02.54-.09.77-.15.46-.38.86-.64,1.24-.26.38-.55.73-.88,1.06-.3.32-.85.66-1.4.56-.26-.03-.47-.11-.67-.14-.1-.02-.19-.03-.29-.04-.06,0-.26,0-.42-.07-.57-.31-.71-.76-.96-1.13-.22-.39-.42-.77-.67-1.08-.26-.33-.52-.51-.83-.41-.31.08-.62.38-.83.71-.21.33-.33.73-.2.96.12.26.51.44.89.52.4.07.79.09,1.14-.07.43-.15.73-.29.77-.6.06-.3-.06-.79-.09-1.22l-.58-5.25-1.16-10.5c-.81-7-1.55-14.01-2.59-20.96-.07-.43-.14-.87-.24-1.28-.02-.1-.05-.21-.08-.29v-.04c-.07-.06.06.14.25.12.07-.01.07-.04.07-.03-.05.07-.11.3-.14.49-.12.83-.12,1.71-.12,2.58.01,1.76.07,3.51.17,5.27.19,3.51.37,7.04.77,10.52.57,3.46.87,7.01,1.21,10.51.17,1.77.36,3.46.65,5.24.19,1.79.15,3.56.03,5.34l-.02.24-.23.05c-.48.11-.9.24-1.44.34-.55.06-1.03,0-1.53-.03-.98-.1-1.93-.27-2.89-.43-.95-.16-1.91-.34-2.84-.46-.18-.01-.6-.05-.84-.26-.26-.19-.43-.45-.55-.7-.23-.51-.3-1.02-.34-1.52-.07-1.01.04-2,.23-2.97.1-.48.25-.98.41-1.44.13-.42.24-.9.34-1.36.41-1.88.77-3.78,1.14-5.67l2.14-11.4c.74-3.8,1.4-7.59,2.33-11.39.13-.5.3-.94.38-1.36.04-.21.05-.43,0-.54-.02-.06-.03-.05-.03-.05,0,0-.06-.01-.13,0-.31.09-.68.41-.91.75-.27.36-.31.68-.4,1.22l-1.16,5.69-2.4,11.35-1.22,5.67c-.2.95-.45,1.88-.59,2.82-.15.95-.28,1.9-.4,2.86-.26,1.92-.49,3.84-.87,5.76-.1.48-.21.96-.36,1.44-.08.24-.16.48-.31.74-.07.12-.16.27-.35.41-.13.08-.24.15-.44.2-.09.02-.23.04-.39-.01-.17-.06-.3-.22-.34-.34-.09-.24-.06-.39-.05-.54.03-.29.1-.53.18-.78.15-.49.34-.94.54-1.4l.07-.15.16-.05.95-.29.48-.14c.13-.04.41-.13.66-.07.27.04.52.24.64.45.13.21.18.41.21.61.06.4.02.77-.06,1.13-.18.7-.49,1.45-1.28,1.86-.43.19-.79.16-1.14.17-.35,0-.69-.04-1.02-.07-.67-.06-1.33-.14-1.95-.14-.3,0-.64.04-.78.12-.06.05-.04,0-.05.07,0,.07.05.19.11.31.26.49.76.9,1.28,1.26.53.35,1.1.66,1.69.93,2.37,1.08,4.95,1.75,7.54,2.13,2.6.38,5.24.4,7.83-.02,2.56-.44,5.16-1.2,7.27-2.64.51-.37.99-.8,1.13-1.29.15-.5-.02-1.08-.36-1.57-.34-.48-.83-.89-1.36-1.1-.27-.11-.53-.14-.77-.1-.3.06-.59.14-.83.27-.49.24-.65.74-.61,1.34.02.56.35,1,.87,1.14.49.14,1.2.04,1.63-.2.41-.22.48-.83.49-1.47.04-.52-.29-1.13-.56-1.71-.29-.58-.61-1.15-.95-1.72-.67-1.13-1.39-2.25-2.13-3.34l-.03-.04-.02-.05-.73-2.2c-.24-.75-.44-1.5-.64-2.25l-1.13-4.5c-.73-3.01-1.44-6.02-2.13-9.03-.34-1.51-.68-3.02-.97-4.55-.26-1.54-.54-3.03-.85-4.56l-1.89-9.07.18.24c-.71-.36-1.65-.46-2.45-.2-.4.12-.8.34-1.12.58-.3.24-.47.57-.48.95-.02.78.45,1.61,1.03,2.26.58.64,1.36,1.24,2.1,1.19.71-.04,1.2-.91,1.56-1.72.19-.42.36-.85.54-1.29.18-.45.36-.85.41-1.25.05-.4-.02-.77-.25-1.09-.06-.08-.12-.16-.19-.26l-.12-.17c-.04-.07-.14-.17-.11-.44.07-.28.25-.34.31-.38.09-.04.16-.07.23-.09l.35-.1,2.75-.68,2.76-.63c.46-.1.92-.2,1.41-.27.5-.11,1.13,0,1.58.22.47.22.87.5,1.26.76.19.13.39.26.58.37.18.1.41.22.5.23.28.03.71-.18,1.06-.42.36-.25.71-.55,1.03-.86.33-.32.64-.66.92-1.01l.2-.27.11-.15c.07-.09.14-.15.2-.19.25-.18.47-.28.7-.38.91-.37,1.82-.63,2.74-.88,1.83-.49,3.67-.91,5.52-1.3h.02s.03,0,.03,0l1.66-.1c.55-.05,1.15-.02,1.55-.16.42-.13.48-.42.37-.93-.11-.47-.36-.97-.61-1.45-.25-.47-.53-1.03-.75-1.46-.22-.38-.63-.6-1.11-.67-.95-.11-2.07.23-2.72.94-.58.5-1.12.6-1.67.78-.55.16-1.1.28-1.66.39-1.11.21-2.22.37-3.33.49-.56.06-1.12.11-1.68.13-.28.01-.57.02-.87,0-.13,0-.39-.03-.58-.17-.19-.13-.31-.32-.38-.48-.25-.67-.18-1.25-.14-1.83.06-.58.16-1.13.3-1.69v.09s-.01-3.66-.01-3.66c.04-1.22-.14-2.36-.4-3.55-.53-2.35-1.3-4.67-2.15-6.94-.43-1.14-.88-2.26-1.37-3.37-.25-.55-.5-1.1-.78-1.63-.14-.27-.28-.53-.43-.78-.15-.24-.32-.5-.47-.61-1.14-.82-1.58-2.21-1.71-3.44-.07-.63-.08-1.26-.06-1.88.02-.61.07-1.27.27-1.9.36-1.28,1.43-2.35,2.68-2.76.6-.21,1.33-.32,1.97-.2.62.08,1.23.19,1.83.31,2.4.53,4.81,1.12,7.03,2.37.54.32,1.1.74,1.46,1.33.39.57.54,1.37.33,2.04-.43,1.35-1.46,2.18-2.32,3.02-.89.79-1.56,1.76-2.21,2.79-.64,1.02-1.23,2.08-1.8,3.16-.56,1.07-1.1,2.16-1.62,3.26-.49,1.11-1.12,2.23-1.76,3.25-1.29,2.09-2.66,4.11-4.06,6.12-2.82,4-5.66,7.97-8.87,11.69-.81.93-1.74,1.79-2.78,2.5-1.03.72-2.15,1.26-3.28,1.76-2.26.97-4.52,1.85-6.66,2.98-4.46,2.34-9.54,2.54-14.07,4.06-1.07.38-2.35,1.06-1.65,1.96.68,1.09,1.03,2.36,1.15,3.61.12,1.26,0,2.52-.23,3.74-.25,1.23-.6,2.42-1.24,3.56-.68,1.13-1.73,1.96-2.87,2.51-1.14.57-2.38.87-3.61,1.05-2.48.34-4.98,0-7.36-.08-.14,0-.28,0-.37.03-.04,0-.07.03-.03,0,.03-.03.04-.09.04-.06.01.13.16.46.29.71.32.65.36,1.27.46,1.89.15,1.23.22,2.46.26,3.68.08,2.45.07,4.9-.09,7.36-.04.61-.1,1.23-.18,1.85-.04.31-.09.62-.17.94-.04.16-.08.32-.16.49-.04.09-.08.18-.17.29-.11.14-.37.22-.42.21-.79.05-1.34-.19-1.95-.38-.59-.21-1.16-.46-1.72-.73-.56-.27-1.11-.56-1.64-.89-.52-.35-1.08-.62-1.51-1.28-.65-1.22-.72-2.48-.81-3.72-.05-1.25-.03-2.47.26-3.75.44-1.27,1.14-2.25,1.75-3.31.31-.52.62-1.04.91-1.57.14-.26.27-.53.39-.79.11-.25.2-.57.18-.68-.03-.03.09.06,0,.02-.07,0-.2.02-.32.05-.25.08-.52.2-.83.31-.6.23-1.23.36-1.85.45-1.26.16-2.52.08-3.74-.06-1.22-.13-2.43-.35-3.57-.26l-.4.06c-.07.02-.16.07-.25.14-.18.16-.35.39-.5.63-.3.49-.54,1.04-.77,1.59-.45,1.12-.84,2.27-1.23,3.42-.39,1.16-.79,2.32-1.24,3.46-.49,1.13-.91,2.31-1.91,3.29-.26.23-.62.45-1.05.45-.45-.02-.7-.14-1.03-.27-.61-.28-1.13-.7-1.57-1.16-.89-.93-1.53-2.02-2.08-3.13-.54-1.12-.98-2.28-1.32-3.48l-.12-.46c-.04-.19-.05-.4-.01-.6.08-.41.33-.73.59-.96.53-.46,1.13-.7,1.71-.93,1.18-.44,2.37-.73,3.55-1.04,1.15-.32,2.41-.59,3.3-1.18.39-.3.71-.84,1.01-1.34.29-.52.56-1.06.81-1.6.51-1.1.97-2.22,1.42-3.35.91-2.26,1.72-4.56,2.8-6.8.14-.28.29-.56.47-.83.2-.28.41-.53.65-.75.46-.45.95-.83,1.44-1.2.99-.74,2.03-1.4,3.07-2.05,2.09-1.29,4.22-2.49,6.34-3.69,1.06-.6,2.13-1.2,3.16-1.82,1.05-.58,1.82-1.44,2.61-2.37.78-.92,1.51-1.9,2.29-2.85.39-.48.78-.95,1.28-1.39.13-.11.27-.22.45-.31.1-.05.21-.09.36-.1.21,0,.29.07.37.1.33.16.57.35.83.53,1.97,1.52,3.74,3.16,5.57,4.82.89.97,1.48,2.04,2.1,3.11.6,1.08,1.14,2.18,1.63,3.31.49,1.13.93,2.29,1.26,3.48.32,1.18.6,2.47.37,3.76-.41,2.46-1.18,4.78-1.9,7.12l-1.09,3.49c-.17.58-.34,1.16-.48,1.74-.13.56-.16,1.15-.21,1.76-.12,2.42-.12,4.86-.11,7.3,0,4.89.19,9.73.19,14.66-.06,1.23-.19,2.45-.34,3.67-.17,1.22-.33,2.43-.73,3.66-.05.15-.12.31-.21.48-.05.08-.12.18-.21.26-.07.06-.12.11-.21.17-.13.11-.44.24-.7.16-.24-.07-.36-.16-.5-.23-.51-.31-1.03-.54-1.6-.73-1.17-.39-2.31-.83-3.45-1.26l-6.83-2.63-3.41-1.33c-1.13-.42-2.31-.88-3.39-1.47-2.18-1.12-4.3-2.34-6.42-3.56-.52-.29-1.07-.65-1.57-.89-.54-.26-1.1-.49-1.66-.72l-.84-.32c-.26-.09-.61-.21-.77-.23.45-.11.14-.82.26-.48l.16.11c.2.14.29.27.4.4.2.26.37.51.54.77,2.6,4.18,4.79,8.54,6.99,12.91,2.16,4.38,4.25,8.81,6.04,13.37.44,1.14.86,2.3,1.22,3.48.18.59.33,1.19.44,1.82.1.65.13,1.23.2,1.84l.74,7.28c.51,4.85,1.05,9.7,1.69,14.54.32,2.42.66,4.83,1.08,7.23.21,1.2.44,2.39.74,3.56.15.6.33,1.12.57,1.67.25.58.47,1.16.67,1.73,1.64,4.61,3.09,9.27,4.58,13.92l8.73,27.96.55,1.74.28.88c.1.34.12.71.06,1.05-.25,1.39-1.22,2.36-2.2,3.14-1.01.76-2.16,1.35-3.45,1.57-.64.1-1.34.1-1.99-.21-.64-.32-1.08-.86-1.42-1.41-.66-1.12-1-2.33-1.27-3.53-.27-1.21-.44-2.43-.57-3.65-.25-2.45-.34-4.9-.34-7.34.06-2.41-.49-4.77-1.32-7.04-.83-2.27-1.9-4.46-2.99-6.63-2.2-4.34-4.51-8.7-6.02-13.39-1.46-4.7-2.36-9.51-3.26-14.31-.87-4.81-1.64-9.63-2.37-14.46-.73-4.83-1.41-9.66-2.07-14.5-.7-4.84-1.17-9.69-2.31-14.43-1.09-4.74-2.43-9.44-4.07-14.02-.41-1.14-.85-2.28-1.33-3.39-.49-1.1-1-2.22-1.67-3.18-.31-.46-.84-.95-.95-.65-.26.4-.45,1.03-.6,1.59-.3,1.16-.49,2.36-.67,3.56-.67,4.82-.99,9.69-1.2,14.56-.05,1.22-.08,2.43-.09,3.65,0,1.22-.05,2.43.24,3.58.53,2.36,1.2,4.72,1.84,7.07,2.63,9.4,5.43,18.75,8.1,28.14.66,2.35,1.33,4.7,1.94,7.07.15.59.3,1.19.43,1.79.07.29.12.62.16.93.03.29.09.59.14.89.21,1.19.46,2.39.71,3.58,1.01,4.77,2.13,9.52,3.32,14.25,1.2,4.73,2.47,9.44,3.88,14.11,1.41,4.66,2.93,9.31,4.8,13.8.95,2.23,1.98,4.46,3.36,6.43.35.48.73.95,1.16,1.35.43.39.92.73,1.45.8.26.03.52,0,.76-.11l.8-.42c.55-.28,1.11-.54,1.69-.77,2.29-.94,4.77-1.36,7.22-1.43.61-.02,1.22-.03,1.81-.09.58-.06,1.19-.17,1.45-.58.13-.19.18-.49.2-.76.02-.27-.02-.54-.13-.77-.11-.23-.3-.43-.53-.65-.11-.11-.23-.23-.33-.42-.1-.19-.1-.44-.03-.62.3-.71.85-1.01,1.13-1.5.32-.48.52-1.03.62-1.6.2-1.15.03-2.36-.34-3.5-.18-.57-.41-1.12-.69-1.65-.3-.56-.48-1.17-.66-1.75-.34-1.18-.62-2.38-.88-3.57-1.01-4.79-1.78-9.61-2.36-14.47-.66-4.86-.53-9.77-.68-14.64l-.26-14.64c-.16-9.76-.3-19.52-.36-29.29,0-2.44-.01-4.88.01-7.32.01-1.22.03-2.44.09-3.67.05-1.21.06-2.41-.17-3.6-.4-2.38-1.39-4.63-2.68-6.68-1.29-2.05-2.84-3.93-4.48-5.73-.83-.88-1.62-1.83-2.56-2.57-.95-.74-2.01-1.32-3.1-1.85-2.19-1.04-4.5-1.83-6.83-2.52-4.67-1.36-9.46-2.35-14.27-3.11h.04s-2.9.18-2.9.18c-.93.08-1.99.21-2.4,1.02-.33.82-.51,1.84-.75,2.76l-.66,2.84c-.86,3.79-1.69,7.58-2.49,11.38-.38,1.89-.85,3.81-1.1,5.69-.12,1.93-.19,3.87-.28,5.81l-.43,11.64-1.67,46.58c-.33,7.76-.58,15.52-1.19,23.28-.05.49-.09.97-.19,1.46-.01.06-.03.12-.05.2-.01.03-.02.07-.08.14-.1.11-.29.02-.29-.01-.13-.15-.15-.25-.21-.37-.1-.23-.18-.46-.25-.7-.3-.93-.55-1.87-.8-2.81-.49-1.88-.95-3.77-1.4-5.66-.9-3.78-1.76-7.57-2.61-11.36-3.39-15.16-6.62-30.36-9.8-45.56l.18.1-.24.08-.12.04-.06.02h-.03s0,.02.04-.01c.04-.04.04-.08.03-.06,0,.1.04.31.06.46l.19,1,.43,2,.9,3.99,1.86,7.97,3.79,15.92,7.7,31.82v.03s0,.03,0,.03c-.63,2.02-1.24,4.05-1.8,6.09-.14.51-.27,1.02-.39,1.53-.06.26-.12.51-.16.77-.02.12-.04.28-.03.34.03-.02-.15-.06-.11-.04,0,0,.03-.03.04-.05.03-.04.07-.11.1-.16.57-.88.97-1.86,1.3-2.86,1.25-4.04,1.52-8.31,1.71-12.52.02-.52.06-1.07.06-1.58-.04-.52-.12-1.04-.2-1.57l-.52-3.13-1.14-6.25-2.37-12.49-4.74-24.97-1.12-6.26-.52-3.14-.23-1.58c-.05-.53-.18-1.04-.08-1.63.25-1.04.61-2.07,1.23-2.96.31-.44.69-.86,1.18-1.13.49-.28,1.07-.37,1.63-.27,1.11.29,1.87,1.15,2.52,1.98.64.86,1.17,1.8,1.51,2.83.08.26.15.53.16.82,0,.27,0,.53-.02.81-.04.54-.18,1.09-.44,1.57-.53.98-1.45,1.65-2.38,2.15-.95.49-1.95.92-3.03,1.06-1.07.15-2.17.03-3.2-.3-1.02-.33-1.98-.81-2.92-1.32l-1.4-.75c-.46-.25-.95-.45-1.42-.73-.95-.55-1.62-1.54-1.87-2.6-.29-1.02-.28-2.18-.98-2.89-.72-.69-1.97-.58-2.82-1.42-.42-.42-.54-1.03-.54-1.57,0-.54.07-1.08.19-1.61.25-1.06.77-2.01,1.24-2.95.23-.47.45-.95.54-1.44.07-.45-.26-.91-.57-1.31-.64-.82-1.42-1.6-1.83-2.63-.44-1.03-.19-2.28.44-3.15.57-.93,1.51-1.64,2.55-1.95,1.05-.32,2.15-.31,3.21-.19.53.06,1.06.15,1.58.23.57.09,1.06.44,1.42.86.72.85,1.07,1.91,1.28,2.96.1.53.17,1.06.18,1.61,0,.55-.07,1.07-.07,1.59-.04,1.06-.05,2.12-.11,3.18-.07,1.06-.16,2.14-.54,3.17-.38,1.01-.88,1.95-1.38,2.88-.5.93-1.03,1.86-1.55,2.78-.25.46-.54.93-.76,1.37-.19.44-.08.95.2,1.36.56.82,1.55,1.37,2.54,1.47,1.07.17,1.73-.79,2.25-1.67,1.05-1.81,1.8-3.82,2.99-5.61,1.43-1.6,2.14-3.59,2.88-5.57.7-1.99,1.31-4.02,1.9-6.05.3-1.02.57-2.04.93-3.05.37-1,.76-1.98,1.14-2.97l2.36-5.9c1.59-3.93,3.18-7.85,4.87-11.75.21-.49.43-.97.65-1.45.24-.52.59-.91.47-1.36-.1-.45-.47-.84-.83-1.21-.18-.19-.37-.39-.54-.6-.16-.19-.35-.38-.53-.57l-4.55-4.43c-.38-.37-.75-.74-1.12-1.14-.38-.42-.63-.93-.79-1.45-.31-1.07-.35-2.12-.26-3.25.17-.62.67-.98,1.1-1.28.47-.29.87-.55,1.24-.93.37-.36.72-.76.99-1.18.25-.42.45-.96.85-1.38.19-.21.48-.41.82-.41.17,0,.33.04.46.1.16.07.2.1.34.13.46.1,1,.04,1.5-.04,1.02-.18,2.03-.51,2.98-.92.95-.42,1.89-.93,2.67-1.59.78-.65,1.2-1.64,1.56-2.61.66-1.99,1.4-4.05,2.65-5.8,1.2-1.78,2.83-3.24,4.59-4.44,3.53-2.42,7.54-3.96,11.27-5.88.93-.49,1.76-1.11,2.4-1.92.63-.81,1.05-1.77,1.24-2.79.11-.5.12-1.03.21-1.57l.25-1.57c.09-.53.17-1.04.31-1.58.03-.09.01-.09.03-.05.02.03,0,0-.03,0-.08-.03-.21-.04-.33-.05-.25-.01-.51,0-.77,0-.53.02-1.06.06-1.6.04-.55,0-1.11-.15-1.61-.29-1.03-.28-2.04-.6-3.05-.93-2.02-.66-4.02-1.36-5.98-2.19-.98-.42-1.95-.85-2.87-1.44-.23-.15-.45-.31-.66-.53-.22-.24-.32-.48-.45-.72-.25-.48-.47-.96-.69-1.45-.86-1.95-1.61-3.94-2.25-5.97-.62-2.03-1.18-4.1-1.29-6.26-.04-1.06.08-2.24.73-3.17.63-.93,1.58-1.57,2.56-2.01,1.99-.88,4.13-1.2,6.23-1.44,1.06-.12,2.11-.2,3.17-.29,1.09-.11,2.18.06,3.22.3,2.09.5,4.07,1.31,6.01,2.18l1.45.67.72.33.18.07.08.03c-.06.08.23-.16-.2.18.06.32.02.09,0,.14-.02-.02-.04-.04-.07-.05l-.15-.1c-.85-.54-1.84-.97-2.8-1.39-1.94-.82-3.92-1.58-5.95-2.11-.5-.12-1.02-.24-1.51-.26-.52,0-1.05.03-1.57.07-1.05.07-2.1.19-3.14.35-2.07.34-4.15.81-6,1.76-.91.48-1.77,1.11-2.27,1.97-.5.85-.51,1.94-.45,2.96.19,2.07.81,4.11,1.52,6.09.72,1.98,1.57,3.92,2.5,5.8l-.04-.05c.53.56,1,1.12,1.59,1.56.58.46,1.21.89,1.83,1.29h-.02c.66.3,1.34.7,1.99.95.68.26,1.39.47,2.1.68,1.43.41,2.87.79,4.31,1.13.72.17,1.45.35,2.16.46.72.1,1.46.15,2.19.14.72-.02,1.48-.08,2.05-.4.3-.16.4-.37.51-.75.11-.35.21-.7.3-1.06.73-2.88,1.34-5.8,1.87-8.72l.18-1.1c.04-.34.13-.79.07-.99-.09-.3-.33-.51-.6-.8-.27-.26-.5-.64-.72-.83-1.09-.9-2.46-1.58-3.76-2.26l.09.02-.94-.09c-.33-.04-.57-.03-.88.01-.6.09-1.21.26-1.8.44l-1.8.58-.91.29c-.32.1-.68.13-1,.14-.66,0-1.29-.05-1.92-.1-.62-.04-1.27-.14-1.81-.02-.58.14-1.17.38-1.76.6-.6.21-1.17.5-1.87.57-1.24.13-2.5.29-3.67.66-.54.19-1.25.46-1.03.87.13.54.5,1.05.89,1.51.2.23.41.46.64.67l.34.32.17.16c.05.03.08.08.13.09.37.19,1.04-.13,1.62-.31.6-.21,1.24-.38,1.89-.46.62-.08,1.24-.18,1.86-.28,2.49-.42,4.97-.89,7.44-1.41l.92-.21c.28-.07.61-.18.94-.24.66-.11,1.33-.08,1.97.02l.48.08c.13.01.41.1.53.21.3.2.52.42.76.65.46.45.89.92,1.31,1.39l1.27,1.39c.21.23.43.45.66.65.11.09.24.19.31.22.08-.02-.16.05-.1.03.03-.04.07-.1.1-.16.56-1.07,1-2.28,1.42-3.46.4-1.18.83-2.4,1.01-3.58.07-.47-.31-1.08-.55-1.63-.27-.57-.56-1.13-.82-1.72-.26-.59-.5-1.18-.64-1.84-.04-.16-.05-.34-.06-.51,0-.19.01-.36.02-.5.02-.29,0-.59-.04-.88-.09-.57-.32-1.18-.67-1.56-.03-.03-.07-.06-.17-.14-.08-.07-.14-.16-.2-.24-.1-.17-.16-.35-.2-.52-.08-.34-.09-.68-.09-1.01,0-.68.13-1.25-.18-1.71-.13-.23-.34-.41-.58-.53-.26-.14-.44-.14-.8-.14-.65-.01-1.35-.12-1.96-.49-.3-.18-.58-.46-.74-.78-.17-.32-.25-.66-.31-.98-.25-1.26.2-2.8-1.06-3.05-.54-.15-1.25-.34-1.61-.11-.37.27-.73.95-1.27,1.35-.26.22-.54.4-.85.56-.31.14-.68.29-1.11.17-.44-.12-.67-.49-.83-.75-.16-.27-.32-.45-.55-.63-.44-.35-1-.44-1.5-.21-.5.23-.93.67-1.29,1.16-.36.49-.7,1.05-1.12,1.54-.21.25-.44.51-.78.7-.34.18-.67.23-.95.32-1.14.39-2.24,1.03-2.97,1.98-.74.96-1.32,2.1-1.97,3.19-.62,1.09-1.35,2.17-1.98,3.23-.62,1.06-1.01,2.24-1.05,3.46-.03,1.22.28,2.42.72,3.58.44,1.17,1,2.31,1.33,3.58.31,1.19.8,2.35,1.32,3.49,1.06,2.28,2.27,4.5,3.56,6.65.31.53.7,1.05.98,1.66.28.6.48,1.24.56,1.9.19,1.3-.11,2.76-1,3.78-.82,1.04-1.88,1.79-2.83,2.61-1.04.77-2.1,1.45-3.16,2.14-2.12,1.38-4.27,2.73-6.45,4.01-2.1,1.26-3.41,3.56-4.02,5.93-.16.6-.28,1.21-.33,1.81-.04.58-.05,1.28-.13,1.9-.15,1.27-.36,2.52-.6,3.77-.26,1.25-.53,2.49-1.01,3.71-.51,1.26-1.52,2.2-2.54,2.97l-.77.56c-.28.2-.41.31-.55.58-.26.51-.4,1.1-.39,1.68,0,.29.06.57.14.85.08.28.22.52.35.87.22.66.26,1.34.22,1.99-.04.66-.15,1.3-.31,1.93l-.59,1.82-1.13,3.61c-.73,2.42-1.43,4.84-2.06,7.28-.64,2.43-1.12,4.93-1.86,7.36-.72,2.44-1.53,4.84-2.52,7.19-.25.59-.52,1.17-.83,1.74-.08.14-.16.29-.26.43-.04.07-.1.15-.16.22-.08.07-.09.16-.34.26-.42.05-.56-.15-.72-.27-.14-.14-.24-.27-.33-.41-.37-.53-.72-1.01-1.17-1.41-.39-.4-.95-.55-1.55-.64-1.2-.16-2.46-.05-3.7.07-.29.04-.68.05-.89.11-.25.06-.5.21-.73.38-.47.34-.88.8-1.22,1.3-.67.98-1.2,2.18-1.09,3.31.22,1.14.78,2.31,1.3,3.45.24.6.58,1.12.61,1.94-.07.78-.45,1.33-.73,1.89-.15.27-.3.55-.35.78-.03.21-.03.59-.05.89-.03.64-.07,1.28-.18,1.93-.12.62-.26,1.36-.84,1.89-.52.47-1.09.78-1.65,1.09-1.11.63-2.35,1.04-2.96,2.02-.65.97-.76,2.23-.38,3.36.2.57.43,1.12.84,1.51.41.41.93.73,1.47,1.01,1.09.56,2.29.95,3.48,1.33l1.81.57c.3.1.61.21.92.34.16.07.31.14.48.26.08.07.17.13.26.27.06.11.07.19.11.28.7,2.48,1.29,4.9,1.93,7.36l7.41,29.42c2.47,9.8,4.91,19.62,7.47,29.39l.51,1.84c.14.67.12,1.35.03,1.99-.18,1.3-.6,2.52-.99,3.72-.39,1.2-.84,2.39-.96,3.58-.05.59,0,1.18.31,1.59.31.42.86.68,1.43.83,1.16.29,2.43.26,3.66.13.62-.07,1.23-.16,1.84-.29.3-.07.6-.14.9-.22l.22-.07c.11-.03.21-.05.31-.06.18-.01.35,0,.52,0,2.58.26,5.02.87,7.5,1.36,4.95,1.04,9.89,2.11,14.89,2.73,2.5.29,5.01.49,7.48.11,2.48-.34,4.91-1,7.28-1.83,2.38-.81,4.72-1.79,7.17-2.52,1.23-.35,2.47-.65,3.78-.75,1.34-.05,2.62.36,3.79.9,2.33,1.13,4.32,2.83,5.98,4.78.82.99,1.56,2.05,2.08,3.26.25.6.45,1.25.45,1.95.01.17-.04.35-.06.53-.08.17-.05.34-.28.57-.35.29-.66.35-.97.46-2.52.64-5.04.79-7.56,1.03-2.52.2-5.05.35-7.58.48-5.05.26-10.11.43-15.16.57-10.11.28-20.22.43-30.33.53l-15.17.1h-3.79s-.95.01-.95.01h-.47c-.14,0-.41,0-.6-.15-.4-.3-.44-.73-.46-1.06-.01-.35.02-.68.07-1,.5-2.55,1.55-4.87,2.58-7.19,1.06-2.3,2.22-4.56,3.47-6.76.63-1.1,1.28-2.19,1.97-3.26.71-1.06,1.4-2.12,2.35-3.05.13-.11.24-.22.43-.33.17-.09.33-.14.49-.19.32-.1.63-.17.94-.23.63-.13,1.25-.23,1.88-.32,1.26-.19,2.51-.34,3.77-.48,2.52-.28,5.04-.5,7.56-.71,10.08-.82,20.18-1.38,30.29-1.78,5.05-.19,10.11-.34,15.17-.36,2.53,0,5.06,0,7.6.23.32.03.64.07.96.13.33.08.63.08,1.01.34.51.6.63,1.2.86,1.81.38,1.22.66,2.46.93,3.7,1.03,4.96,1.75,9.98,2.35,15,.58,5.03,1.04,10.07,1.14,15.14,0,2.53.05,5.08-.55,7.61-.09.31-.19.63-.34.93-.15.29-.36.62-.71.79-.62.3-1.25.42-1.87.56-1.25.25-2.51.41-3.77.56-5.04.56-10.09.83-15.14,1.09-10.1.48-20.22.72-30.33.85-10.11.1-20.23.17-30.34-.25-1.26-.06-2.53-.14-3.79-.27-.32-.04-.63-.08-.95-.13-.31-.08-.64-.07-.98-.34-.55-.54-.62-1.23-.72-1.86-.26-2.57.07-5.09.34-7.61.61-5.03,1.51-10.01,2.19-15.01.31-2.51.69-5.01.19-7.49-.39-2.49-.98-4.94-1.69-7.36-1.42-4.84-3.3-9.54-5.62-14.02-4.63-8.94-11.1-17.04-19.3-22.94-4.08-2.96-8.57-5.36-13.29-7.13-4.72-1.78-9.67-2.93-14.67-3.55-5.01-.59-10.08-.72-15.11-.26-5.03.42-10.01,1.41-14.87,2.77-9.73,2.75-18.94,7.12-27.57,12.35-8.64,5.25-16.71,11.4-24.29,18.08-7.55,6.71-14.69,13.92-21.1,21.73l-.06-.05Z"/>
  </g>
</svg>