<?xml version="1.0" encoding="UTF-8"?>
<svg id="Layer_2" data-name="Layer 2" xmlns="http://www.w3.org/2000/svg" viewBox="0 0 439.98 222.12">
  <defs>
    <style>
      .cls-1 {
        fill: #1d1d1b;
        stroke-width: 0px;
      }
    </style>
  </defs>
  <g id="Layer_1-2" data-name="Layer 1">
    <path class="cls-1" d="M0,222.09c6.45-11.5,12.99-23.12,21.84-33,4.41-4.92,9.43-9.32,15.03-12.85,5.59-3.52,11.78-6.19,18.31-7.36,6.53-1.2,13.27-.75,19.71.77,6.45,1.51,12.64,3.92,18.75,6.42,6.12,2.49,12.2,5.1,18.5,7.07,3.14,1,6.36,1.76,9.58,2.5,3.22.72,6.46,1.36,9.72,1.89,6.51,1.07,13.1,1.72,19.7,1.78,6.6.16,13.17-.88,19.8-.7,3.31.07,6.62.3,9.9.74,3.28.44,6.53,1.1,9.74,1.92,6.42,1.64,12.61,4.03,18.74,6.48,6.14,2.44,12.29,4.86,18.66,6.58,6.37,1.71,12.91,2.78,19.5,3.04,3.29.18,6.6.14,9.83-.43,1.61-.29,3.2-.72,4.67-1.44.73-.35,1.43-.77,2.05-1.29.62-.51,1.17-1.12,1.74-1.72,1.1-1.21,2.24-2.44,2.94-3.88.34-.7.52-1.55.09-2.15-.43-.61-1.24-.86-2.02-1.07-3.15-.88-6.47-1.14-9.75-1.35-3.29-.19-6.59-.25-9.9-.33-1.65-.04-3.3-.07-4.96-.16-1.66-.09-3.29-.24-4.94-.27-6.59-.15-13.21.01-19.74.91-1.63.24-3.25.53-4.83.97-.79.22-1.56.48-2.3.82-.73.34-1.44.76-1.9,1.36-.23.3-.37.65-.37,1.01,0,.37.12.71.3,1.09.32.75.67,1.5,1.04,2.23.74,1.46,1.58,2.88,2.57,4.18,1.95,2.62,4.53,4.78,7.51,6.12,2.97,1.39,6.23,2.05,9.49,2.41,3.27.36,6.57.34,9.87.3,3.3-.04,6.6-.13,9.87-.52,3.26-.4,6.5-1.12,9.48-2.48,2.99-1.33,5.69-3.27,7.97-5.63,2.31-2.33,4.21-5.04,5.87-7.88,1.66-2.84,3.06-5.83,4.32-8.87,1.27-3.04,2.34-6.16,3.36-9.3,1.03-3.14,1.9-6.31,2.53-9.55,1.25-6.46,1.64-13.11.8-19.64-.41-3.26-1.18-6.47-2.15-9.61-.99-3.13-2.28-6.18-4.05-8.93-1.75-2.77-4.02-5.19-6.67-7.11-2.63-1.93-5.66-3.37-8.87-3.92-3.21-.57-6.56-.08-9.49,1.34-2.97,1.35-5.48,3.62-7.03,6.49-1.58,2.85-2.38,6.08-3.1,9.29-.71,3.22-1.34,6.47-2.22,9.67-1.84,6.36-3.79,12.67-5.96,18.92-2.17,6.25-4.6,12.41-7.37,18.42-2.76,6.02-5.79,11.89-8.68,17.83l-.12.24-.24-.08c-.32-.11-.64-.24-.91-.49-.27-.24-.47-.59-.53-.95-.13-.72.07-1.36.29-1.95.47-1.18,1.13-2.22,1.78-3.25.66-1.03,1.34-2.03,1.96-3.07.61-1.02,1.06-2.16,1.59-3.25,2.08-4.39,3.93-8.89,5.75-13.4,3.57-9.05,6.63-18.29,9.29-27.64,5.29-18.71,8.99-37.9,10.49-57.3l.05-.64.5.4c1.44,1.17,2.64,2.59,3.71,4.06,1.07,1.48,2.03,3.02,3.01,4.54,1.93,3.04,4.01,6.02,6.77,8.3l-.48.45c-2.08-2.89-3.77-6.05-5.1-9.34-1.33-3.29-2.33-6.73-2.9-10.24-.56-3.51-.73-7.12-.06-10.65.34-1.76.92-3.5,1.89-5.04.95-1.55,2.37-2.85,4.06-3.57l.08-.04h.09c.47.08.94.3,1.3.62.36.33.6.73.79,1.14.37.82.52,1.68.64,2.53.22,1.7.23,3.4.23,5.09-.02,3.38-.14,6.74-.07,10.1.07,3.35.3,6.71.94,9.99.64,3.27,1.7,6.49,3.49,9.3,1.79,2.78,4.21,5.24,7.28,6.5,3.06,1.3,6.48,1.45,9.79,2.17,1.68.31,3.31.96,4.81,1.77,1.5.82,2.91,1.82,4.12,3.05,1.18,1.22,2.24,2.72,2.5,4.51.13.88.03,1.81-.32,2.63-.34.83-.88,1.55-1.49,2.17l-.35-.47c1.09-.61,2.11-1.43,2.51-2.58.21-.57.26-1.19.33-1.84.07-.64.16-1.36.53-1.98.79-1.15,1.69-2.04,2.63-2.97.94-.91,1.91-1.78,2.9-2.63,1.98-1.68,4.06-3.3,6.2-4.74,1.01-.75,1.87-1.71,2.37-2.84.5-1.14.61-2.42.41-3.66-.4-2.51-1.83-4.72-3.4-6.76-1.54-2.08-3.2-4.06-4.97-5.95-1.77-1.89-3.64-3.68-5.59-5.38-1.93-1.72-4-3.29-6.02-4.92-2.03-1.63-4.04-3.27-5.97-5.03-.96-.88-1.9-1.79-2.76-2.79-.43-.5-.84-1.02-1.19-1.6-.32-.58-.69-1.24-.51-2.05.11-.4.42-.71.75-.89.33-.16.66-.26,1-.32.68-.12,1.37-.1,2.03,0,1.33.2,2.58.67,3.77,1.22,2.38,1.12,4.56,2.59,6.61,4.2,4.09,3.24,7.72,7.05,10.8,11.27,1.53,2.11,2.91,4.34,4.04,6.7,1.13,2.36,2.01,4.86,2.37,7.47l-.49-.08c2.21-4.37,3.14-9.5,1.94-14.28-.57-2.38-1.62-4.65-3.11-6.6-1.48-1.95-3.35-3.62-5.14-5.31-3.64-3.35-7.6-6.39-11.99-8.68-2.19-1.14-4.48-2.09-6.86-2.75-2.39-.67-4.79-1.36-7.14-2.2-1.17-.42-2.34-.88-3.46-1.45-.56-.3-1.12-.61-1.6-1.09-.44-.46-.86-.91-1.22-1.47-.17-.28-.34-.59-.38-.96-.05-.37.08-.76.28-1.04.4-.58.91-.94,1.45-1.31,1.12-.66,2.31-1.08,3.6-1.25,4.98-.52,10.03-.05,14.87,1.15,4.85,1.21,9.51,3.15,13.79,5.71,4.28,2.56,8.2,5.77,11.45,9.57l-.4.16c-.3-4.6-.82-9.28-2.63-13.51-.91-2.1-2.21-4.05-3.99-5.49-.89-.72-1.88-1.27-2.94-1.73-1.06-.49-2.1-.99-3.17-1.4-1.07-.41-2.18-.73-3.31-.83-1.14-.09-2.31-.14-3.46-.18-2.31-.07-4.63-.08-6.95-.08-4.64,0-9.28.08-13.93-.17-2.32-.16-4.66-.31-6.92-1.07-.55-.21-1.11-.46-1.58-.9-.48-.43-.71-1.13-.59-1.76.09-.65.49-1.17.9-1.6.42-.43.91-.78,1.41-1.09,2.02-1.23,4.27-1.95,6.51-2.57,2.25-.6,4.54-1.05,6.84-1.38,4.6-.66,9.27-.93,13.92-.74,4.63.22,9.32.82,13.69,2.54l-.24.27c-2.46-4.39-5.01-8.77-8.3-12.58-1.65-1.88-3.5-3.62-5.69-4.83-1.1-.59-2.27-1.03-3.49-1.23-1.22-.19-2.48-.13-3.72.02-2.49.3-4.79,1.4-6.9,2.75-2.12,1.35-4.15,2.85-6.31,4.18-4.28,2.71-9.02,4.66-13.9,5.98l-.9.24.75-.55c4.34-3.2,8.54-6.58,12.91-9.76,2.19-1.58,4.44-3.09,6.79-4.42,2.35-1.34,4.8-2.51,7.29-3.54v.3c-6.11-2.85-11.47-6.95-17.26-10.28-1.44-.84-2.93-1.6-4.43-2.32-1.52-.68-3.07-1.3-4.66-1.81-3.16-1.01-6.48-1.77-9.8-1.53-1.65.12-3.29.54-4.73,1.34-1.45.79-2.66,1.97-3.56,3.36-.93,1.37-1.51,2.95-1.99,4.54-.48,1.59-.77,3.24-.93,4.9-.6,6.6.77,13.55,4.69,18.99,14.71,22.37,29.74,44.52,45.08,66.46l-.18.14c-9.04-10.19-17.2-21.14-24.68-32.52-3.77-5.67-7.46-11.39-11.29-17.01l-2.9-4.2c-.97-1.41-1.86-2.86-2.75-4.31-1.77-2.91-3.5-5.83-5.33-8.7-1.83-2.87-3.73-5.69-5.82-8.37-2.09-2.67-4.35-5.24-6.98-7.38-2.6-2.12-5.71-3.87-9.11-3.97-3.36-.1-6.73,1.53-8.68,4.29-1.99,2.74-2.8,6.17-3.09,9.52-.28,3.38-.03,6.79.54,10.13.58,3.34,1.48,6.63,2.73,9.79,1.27,3.12,2.84,6.22,5.22,8.62l-.17-.03c3.76-1.8,7.6-3.48,11.6-4.7,3.99-1.22,8.17-2,12.37-1.82l.54.02-.47.27c-2.75,1.56-5.02,3.92-6.61,6.65-1.6,2.74-2.56,5.83-2.88,8.98-.32,3.15-.01,6.37,1,9.38,1,3,2.74,5.77,5.12,7.85l-.28.14c-.2-2.21-.03-4.44.35-6.61.4-2.17,1.01-4.31,1.9-6.34.89-2.02,2.04-3.96,3.66-5.52,1.57-1.57,3.84-2.58,6.11-2.25l.24.04-.12.22c-1.42,2.67-2.8,5.36-4.09,8.09-1.27,2.74-2.52,5.5-3.38,8.39-.43,1.44-.76,2.91-.81,4.4-.05,1.49.3,2.95.82,4.37.51,1.42.98,2.89,1.19,4.41.23,1.51.26,3.04.18,4.56-.07,1.52-.27,3.03-.49,4.53l-.64,4.49-1.29,8.99c-.9,5.98-1.91,11.96-3.35,17.85l-.1.4-.24-.33c-2.04-2.79-3.76-5.77-5.44-8.77l-4.98-9.02c-1.68-2.99-3.4-5.97-5.42-8.72-2.11-2.68-4.42-5.24-6.54-7.95-.26-.35-.53-.68-.75-1.08-.21-.4-.36-.87-.31-1.34.08-.96.69-1.7,1.23-2.35.56-.66,1.17-1.27,1.6-1.97.22-.36.37-.71.45-1.13.08-.42.18-.83.24-1.25.56-3.36.21-6.84-.87-10.06-1.08-3.23-2.84-6.22-4.96-8.88-2.13-2.67-4.63-5.04-7.34-7.12l-1.33-1.02,1.54.66c9.26,3.95,16.08,13.02,17.32,23.02l-.28-.19c1.45-.39,2.75-1.26,3.72-2.41.97-1.15,1.63-2.56,2-4.02.74-2.94.45-6.17-.96-8.85-1.42-2.71-3.62-4.94-6.06-6.78-2.45-1.85-5.15-3.36-7.86-4.84l-.79-.43h.9c4.37-.06,8.68,1.21,12.47,3.31,1.9,1.06,3.67,2.36,5.21,3.91,1.53,1.55,2.83,3.36,3.64,5.41l-.4-.08c2.27-2.35,3.37-5.65,3.84-8.87.43-3.24.27-6.67-1.03-9.67-.63-1.5-1.75-2.74-3.15-3.56-1.39-.84-2.98-1.32-4.6-1.6-3.25-.53-6.6-.31-9.83.35l-.56.11.28-.5c.95-1.68,2.62-2.85,4.4-3.44,1.8-.59,3.73-.69,5.59-.34,1.82.37,3.61.88,5.33,1.59,1.72.71,3.35,1.64,4.85,2.74l-.39.08c1.13-1.88,1.52-4.17,1.41-6.37-.12-2.21-.72-4.42-1.9-6.29-.59-.92-1.33-1.77-2.22-2.39-.91-.62-1.91-1.09-2.97-1.4-2.12-.63-4.41-.53-6.57-.05-4.39.99-8.08,3.78-11.53,6.64-3.44,2.9-6.63,6.11-9.67,9.44-6.07,6.68-11.62,13.84-16.69,21.3-1.27,1.86-2.47,3.78-3.66,5.7-1.19,1.92-2.35,3.85-3.44,5.83-1.08,1.98-2.13,3.99-3.29,5.94-1.15,1.95-2.34,3.87-3.55,5.79l-1.23,1.96.68-2.21c2.93-9.48,8.26-17.92,13.79-26.01,2.78-4.05,5.68-8.02,8.53-12.02,1.42-2,2.85-4,4.18-6.04,1.32-2.05,2.48-4.21,3.41-6.45,1.89-4.5,2.58-9.39,2.73-14.27.09-2.44.08-4.89.02-7.34.01-1.25-.1-2.39-.49-3.53-.38-1.12-.97-2.17-1.71-3.12-.74-.93-1.6-1.8-2.59-2.41-1.02-.61-2.15-1.09-3.28-1.54-1.13-.44-2.29-.83-3.46-1.12-1.15-.29-2.39-.37-3.59-.52-2.43-.26-4.86-.25-7.31-.13-2.45.11-4.91.2-7.37.21l.16-.64c3.36,1.84,6.31,4.28,9.08,6.87,2.76,2.6,5.32,5.41,7.64,8.42,1.15,1.51,2.25,3.07,3.16,4.76.44.85.88,1.72,1.05,2.74.04.26.05.53-.02.83-.05.3-.28.61-.51.77-.54.41-1.22.29-1.68.1-.96-.4-1.7-1.03-2.43-1.66-.72-.64-1.38-1.32-2.03-2.01-1.3-1.39-2.51-2.84-3.72-4.29-1.21-1.45-2.39-2.93-3.62-4.35-.62-.71-1.23-1.4-1.93-2.02-.69-.64-1.38-1.27-2.11-1.85-2.85-2.39-6.53-3.67-10.22-3.79-1.83,0-3.67.43-5.42,1.04-1.75.62-3.43,1.46-5,2.46-1.57,1-3.03,2.18-4.25,3.57-1.21,1.38-2.2,3.01-2.41,4.8l-.41-.37c13.66-2.8,28.59,2.4,37.56,13.08l.52.61-.8-.05c-4.54-.27-8.84-1.89-12.92-3.65-4.1-1.77-8.11-3.73-12.37-4.92-4.22-1.16-8.83-1.02-12.96.42-2.06.73-4,1.83-5.51,3.39-1.51,1.55-2.49,3.58-2.67,5.74l-.42-.37c13.63-2.97,28.4-.18,40,7.57l.68.45-.8.18c-4.92,1.11-9.97.51-14.81-.28-4.86-.81-9.7-1.8-14.59-1.65-2.43.07-4.86.44-7.14,1.25-1.13.43-2.24.92-3.24,1.57-1,.66-1.91,1.46-2.7,2.36-1.58,1.8-2.73,4.02-3.16,6.37-.44,2.34-.05,4.86,1.33,6.79l-.48-.09c11.71-7.76,26.57-10.52,40.29-7.49l1.01.22-.93.44c-4.37,2.08-9.17,2.81-13.86,3.4-4.7.58-9.43,1.08-13.88,2.62-2.21.76-4.34,1.79-6.22,3.17-.92.7-1.82,1.46-2.57,2.33-.75.87-1.4,1.84-1.91,2.88-1.03,2.07-1.58,4.39-1.47,6.69.1,2.29.96,4.56,2.59,6.17l-.52.02c5.65-6.39,12.71-11.47,20.41-15.07,3.86-1.79,7.89-3.25,12.09-4.08,1.05-.2,2.11-.36,3.2-.41.54-.03,1.09-.03,1.64.02.55.08,1.13.11,1.7.61.13.13.25.33.28.55.03.22-.02.43-.1.59-.16.33-.38.53-.6.72-.44.37-.91.65-1.38.91-.95.52-1.92.96-2.9,1.38-7.81,3.29-15.86,6.08-23.06,10.48-1.78,1.11-3.49,2.34-4.93,3.84-1.44,1.48-2.59,3.27-3.08,5.26-.51,1.99-.35,4.1.19,6.09.54,2,1.45,3.91,2.48,5.73l-.64.03c1.5-3.16,3.48-6.06,5.7-8.74,2.23-2.67,4.72-5.12,7.38-7.36,2.66-2.23,5.49-4.27,8.5-6.02,1.51-.87,3.06-1.67,4.7-2.32.82-.32,1.66-.6,2.55-.76.45-.07.91-.13,1.4-.07.24.03.51.1.76.25.25.14.47.41.55.7l-.02-.04c.13.45-.08.66-.17.82-.12.16-.24.29-.37.42-.25.25-.52.46-.79.67-.54.41-1.08.79-1.64,1.16-1.11.74-2.23,1.44-3.36,2.13l-6.76,4.15c-2.23,1.41-4.45,2.84-6.51,4.46-1.97,1.7-4.05,3.39-5.66,5.42-1.61,2.01-2.8,4.45-2.71,7.01.06,1.22.59,2.42,1.27,3.51.67,1.1,1.49,2.13,2.33,3.15,1.68,2.03,3.47,3.99,5.01,6.19,1.52,2.17,2.84,4.71,2.82,7.52l-.72-.11c.29-.98.78-1.93,1.48-2.69.7-.77,1.57-1.34,2.48-1.77,1.83-.86,3.78-1.27,5.68-1.7,1.91-.42,3.8-.83,5.61-1.49,1.8-.65,3.5-1.59,4.85-2.91,1.35-1.32,2.31-3.01,2.9-4.82.6-1.81.86-3.74.95-5.66.17-3.86-.34-7.74-1.04-11.55l-.42-2.28,1.11,2.04c1.9,3.48,2.78,7.42,3.11,11.31.34,3.91.17,7.82-.01,11.7l-.64-.27c7.92-8.41,12.26-20.08,11.77-31.62l-.12-2.79.85,2.66c2.48,7.78,2.43,16.33-.13,24.08l-.38-.49c1.26-.11,2.54-.42,3.79-.75,1.26-.34,2.5-.74,3.73-1.18,1.23-.45,2.44-.93,3.61-1.49,1.15-.57,2.34-1.19,3.17-2.06l.31-.32.26.34c1.45,1.86,2.93,3.68,4.43,5.49,1.5,1.81,3.04,3.61,4.41,5.56,1.38,1.94,2.55,4.01,3.71,6.06,1.15,2.06,2.27,4.14,3.37,6.23,4.36,8.37,8.32,16.94,12.11,25.57,7.59,17.27,14.52,34.81,21.28,52.41l-.61.21c-4.85-16.16-10.84-31.97-17.35-47.54-.4-.97-.83-1.91-1.47-2.69-.63-.79-1.47-1.37-2.44-1.61-1.97-.45-4.07.18-6.19.34-1.07.09-2.16.08-3.24-.13-1.07-.21-2.1-.66-3-1.28-.46-.3-.87-.65-1.27-1.02-.39-.36-.78-.78-1.07-1.27-.58-.97-.78-2.1-.82-3.17-.05-2.17.44-4.27.88-6.33.45-2.06.95-4.11,1.18-6.19.23-2.06.21-4.21-.7-6.05-.89-1.85-2.69-3.08-4.63-3.76-1.95-.69-4.05-.98-6.13-1.1-2.09-.12-4.2-.07-6.29.07-1.05.07-2.1.16-3.14.27-1.03.1-2.06.29-2.98.72-.92.41-1.64,1.14-2.26,1.97-.61.83-1.12,1.74-1.46,2.71-2.3,8.08-4.46,16.28-5.76,24.6-.67,4.16-1.05,8.36-1.16,12.57-.11,4.21.07,8.43.67,12.59,1.16,8.34,4.12,16.39,8.49,23.58,2.18,3.6,4.65,7.03,7.3,10.29,2.67,3.22,5.6,6.36,9.26,8.41,1.82,1.02,3.83,1.66,5.93,1.78,2.1.19,4.2.32,6.31.42,4.21.21,8.43.32,12.65.28,2.11-.03,4.22-.09,6.31-.25,2.09-.17,4.21-.37,6.18-1.02,3.91-1.51,7.35-4.07,10.48-6.85,1.54-1.42,3.05-2.91,4.31-4.58,1.16-1.73,2.25-3.56,3.3-5.38,2.09-3.66,4-7.43,5.6-11.32,3.21-7.79,5.16-16.11,5.5-24.53.37-8.42-.72-16.87-2.7-25.05-.99-4.1-2.18-8.15-3.53-12.14-.34-1-.66-2.01-1.04-2.98-.38-.97-.84-1.92-1.55-2.67-.69-.76-1.64-1.25-2.64-1.5-1-.26-2.06-.33-3.11-.36-8.44-.23-16.88-.74-25.31-.97h-.17s.03-.17.03-.17c.13-.64.56-1.2,1.12-1.5.55-.33,1.19-.44,1.82-.43.63.02,1.25.2,1.79.54.52.35.97.79,1.32,1.3.73,1.01,1.16,2.16,1.57,3.3.41,1.13.84,2.27,1.28,3.39,1.76,4.5,3.74,8.91,6.08,13.13,2.33,4.22,5.03,8.25,8.2,11.9,3.17,3.63,6.82,6.87,10.95,9.36,2.06,1.26,4.24,2.3,6.47,3.21,2.25.86,4.55,1.61,6.9,2.15,4.7,1.11,9.52,1.65,14.34,1.88,4.82.25,9.66.19,14.49.13,4.84-.07,9.72.72,14.2,2.61,4.48,1.88,8.47,4.72,12.2,7.79,3.74,3.07,7.32,6.32,11.1,9.33,7.45,6.16,16.41,10.39,25.82,12.55,9.42,2.15,19.29,2.26,28.76.38,9.46-1.9,18.55-5.87,26.19-11.81l.05.06c-7.64,5.95-16.73,9.93-26.21,11.85-9.49,1.89-19.37,1.79-28.81-.35-9.43-2.15-18.41-6.38-25.89-12.55-3.79-3.01-7.37-6.26-11.11-9.32-3.73-3.06-7.7-5.89-12.16-7.75-4.45-1.88-9.31-2.66-14.12-2.59-4.83.06-9.67.13-14.5-.12-4.83-.22-9.66-.77-14.38-1.87-2.36-.54-4.67-1.29-6.93-2.15-2.24-.91-4.44-1.96-6.51-3.22-4.15-2.51-7.82-5.76-11.01-9.4-3.18-3.66-5.9-7.7-8.24-11.93-2.35-4.23-4.34-8.66-6.1-13.16-.44-1.13-.86-2.26-1.28-3.39-.41-1.13-.84-2.27-1.54-3.23-.34-.48-.77-.9-1.25-1.23-.49-.31-1.06-.48-1.64-.49-1.14-.06-2.43.54-2.65,1.71l-.13-.17c8.44.23,16.87.73,25.32.95,1.06.04,2.13.1,3.17.37,1.04.26,2.05.77,2.79,1.58.75.8,1.22,1.79,1.61,2.77.39.99.71,1.99,1.05,3,1.35,4,2.56,8.06,3.55,12.17,1.99,8.21,3.11,16.68,2.74,25.15-.33,8.46-2.29,16.83-5.5,24.66-1.6,3.92-3.51,7.7-5.61,11.37-1.06,1.83-2.13,3.64-3.32,5.42-1.29,1.7-2.8,3.2-4.36,4.64-3.15,2.81-6.61,5.39-10.6,6.94-2.05.68-4.18.87-6.29,1.05-2.11.16-4.23.22-6.34.26-4.23.05-8.45-.06-12.67-.27-2.11-.1-4.22-.23-6.33-.42-2.13-.11-4.25-.78-6.1-1.82-3.74-2.1-6.7-5.27-9.39-8.51-2.67-3.28-5.15-6.72-7.35-10.34-4.41-7.23-7.4-15.35-8.57-23.75-.61-4.19-.8-8.44-.69-12.67.12-4.23.49-8.46,1.16-12.64,1.3-8.37,3.45-16.55,5.76-24.7.36-1.03.89-1.98,1.53-2.85.64-.86,1.44-1.68,2.46-2.14,1-.47,2.09-.67,3.15-.77,1.05-.11,2.11-.2,3.16-.28,2.11-.14,4.24-.19,6.36-.07,2.12.12,4.26.41,6.29,1.13,1.01.36,1.99.85,2.86,1.52.87.66,1.6,1.53,2.08,2.52.98,1.99.99,4.26.76,6.36-.24,2.12-.74,4.19-1.19,6.25-.44,2.05-.91,4.13-.86,6.19.04,1.02.22,2.05.74,2.9.51.82,1.34,1.52,2.16,2.1.84.57,1.79.99,2.79,1.18,1,.2,2.04.21,3.07.12,1.04-.09,2.07-.27,3.13-.4,1.06-.12,2.16-.19,3.25.07,1.1.26,2.07.94,2.76,1.81.7.85,1.16,1.86,1.56,2.84,6.53,15.58,12.54,31.4,17.42,47.59l-.61.21c-6.77-17.59-13.72-35.11-21.31-52.36-3.8-8.62-7.76-17.17-12.12-25.52-1.09-2.09-2.21-4.16-3.36-6.21-1.16-2.05-2.31-4.09-3.67-5.99-1.34-1.91-2.87-3.7-4.38-5.51-1.51-1.81-3-3.64-4.45-5.5l.57.02c-1.01,1.04-2.21,1.63-3.4,2.23-1.2.58-2.43,1.07-3.68,1.53-1.25.45-2.51.85-3.79,1.2-1.29.34-2.57.66-3.94.78l-.56.05.18-.54c2.51-7.6,2.56-15.99.13-23.61l.73-.13c.5,11.75-3.92,23.6-11.98,32.16l-.69.73.05-1.01c.19-3.88.35-7.76.02-11.6-.33-3.83-1.19-7.65-3.02-11.02l.69-.25c.71,3.85,1.23,7.77,1.06,11.73-.09,1.97-.36,3.96-.99,5.86-.62,1.9-1.63,3.7-3.08,5.12-1.44,1.42-3.25,2.41-5.11,3.08-1.87.68-3.8,1.1-5.7,1.52-1.9.43-3.81.83-5.52,1.64-.85.4-1.64.93-2.26,1.6-.63.67-1.06,1.5-1.32,2.39l-.74,2.51.02-2.62c.02-2.55-1.21-4.97-2.69-7.08-1.49-2.14-3.28-4.09-4.97-6.14-.84-1.03-1.68-2.07-2.39-3.23-.7-1.14-1.31-2.44-1.38-3.87-.1-2.8,1.2-5.41,2.87-7.49,1.69-2.13,3.75-3.8,5.77-5.54,2.1-1.65,4.34-3.09,6.58-4.5l6.76-4.15c1.12-.69,2.24-1.39,3.34-2.12.55-.36,1.08-.74,1.6-1.13.25-.2.5-.4.72-.61.11-.11.21-.22.29-.32.09-.1.07-.22.1-.1l.03.15-.05-.19c-.12-.5-1.11-.52-1.88-.37-.81.15-1.62.42-2.41.72-1.58.62-3.11,1.41-4.6,2.27-2.97,1.72-5.77,3.74-8.4,5.95-2.63,2.21-5.09,4.63-7.29,7.27-2.19,2.64-4.14,5.5-5.61,8.58l-.3.63-.34-.6c-1.05-1.86-1.98-3.81-2.55-5.9-.56-2.08-.74-4.33-.2-6.46.52-2.14,1.75-4.04,3.26-5.58,1.51-1.55,3.26-2.82,5.07-3.95,7.3-4.45,15.38-7.24,23.15-10.52.96-.42,1.93-.85,2.83-1.35.45-.25.9-.52,1.26-.83.18-.15.35-.33.42-.48.07-.16.05-.21-.04-.32-.23-.23-.78-.35-1.26-.4-.5-.05-1.02-.05-1.53-.02-1.03.05-2.07.21-3.1.4-4.12.81-8.11,2.26-11.92,4.02-7.62,3.56-14.61,8.59-20.18,14.9l-.25.28-.27-.27c-1.77-1.75-2.69-4.21-2.8-6.64-.12-2.44.47-4.88,1.54-7.05.54-1.09,1.22-2.11,2.01-3.03.8-.92,1.73-1.71,2.69-2.44,1.95-1.43,4.14-2.49,6.41-3.27,4.55-1.57,9.33-2.07,14.02-2.65,4.68-.59,9.41-1.31,13.65-3.34l.08.67c-13.52-2.99-28.2-.27-39.74,7.38l-.28.19-.2-.28c-1.51-2.1-1.92-4.84-1.45-7.32.46-2.5,1.67-4.81,3.33-6.71.83-.95,1.79-1.79,2.84-2.48,1.06-.7,2.22-1.2,3.39-1.65,2.37-.85,4.87-1.22,7.35-1.29,4.99-.16,9.89.86,14.72,1.66,4.82.79,9.78,1.37,14.55.29l-.12.63c-11.44-7.64-26.02-10.41-39.46-7.47l-.46.1.04-.47c.2-2.3,1.26-4.51,2.86-6.15,1.6-1.66,3.64-2.81,5.78-3.57,4.29-1.48,9.01-1.63,13.38-.43,4.35,1.22,8.38,3.2,12.46,4.96,4.07,1.76,8.28,3.33,12.69,3.59l-.29.57c-8.79-10.48-23.49-15.61-36.89-12.86l-.47.1.06-.47c.25-2,1.32-3.73,2.58-5.18,1.28-1.45,2.79-2.66,4.4-3.69,1.62-1.02,3.34-1.88,5.14-2.52,1.8-.63,3.7-1.08,5.65-1.08,1.94.08,3.83.42,5.65,1.09,1.82.65,3.5,1.66,4.99,2.86.75.6,1.45,1.24,2.14,1.89.71.63,1.36,1.36,1.98,2.07,1.24,1.44,2.42,2.91,3.62,4.36,1.2,1.45,2.42,2.89,3.69,4.26.64.68,1.3,1.35,1.99,1.97.69.61,1.43,1.21,2.22,1.53.81.37,1.48-.07,1.29-.97-.14-.85-.54-1.71-.97-2.52-.88-1.63-1.96-3.18-3.1-4.67-2.29-2.98-4.83-5.76-7.56-8.34-2.74-2.56-5.67-4.97-8.94-6.77l-1.14-.63h1.3c2.45-.02,4.9-.11,7.35-.22,2.45-.12,4.95-.13,7.4.13,1.23.15,2.45.23,3.69.53,1.21.3,2.39.7,3.54,1.14,1.15.45,2.29.94,3.38,1.59,1.1.68,1.99,1.59,2.77,2.58.77,1,1.4,2.11,1.81,3.31.42,1.19.54,2.52.53,3.73.06,2.46.06,4.92-.02,7.38-.16,4.91-.85,9.91-2.79,14.5-.95,2.29-2.13,4.48-3.46,6.55-1.35,2.07-2.78,4.07-4.2,6.07-2.86,4-5.75,7.96-8.53,12-5.52,8.07-10.83,16.47-13.72,25.83l-.55-.25c1.2-1.91,2.4-3.83,3.54-5.77,1.16-1.94,2.2-3.93,3.28-5.92,1.1-1.98,2.26-3.93,3.46-5.85,1.19-1.92,2.4-3.84,3.67-5.71,5.1-7.48,10.66-14.65,16.76-21.35,3.06-3.34,6.26-6.56,9.73-9.48,1.74-1.45,3.54-2.85,5.47-4.06,1.94-1.22,4.05-2.16,6.29-2.69,2.23-.5,4.61-.6,6.84.06,1.11.32,2.17.82,3.13,1.48.96.67,1.74,1.57,2.37,2.54,1.24,1.97,1.85,4.26,1.98,6.55.11,2.29-.28,4.67-1.49,6.68l-.15.25-.24-.17c-1.47-1.08-3.06-1.99-4.74-2.68-1.68-.7-3.45-1.21-5.23-1.57-1.76-.33-3.62-.24-5.32.32-1.7.55-3.24,1.65-4.12,3.2l-.28-.38c3.28-.67,6.68-.89,10.02-.35,1.66.28,3.31.78,4.78,1.67,1.47.86,2.69,2.21,3.35,3.79,1.35,3.14,1.5,6.63,1.06,9.94-.24,1.66-.64,3.31-1.28,4.88-.64,1.56-1.5,3.06-2.7,4.27l-.26.27-.14-.35c-.78-1.97-2.04-3.73-3.53-5.24-1.5-1.51-3.24-2.79-5.1-3.83-3.72-2.07-7.97-3.31-12.23-3.27l.11-.44c2.71,1.49,5.42,3.01,7.91,4.89,2.48,1.87,4.74,4.14,6.19,6.93,1.46,2.8,1.76,6.14.99,9.18-.39,1.52-1.07,2.99-2.1,4.2-1.01,1.22-2.4,2.14-3.94,2.55l-.25.07-.03-.26c-1.2-9.83-7.93-18.78-17.04-22.68l.21-.37c2.73,2.11,5.25,4.5,7.41,7.2,2.15,2.7,3.93,5.72,5.03,9.01,1.09,3.28,1.46,6.83.88,10.26-.06.43-.16.85-.24,1.28-.08.43-.26.88-.5,1.25-.47.76-1.09,1.38-1.64,2.02-.54.64-1.08,1.33-1.14,2.12-.08.8.47,1.48.98,2.16,2.11,2.7,4.41,5.25,6.54,7.96,2.04,2.79,3.76,5.77,5.44,8.77l4.97,9.02c1.68,2.99,3.4,5.97,5.41,8.73l-.34.07c1.44-5.87,2.45-11.84,3.36-17.82l1.29-8.98.65-4.49c.22-1.5.42-2.99.49-4.49.08-1.5.05-3.01-.17-4.49-.2-1.49-.66-2.92-1.17-4.34-.52-1.42-.89-2.95-.84-4.5.06-1.54.39-3.04.83-4.5.87-2.92,2.12-5.69,3.4-8.43,1.3-2.74,2.69-5.43,4.1-8.1l.13.25c-2.15-.31-4.3.64-5.83,2.16-1.56,1.51-2.7,3.42-3.58,5.41-.88,2-1.49,4.11-1.88,6.26-.38,2.15-.55,4.35-.35,6.52l.04.42-.31-.28c-2.42-2.13-4.19-4.95-5.21-8-1.02-3.05-1.34-6.32-1.01-9.51.33-3.19,1.3-6.33,2.93-9.11,1.61-2.78,3.92-5.17,6.73-6.77l.07.29c-4.15-.19-8.29.58-12.26,1.8-3.98,1.22-7.8,2.89-11.56,4.68l-.1.05-.07-.07c-2.43-2.46-4-5.58-5.29-8.73-1.26-3.17-2.17-6.48-2.75-9.85-.57-3.36-.82-6.8-.54-10.21.3-3.38,1.11-6.85,3.15-9.66,2-2.83,5.46-4.51,8.91-4.4,3.49.11,6.65,1.9,9.28,4.04,2.65,2.17,4.92,4.74,7.02,7.43,2.09,2.69,4,5.52,5.83,8.4,1.83,2.87,3.56,5.8,5.33,8.71.89,1.45,1.78,2.9,2.74,4.3l2.9,4.2c3.84,5.63,7.52,11.35,11.29,17.02,7.47,11.37,15.6,22.32,24.65,32.5l-.18.14c-15.36-21.93-30.4-44.08-45.13-66.44-1.94-2.74-3.36-5.87-4.08-9.15-.4-1.63-.63-3.31-.74-4.98-.12-1.68-.1-3.36.07-5.04.16-1.67.45-3.34.93-4.95.48-1.61,1.07-3.21,2.02-4.62.92-1.42,2.17-2.64,3.66-3.46,1.49-.83,3.17-1.26,4.85-1.38,3.39-.24,6.73.53,9.92,1.54,1.6.51,3.16,1.14,4.69,1.82,1.52.72,3.01,1.49,4.46,2.33,5.81,3.34,11.17,7.42,17.23,10.25l.34.16-.35.14c-2.48,1.03-4.92,2.19-7.25,3.53-2.34,1.33-4.58,2.83-6.76,4.41-4.35,3.17-8.55,6.57-12.9,9.77l-.15-.31c4.86-1.31,9.55-3.25,13.8-5.95,2.14-1.32,4.17-2.82,6.3-4.19,2.13-1.36,4.49-2.49,7.04-2.8,1.26-.16,2.55-.22,3.83-.03,1.27.21,2.49.67,3.61,1.27,2.24,1.24,4.13,3.01,5.8,4.91,3.32,3.85,5.89,8.24,8.35,12.64l.27.47-.51-.2c-4.29-1.69-8.95-2.29-13.56-2.5-4.62-.19-9.26.08-13.84.74-2.29.34-4.56.78-6.79,1.38-2.22.62-4.44,1.34-6.4,2.52-.94.59-1.92,1.37-2.12,2.41-.09.51.08,1.04.47,1.39.39.37.91.61,1.43.8,2.15.73,4.5.89,6.8,1.04,4.62.25,9.26.16,13.9.16,2.32,0,4.64,0,6.97.08,1.16.04,2.32.09,3.49.18,1.18.1,2.33.43,3.42.85,1.1.42,2.15.92,3.2,1.4,1.06.46,2.12,1.04,3.04,1.79,1.85,1.49,3.19,3.51,4.12,5.65,1.86,4.33,2.38,9.05,2.68,13.67l.04.68-.45-.52c-6.47-7.5-15.43-12.71-25-15.11-4.8-1.19-9.79-1.64-14.71-1.13-1.18.14-2.37.57-3.39,1.18-.48.33-1,.71-1.3,1.17-.34.45-.23.98.11,1.47,1.27,2.17,3.75,2.92,6.04,3.81,2.33.83,4.71,1.52,7.11,2.19,2.41.67,4.74,1.63,6.96,2.78,4.44,2.31,8.43,5.38,12.1,8.75,1.81,1.71,3.68,3.37,5.21,5.38,1.53,2,2.62,4.34,3.2,6.79,1.24,4.92.28,10.18-1.98,14.64l-.38.75-.11-.83c-.35-2.54-1.21-5-2.33-7.31-1.11-2.32-2.49-4.52-4-6.62-3.05-4.17-6.65-7.95-10.7-11.15-2.03-1.59-4.18-3.04-6.51-4.13-1.16-.54-2.37-.98-3.62-1.17-.62-.09-1.25-.11-1.85,0-.6.11-1.21.33-1.33.82-.13.48.14,1.1.45,1.62.32.54.71,1.04,1.13,1.52.84.97,1.76,1.87,2.72,2.74,1.91,1.74,3.92,3.38,5.94,5,2.02,1.63,4.09,3.21,6.04,4.94,1.96,1.71,3.84,3.52,5.63,5.42,1.78,1.91,3.46,3.91,5.01,6,1.57,2.04,3.08,4.35,3.51,7.02.21,1.32.1,2.73-.45,3.98-.55,1.25-1.49,2.28-2.56,3.07-2.17,1.45-4.19,3.04-6.17,4.72-.98.84-1.95,1.7-2.87,2.6-.91.89-1.84,1.85-2.53,2.85-.61,1.01-.33,2.41-.81,3.73-.47,1.35-1.64,2.26-2.78,2.9l-1.84,1.04,1.49-1.51c.57-.58,1.05-1.24,1.36-1.97.3-.73.39-1.54.28-2.32-.22-1.59-1.2-3-2.34-4.17-1.15-1.17-2.52-2.15-3.97-2.94-1.46-.79-3.01-1.4-4.64-1.7-3.25-.71-6.7-.85-9.9-2.2-3.22-1.31-5.73-3.88-7.57-6.73-1.84-2.89-2.93-6.19-3.58-9.51-.65-3.33-.89-6.73-.96-10.1-.07-3.38.05-6.75.06-10.11,0-1.68-.01-3.36-.23-5-.11-.82-.27-1.63-.59-2.35-.31-.72-.85-1.29-1.59-1.38l.17-.02c-1.56.67-2.87,1.87-3.76,3.32-.91,1.46-1.47,3.12-1.8,4.82-.65,3.42-.48,6.97.07,10.42.56,3.46,1.55,6.85,2.86,10.09,1.32,3.25,2.99,6.36,5.03,9.2l1.5,2.08-1.98-1.63c-2.85-2.35-4.97-5.4-6.91-8.45-1.96-3.03-3.82-6.19-6.57-8.45l.55-.24c-1.52,19.44-5.23,38.68-10.54,57.42-2.67,9.37-5.75,18.63-9.33,27.7-1.82,4.52-3.68,9.03-5.77,13.43-.53,1.1-.97,2.23-1.62,3.3-.63,1.06-1.32,2.07-1.97,3.09-.65,1.02-1.3,2.05-1.73,3.14-.21.54-.36,1.12-.26,1.61.08.5.5.81,1.03.97l-.36.16c2.9-5.94,5.93-11.81,8.69-17.81,2.77-5.99,5.19-12.13,7.36-18.37,2.16-6.23,4.12-12.55,5.96-18.88.87-3.17,1.5-6.41,2.22-9.64.73-3.22,1.53-6.49,3.17-9.44,1.6-2.96,4.23-5.34,7.28-6.72,1.52-.72,3.14-1.22,4.8-1.46,1.67-.24,3.37-.19,5.02.09,3.31.57,6.42,2.05,9.1,4.02,2.7,1.96,5.03,4.44,6.8,7.26,1.81,2.81,3.11,5.9,4.1,9.06.98,3.17,1.75,6.41,2.17,9.71.84,6.59.45,13.3-.82,19.8-.63,3.25-1.51,6.46-2.55,9.6-1.02,3.15-2.11,6.28-3.38,9.34-1.27,3.06-2.69,6.06-4.36,8.93-1.67,2.86-3.6,5.6-5.94,7.97-2.32,2.39-5.07,4.38-8.12,5.73-3.04,1.39-6.33,2.11-9.62,2.52-3.3.4-6.61.48-9.92.52-3.3.04-6.63.06-9.93-.31-3.29-.36-6.6-1.04-9.63-2.46-3.05-1.38-5.69-3.6-7.68-6.27-1.01-1.33-1.85-2.77-2.61-4.25-.38-.74-.72-1.5-1.05-2.26-.17-.36-.35-.82-.33-1.28,0-.47.19-.92.46-1.27.55-.71,1.32-1.15,2.08-1.5.77-.35,1.56-.62,2.37-.84,1.61-.45,3.24-.74,4.88-.98,6.57-.9,13.2-1.05,19.82-.9,1.65.03,3.31.18,4.95.27,1.65.09,3.3.12,4.95.16,3.3.08,6.61.14,9.91.33,3.3.21,6.62.46,9.84,1.37.78.22,1.69.46,2.24,1.24.28.38.36.87.32,1.32-.04.45-.19.86-.37,1.25-.76,1.54-1.91,2.77-3.02,3.99-.57.6-1.12,1.22-1.78,1.76-.65.54-1.38.98-2.13,1.34-1.51.74-3.14,1.18-4.77,1.47-3.28.57-6.62.61-9.92.43-6.62-.27-13.19-1.34-19.58-3.07-6.4-1.73-12.57-4.16-18.7-6.61-6.13-2.45-12.3-4.84-18.69-6.47-3.19-.82-6.43-1.47-9.7-1.92-3.27-.43-6.56-.67-9.86-.74-6.59-.19-13.17.84-19.8.67-6.62-.07-13.22-.72-19.74-1.81-3.26-.54-6.51-1.18-9.73-1.91-3.22-.74-6.44-1.51-9.59-2.52-6.32-1.98-12.4-4.6-18.51-7.1-6.11-2.5-12.28-4.92-18.71-6.44-6.41-1.52-13.12-1.99-19.62-.8-6.5,1.16-12.68,3.81-18.25,7.31-5.59,3.51-10.61,7.9-15.02,12.8-8.85,9.85-15.4,21.46-21.87,32.95l-.07-.04Z"/>
  </g>
</svg>