<?xml version="1.0" encoding="UTF-8"?>
<svg id="Layer_2" data-name="Layer 2" xmlns="http://www.w3.org/2000/svg" viewBox="0 0 424 219.7">
  <defs>
    <style>
      .cls-1 {
        stroke-width: 0px;
      }
    </style>
  </defs>
  <g id="Layer_1-2" data-name="Layer 1">
    <path class="cls-1" d="M0,219.69c.46-3.96,1.88-7.8,4.02-11.16,2.14-3.37,4.96-6.27,8.12-8.7,6.34-4.86,13.93-7.93,21.74-9.47,7.86-1.43,15.88-1.41,23.84-1.24,7.96.19,15.93.6,23.87.07,7.93-.5,15.79-2.17,23.19-5.08,3.7-1.44,7.29-3.17,10.72-5.18,1.71-1,3.37-2.13,5.19-2.97,1.8-.87,3.66-1.6,5.51-2.33,3.69-1.45,7.46-2.9,10.51-5.44.77-.63,1.43-1.33,2.12-2.07.69-.73,1.47-1.39,2.34-1.93,1.72-1.09,3.88-1.5,5.88-1.05,2,.42,3.79,1.49,5.35,2.74,1.57,1.27,2.93,2.75,4.17,4.32,2.45,3.17,4.43,6.69,5.84,10.44l.07.18-.17.08c-1.13.55-2.29,1.05-3.5,1.43-1.21.38-2.45.64-3.71.78-2.52.27-5.03.14-7.53.04h-.12s-.06-.1-.06-.1c-.28-.47-.47-1.04-.42-1.62.05-.58.33-1.11.69-1.52.74-.83,1.76-1.31,2.8-1.56,1.04-.23,2.21-.24,3.19.37.48.3.85.79,1.01,1.34.17.54.16,1.1.09,1.64l-.45-.05c.26-3.9.44-7.82.3-11.72-.08-1.95-.22-3.9-.65-5.79-.22-.93-.52-1.87-1.06-2.61-.27-.36-.64-.64-1.05-.72-.1-.03-.21-.02-.31-.03-.13,0-.26,0-.39-.01-.26-.02-.51-.05-.76-.11-.99-.21-1.93-.6-2.79-1.13-.43-.29-.84-.53-1.18-1.03-.28-.49-.36-1-.42-1.5-.18-2,.03-3.96.25-5.92.23-1.95.55-3.89.81-5.82l.6-5.84c.77-7.8,1.36-15.61,1.95-23.42.59-7.82,1.26-15.63,2.1-23.42l.02-.21.21-.03c2.89-.43,5.77-1.02,8.69-1.39,2.91-.37,5.9-.54,8.84-.05l.24.04v.24c-.46,14.08.54,28.21,3.01,42.09.31,1.73.63,3.47.99,5.19.18.86.33,1.73.57,2.56.23.84.51,1.67.78,2.51.54,1.68,1.12,3.38,1.29,5.19.07.9.04,1.85-.26,2.74-.15.44-.36.87-.63,1.25-.26.39-.66.74-1.05.97-1.62.94-3.4,1.22-5.06,1.74-.41.13-.83.26-1.2.44-.39.18-.8.39-1.21.56-.81.37-1.65.68-2.49.98-3.38,1.13-6.85,1.77-10.16,2.95l.18-.44c1.45,2.84,2.8,5.71,4.32,8.49,1.53,2.76,3.18,5.49,5.32,7.78l.83.83c.33.32.55.66.78,1,.44.65.85,1.39,1.4,1.68.5.3,1.12-.26,1.61-.83.51-.58.93-1.24,1.47-1.88l6.61-6.89.44-.46.13.61c.38,1.83.03,3.66-.48,5.35-.54,1.7-1.3,3.33-2.26,4.83-.97,1.49-2.1,2.93-3.66,3.93-.77.48-1.76.84-2.76.58-1-.27-1.67-1.1-2.09-1.9l-.1-.18.12-.16c2.07-2.84,4.71-5.13,6.67-7.92.97-1.38,1.79-2.91,1.95-4.56.18-1.65-.45-3.27-1.44-4.62-2.03-2.71-5.09-4.47-7.89-6.49-1.41-1.01-2.81-2.07-4.05-3.31-1.27-1.25-2.2-2.79-2.92-4.38-.73-1.59-1.27-3.25-1.82-4.88-.55-1.63-1.12-3.26-1.72-4.88-1.19-3.24-2.46-6.45-3.74-9.66-2.56-6.41-5.18-12.82-7.38-19.38l-.12-.37.39-.02c4.66-.21,9.25-1.34,13.56-3.13,4.32-1.78,8.39-4.14,12.34-6.66l.37-.24.06.44c.34,2.66.32,5.42-.5,8.02-.8,2.6-2.48,4.9-4.59,6.58-2.1,1.72-4.59,2.85-7.03,3.88-2.44,1.03-5.03,2.06-7.8,1.93-.18-.02-.33-.02-.53-.05-.2-.04-.39-.12-.55-.22-.32-.21-.56-.49-.77-.78-.4-.58-.67-1.21-.91-1.84-.46-1.27-.81-2.56-1.1-3.87-.58-2.63-.76-5.31-.83-7.98-.06-2.67-.02-5.33-.12-7.98-.08-1.31-.11-2.7.08-4.02.17-1.33.42-2.63.47-3.94l.31.25c-1.47.34-2.93.3-4.38.26-1.45-.06-2.89-.17-4.33-.31-2.87-.28-5.74-.64-8.6-.99-5.72-.68-11.45-1.4-17.2-1.51h-.11s-.07-.09-.07-.09c-1.44-1.87-3.04-3.62-4.74-5.26-1.71-1.63-3.52-3.17-5.52-4.4l-.28-.17.26-.2c6.25-4.8,12.5-9.72,19.54-13.39,3.51-1.82,7.24-3.3,11.14-4.08,3.89-.79,7.96-.81,11.84.06l.58.13-.54.25c-6.14,2.91-11.71,6.92-16.81,11.42-5.1,4.5-9.76,9.49-14.31,14.54l-.12-.31c9.75.85,19.42,2.46,29.19,2.83,4.88.19,9.77.05,14.62-.52,4.85-.56,9.64-1.55,14.34-2.87l-.1.21c-1.29-2.66-3.07-5.07-5.02-7.3-1.95-2.23-4.09-4.3-6.29-6.3-4.4-4-9.1-7.66-13.49-11.68l-.19-.17.24-.06c3.96-.98,8.12-.73,12.05.17,3.95.91,7.73,2.45,11.3,4.33,3.58,1.89,6.96,4.13,10.13,6.63,3.17,2.51,6.13,5.28,8.76,8.36l.1.12-.14.06c-3.04,1.37-6.39,1.8-9.39,3.15-1.5.66-2.89,1.57-4.08,2.7-.59.57-1.14,1.17-1.65,1.82l-.2.24c-.1.11-.2.15-.31.2-.21.08-.42.12-.63.16-.42.07-.83.09-1.25.11-3.32.07-6.63-.27-9.89-.83-.82-.15-1.63-.32-2.43-.57-.4-.13-.8-.26-1.16-.54-.09-.07-.18-.2-.21-.31l-.09-.29-.19-.59c-.5-1.57-1.03-3.14-1.6-4.69-1.13-3.1-2.38-6.17-3.94-9.07-.79-1.44-1.65-2.86-2.7-4.12-1.04-1.24-2.3-2.43-3.89-2.77-.78-.16-1.61-.05-2.33.29-.73.33-1.37.86-1.93,1.44-1.12,1.19-1.98,2.61-2.72,4.07-1.47,2.94-2.52,6.09-3.39,9.27-.43,1.59-.81,3.2-1.12,4.82-.15.81-.3,1.62-.38,2.43l-.02.3s0,.1,0,.13c0,.02.01.04,0,0-.13-.08-.03-.03-.05-.04.05.01.21-.19.3-.35.19-.35.34-.73.48-1.11,1.08-3.11,1.95-6.31,3.05-9.43,1.09-3.13,2.31-6.21,3.85-9.15.77-1.47,1.63-2.9,2.6-4.24.46-.69,1.09-1.28,1.43-1.99.35-.72.47-1.53.49-2.34.05-1.63-.11-3.29-.04-4.95.04-1.68.47-3.32,1.04-4.88,1.18-3.12,2.91-5.99,4.94-8.62.51-.65,1.05-1.29,1.63-1.89.59-.59,1.19-1.2,1.97-1.58,1.48-.74,3-1.43,4.56-1.99,3.12-1.13,6.4-1.86,9.71-2.07,6.66-.47,13.24,1,19.62,2.66,6.39,1.66,12.79,3.47,19.38,3.85,1.64.09,3.29.11,4.93.02,1.64-.11,3.29-.21,4.85-.69,3.14-.94,5.94-2.79,8.46-4.88,5.05-4.24,9.26-9.38,13.5-14.44,4.24-5.06,8.4-10.24,13.3-14.72,2.46-2.21,5.14-4.27,8.21-5.6,1.53-.66,3.17-1.12,4.84-1.26,1.66-.16,3.35-.14,5,.15,1.65.29,3.26.87,4.69,1.76,1.43.89,2.66,2.09,3.63,3.46,1.95,2.75,2.92,6.05,3.4,9.33.47,3.3.45,6.64.12,9.95-.33,3.3-.98,6.57-1.93,9.76v-.11c.47,2.36-.47,4.6-1.07,6.72-.63,2.15-1.14,4.35-1.41,6.57-.59,4.45-.2,8.98.68,13.38l.06.31h-.31c-3.99-.12-8.09-.13-11.82,1.3-3.7,1.46-6.89,4.04-9.58,6.97-1.36,1.47-2.62,3.03-3.8,4.65-1.18,1.62-2.29,3.29-3.28,5.03-1.99,3.46-3.64,7.18-4.36,11.09l-.53-.16c1.51-3.37,3.76-6.28,6.12-9.04,2.38-2.75,4.97-5.31,7.69-7.72,2.73-2.4,5.59-4.66,8.62-6.68,3.04-1.99,6.23-3.85,9.8-4.82l1.02-.28-.73.78c-2.15,2.29-3.92,4.94-5.46,7.69-1.53,2.76-2.83,5.66-3.9,8.64-1.07,2.97-1.93,6.03-2.52,9.14-.59,3.1-.9,6.27-.79,9.41l.02.47-.44-.15c-1.62-.56-3.04-1.44-4.5-2.19-1.45-.76-2.96-1.4-4.52-1.89-3.12-.98-6.42-1.31-9.69-1.39l.03-.67c3.45.33,6.77,1.32,9.97,2.51,3.2,1.22,6.32,2.64,9.33,4.28h-.31c2.07-.89,4.19-1.44,6.35-1.89,2.16-.43,4.35-.7,6.54-.84,2.2-.1,4.4-.13,6.59.03,1.1.03,2.19.2,3.28.29,1.09.13,2.17.32,3.26.48l-.39.4c-1.16-6.1-2.35-12.19-3.95-18.18-.8-2.99-1.71-5.95-2.83-8.83-1.12-2.88-2.44-5.68-4.15-8.23l-.21-.31.32-.18c1.56-.9,3.29-1.34,5.02-1.58,1.73-.24,3.48-.27,5.21-.2,3.47.14,6.9.68,10.29,1.33,1.72.29,3.4.95,4.96,1.66,1.58.72,3.11,1.52,4.62,2.36,3.02,1.67,5.96,3.47,8.86,5.36l.35.23-.3.31c-.86.89-1.66,1.88-2.35,2.92-.69,1.04-1.28,2.16-1.67,3.33-.37,1.17-.52,2.42-.21,3.57.31,1.16,1.08,2.14,2.04,2.89l-.42.55c-5.51-4.2-10.71-8.78-16.46-12.59-2.87-1.91-5.86-3.62-8.97-5.1-3.11-1.48-6.32-2.75-9.58-3.86l.22-.67c3.26,1.1,6.44,2.47,9.45,4.15,3.01,1.68,5.83,3.67,8.57,5.72,1.38,1.02,2.74,2.05,4.13,3.03.68.48,1.43.95,2.11,1.49l2.02,1.59,8.03,6.4.7.55-.89.08c-2.16.19-4.33.46-6.47.85-2.12.4-4.29.85-6.2,1.76-1.89.97-3.58,2.38-5.15,3.86-1.57,1.5-3.03,3.12-4.39,4.81-.34.43-.66.84-1,1.3-.37.46-.86.88-1.45,1.09-.59.21-1.24.21-1.8.1-.28-.05-.58-.13-.77-.15-.05-.01-.08,0-.03-.01.06-.01.13-.15.11-.19-.02-.05.04.09.11.17.65.77,1.53,1.54,2.17,2.48.66.94,1.1,2.02,1.35,3.11.26,1.1.35,2.22.41,3.32.03.55.05,1.09.11,1.61.05.51.2,1.05.45,1.16.33.15.82.08,1.27-.15.56-.23,1.09-.38,1.7-.44.15-.01.31-.02.49,0,.09.01.19.03.3.08.12.05.25.16.31.28.21.48.08.76.04,1.06-.14.58-.34,1.09-.55,1.61-1.8,4.04-3.97,7.83-5.84,11.77-.47.99-.91,1.96-1.2,2.99-.3,1.05-.6,2.09-.81,3.14-.21,1.05-.32,2.12-.31,3.19,0,1.06.13,2.15.25,3.23.22,2.17.57,4.34.53,6.58l-.05,1.64v.82c-.02.15,0,.27-.07.51-.03.06-.03.21-.3.32l-.13.03c-.08.02-.16.03-.24.04-1.17.09-2.24-.04-3.34-.1-1.09-.08-2.18-.17-3.25-.18-.27,0-.53,0-.78.03-.12.01-.24.03-.33.06-.04.01-.07.03-.05.02.03-.02.08-.15.04-.22-.09-.11.01,0,.11.01.1.03.23.06.35.08.25.04.52.07.78.09,1.07.07,2.16.07,3.25.07h1.65c.57.02,1.07,0,1.73.13l.21.04.04.21c.08.39.05.62.06.92,0,.28-.03.55-.05.83-.04.28-.03.53-.16.9-.09.24-.19.48-.24.73-.28.98-.32,2.03-.29,3.09.07,2.12.27,4.29.23,6.46-.05,2.17-.22,4.34-.64,6.48-.21,1.07-.47,2.13-.82,3.17-.18.52-.37,1.03-.6,1.54-.11.25-.23.5-.37.75l-.21.37-.11.18-.06.09-.03.05s-.23.22-.35.19l.39-.35c0,3.13.66,6.32,1.61,9.34.24.76.51,1.51.79,2.26.25.76.65,1.26,1.31,1.12.33-.05.7-.21,1.15-.3.22-.04.47-.07.74-.03.26.05.51.17.71.33.41.35.58.8.72,1.18.15.4.26.83.29,1.27.08.89-.23,1.82-.8,2.5-.56.69-1.29,1.17-2.04,1.54-1.5.73-3.16,1.09-4.81,1.15-3.28.09-6.52-.44-9.63-1.49l-.23-.08v-.26c-.06-1.05.04-2.14.25-3.15.09-.5.15-.99.18-1.49v-.37c.01-.07,0-.12.02-.24.02-.13.07-.25.12-.32.2-.35.55-.51.83-.59,1.15-.27,2.15-.14,3.18-.18,1.01-.01,2.01-.12,3-.32.49-.1.98-.22,1.46-.37.24-.07.48-.15.7-.24.11-.04.22-.09.32-.14.04-.02.1-.05.1-.06-.01.01,0-.01-.03.04,0-.02-.15.23.03.42.04.04.07.06.1.08h.02s0,.01,0,.01c-.39-.04-.96.01-1.45.04l-1.53.13c-2.05.2-4.09.43-6.14.68l-.4.05-.02-.41-.36-9.56-.59-9.55.62.25c-1.22,1.07-2.37,2.24-3.21,3.59-.42.67-.74,1.4-.9,2.15-.08.38-.1.76-.08,1.14.04.43-.01.92-.13,1.34-.06.22-.13.43-.23.64-.06.11-.08.19-.2.35-.11.14-.24.22-.37.28-.5.23-.94.22-1.38.23-.87,0-1.7-.13-2.52-.27-1.64-.27-3.27-.69-4.85-1-.1-.02-.19-.03-.27-.04h-.04s0,0,0,0h.02s.06-.02.08-.04c.09-.04.23-.28.13-.44-.02-.05-.07-.1-.07-.09-.01-.01,0,0,0,0,.12.07.33.15.51.22.38.14.76.27,1.15.39.78.25,1.57.48,2.36.7.8.23,1.55.41,2.36.49.8.11,1.62.01,2.55.35.91.39,1.51,1.23,1.65,2.19.12.92-.27,2.08-1.37,2.39-.51.12-.88.09-1.3.14l-1.24.08c-.83.05-1.65.1-2.48.13-.83.02-1.67.03-2.52-.06-.43-.05-.85-.12-1.28-.24-.43-.13-.79-.28-1.19-.42-.77-.3-1.58-.57-2.32-1.12-.36-.28-.68-.68-.87-1.08-.19-.38-.38-.81-.41-1.31-.03-.51.16-.98.37-1.36.21-.39.45-.74.68-1.08l1.44-2.02c.95-1.34,1.87-2.7,2.76-4.09,3.49-5.57,6.65-11.43,10.79-16.63l.38-.48.2.58c1.28,3.76,1.92,7.73,1.88,11.7l-.66-.03c.21-2.71.25-5.44-.08-8.12-.3-2.69-1.14-5.28-2.24-7.76-2.29-4.94-4.52-9.99-6.16-15.23-1.66-5.24-2.68-10.66-3.27-16.11-.61-5.45-.94-10.91-1.27-16.37l.56-.03c.21,3.45.54,6.91.95,10.34.21,1.72.44,3.43.72,5.14.14.85.28,1.7.66,2.41.37.71,1.05,1.23,1.83,1.35.78.13,1.62-.08,2.39-.4.78-.32,1.51-.76,2.22-1.24.69-.49,1.43-1.01,2.19-1.44.77-.43,1.57-.8,2.38-1.13,1.63-.64,3.32-1.1,4.96-1.62.82-.26,1.63-.55,2.43-.86.8-.32,1.55-.69,2.36-1.07.8-.36,1.65-.67,2.55-.79.89-.13,1.9,0,2.65.58.38.26.69.62.99.84.08.05.14.08.21.1l.31.08.63.15c.42.1.85.19,1.29.34.2.09.51.16.64.55.07.38-.1.59-.2.79-1.98,2.95-4.62,5.27-7.3,7.48-2.71,2.18-5.52,4.24-8.58,5.94-1.54.81-3.11,1.62-4.88,1.95-.88.16-1.81.14-2.67-.13-.87-.26-1.65-.74-2.33-1.29-.68-.56-1.33-1.18-1.82-1.93-.49-.74-.86-1.55-1.18-2.37-.63-1.64-1.02-3.35-1.36-5.05l-.46-2.56c-.15-.88-.15-1.77-.05-2.65.2-1.76.79-3.45,1.61-5,.83-1.55,1.89-2.97,3.18-4.17,1.29-1.19,2.82-2.18,4.56-2.59.43-.11.87-.17,1.32-.19.44-.04.92,0,1.36.18.9.36,1.45,1.2,1.77,2.02.63,1.68.73,3.45.82,5.18l.15,5.2c.09,1.72.17,3.46.78,5.07,1.1,3.27,2.55,6.44,4.44,9.33,1.89,2.88,4.22,5.5,6.98,7.56,2.76,2.07,5.92,3.59,9.25,4.5,3.33.91,6.81,1.21,10.26,1.1,3.45-.09,6.9-.59,10.21-1.59,6.66-1.95,12.53-6.02,17.32-10.99,4.85-4.96,8.71-10.76,12.85-16.33,2.1-2.75,4.27-5.53,7.07-7.63,1.4-1.04,3.01-1.84,4.73-2.15,1.7-.36,3.42-.62,5.15-.8,3.46-.31,6.98-.16,10.37.63,3.41.75,6.59,2.21,9.83,3.41,1.63.57,3.31,1.04,5.04,1.11,1.72.09,3.45-.27,5.06-.88,3.21-1.29,6.08-3.32,8.71-5.56,2.64-2.24,5.03-4.77,7.53-7.17.63-.6,1.27-1.18,1.95-1.73.68-.53,1.4-1.06,2.25-1.33.42-.13.88-.17,1.31-.03.43.14.79.43,1.07.76.56.68.9,1.51,1.16,2.33.99,3.35,1.16,6.85,1.31,10.31.12,3.47.07,6.94-.04,10.41h-.07c.1-3.47.15-6.94.02-10.4-.16-3.45-.33-6.96-1.32-10.28-.26-.82-.6-1.63-1.15-2.29-.27-.32-.62-.6-1.02-.73-.4-.13-.84-.09-1.25.03-.82.26-1.53.78-2.21,1.31-.68.54-1.31,1.13-1.94,1.72-2.49,2.4-4.88,4.93-7.53,7.19-2.64,2.25-5.51,4.29-8.74,5.6-1.62.62-3.37.99-5.12.9-1.75-.06-3.45-.53-5.09-1.11-3.26-1.2-6.43-2.64-9.82-3.39-3.37-.79-6.87-.93-10.31-.62-3.39.45-7.03.71-9.78,2.93-2.77,2.08-4.92,4.85-7.01,7.6-4.13,5.56-7.99,11.38-12.85,16.37-4.81,5-10.71,9.11-17.42,11.09-3.33,1.02-6.81,1.52-10.29,1.62-3.47.11-6.99-.18-10.35-1.1-3.37-.91-6.57-2.44-9.36-4.54-2.8-2.09-5.16-4.73-7.07-7.64-1.91-2.92-3.38-6.11-4.49-9.4-.63-1.66-.72-3.44-.8-5.17l-.15-5.2c-.1-1.72-.21-3.47-.8-5.05-.3-.77-.8-1.5-1.55-1.8-.74-.29-1.63-.14-2.44.03-1.65.39-3.13,1.35-4.38,2.5-1.25,1.17-2.29,2.56-3.09,4.07-.8,1.51-1.37,3.16-1.56,4.85-.24,1.69.21,3.38.51,5.09.34,1.69.73,3.38,1.34,4.98.31.8.67,1.58,1.14,2.28.46.7,1.08,1.3,1.74,1.83.66.53,1.39.97,2.19,1.21.8.24,1.64.26,2.47.11,1.66-.31,3.22-1.1,4.74-1.91,3.01-1.68,5.81-3.74,8.5-5.91,2.66-2.19,5.28-4.52,7.18-7.36.1-.16.18-.37.15-.42,0-.05-.16-.16-.34-.22-.38-.13-.81-.22-1.23-.32l-.63-.15-.32-.08c-.14-.03-.27-.1-.37-.17-.4-.3-.66-.61-1-.84-.65-.49-1.48-.61-2.3-.49-.82.11-1.63.4-2.41.75-.76.36-1.57.76-2.37,1.08-.81.32-1.64.62-2.47.88-1.66.53-3.33.98-4.93,1.61-.79.32-1.57.69-2.31,1.11-.75.43-1.42.91-2.15,1.42-.73.5-1.49.95-2.31,1.29-.82.34-1.74.58-2.68.44-.94-.14-1.79-.79-2.21-1.62-.44-.83-.58-1.73-.72-2.58-.28-1.72-.52-3.44-.73-5.16-.42-3.45-.75-6.91-.97-10.38l.56-.03c.34,5.46.68,10.92,1.3,16.34.6,5.42,1.61,10.8,3.27,15.99,1.64,5.21,3.85,10.19,6.16,15.16,1.11,2.51,1.99,5.18,2.3,7.94.34,2.75.3,5.52.1,8.25l-.66-.03c.03-3.89-.6-7.79-1.86-11.48l.58.1c-4.09,5.16-7.23,10.97-10.73,16.59-.89,1.4-1.81,2.77-2.77,4.13l-1.43,2.01c-.45.66-.96,1.36-.92,2,.01.32.16.68.33,1.03.16.35.37.6.67.83.59.44,1.36.73,2.13,1.01.79.3,1.5.56,2.3.62.79.09,1.61.08,2.42.05.82-.03,1.64-.08,2.46-.13l1.23-.08c.4-.04.86-.04,1.16-.11.58-.13.94-.92.83-1.58-.08-.67-.59-1.35-1.19-1.6-.64-.25-1.51-.19-2.34-.29-.84-.08-1.7-.29-2.48-.51-.8-.22-1.59-.46-2.39-.71-.4-.13-.79-.26-1.19-.41-.2-.08-.39-.14-.63-.27-.03-.02-.07-.04-.12-.08-.01-.01-.08-.08-.12-.15-.11-.19.04-.46.15-.51.04-.02.08-.04.11-.05h.06s.06-.02.09-.02h.12c.13.01.24.03.34.05,1.66.32,3.23.73,4.85,1,.8.13,1.61.25,2.4.26.38,0,.79-.03,1.04-.15.17-.02.3-.45.41-.8.1-.37.14-.72.11-1.11-.03-.45,0-.89.1-1.33.18-.87.54-1.67,1-2.39.91-1.46,2.11-2.66,3.36-3.77l.57-.5.05.76.59,9.57.36,9.58-.41-.36c2.05-.24,4.1-.48,6.15-.68l1.55-.13c.54-.03,1-.09,1.63-.03l.1.02.07.03s.09.05.14.1c.2.22.03.51.01.51-.06.08-.07.07-.1.1-.09.07-.16.1-.23.14-.13.07-.26.12-.39.17-.25.1-.5.19-.76.26-.51.16-1.02.28-1.53.39-1.03.21-2.09.32-3.14.34-1.03.04-2.12-.06-2.98.15-.21.06-.35.15-.41.26-.05-.05-.01.35-.04.59-.03.53-.09,1.06-.19,1.58-.21,1-.29,1.98-.25,2.99l-.24-.33c2.98,1.01,6.2,1.54,9.34,1.45,1.56-.05,3.12-.4,4.51-1.07.69-.34,1.33-.77,1.79-1.34.46-.56.7-1.26.64-1.98-.03-.36-.11-.72-.25-1.07-.13-.36-.29-.7-.5-.87-.44-.42-1.11-.03-2.02.15-.46.09-1.06-.04-1.42-.41-.37-.36-.54-.8-.68-1.17-.29-.76-.56-1.52-.81-2.3-.97-3.1-1.65-6.29-1.64-9.6l.39-.35c-.11-.06-.32.11-.29.11l.02-.04.05-.07.1-.16.19-.34c.12-.23.24-.46.34-.7.22-.48.4-.97.57-1.47.34-1,.59-2.03.79-3.08.41-2.09.58-4.22.63-6.35.05-2.14-.15-4.26-.23-6.44-.03-1.09,0-2.21.32-3.31.06-.28.17-.54.27-.8.06-.13.08-.44.11-.69.04-.49.08-1.11.02-1.47l.25.25c-.42-.09-1.02-.09-1.54-.1h-1.64c-1.1,0-2.19,0-3.31-.07-.28-.02-.56-.05-.85-.09-.15-.02-.29-.05-.45-.1-.15-.07-.34-.05-.56-.41-.11-.2,0-.49.13-.6.12-.11.22-.14.31-.18.18-.06.33-.08.48-.1.3-.03.58-.04.86-.04,1.12.01,2.21.11,3.3.19,1.08.07,2.2.18,3.21.11l.17-.03.07-.02c-.2.08-.17.16-.18.16,0-.02.02-.19.02-.31v-.82s.06-1.64.06-1.64c.05-2.14-.3-4.32-.52-6.49-.11-1.09-.25-2.18-.25-3.31-.01-1.12.11-2.24.32-3.33.21-1.09.52-2.16.83-3.21.31-1.08.77-2.11,1.24-3.1,1.88-3.96,4.07-7.78,5.83-11.74.21-.49.4-1,.52-1.49.06-.23.07-.52.04-.55.11.04-.19-.05-.41,0-.48.05-1.02.19-1.47.38-.51.24-1.2.45-1.89.13-.37-.19-.56-.55-.66-.84-.1-.3-.15-.59-.18-.87-.07-.57-.09-1.12-.12-1.66-.06-1.09-.15-2.16-.39-3.19-.24-1.03-.65-2.01-1.24-2.87-.6-.88-1.39-1.56-2.15-2.46-.09-.14-.21-.23-.26-.55-.04-.18.12-.45.3-.52.18-.07.29-.05.38-.05.35.04.58.12.84.16.5.1.99.09,1.43-.07.44-.16.83-.47,1.14-.86.31-.42.66-.87,1.01-1.3,1.38-1.71,2.86-3.35,4.46-4.88,1.6-1.51,3.31-2.95,5.32-3.98,2.05-.97,4.23-1.41,6.39-1.82,2.17-.39,4.34-.67,6.54-.86l-.2.63-8.02-6.4-2.02-1.58c-.66-.53-1.37-.97-2.08-1.48-1.41-.99-2.78-2.02-4.15-3.04-2.74-2.05-5.52-4.01-8.49-5.67-2.97-1.66-6.1-3.01-9.32-4.1l.22-.67c3.29,1.12,6.52,2.39,9.66,3.89,3.14,1.5,6.16,3.22,9.05,5.15,5.79,3.85,11.01,8.43,16.49,12.62l-.42.55c-1.05-.81-1.94-1.93-2.29-3.26-.35-1.33-.18-2.72.22-3.97.41-1.25,1.03-2.42,1.75-3.5.73-1.08,1.53-2.09,2.45-3.03l.05.54c-2.87-1.87-5.81-3.67-8.81-5.33-1.5-.83-3.02-1.63-4.57-2.34-1.56-.71-3.12-1.33-4.8-1.61-3.37-.65-6.77-1.18-10.18-1.32-1.7-.07-3.41-.03-5.09.2-1.67.23-3.33.67-4.77,1.5l.11-.49c1.75,2.62,3.09,5.46,4.22,8.37,1.13,2.91,2.04,5.9,2.85,8.9,1.61,6.02,2.79,12.13,3.96,18.23l.09.47-.48-.07c-1.07-.16-2.15-.34-3.22-.47-1.08-.09-2.16-.26-3.24-.29-2.17-.16-4.34-.12-6.51-.03-2.17.14-4.32.4-6.45.83-2.12.43-4.24.99-6.2,1.82l-.16.07-.15-.08c-2.97-1.62-6.07-3.03-9.24-4.24-3.17-1.18-6.45-2.15-9.79-2.47l.03-.67c3.32.08,6.68.42,9.88,1.43,1.6.5,3.15,1.16,4.62,1.94,1.48.76,2.89,1.63,4.4,2.15l-.42.32c-.11-3.21.21-6.42.81-9.56.6-3.14,1.47-6.23,2.56-9.23,1.09-3,2.4-5.93,3.95-8.72,1.56-2.79,3.36-5.46,5.56-7.81l.29.5c-3.44.93-6.62,2.76-9.62,4.73-3,2-5.85,4.23-8.56,6.62-2.7,2.39-5.28,4.94-7.64,7.66-2.34,2.73-4.57,5.63-6.03,8.89l-.95,2.12.42-2.27c.75-4.02,2.42-7.77,4.44-11.27,1-1.76,2.12-3.44,3.31-5.08,1.19-1.63,2.46-3.21,3.84-4.69,2.73-2.97,5.97-5.59,9.79-7.09,3.85-1.47,8.01-1.44,12.02-1.33l-.25.3c-.88-4.44-1.27-9.03-.67-13.54.28-2.26.79-4.48,1.43-6.65.63-2.15,1.51-4.33,1.08-6.49v-.06s0-.06,0-.06c.94-3.15,1.58-6.4,1.91-9.67.33-3.27.35-6.58-.11-9.84-.47-3.23-1.42-6.47-3.32-9.13-.94-1.33-2.12-2.48-3.5-3.34-1.37-.86-2.93-1.42-4.53-1.71-3.21-.51-6.61-.25-9.59,1.07-3.01,1.3-5.65,3.33-8.1,5.52-4.88,4.44-9.03,9.61-13.27,14.67-4.25,5.05-8.46,10.21-13.56,14.48-2.55,2.1-5.39,3.99-8.61,4.95-1.61.49-3.29.59-4.94.7-1.66.09-3.32.08-4.98-.02-6.65-.39-13.07-2.21-19.45-3.88-6.37-1.66-12.9-3.13-19.5-2.66-3.28.21-6.52.93-9.62,2.04-1.55.55-3.05,1.24-4.52,1.97-.72.34-1.3.93-1.88,1.51-.57.59-1.1,1.22-1.61,1.86-2.01,2.59-3.73,5.45-4.89,8.52-.57,1.54-.99,3.14-1.03,4.77-.06,1.64.09,3.29.04,4.96-.03.83-.15,1.69-.53,2.47-.39.79-1,1.35-1.46,2.03-.97,1.33-1.81,2.74-2.58,4.2-1.53,2.92-2.76,5.99-3.84,9.11-1.1,3.11-1.97,6.3-3.06,9.43-.15.39-.3.78-.5,1.16-.05.09-.11.19-.19.28-.08.08-.16.2-.36.22-.07-.03-.04.05-.2-.08-.05-.08-.04-.11-.05-.14,0-.07,0-.12,0-.18l.02-.32c.08-.83.23-1.65.38-2.46.31-1.63.7-3.24,1.13-4.84.88-3.19,1.92-6.35,3.41-9.32.75-1.48,1.62-2.92,2.77-4.14.58-.6,1.24-1.15,2.02-1.5.77-.36,1.66-.48,2.5-.31,1.7.37,2.99,1.61,4.04,2.87,1.06,1.28,1.93,2.71,2.72,4.17,1.57,2.92,2.81,6,3.94,9.11.56,1.56,1.09,3.12,1.6,4.7l.19.59.09.3c.03.09.06.13.13.19.29.23.69.36,1.08.49.78.24,1.59.41,2.4.56,3.24.56,6.55.9,9.84.83.41-.02.82-.04,1.22-.11.2-.03.4-.07.57-.14.09-.03.17-.08.21-.13l.2-.23c.51-.65,1.08-1.27,1.68-1.85,1.21-1.15,2.63-2.06,4.15-2.74,3.05-1.36,6.39-1.79,9.39-3.14l-.04.18c-2.61-3.07-5.57-5.83-8.73-8.33-3.16-2.5-6.54-4.73-10.1-6.6-3.56-1.87-7.32-3.4-11.24-4.3-3.91-.89-8.03-1.13-11.93-.16l.06-.23c4.39,4.01,9.09,7.67,13.5,11.67,2.21,2,4.35,4.07,6.32,6.32,1.96,2.24,3.75,4.67,5.07,7.36l.08.16-.18.05c-4.71,1.34-9.52,2.33-14.39,2.9-4.87.57-9.78.72-14.67.54-9.8-.35-19.47-1.96-29.21-2.8l-.37-.03.25-.27c4.55-5.07,9.21-10.07,14.33-14.59,5.11-4.52,10.7-8.56,16.89-11.5l.04.38c-3.83-.85-7.83-.83-11.67-.05-3.85.77-7.54,2.24-11.02,4.05-6.99,3.65-13.22,8.56-19.46,13.37l-.02-.38c2.05,1.26,3.88,2.81,5.6,4.45,1.72,1.65,3.33,3.42,4.79,5.31l-.18-.09c5.79.11,11.53.82,17.25,1.49,2.86.34,5.72.7,8.59.98,1.43.14,2.87.25,4.3.31,1.42.04,2.88.07,4.23-.25l.33-.08v.33c-.07,1.35-.32,2.68-.49,3.98-.19,1.32-.16,2.6-.08,3.94.11,2.67.06,5.33.13,7.98.06,2.65.25,5.3.82,7.88.28,1.28.63,2.57,1.08,3.8.23.61.5,1.21.85,1.72.18.25.39.49.62.64.12.07.24.13.36.15.13.02.31.03.46.04,2.6.13,5.14-.87,7.55-1.89,2.45-1.04,4.86-2.14,6.9-3.81,2.04-1.63,3.64-3.82,4.41-6.32.79-2.5.81-5.18.47-7.78l.43.2c-3.96,2.53-8.05,4.91-12.42,6.71-4.36,1.81-9.02,2.96-13.75,3.18l.26-.39c2.2,6.54,4.82,12.93,7.38,19.34,1.28,3.21,2.56,6.42,3.75,9.67.6,1.62,1.18,3.25,1.73,4.89.56,1.64,1.09,3.27,1.8,4.82.71,1.55,1.6,3.01,2.8,4.19,1.2,1.2,2.57,2.24,3.97,3.24,2.77,2,5.87,3.76,8.04,6.63,1.04,1.42,1.76,3.23,1.56,5.06-.17,1.83-1.06,3.45-2.06,4.87-2.03,2.87-4.67,5.17-6.67,7.93l.02-.35c.38.73.94,1.38,1.67,1.56.73.2,1.54-.07,2.24-.51,1.41-.9,2.52-2.28,3.44-3.72.92-1.45,1.67-3.03,2.19-4.67.5-1.63.82-3.38.47-5.01l.56.16-6.6,6.86c-.49.57-.93,1.26-1.47,1.87-.27.31-.56.62-.95.86-.36.26-1,.39-1.44.12-.86-.5-1.2-1.27-1.66-1.91-.22-.32-.43-.65-.68-.88l-.86-.86c-2.21-2.36-3.88-5.13-5.41-7.92-1.53-2.8-2.88-5.68-4.32-8.51l-.16-.32.34-.12c3.35-1.18,6.85-1.83,10.16-2.94.82-.29,1.64-.59,2.44-.95.4-.17.78-.37,1.19-.55.42-.2.85-.34,1.28-.47,1.69-.52,3.47-.83,4.92-1.67.72-.39,1.15-1.12,1.43-1.9.27-.78.3-1.64.23-2.49-.16-1.71-.72-3.38-1.26-5.06-.27-.84-.55-1.68-.79-2.54-.24-.87-.39-1.74-.57-2.6-.36-1.73-.68-3.47-.99-5.21-2.46-13.92-3.45-28.09-2.98-42.21l.23.28c-2.86-.48-5.79-.33-8.68.04-2.9.37-5.77.95-8.68,1.38l.23-.24c-.84,7.79-1.52,15.59-2.12,23.41-.6,7.81-1.2,15.63-1.98,23.43l-.6,5.85c-.27,1.95-.59,3.88-.82,5.82-.22,1.93-.43,3.9-.25,5.81.05.47.15.95.35,1.31.21.32.65.62,1.03.87.81.5,1.71.87,2.63,1.07.23.05.46.08.69.1.12.01.23,0,.35.01.14.01.28,0,.42.04.56.11,1.02.48,1.33.89.62.85.91,1.83,1.14,2.79.44,1.94.58,3.91.65,5.88.13,3.93-.05,7.86-.32,11.77l-.45-.05c.15-.97-.07-2.03-.9-2.54-.81-.51-1.89-.53-2.85-.31-.97.22-1.92.68-2.57,1.41-.32.36-.54.8-.58,1.27-.04.47.11.93.36,1.35l-.18-.1c2.49.11,5,.23,7.46-.03,2.47-.24,4.84-1.06,7.07-2.16l-.11.26c-1.39-3.7-3.35-7.2-5.77-10.33-1.22-1.56-2.57-3.02-4.1-4.26-1.53-1.23-3.26-2.26-5.18-2.66-1.91-.42-3.94-.04-5.59,1-.83.51-1.59,1.15-2.26,1.86-.66.72-1.37,1.47-2.15,2.1-3.12,2.58-6.93,4.04-10.62,5.49-1.85.73-3.7,1.45-5.49,2.31-1.8.83-3.44,1.94-5.17,2.95-3.45,2.01-7.05,3.75-10.77,5.2-7.44,2.91-15.34,4.56-23.3,5.04-7.97.51-15.94.08-23.89-.12-7.94-.2-15.95-.23-23.79,1.18-7.79,1.51-15.37,4.56-21.7,9.39-3.15,2.42-5.97,5.3-8.11,8.66-2.15,3.34-3.57,7.16-4.04,11.11h-.07Z"/>
  </g>
</svg>