<?xml version="1.0" encoding="UTF-8"?>
<svg id="Layer_2" data-name="Layer 2" xmlns="http://www.w3.org/2000/svg" viewBox="0 0 429.55 175.72">
  <defs>
    <style>
      .cls-1 {
        fill: #1d1e1c;
        stroke-width: 0px;
      }
    </style>
  </defs>
  <g id="Layer_1-2" data-name="Layer 1">
    <path class="cls-1" d="M.07,34.78c3.83,8.03,7.76,16,11.87,23.89,4.11,7.88,8.38,15.69,12.98,23.29,4.63,7.57,9.5,15.06,15.4,21.7,1.47,1.66,3.05,3.22,4.73,4.65,1.69,1.41,3.5,2.73,5.55,3.53,2,.84,4.36,1.04,6.3.06,1.96-.96,3.23-2.9,4.34-4.78,2.18-3.85,4-7.93,6.11-11.84,2.1-3.93,4.29-7.79,6.43-11.69,2.16-3.89,4.33-7.77,6.61-11.59,2.29-3.81,4.69-7.58,7.48-11.07,2.79-3.48,6.03-6.66,9.88-8.98.46-.32.98-.54,1.47-.81.5-.25.99-.52,1.51-.75,1.05-.39,2.07-.88,3.15-1.18,1.07-.32,2.12-.68,3.2-.98l3.24-.84c4.34-1.02,8.78-1.64,13.24-1.82,4.46-.18,8.94,0,13.35.95l.18.04.03.19c2.31,17.13,5.14,34.21,8.6,51.15,1.75,8.47,3.67,16.9,5.93,25.24,2.3,8.32,4.82,16.62,8.47,24.43.93,1.94,1.94,3.84,3.12,5.63,1.18,1.78,2.54,3.47,4.23,4.71.85.62,1.81.98,2.85,1.32,1.01.36,2.03.71,3.07.97,1.03.29,2.07.57,3.13.77,1.05.23,2.1.45,3.17.59,8.52,1.33,17.22,1.11,25.79.21,8.59-.92,17.09-2.52,25.49-4.57,8.39-2.06,16.7-4.5,24.81-7.44l-.15.31c-3.41-10.78-6.33-21.72-8.68-32.78-2.39-11.05-4.08-22.25-5.49-33.46-.73-5.6-1.45-11.2-2.44-16.76-.98-5.56-2.22-11.07-3.76-16.5-3.08-10.86-7.16-21.44-12.16-31.56l.17.08c-30.61,7.98-61.74,13.92-93.14,17.76l.12-.18c2.73,11.48,5.09,23.04,7.08,34.66,1,5.81,1.9,11.64,2.69,17.49.8,5.84,1.48,11.7,2.18,17.56,1.37,11.71,3.19,23.36,5.73,34.87,2.51,11.51,5.63,22.89,9.28,34.1l-.28-.16c32.17-6.94,64.72-12.1,97.46-15.45l-.28.44c-2.69-7.52-5.23-15.1-7.63-22.72-2.4-7.62-4.66-15.29-6.62-23.04-.97-3.88-1.86-7.78-2.57-11.72-.68-3.94-1.32-7.93-1.04-11.99.05-.51.09-1.02.22-1.52.06-.25.09-.51.17-.76l.28-.74c.4-.96,1.1-1.86,2.08-2.37.98-.55,2.18-.51,3.17-.18,1,.33,1.9.85,2.74,1.4,3.34,2.28,6.25,5.03,9.67,7.02,1.7,1,3.5,1.82,5.41,2.26.98.23,1.91.46,2.85.36.93-.07,1.84-.42,2.67-.89.81-.49,1.66-1.08,2.28-1.76.66-.72,1.29-1.5,1.9-2.27,1.23-1.56,2.4-3.17,3.53-4.81,2.28-3.26,4.16-6.77,6.13-10.25l5.83-10.46c7.72-13.98,15.39-27.99,22.8-42.13,1.85-3.54,3.68-7.08,5.47-10.65.91-1.78,1.75-3.58,2.63-5.37l1.24-2.71c.19-.44.45-.93.56-1.32.05-.2.06-.4.02-.54-.05-.13-.14-.22-.31-.3-.74-.27-1.79-.03-2.69.21-.93.27-1.85.63-2.74,1.05-1.78.83-3.48,1.86-5.04,3.06-1.57,1.18-2.93,2.63-4.28,4.08-.65.74-1.32,1.48-1.91,2.27-.63.77-1.19,1.58-1.74,2.4-2.2,3.28-3.9,6.92-4.81,10.75-.23.96-.39,1.93-.49,2.9-.04.49-.07.97-.06,1.45,0,.12,0,.24.02.35l.02.29c-.07-.12.03.01.11.04.09.05.19.1.3.14.87.35,1.85.57,2.79.68.46.05.97.07,1.33-.04.08-.03.14-.07.15-.08,0,0,0,0,0,0l.04-.18.14-.74c.76-3.96,2.19-7.78,4-11.35.9-1.79,1.9-3.56,3.11-5.18,1.21-1.62,2.6-3.1,4.1-4.45,1.47-1.36,3.16-2.54,4.45-3.93.33-.35.54-.72.65-1.13.11-.43.12-.91.1-1.38-.05-.94-.25-1.92-.69-2.7l-.18-.25c-.07-.07-.13-.11-.2-.18-.13-.04-.22-.09-.37,0-.29.13-.57.54-.82.94l-1.53,2.57-3.05,5.15c-4.05,6.88-8.02,13.81-11.94,20.76-7.83,13.9-15.51,27.96-22.97,41.99v.03c-2.16,4.23-4.24,8.48-6.08,12.84-.9,2.18-1.77,4.39-2.39,6.65-.14.57-.28,1.14-.36,1.71-.09.57-.13,1.16-.01,1.66.04.26.19.45.33.57.15.07.45.09.67.02.24-.06.39-.18.5-.4.1-.22.16-.48.11-.69-.06-.43-.63-.57-1.11-.42-.49.14-.92.52-1.1.99-.09.24-.1.5-.07.75.01.13.05.25.1.38.04.13.08.17.18.26.38.31.96.5,1.51.65,2.26.54,4.65.68,7,.78,2.36.08,4.73.06,7.09-.04,2.36-.1,4.72-.28,7.05-.64,4.67-.66,9.22-2.03,13.57-3.88,4.36-1.82,8.5-4.15,12.85-6.08,1.07-.51,2.21-.89,3.31-1.33,1.15-.32,2.27-.76,3.45-.93,2.33-.56,4.76-.55,7.12-.26,2.35.36,4.72,1.03,6.7,2.42,2,1.36,3.45,3.35,4.71,5.34,1.28,2,2.47,4.05,3.86,5.96,1.39,1.9,2.89,3.74,4.59,5.39,3.34,3.35,7.26,6.07,11.38,8.39,8.23,4.6,17.53,7.61,27.02,7.61,9.45,0,18.89-3.01,26.55-8.59,3.84-2.77,7.24-6.13,10.18-9.83,2.94-3.71,5.45-7.77,7.36-12.1l.07.03c-1.9,4.35-4.41,8.42-7.34,12.14-2.94,3.72-6.34,7.09-10.18,9.88-7.67,5.62-17.14,8.66-26.64,8.68-9.53.02-18.88-2.98-27.15-7.58-4.14-2.32-8.09-5.04-11.46-8.41-1.71-1.65-3.22-3.5-4.63-5.41-1.4-1.92-2.61-3.97-3.88-5.96-1.26-1.98-2.69-3.92-4.63-5.24-1.92-1.34-4.23-1.99-6.55-2.34-2.32-.27-4.7-.28-7,.27-1.16.17-2.27.61-3.4.93-1.09.44-2.21.81-3.28,1.33-4.32,1.92-8.45,4.27-12.84,6.11-4.37,1.87-8.96,3.27-13.67,3.95-2.36.37-4.72.56-7.1.66-2.37.11-4.75.13-7.13.06-2.37-.1-4.76-.22-7.11-.78-.58-.16-1.18-.32-1.72-.76-.13-.11-.27-.31-.31-.46-.06-.15-.1-.31-.12-.48-.05-.33-.03-.68.09-1,.24-.64.79-1.12,1.43-1.32.32-.09.68-.12,1.03,0,.35.09.69.44.74.82.07.37,0,.72-.15,1.03-.13.32-.49.61-.83.68-.35.08-.67.11-1.07-.07-.34-.24-.52-.57-.59-.9-.15-.65-.09-1.27,0-1.87.08-.6.22-1.19.37-1.77.62-2.31,1.49-4.53,2.4-6.73,1.83-4.38,3.92-8.66,6.05-12.88v.02c7.48-14.19,15.09-28.17,22.9-42.13,3.9-6.97,7.86-13.91,11.9-20.8l3.05-5.16,1.53-2.57c.28-.42.54-.94,1.16-1.24.14-.09.34-.11.53-.11.19,0,.36.1.53.16.12.1.26.2.36.32l.26.35c.55.98.73,2.01.8,3.05.01.52.01,1.05-.12,1.59-.14.55-.46,1.06-.81,1.44-1.43,1.53-3.06,2.64-4.52,3.99-1.47,1.33-2.82,2.77-4,4.35-1.18,1.58-2.15,3.29-3.05,5.07-1.8,3.54-3.19,7.27-3.94,11.16l-.14.73-.04.19c-.03.12-.08.24-.16.33-.15.18-.33.26-.48.31-.61.18-1.12.12-1.64.08-1.03-.12-2.02-.34-3.01-.74-.12-.05-.25-.11-.38-.19-.13-.1-.27-.1-.44-.45-.05-.24-.04-.3-.06-.45-.02-.13-.02-.27-.02-.39-.01-.52.02-1.03.06-1.54.1-1.01.27-2.02.51-3,.94-3.94,2.67-7.66,4.91-11,.56-.84,1.14-1.66,1.78-2.44.6-.81,1.28-1.56,1.94-2.31,1.36-1.47,2.75-2.95,4.38-4.17,1.61-1.23,3.35-2.28,5.18-3.14.92-.42,1.86-.8,2.85-1.09.49-.14,1-.25,1.52-.32.52-.05,1.07-.09,1.66.14.29.12.59.39.7.74.1.34.06.66,0,.94-.16.57-.4.97-.6,1.44l-1.25,2.73c-.88,1.79-1.73,3.61-2.64,5.38-1.79,3.57-3.62,7.12-5.48,10.66-7.42,14.15-15.09,28.16-22.82,42.14l-5.83,10.46c-1.96,3.47-3.86,7.01-6.16,10.3-1.13,1.65-2.31,3.27-3.56,4.85-.62.79-1.25,1.56-1.94,2.32-.73.79-1.55,1.35-2.45,1.89-.9.51-1.9.9-2.96.98-1.06.11-2.11-.15-3.06-.38-1.99-.46-3.86-1.31-5.6-2.34-3.5-2.03-6.45-4.82-9.7-7.04-.82-.54-1.67-1.02-2.57-1.32-.89-.29-1.85-.31-2.64.13-.8.42-1.42,1.18-1.78,2.05l-.25.66c-.07.22-.1.47-.16.7-.12.46-.16.95-.2,1.44-.27,3.92.36,7.9,1.03,11.81.7,3.92,1.59,7.81,2.56,11.67,3.94,15.46,8.91,30.65,14.2,45.7l.14.4-.42.04c-32.72,3.29-65.26,8.39-97.42,15.27l-.21.05-.07-.21c-3.63-11.23-6.74-22.62-9.23-34.16-2.52-11.53-4.34-23.2-5.69-34.92-.7-5.86-1.37-11.71-2.16-17.55-.79-5.84-1.68-11.67-2.67-17.48-1.98-11.62-4.32-23.18-7.03-34.65l-.04-.16.16-.02c31.39-3.78,62.52-9.71,93.1-17.76l.12-.03.05.11c5.02,10.13,9.13,20.72,12.23,31.59,1.55,5.44,2.8,10.96,3.79,16.53,1,5.57,1.72,11.18,2.47,16.77,1.43,11.21,3.14,22.38,5.54,33.41,2.37,11.04,5.3,21.96,8.72,32.72l.07.23-.22.08c-8.15,2.97-16.46,5.42-24.86,7.5-8.41,2.06-16.94,3.68-25.55,4.61-8.61.92-17.35,1.15-25.95-.18-1.08-.14-2.14-.36-3.2-.59-1.07-.2-2.12-.48-3.17-.77-1.06-.26-2.09-.61-3.11-.97-1.02-.33-2.1-.73-3.01-1.4-1.8-1.33-3.2-3.06-4.4-4.88-1.2-1.82-2.23-3.75-3.17-5.7-3.69-7.88-6.23-16.19-8.52-24.54-2.26-8.36-4.17-16.81-5.91-25.28-3.44-16.96-6.25-34.05-8.54-51.2l.2.23c-4.29-.92-8.77-1.12-13.19-.95-4.42.18-8.83.79-13.15,1.79l-3.22.83c-1.07.29-2.12.65-3.18.97-1.07.3-2.06.78-3.1,1.15-.5.22-.99.49-1.48.73-.49.26-1,.47-1.45.79-3.79,2.27-6.99,5.41-9.76,8.85-2.78,3.45-5.17,7.2-7.46,11-2.28,3.81-4.46,7.68-6.62,11.57-2.14,3.89-4.34,7.76-6.44,11.68-2.11,3.91-3.93,7.96-6.14,11.85-.56.97-1.18,1.91-1.9,2.78-.7.88-1.6,1.64-2.62,2.15-2.07,1.04-4.56.82-6.62-.05-2.11-.83-3.94-2.18-5.65-3.6-1.7-1.45-3.29-3.03-4.76-4.7-5.91-6.69-10.75-14.21-15.36-21.8-4.58-7.63-8.82-15.45-12.9-23.35-4.08-7.9-7.98-15.89-11.78-23.93l.07-.03Z"/>
  </g>
</svg>