<?xml version="1.0" encoding="UTF-8"?>
<svg id="Layer_2" data-name="Layer 2" xmlns="http://www.w3.org/2000/svg" viewBox="0 0 444.9 298.37">
  <defs>
    <style>
      .cls-1 {
        fill: #1d1e1c;
        stroke-width: 0px;
      }
    </style>
  </defs>
  <g id="Layer_1-2" data-name="Layer 1">
    <path class="cls-1" d="M0,231.81c3.06-1.91,6.7-2.93,10.31-2.68,3.62.21,7.07,1.6,10.17,3.4,3.11,1.83,5.95,4.09,8.59,6.53,2.64,2.45,5.12,5.08,7.48,7.8,4.72,5.44,9.04,11.21,13.3,17.02,4.27,5.8,8.4,11.7,12.95,17.27,2.28,2.77,4.68,5.48,7.49,7.7,2.8,2.23,5.92,4.06,9.23,5.42,6.65,2.71,13.89,3.75,21.06,3.7,7.18-.04,14.34-1.09,21.32-2.77,6.98-1.7,13.81-4.04,20.37-6.97,6.52-2.97,12.8-6.68,17.93-11.7,2.55-2.51,4.78-5.36,6.47-8.51,1.68-3.15,2.8-6.61,3.2-10.16.1-.9.2-1.77.03-2.62-.15-.86-.45-1.7-.82-2.5-.76-1.6-1.8-3.07-2.94-4.45-2.29-2.75-4.95-5.19-7.71-7.48-2.77-2.28-5.67-4.41-8.66-6.4-1.48-1.02-3.06-1.87-4.56-2.89-1.5-1.01-2.95-2.09-4.37-3.2-11.31-8.98-20.67-20.34-27.53-33.03-1.73-3.17-3.23-6.45-4.66-9.77-1.33-3.35-2.62-6.73-3.62-10.19-1.07-3.45-1.89-6.97-2.63-10.49-.3-1.78-.66-3.55-.91-5.33-.22-1.79-.53-3.57-.66-5.37-1.44-14.36-.6-28.91,2.05-43.08,2.68-14.17,7.15-28.01,13.38-41.02,1.57-3.25,3.24-6.45,5.11-9.54.95-1.54,1.88-3.07,3.09-4.49.31-.08-.02-.55,1-.33.15.67-.02.59-.03.91-.09.45-.21.89-.32,1.33-.24.88-.49,1.74-.75,2.6-2.11,6.89-4.44,13.71-6.02,20.71-.39,1.75-.72,3.51-.89,5.28-.08.88-.11,1.77-.02,2.63.05.43.14.85.3,1.21.15.34.44.67.74.99,1.17,1.3,2.73,2.16,4.43,2.64.85.26,1.73.43,2.61.77.44.18.9.42,1.25.82.32.42.52.78.77,1.17.48.77.94,1.53,1.46,2.24.51.69,1.11,1.42,1.81,1.63.3.08.77-.02,1.23-.06.48-.08,1.14.1,1.5.5.7.77,1,1.65,1.3,2.51.29.86.52,1.76.76,2.6.25.85.57,1.67.94,2.47.76,1.59,1.75,3.08,3,4.31.63.6,1.32,1.16,2.08,1.52.75.39,1.57.39,2.12-.18.56-.56.96-1.46,1.71-2.1.37-.33.82-.57,1.24-.75.43-.19.88-.34,1.36-.43.48-.08,1-.1,1.51.11.51.2.9.67,1.07,1.15.35.96.27,1.92.17,2.83-.23,1.76-.25,3.55-.38,5.36-.12,1.8-.41,3.67-1.24,5.35-.42.83-.95,1.6-1.57,2.3-.58.67-1.14,1.34-1.6,2.1-1.9,2.98-2.87,6.52-3.06,10.06-.17,3.54.31,7.17,1.92,10.34,1.54,3.22,3.95,5.91,5.96,8.95.48.78.93,1.6,1.22,2.49.26.85.59,1.67.95,2.49.73,1.62,1.63,3.17,2.72,4.56,1.08,1.4,2.37,2.65,3.91,3.48,1.58.81,3.25,1.6,4.71,2.72,2.98,2.2,4.9,5.56,5.9,9.04.52,1.75.84,3.54,1.05,5.34.2,1.81.27,3.61.39,5.4.44,7.18.97,14.36,2.15,21.45.59,3.54,1.34,7.06,2.37,10.49,1.02,3.43,2.36,6.78,4.18,9.85.92,1.53,1.96,2.98,3.18,4.28,1.21,1.3,2.6,2.42,4.08,3.43,2.96,1.97,6.24,3.59,9.71,4.28.86.16,1.75.24,2.59.11.86-.16,1.84-.24,2.58-.48.12-.11.05.2-.07-.07-.14-.13-.32-.26-.5-.39l-1.11-.75c-.74-.5-1.53-.98-2.22-1.59-1.4-1.18-2.6-2.59-3.56-4.14-.95-1.55-1.73-3.27-1.88-5.14-.06-.96.09-1.83.12-2.73.06-.9.11-1.8.24-2.71.13-.9.33-1.82.77-2.67.42-.85,1.22-1.57,2.16-1.82.48-.12.89-.17,1.33-.28.43-.11.83-.22,1.09-.49.28-.29.57-.68.89-1,.33-.33.66-.64,1.02-.93,1.38-1.19,3.07-2,4.1-3.38.26-.34.43-.71.51-1.12.05-.2.05-.43.17-.71.12-.29.4-.47.62-.56.93-.38,1.84-.33,2.63-.65,1.63-.61,2.95-1.88,4.16-3.17,1.21-1.32,2.32-2.73,3.54-4.07.59-.67,1.3-1.31,1.9-1.92.6-.63,1.09-1.36,1.46-2.16.73-1.6.93-3.4.92-5.17l-.03-1.34c0-.44-.05-.92.05-1.4.2-.94.66-1.77,1.24-2.5.58-.73,1.3-1.35,2.15-1.77.84-.42,1.89-.54,2.78-.27,1.74.39,3.53.95,5.16.28.8-.3,1.54-.83,2.33-1.28.78-.46,1.55-.9,2.31-1.38,1.48-.96,3.02-1.99,3.93-3.46.21-.37.36-.77.41-1.17.06-.46.13-.91.24-1.35.2-.89.47-1.76.73-2.62.52-1.72,1.12-3.43,1.21-5.18.02-.88.04-1.82.23-2.72.19-.91.55-1.76.92-2.58.72-1.63,1.43-3.34,2.5-4.82,1.04-1.54,2.59-2.58,3.68-3.96,1.07-1.41,2.1-2.91,3.03-4.43.93-1.53,1.77-3.12,2.35-4.8.55-1.66.91-3.51.26-5.13-.31-.8-.87-1.49-1.58-1.99-.7-.51-1.54-.81-2.36-1.21-1.64-.77-3.24-1.58-4.84-2.41-6.38-3.31-12.75-6.73-19.6-8.91-1.71-.57-3.44-.91-5.21-1.43-1.74-.54-3.4-1.55-4.48-3.06-1.1-1.5-1.59-3.3-2.14-5-.54-1.7-1.2-3.39-2.39-4.71-1.16-1.33-2.75-2.22-4.41-2.83-1.69-.61-3.39-1.19-5.11-1.7-1.72-.52-3.46-.94-5.22-1.29-.87-.18-1.8-.39-2.6-.89-.8-.46-1.47-1.17-1.98-1.92-1.04-1.51-1.72-3.19-2.76-4.63-.51-.71-1.13-1.37-1.86-1.81-.76-.4-1.65-.54-2.53-.62-3.57-.25-7.13.48-10.75.66-.94.06-1.86-.28-2.67-.66-.82-.39-1.61-.84-2.39-1.28-1.56-.86-3.18-1.71-4.93-1.95-.87-.12-1.76-.07-2.6.19-.83.26-1.63.7-2.4,1.14-1.54.9-2.89,2.08-4.26,3.25-.69.58-1.4,1.16-2.24,1.57-.42.2-.88.34-1.35.38-.48.04-.92,0-1.38-.02-1.81-.12-3.59-.41-5.37-.47-.88-.01-1.82-.02-2.56.37-.19.1-.28.23-.51.42-.21.16-.49.23-.75.19-.53-.07-.91-.43-1.2-.79-.58-.76-.82-1.72-.75-2.65.07-.94.46-1.83,1-2.56,1.04-1.48,2.29-2.81,3.13-4.36.41-.76.61-1.7.07-2.38-.24-.34-.6-.61-.95-.89-.35-.28-.72-.52-1.1-.73-.77-.44-1.64-.58-2.53-.62-.88-.07-1.84-.05-2.69-.53-.42-.24-.76-.65-.88-1.12-.14-.47-.12-.95-.04-1.41.16-.92.53-1.76.93-2.57.88-1.56,1.43-3.29,1.48-5.07.02-.88-.07-1.79-.46-2.56-.2-.38-.48-.71-.85-.89-.37-.19-.8-.22-1.22-.14-.85.17-1.62.64-2.32,1.18-.7.55-1.38,1.15-2.04,1.75-1.34,1.2-2.57,2.5-3.89,3.74-.34.3-.67.62-1.13.82-.21.11-.58.12-.78-.11-.19-.2-.26-.44-.32-.66-.2-.91-.28-1.79-.37-2.7-.1-.9,0-1.86.32-2.71.31-.86.73-1.66,1.15-2.46.41-.8.87-1.58,1.25-2.39.38-.81.71-1.64,1.02-2.49.63-1.68,1.18-3.42,2.2-4.95.51-.75,1.16-1.44,1.93-1.94.76-.51,1.64-.85,2.51-1.06,1.73-.46,3.43-1.05,5.15-1.6,1.72-.54,3.44-1.11,5.25-1.33.45-.05.91-.07,1.38,0,.46.06.94.2,1.3.53.37.32.55.82.6,1.26.09.45.12.91.1,1.37-.05,1.85-.78,3.56-1.45,5.21-.34.84-.65,1.67-.8,2.55-.19.89-.44,1.75-.6,2.63-.16.87-.27,1.79.05,2.6.16.4.45.73.82.94.37.23.8.3,1.24.46.89.29,1.59.97,2.16,1.65.59.68,1.19,1.34,1.89,1.89,1.4,1.1,3.02,1.91,4.69,2.57,1.68.65,3.33,1.38,4.97,2.12.82.36,1.64.73,2.51.91.87.19,1.76.18,2.65.09.89-.08,1.77-.24,2.67-.37.9-.12,1.8-.18,2.7-.21,1.8-.07,3.61-.02,5.4-.04.9-.02,1.8-.03,2.67-.2.41-.09.9-.21,1.08-.54.16-.34-.12-.75-.38-1.1-.55-.72-.99-1.53-1.58-2.16-.61-.62-1.56-.72-2.43-.84-1.77-.22-3.61-.23-5.35-.8-1.73-.57-3.33-1.54-4.6-2.84-.64-.64-1.21-1.36-1.71-2.11-.25-.38-.5-.75-.71-1.17-.2-.42-.33-.86-.44-1.3-.21-.88-.34-1.78-.68-2.58-.34-.81-.95-1.48-1.74-1.88-.77-.42-1.65-.62-2.53-.78-.89-.18-1.77-.44-2.6-.82-.83-.37-1.62-.87-2.26-1.54-.64-.66-1.1-1.53-1.21-2.45-.12-.93.11-1.86.48-2.69.39-.83.91-1.59,1.5-2.28,1.18-1.35,2.24-2.82,3.62-4.03,1.39-1.16,2.83-2.23,4.23-3.36,1.4-1.13,2.81-2.24,4.12-3.47,1.33-1.21,2.47-2.58,3.61-3.99.58-.7,1.29-1.31,2.09-1.76.79-.45,1.63-.81,2.47-1.14,1.68-.66,3.39-1.25,5.1-1.8,1.72-.51,3.34-1.28,4.88-2.21,1.51-.95,3.14-1.82,4.86-2.38,1.71-.58,3.48-.98,5.22-1.43,1.72-.47,3.47-1,4.84-2.14.7-.55,1.25-1.23,1.55-2.07.15-.41.37-.89.78-1.18.4-.28.85-.43,1.3-.53,1.8-.51,3.67-.1,5.4.28.88.19,1.75.4,2.64.52.88.12,1.78.18,2.6-.09.83-.25,1.43-.94,1.73-1.76.27-.83.51-1.73.81-2.57.14-.43.3-.85.41-1.27.12-.42.19-.86,0-1.2-.18-.35-.54-.62-.9-.87-.37-.25-.75-.48-1.14-.7-1.55-.92-3.12-1.77-4.89-2.09-.43-.11-.92-.13-1.33-.49-.39-.38-.46-.88-.54-1.32-.14-.91-.14-1.81-.31-2.68-.14-.89-.41-1.72-.6-2.63-.04-.23-.07-.48,0-.74.06-.26.25-.48.44-.63.4-.29.84-.44,1.27-.59,1.68-.57,3.25-1.53,5.07-1.9.9-.18,1.91-.12,2.73.38.82.51,1.36,1.26,1.93,1.96,1.08,1.41,2.27,2.84,3.95,3.43,1.66.61,3.51.38,5.2-.1,1.69-.54,3.45-1.08,4.88-2.09.36-.25.64-.56.85-.94.1-.19.21-.41.39-.6.18-.18.4-.32.63-.4.9-.32,1.78-.41,2.66-.61,1.76-.36,3.53-.7,5.2-1.32.41-.16.82-.34,1.17-.58.35-.23.65-.57.56-.91-.09-.35-.45-.65-.79-.89-.35-.25-.75-.45-1.16-.62-1.64-.68-3.41-1.02-5.18-1.24-1.78-.22-3.57-.31-5.36-.32-3.59,0-7.18.27-10.74.71-7.13.88-14.19,2.36-21.16,4.11-6.96,1.79-13.69,4.41-20.2,7.45-6.51,3.04-12.82,6.53-18.92,10.33-6.1,3.8-12.03,7.89-17.69,12.33-1.41,1.11-2.81,2.24-4.16,3.42-1.37,1.19-2.66,2.35-3.79,3.81-.16.17-.34.33-.54.47-.21.13-.42.3-.78.27-.42-.05-.55-.49-.55-.72-.02-.26.02-.5.07-.74.22-.93.65-1.74,1.11-2.53.95-1.56,2.16-2.95,3.44-4.21,10.11-10.29,22.06-18.75,35.06-24.99,13-6.28,27.07-10.25,41.39-11.94,14.31-1.76,28.97-1.03,42.99,2.41,14.03,3.42,27.4,9.36,39.49,17.24,3.02,1.97,5.96,4.07,8.79,6.31,1.42,1.11,2.81,2.27,4.16,3.47.68.6,1.34,1.21,1.99,1.84.33.31.64.64.96.97.3.32.66.73.86,1.13.23.4.46.8.59,1.31.05.2.15.73-.35.97-.39.12-.63.02-.88-.04-.93-.31-1.7-.78-2.48-1.24-1.55-.95-3.03-1.99-4.49-3.04-2.92-2.11-5.78-4.31-8.64-6.5-2.84-2.2-5.81-4.21-8.84-6.14-3.04-1.9-6.13-3.77-9.39-5.19-.81-.34-1.66-.66-2.48-.77-.2-.02-.4-.03-.56,0-.12.03-.4.15-.59.22-.42.16-.84.32-1.2.51-.36.2-.58.43-.61.77-.04.35.07.77.21,1.17.29.81.7,1.61,1.12,2.39.86,1.55,1.87,3.03,3.08,4.31,1.2,1.24,2.65,2.47,4.34,2.47.99.07,1.85.39,2.71.71.85.33,1.68.73,2.48,1.15,1.61.85,3.16,1.81,4.58,2.98.69.61,1.4,1.21,1.84,2.16.34,1.03.08,2.03-.31,2.88-.41.86-.97,1.62-1.65,2.28-.17.16-.35.32-.55.47-.23.18-.51.25-.5.3-.19.24-.31.69-.38,1.09-.24,1.68.19,3.47,1.09,4.94.95,1.55,1.71,3.2,2.88,4.47.58.62,1.29,1.12,2.09,1.26.8.14,1.65-.04,2.42-.39.8-.37,1.62-.76,2.39-1.18.76-.43,1.54-.9,1.91-1.57.37-.67.28-1.57.18-2.44-.13-.88-.21-1.82-.21-2.73-.01-.91.03-1.83.13-2.74.14-.91.22-1.83.83-2.74.16-.21.46-.45.83-.45.36,0,.62.18.83.34.4.33.67.75.92,1.1.51.73,1.07,1.42,1.66,2.09,1.17,1.34,2.46,2.58,3.8,3.76,2.73,2.3,5.51,4.66,8.89,5.76,1.67.56,3.43.99,5.16.92.44-.01.89-.07,1.4-.02.52.04,1.02.3,1.39.6.76.62,1.29,1.37,1.83,2.1,1.07,1.49,1.95,3.06,2.85,4.63.88,1.57,1.74,3.16,2.57,4.76.83,1.6,1.65,3.21,2.41,4.85.19.41.38.82.55,1.25.09.21.17.42.25.65.07.26.17.37.17.82-1.16.68-.75-.15-1.08-.1-.17-.16-.33-.33-.48-.51-.31-.35-.58-.73-.84-1.1-1.02-1.51-1.91-3.05-3.21-4.22-1.3-1.15-2.9-1.94-4.61-2.39l-1.3-.32c-.47-.11-.92-.27-1.34-.47-.85-.41-1.61-.96-2.31-1.56-1.39-1.21-2.55-2.62-3.72-3.97-.59-.66-1.19-1.35-1.88-1.78-.72-.44-1.56-.76-2.4-1.05-1.68-.56-3.43-.97-5.19-1.21-.88-.12-1.76-.19-2.63-.16-.43.02-.86.07-1.24.19-.19.05-.33.15-.59.26-.23.1-.46.17-.7.23-.93.21-1.82.26-2.67.44-.85.17-1.65.47-2.3,1-.65.52-1.12,1.25-1.44,2.04-.33.79-.5,1.66-.73,2.55-.45,1.75-.96,3.49-1.54,5.2-.59,1.71-1.23,3.41-2.02,5.05-.4.81-.85,1.63-1.41,2.37-.46.66-.75,1.52-.97,2.36-.42,1.71-.57,3.49-.55,5.26.04,1.77.27,3.55.91,5.16.69,1.7,1.13,3.5,1.32,5.32.19,1.82.16,3.65.03,5.45-.06.9-.18,1.82-.23,2.68-.04.88,0,1.76.12,2.63.23,1.74.72,3.47,1.51,5.03.78,1.58,1.87,2.95,3.3,4,.7.54,1.45,1,2.21,1.51.76.51,1.51,1.11,2.09,1.86.59.73,1.04,1.56,1.43,2.37.38.78.86,1.53,1.39,2.23,1.07,1.4,2.35,2.64,3.81,3.63,2.89,2,6.53,2.89,10.02,2.31,3.48-.61,6.87-1.92,9.95-3.7.78-.44,1.53-.92,2.31-1.38.4-.23.77-.48,1.3-.64.2-.12.84-.04.99.38.13.32.14.5.19.75.16.93.13,1.84.38,2.62.12.39.31.72.6.98.29.26.63.45,1,.47.38.04.8-.04,1.28-.09.24-.02.51-.03.79.04.28.07.56.24.74.45.7.88.76,1.83.9,2.73.27,1.83.04,3.72-.41,5.48-.41,1.76-1.12,3.48-1.07,5.16.03.83.37,1.59.97,2.16.28.28.65.54,1.02.83.36.29.71.58,1.05.9.67.63,1.3,1.34,1.75,2.19.46.84.67,1.8.74,2.73.14,1.87-.25,3.67-.43,5.44-.39,3.57-.66,7.17-1.22,10.74-.31,1.78-.58,3.59-1.42,5.31-.11.21-.24.43-.42.63-.19.22-.29.31-.43.5-.25.33-.46.7-.65,1.1-.37.78-.64,1.63-.87,2.48-.87,3.45-1.14,7.04-1.14,10.62-.03,1.8-.15,3.67-.75,5.43-.6,1.76-1.49,3.33-2.27,4.95-.8,1.61-1.65,3.2-2.37,4.83-.73,1.63-1.37,3.31-2.04,4.98-.67,1.68-1.44,3.32-2.2,4.95-.37.81-.77,1.63-1.05,2.44-.07.2-.13.41-.16.59-.04.18,0,.36,0,.34-.02,0,.12.06.23,0,.15-.06.33-.18.5-.3,1.37-1.04,2.57-2.42,3.72-3.77,1.14-1.37,2.22-2.8,3.24-4.27,4.08-5.89,7.38-12.32,9.9-19.03,2.56-6.71,4.03-13.76,5.09-20.86,1.06-7.11,1.72-14.27,2.1-21.45.37-7.18.51-14.38.13-21.55-.09-7.22-2.6-14.02-4.77-20.88-1.11-3.42-2.28-6.83-3.29-10.3-.25-.87-.49-1.74-.68-2.64-.09-.45-.18-.9-.23-1.38-.02-.24-.04-.48.01-.77-.13-.28.6-.84.84-.68.61.03,1.06.38,1.42.7.36.34.64.72.91,1.1.53.77.96,1.57,1.37,2.38.81,1.63,1.52,3.28,2.23,4.94.71,1.65,1.41,3.34,1.93,5.08,1.07,3.46,1.85,6.99,2.5,10.54,2.54,14.21,3.02,28.77,1.61,43.13-1.42,14.35-4.9,28.56-10.87,41.72-2.98,6.58-6.58,12.87-10.77,18.75-4.2,5.88-9.01,11.31-14.28,16.23-10.41,9.96-22.1,18.67-34.92,25.31-12.79,6.66-26.69,11.26-41.01,13.15-7.15.96-14.4,1.23-21.6.68-1.8-.16-3.58-.3-5.39-.66-1.79-.4-3.49-1.15-5.01-2.16-1.51-1.02-2.88-2.34-3.66-4.05-.39-.85-.56-1.8-.48-2.74.08-.94.46-1.84.99-2.6.53-.77,1.2-1.41,1.93-1.97.72-.57,1.5-1.05,2.32-1.46,1.63-.82,3.38-1.38,5.15-1.74,3.56-.73,7.21-.82,10.81-.56,7.2.57,14.32,2.44,20.78,5.69,1.6.83,3.19,1.73,4.63,2.83,1.45,1.09,2.79,2.3,4.09,3.55,2.6,2.51,5.03,5.17,7.45,7.83,4.85,5.32,9.64,10.71,15.12,15.36,2.74,2.31,5.67,4.43,8.89,6,1.61.79,3.29,1.42,5.03,1.84.87.2,1.75.35,2.64.43.88.08,1.79.11,2.69.16,3.59.19,7.19.37,10.77.08,3.57-.28,7.11-1.16,10.26-2.87,3.16-1.69,5.89-4.1,8.27-6.78,2.4-2.67,4.46-5.63,6.36-8.68,1.9-3.05,3.63-6.21,5.27-9.41.82-1.6,1.57-3.23,2.47-4.81.89-1.57,1.89-3.08,3.01-4.5,2.23-2.84,4.89-5.34,7.84-7.42,2.95-2.09,6.15-3.79,9.44-5.25,6.59-2.94,13.53-4.96,20.18-7.68,3.33-1.36,6.58-2.91,9.61-4.85,3.02-1.94,5.8-4.27,8.09-7.04,4.47-5.64,8.01-11.95,11.37-18.3,3.39-6.33,6.5-12.89,10.91-18.62,2.2-2.85,4.82-5.41,7.9-7.29,1.55-.92,3.21-1.65,4.93-2.2,1.72-.54,3.51-.84,5.3-1.03v.07c-1.78.2-3.56.49-5.27,1.04-1.71.55-3.36,1.28-4.91,2.2-3.07,1.88-5.68,4.44-7.86,7.28-4.39,5.72-7.49,12.28-10.87,18.62-3.35,6.36-6.89,12.68-11.37,18.34-2.3,2.79-5.09,5.14-8.12,7.09-3.04,1.95-6.31,3.51-9.64,4.88-6.67,2.74-13.6,4.77-20.17,7.7-3.28,1.46-6.47,3.16-9.39,5.24-2.93,2.08-5.57,4.55-7.78,7.38-1.1,1.41-2.1,2.91-2.98,4.47-.88,1.56-1.64,3.19-2.46,4.8-1.64,3.21-3.37,6.37-5.27,9.43-1.91,3.05-3.97,6.03-6.38,8.72-2.39,2.69-5.14,5.13-8.34,6.85-3.19,1.73-6.78,2.63-10.38,2.91-3.61.3-7.22.11-10.81-.07-.9-.05-1.79-.08-2.7-.16-.9-.09-1.8-.23-2.69-.44-1.77-.42-3.47-1.06-5.1-1.86-3.26-1.59-6.21-3.72-8.97-6.04-5.52-4.66-10.33-10.07-15.18-15.37-2.43-2.66-4.86-5.31-7.44-7.8-1.3-1.24-2.63-2.44-4.06-3.52-1.42-1.08-2.98-1.96-4.58-2.79-6.4-3.22-13.48-5.07-20.62-5.63-3.57-.25-7.19-.16-10.69.56-1.75.36-3.46.91-5.04,1.71-.79.4-1.55.87-2.24,1.42-.69.54-1.34,1.16-1.83,1.88-1.04,1.41-1.21,3.32-.47,4.9.73,1.59,2.04,2.86,3.5,3.85,1.47.98,3.13,1.7,4.85,2.09,1.73.34,3.55.49,5.32.64,7.16.54,14.38.26,21.49-.7,14.25-1.9,28.09-6.5,40.82-13.14,12.76-6.63,24.39-15.31,34.75-25.25,5.24-4.92,10.01-10.31,14.18-16.16,4.16-5.85,7.73-12.11,10.69-18.66,5.92-13.09,9.36-27.23,10.76-41.52,1.38-14.29.87-28.79-1.64-42.92-.65-3.53-1.43-7.04-2.48-10.46-.51-1.72-1.19-3.35-1.9-5.01-.7-1.65-1.41-3.3-2.21-4.9-.4-.79-.82-1.58-1.31-2.3-.47-.69-1.11-1.44-1.74-1.48-.25.05.07-.13-.08.07-.03.15-.02.37,0,.57.04.42.12.85.21,1.28.19.86.42,1.73.67,2.59,1,3.44,2.17,6.85,3.28,10.27,1.12,3.42,2.23,6.85,3.18,10.34.47,1.74.91,3.51,1.15,5.32.24,1.8.38,3.6.48,5.41.38,7.21.24,14.43-.13,21.63-.39,7.2-1.05,14.38-2.11,21.52-1.07,7.12-2.55,14.25-5.14,21.01-2.54,6.77-5.86,13.25-9.98,19.19-1.03,1.48-2.12,2.93-3.28,4.32-1.18,1.38-2.36,2.75-3.86,3.89-.2.14-.39.27-.66.38-.3.11-.69.15-1.03-.18-.29-.37-.21-.7-.19-.95.04-.26.11-.49.19-.71.31-.89.7-1.7,1.08-2.52.77-1.63,1.52-3.25,2.18-4.91.66-1.67,1.31-3.35,2.05-5.01.74-1.66,1.58-3.25,2.38-4.86.79-1.62,1.67-3.2,2.23-4.85.57-1.66.69-3.43.72-5.22,0-3.6.27-7.25,1.16-10.79.24-.88.52-1.76.91-2.61.2-.42.43-.84.73-1.22.34-.42.6-.64.78-1.02.75-1.52,1.04-3.34,1.34-5.08.56-3.54.83-7.12,1.22-10.71.19-1.81.56-3.57.42-5.31-.07-.86-.25-1.7-.66-2.44-.4-.75-.97-1.4-1.61-2-.32-.3-.66-.58-1-.86-.34-.27-.71-.53-1.07-.88-.72-.66-1.16-1.66-1.19-2.64-.05-.97.17-1.89.39-2.77l.7-2.6c.44-1.72.65-3.47.4-5.22-.11-.85-.26-1.8-.72-2.34-.4-.54-1.33-.09-2.36-.17-1.09-.12-1.93-.98-2.2-1.95-.29-.95-.25-1.87-.4-2.71-.03-.19-.09-.46-.13-.56-.03-.04.04-.03-.17,0-.34.1-.74.34-1.11.56-.76.46-1.53.94-2.32,1.39-3.15,1.81-6.58,3.15-10.19,3.78-3.64.61-7.5-.32-10.52-2.42-1.52-1.03-2.86-2.33-3.97-3.79-.55-.74-1.05-1.51-1.46-2.35-.39-.8-.8-1.57-1.35-2.24-1.05-1.38-2.71-2.11-4.18-3.25-1.48-1.08-2.7-2.6-3.5-4.25-.83-1.65-1.34-3.44-1.58-5.26-.11-.91-.16-1.83-.12-2.75.06-.93.17-1.8.23-2.7.28-3.55.07-7.18-1.3-10.45-.69-1.74-.92-3.59-.97-5.41-.02-1.83.13-3.66.57-5.45.24-.89.52-1.78,1.09-2.6.53-.7.95-1.47,1.34-2.26.77-1.6,1.41-3.27,1.99-4.97.57-1.7,1.08-3.42,1.53-5.15.23-.85.4-1.76.76-2.64.36-.87.89-1.7,1.65-2.32.75-.62,1.69-.96,2.6-1.15.91-.19,1.82-.24,2.65-.43.2-.05.4-.11.59-.19.15-.06.39-.21.64-.28.48-.16.96-.2,1.42-.22.93-.04,1.85.04,2.75.16,1.81.25,3.58.66,5.32,1.24.86.3,1.72.62,2.54,1.11.84.53,1.42,1.24,2.03,1.91,1.19,1.36,2.32,2.75,3.66,3.9.66.57,1.38,1.08,2.15,1.46.39.18.79.33,1.2.42l1.33.32c1.77.46,3.49,1.3,4.89,2.54,1.4,1.25,2.33,2.88,3.32,4.34.25.36.51.72.8,1.04.14.17.29.32.44.47-.03.24.75.14-.09.49,0,0-.07-.32-.14-.48l-.24-.61c-.17-.41-.35-.82-.54-1.22-.75-1.62-1.56-3.23-2.39-4.82-.83-1.59-1.68-3.17-2.56-4.74-.89-1.56-1.77-3.13-2.8-4.57-.52-.71-1.06-1.44-1.7-1.96-.32-.25-.66-.43-1.04-.46-.39-.04-.83,0-1.29.02-1.88.07-3.68-.38-5.41-.96-1.73-.6-3.38-1.45-4.86-2.52-1.47-1.06-2.89-2.18-4.26-3.37-1.36-1.19-2.67-2.45-3.87-3.82-.6-.69-1.17-1.39-1.7-2.14-.47-.72-1.17-1.54-1.48-.96-.42.6-.57,1.54-.69,2.39-.1.87-.14,1.76-.13,2.65,0,.89.08,1.75.21,2.65.09.89.24,1.9-.26,2.85-.53.92-1.4,1.39-2.18,1.84-.81.44-1.61.83-2.45,1.21-.85.39-1.84.62-2.83.44-.99-.17-1.83-.78-2.46-1.46-1.28-1.4-2.03-3.08-2.96-4.58-.98-1.6-1.45-3.51-1.18-5.4.09-.47.17-.94.53-1.42.29-.32.52-.3.63-.42.16-.12.32-.26.48-.41.61-.59,1.14-1.31,1.5-2.07.36-.75.53-1.65.3-2.35-.31-.7-.99-1.33-1.65-1.89-1.36-1.12-2.88-2.07-4.45-2.9-.79-.41-1.59-.8-2.42-1.12-.82-.32-1.68-.61-2.49-.67-.96.02-1.92-.38-2.7-.88-.79-.51-1.48-1.14-2.11-1.8-1.26-1.34-2.29-2.86-3.18-4.45-.43-.8-.85-1.61-1.16-2.5-.15-.44-.29-.92-.24-1.47.03-.59.53-1.08.95-1.28.44-.24.86-.39,1.28-.55.23-.08.36-.16.68-.25.29-.06.54-.05.79-.02.97.13,1.82.48,2.66.82,3.34,1.46,6.43,3.33,9.49,5.25,3.04,1.93,6.04,3.97,8.89,6.18,2.86,2.19,5.7,4.39,8.61,6.49,1.46,1.05,2.93,2.08,4.45,3.02.76.45,1.54.92,2.33,1.18.18.06.4.08.45.06-.03.05.02-.01-.03-.22-.09-.36-.31-.76-.52-1.14-.4-.73-1.09-1.32-1.72-1.96-.64-.62-1.3-1.23-1.97-1.82-1.34-1.19-2.72-2.34-4.13-3.45-2.82-2.23-5.74-4.32-8.74-6.28-12.02-7.85-25.33-13.78-39.29-17.19-13.95-3.44-28.52-4.18-42.78-2.44-14.27,1.67-28.29,5.61-41.24,11.85-12.95,6.21-24.87,14.62-34.95,24.87-1.28,1.25-2.45,2.61-3.38,4.12-.45.76-.86,1.56-1.06,2.39-.05.21-.07.42-.06.6.02.2.08.31.15.3.25.02.65-.32.93-.61.31-.31.54-.66.86-1.02.31-.35.62-.67.95-.99.65-.63,1.33-1.23,2.01-1.82,1.37-1.18,2.77-2.31,4.18-3.43,5.68-4.44,11.62-8.53,17.74-12.34,6.12-3.8,12.44-7.29,18.97-10.34,6.53-3.04,13.28-5.67,20.27-7.46,6.99-1.76,14.05-3.23,21.21-4.11,3.58-.44,7.18-.71,10.79-.7,1.8.01,3.61.1,5.41.32,1.79.22,3.59.57,5.28,1.27.42.18.83.39,1.22.65.37.28.78.57.94,1.11.07.27-.02.57-.17.78-.15.21-.34.37-.54.5-.39.27-.82.45-1.24.62-1.71.64-3.49.98-5.26,1.34-.87.19-1.8.3-2.6.59-.2.07-.37.18-.5.31-.13.14-.23.33-.34.53-.22.41-.57.78-.94,1.05-1.53,1.07-3.28,1.59-5,2.14-1.73.49-3.65.73-5.42.09-1.79-.63-3.02-2.13-4.1-3.54-.56-.69-1.11-1.43-1.83-1.88-.73-.46-1.64-.51-2.49-.34-1.73.35-3.3,1.3-5.02,1.89-.42.14-.84.29-1.17.53-.35.23-.4.61-.32,1.05.18.85.46,1.74.6,2.63.17.9.17,1.81.31,2.68.07.42.16.88.44,1.14.27.26.74.31,1.18.41,1.8.32,3.45,1.22,4.98,2.13.39.23.78.46,1.16.72.37.26.77.54,1.01,1,.24.47.13,1,.02,1.43-.12.45-.28.87-.42,1.29-.31.85-.53,1.69-.82,2.58-.32.87-1.01,1.67-1.93,1.94-.91.29-1.85.23-2.75.1-.9-.13-1.78-.33-2.66-.52-1.74-.38-3.54-.77-5.26-.28-.43.1-.85.24-1.19.48-.34.24-.52.61-.68,1.04-.31.87-.92,1.64-1.64,2.19-1.43,1.18-3.23,1.72-4.96,2.2-1.75.45-3.5.85-5.2,1.42-1.71.56-3.27,1.39-4.81,2.35-1.54.93-3.2,1.72-4.94,2.23-1.72.54-3.41,1.13-5.08,1.79-1.66.66-3.33,1.41-4.45,2.82-1.12,1.39-2.29,2.79-3.63,4.01-1.32,1.23-2.74,2.35-4.14,3.48-1.4,1.13-2.85,2.21-4.23,3.35-1.33,1.17-2.41,2.65-3.59,4-1.13,1.33-2.13,3-1.92,4.77.1.87.53,1.67,1.13,2.3.61.63,1.37,1.12,2.18,1.48.81.37,1.67.63,2.54.8.88.16,1.79.36,2.6.81.82.42,1.5,1.15,1.85,2.01.36.85.49,1.76.69,2.63.1.43.23.86.42,1.25.19.39.45.77.69,1.14.5.74,1.05,1.44,1.68,2.08,1.25,1.27,2.81,2.22,4.5,2.78,1.7.56,3.51.57,5.3.79.87.13,1.87.22,2.57.91.64.68,1.06,1.48,1.61,2.19.24.34.63.79.4,1.35-.3.48-.82.56-1.25.67-.9.17-1.81.18-2.71.2-1.8.02-3.6-.03-5.4.03-.9.03-1.79.09-2.68.2-.88.13-1.78.29-2.68.37-.9.09-1.82.1-2.72-.1-.9-.19-1.73-.56-2.56-.93-1.64-.74-3.28-1.47-4.96-2.12-1.68-.66-3.32-1.47-4.75-2.6-.72-.56-1.34-1.23-1.93-1.91-.58-.68-1.22-1.31-2.06-1.59-.4-.14-.88-.22-1.28-.47-.41-.24-.75-.61-.92-1.05-.35-.89-.22-1.85-.07-2.73.16-.89.41-1.76.6-2.63.15-.89.47-1.76.81-2.59.67-1.66,1.39-3.34,1.43-5.13.02-.44-.02-.89-.1-1.32-.06-.44-.21-.84-.52-1.12-.64-.56-1.62-.54-2.48-.46-1.77.21-3.49.78-5.2,1.32-1.71.55-3.41,1.14-5.16,1.61-1.74.39-3.32,1.4-4.29,2.9-.99,1.48-1.53,3.21-2.17,4.9-.31.85-.64,1.69-1.03,2.51-.38.82-.84,1.6-1.25,2.4-.41.8-.83,1.59-1.13,2.43-.31.83-.39,1.71-.3,2.6.09.88.18,1.8.36,2.65.1.43.33.81.72.59.37-.16.71-.48,1.04-.77,1.3-1.23,2.55-2.54,3.89-3.74.67-.6,1.34-1.2,2.06-1.76.72-.55,1.52-1.05,2.45-1.24.46-.09.97-.06,1.41.16.44.22.77.6.98,1.02.43.85.51,1.79.5,2.7-.06,1.83-.63,3.62-1.51,5.2-.39.8-.75,1.63-.9,2.49-.17.84,0,1.8.78,2.21.74.43,1.66.42,2.56.49.89.04,1.85.19,2.66.66.41.22.79.48,1.14.76.35.28.73.55,1.01.95.29.39.43.89.39,1.37-.04.48-.22.93-.43,1.34-.88,1.62-2.13,2.94-3.15,4.4-.52.71-.88,1.53-.94,2.4-.06.86.16,1.75.68,2.43.26.33.61.62.99.67.19.02.37-.02.52-.14.13-.1.32-.33.54-.44.88-.45,1.83-.41,2.73-.41,1.82.06,3.6.34,5.38.47.44.02.9.06,1.32.02.43-.04.84-.17,1.23-.35.79-.38,1.48-.95,2.17-1.52,1.36-1.16,2.74-2.37,4.31-3.29.79-.45,1.58-.89,2.47-1.17.88-.28,1.83-.33,2.74-.21,1.84.26,3.48,1.13,5.05,1.99.79.44,1.57.88,2.37,1.26.8.37,1.64.68,2.51.63,3.56-.18,7.14-.92,10.78-.66.9.09,1.83.22,2.68.66.82.49,1.45,1.18,1.99,1.92,1.07,1.49,1.76,3.18,2.77,4.63.51.73,1.1,1.37,1.87,1.81.74.46,1.6.66,2.48.84,1.76.35,3.53.78,5.25,1.3,1.73.51,3.44,1.1,5.13,1.71,1.7.62,3.36,1.54,4.58,2.94,1.24,1.38,1.93,3.13,2.47,4.84.55,1.71,1.03,3.46,2.08,4.88,1.03,1.43,2.59,2.39,4.28,2.91,1.68.5,3.49.86,5.2,1.43,6.9,2.19,13.3,5.61,19.68,8.92,1.6.83,3.2,1.64,4.83,2.4.8.38,1.67.69,2.44,1.25.76.54,1.39,1.3,1.73,2.18.71,1.79.32,3.73-.25,5.43-.59,1.73-1.45,3.34-2.38,4.89-.95,1.55-1.96,3.02-3.06,4.48-1.15,1.45-2.67,2.47-3.66,3.94-1.04,1.44-1.73,3.09-2.45,4.74-.37.82-.71,1.63-.89,2.49-.19.86-.21,1.73-.22,2.65-.1,1.86-.72,3.58-1.23,5.3-.26.86-.53,1.72-.72,2.58-.1.43-.17.87-.23,1.3-.06.49-.24.95-.47,1.36-1,1.62-2.58,2.65-4.08,3.63-.77.48-1.55.94-2.32,1.39-.77.44-1.51.98-2.4,1.31-.88.33-1.86.42-2.77.29-.92-.12-1.79-.35-2.67-.55-1.69-.53-3.39.54-4.45,1.87-.54.68-.97,1.46-1.14,2.29-.09.4-.05.83-.04,1.29l.03,1.36c0,1.81-.19,3.68-.96,5.38-.38.84-.91,1.62-1.55,2.3-.66.67-1.3,1.23-1.89,1.92-1.2,1.32-2.31,2.74-3.54,4.08-1.23,1.32-2.58,2.64-4.35,3.31-.89.35-1.85.32-2.6.64-.18.08-.31.17-.37.31-.07.14-.09.37-.14.6-.09.48-.32.94-.6,1.32-1.17,1.53-2.86,2.32-4.19,3.48-.35.28-.67.58-.98.89-.32.31-.56.65-.9,1.01-.38.39-.9.51-1.33.63-.44.11-.92.17-1.31.28-.81.22-1.46.8-1.84,1.56-.4.75-.59,1.63-.71,2.5-.13.88-.18,1.77-.24,2.67-.03.9-.17,1.82-.11,2.66.14,1.73.89,3.4,1.81,4.9.94,1.5,2.11,2.87,3.46,4.01.67.58,1.42,1.05,2.17,1.55l1.13.76c.19.13.37.27.56.44.28-.03.37.93-.09.95-.51.19-.93.22-1.38.31l-1.33.21c-.94.14-1.87.05-2.78-.11-3.6-.72-6.91-2.35-9.93-4.36-1.5-1.02-2.93-2.17-4.17-3.51-1.25-1.33-2.32-2.81-3.25-4.37-1.86-3.12-3.21-6.51-4.25-9.97-1.05-3.46-1.8-7-2.4-10.56-1.19-7.12-1.72-14.32-2.17-21.51-.12-1.8-.19-3.6-.39-5.37-.21-1.77-.52-3.54-1.03-5.24-.98-3.4-2.83-6.62-5.69-8.73-1.4-1.08-3.01-1.84-4.63-2.67-1.64-.88-2.99-2.2-4.1-3.64-1.13-1.44-2.05-3.03-2.8-4.69-.37-.83-.7-1.68-.98-2.56-.27-.82-.68-1.59-1.15-2.34-1.95-2.96-4.41-5.7-6-9-.8-1.64-1.4-3.4-1.69-5.21-.29-1.8-.4-3.63-.3-5.45.2-3.63,1.18-7.27,3.16-10.38.48-.78,1.07-1.5,1.67-2.19.58-.65,1.07-1.37,1.47-2.15.77-1.57,1.05-3.33,1.17-5.11.12-1.78.14-3.59.38-5.4.1-.86.15-1.76-.13-2.5-.25-.77-1.03-1.01-1.85-.84-.8.17-1.67.51-2.27,1.02-.64.53-.99,1.35-1.68,2.08-.35.36-.89.62-1.41.64-.54.05-1.03-.14-1.46-.33-.87-.41-1.6-1.01-2.26-1.65-1.32-1.3-2.35-2.85-3.14-4.51-.39-.83-.71-1.69-.98-2.57-.25-.89-.47-1.73-.75-2.58-.28-.83-.61-1.69-1.14-2.26-.27-.27-.56-.35-.98-.31-.43.02-.86.17-1.45.04-1.06-.35-1.61-1.17-2.17-1.88-.54-.74-1.01-1.52-1.48-2.28-.23-.37-.48-.79-.71-1.09-.24-.28-.6-.48-.99-.64-.79-.31-1.69-.49-2.56-.76-1.76-.5-3.47-1.43-4.72-2.83-.3-.34-.64-.69-.85-1.17-.2-.46-.29-.93-.35-1.4-.1-.93-.06-1.85.02-2.76.17-1.82.51-3.6.9-5.36,1.6-7.05,3.94-13.88,6.05-20.75.26-.86.52-1.72.75-2.58.12-.43.23-.86.32-1.29.05-.12.06-.65.13-.42.6.15-.05.2-.04.39-1.13,1.33-2.08,2.88-3.02,4.4-1.86,3.07-3.53,6.25-5.09,9.48-6.21,12.96-10.68,26.75-13.36,40.86-2.66,14.12-3.5,28.61-2.08,42.92.13,1.79.44,3.56.65,5.35.25,1.78.6,3.54.9,5.31.74,3.51,1.55,7.02,2.61,10.45.99,3.45,2.27,6.81,3.6,10.15,1.41,3.3,2.91,6.57,4.63,9.72,6.82,12.63,16.13,23.96,27.37,32.9,1.41,1.11,2.85,2.18,4.34,3.19,1.47,1.01,3.07,1.87,4.55,2.9,3,2,5.91,4.14,8.7,6.44,2.77,2.3,5.45,4.75,7.77,7.54,1.15,1.4,2.21,2.89,2.99,4.54.39.83.7,1.7.86,2.61.18.92.07,1.86-.03,2.75-.41,3.61-1.55,7.12-3.26,10.31-1.72,3.2-3.98,6.07-6.56,8.61-5.19,5.07-11.51,8.8-18.06,11.77-6.59,2.93-13.44,5.27-20.45,6.98-7.01,1.68-14.19,2.72-21.42,2.76-7.2.05-14.49-1.01-21.2-3.74-3.34-1.38-6.49-3.22-9.32-5.48-2.84-2.26-5.23-4.99-7.52-7.77-4.54-5.6-8.67-11.51-12.91-17.32-4.24-5.82-8.54-11.6-13.24-17.04-2.35-2.72-4.81-5.35-7.44-7.8-2.63-2.45-5.45-4.71-8.54-6.54-3.09-1.81-6.51-3.19-10.11-3.42-3.59-.26-7.21.74-10.26,2.63l-.04-.06Z"/>
  </g>
</svg>