<?xml version="1.0" encoding="UTF-8"?>
<svg id="Layer_2" data-name="Layer 2" xmlns="http://www.w3.org/2000/svg" viewBox="0 0 432.99 223.27">
  <defs>
    <style>
      .cls-1 {
        fill: #1d1e1c;
        stroke-width: 0px;
      }
    </style>
  </defs>
  <g id="Layer_1-2" data-name="Layer 1">
    <path class="cls-1" d="M0,179.38c5.97-.82,12-1.21,18.02-1.01,3.01.11,6.02.38,8.98.97,2.94.61,5.89,1.5,8.4,3.21,1.24.87,2.33,1.96,3.07,3.29.37.67.61,1.39.91,2.07.31.68.64,1.36,1.04,2,1.55,2.58,3.7,4.75,6.1,6.55,2.41,1.8,5.06,3.26,7.81,4.48,2.75,1.21,5.61,2.19,8.53,2.88l.14.03-.1.09-8.75,7.6.03-.07.02,11.63-.15-.1c2.22-.87,4.41-1.82,6.52-2.93,2.07-1.16,4.17-2.35,6.39-3.26,1.1-.44,2.25-.94,3.47-.95,1.12-.18,2.27-.74,2.97-1.63.08-.12.15-.23.2-.36.03-.06.03-.13.05-.19,0-.02.02-.09.05-.15l.08-.11c.22-.24.46-.42.71-.6.48-.36.98-.69,1.48-1.02,1-.66,2.02-1.29,3.04-1.91,4.08-2.48,8.23-4.87,12.39-7.22l6.26-3.49c2.08-1.19,4.29-2.13,6.41-3.21,4.29-2.11,8.58-4.21,12.92-6.22,4.34-2.01,8.69-3.99,13.18-5.67,1.12-.41,2.25-.82,3.41-1.14,1.16-.35,2.37-.47,3.54-.66l7.09-1.04c4.72-.71,9.46-1.36,14.13-2.33,1.16-.23,2.26-.67,3.39-1.07l3.37-1.22,6.73-2.46c4.48-1.65,8.97-3.29,13.43-5.01,4.45-1.75,9.02-3.22,13.66-4.39,2.32-.59,4.66-1.09,7.01-1.55,2.34-.45,4.64-1.06,6.94-1.72,4.59-1.32,9.1-2.87,13.69-4.25,2.29-.67,4.61-1.33,7.01-1.61,2.33-.33,4.6-1.11,6.86-1.86,4.52-1.54,8.99-3.23,13.62-4.51,2.31-.61,4.67-1.15,7.1-1.22,1.2-.02,2.41-.02,3.62.18.6.12,1.22.24,1.77.67.27.21.48.62.4,1-.07.37-.25.65-.49.9l-.32-.32c1.08-1.08,2.23-2.06,3.5-2.91.64-.42,1.31-.8,2.03-1.08l2.13-.77c2.81-1.05,5.66-2.1,8.64-2.71,2.98-.43,5.65-1.82,8.32-3.21.34-.17.68-.34,1.04-.48.34-.14.77-.29,1.18-.27.75,0,1.45-.07,2.1-.4,1.27-.77,2.74-1.32,4.16-1.8,2.87-.95,5.86-1.59,8.88-1.8,1.49-.14,2.98-.33,4.45-.59,1.47-.26,2.94-.6,4.42-.89,2.96-.62,5.98-.87,8.97-1.17,3-.28,6-.53,9-.75,6-.41,12.03-.88,18.06-.64,6.02.17,12.05.43,18.03,1.34,1.49.25,2.98.53,4.44,1.03,1.45.55,2.75,1.31,4.07,2.04,2.62,1.49,5.19,3.06,7.82,4.5,1.32.72,2.65,1.4,4.03,1.96.69.28,1.39.52,2.1.66.7.14,1.42.06,2.16-.04,2.91-.5,5.72-1.69,8.39-3l.14.51c-1.86.13-3.71.21-5.57.22-1.86,0-3.73-.01-5.6-.37-.46-.11-.96-.23-1.38-.5-.42-.24-.8-.52-1.18-.8-.74-.57-1.45-1.18-2.16-1.78-1.41-1.21-2.81-2.41-4.29-3.51-2.93-2.2-6.19-4.12-9.79-4.76-3.67-.59-7.28-1.53-10.87-2.43-7.17-1.82-14.47-3.31-21.89-2.94-3.73.01-7.45-.45-11.1-1.13l-5.46-1.07c-1.81-.33-3.64-.65-5.45-.59-.92.01-1.75.21-2.68.45-.91.2-1.84.36-2.77.46-.93.11-1.86.14-2.69.39-.83.24-1.54.81-2.19,1.43-1.31,1.3-2.68,2.58-4.13,3.76-.36.29-.73.58-1.1.86l-.57.41-.3.2s-.08.05-.17.08c-.05.01-.14.03-.28-.04-.12-.08-.16-.2-.16-.25-.01-.2.02-.23.04-.31.38-.95.86-1.7,1.32-2.52.93-1.61,1.9-3.19,2.81-4.79.48-.78.68-1.62.98-2.53.3-.9.71-1.77,1.21-2.57.5-.81,1.09-1.55,1.7-2.25.61-.7,1.19-1.38,1.67-2.16.49-.77.86-1.59,1.29-2.44.22-.42.48-.84.8-1.22.32-.38.73-.68,1.15-.94.88-.49,1.81-.65,2.52-1.12.36-.21.59-.57,1.05-.9.46-.3.95-.42,1.41-.52,1.87-.34,3.74-.32,5.57-.49,1.83-.16,3.64-.47,5.38-1.04,1.74-.56,3.43-1.34,5.18-1.97,1.76-.66,3.57-1.06,5.04-2.1,1.51-.98,2.57-2.49,3.39-4.12.42-.81.81-1.66,1.28-2.48.5-.84,1.03-1.52,1.32-2.38.62-1.67.72-3.55.5-5.32l.59.13c-.85,1.29-1.75,2.6-2.57,3.88-.76,1.29-1.09,2.86-1.99,4.24-.44.69-1.05,1.29-1.74,1.73-.7.45-1.48.7-2.25.92l-4.51,1.24c-1.52.41-3.13.6-4.7.6-1.56,0-3.11.03-4.65.13-3.08.21-6.18.68-9.04,1.79-2.86,1.11-5.39,2.98-7.37,5.33-1.86,2.47-4.02,4.79-5.85,7.27-.89,1.24-1.84,2.54-2.25,3.92-.3,1.52-.8,3.05-1.3,4.52-.51,1.48-1.06,2.94-1.61,4.4-.15.38-.25.7-.43,1.12-.06.11-.1.22-.25.35-.07.06-.2.14-.36.13-.15-.01-.26-.08-.33-.14-.24-.24-.29-.43-.38-.63-.29-.79-.44-1.55-.58-2.34l.64-.14c.25,1.43-.71,2.55-1.69,3.19-.99.69-2.19,1-3.23,1.35-2.13.76-4.25,1.65-6.36,2.51-4.24,1.72-8.48,3.45-12.85,4.86-2.19.68-4.4,1.34-6.73,1.59-2.32.1-4.55.23-6.77.72-1.11.23-2.19.55-3.32.83-.56.13-1.18.25-1.8.18-.57-.05-1.13-.09-1.7-.12-.57-.03-1.13-.04-1.7-.04-.29,0-.55,0-.88-.01-.32-.02-.61-.08-.89-.14-1.1-.26-2.26-.44-2.8.48-.16.22-.29.45-.42.69-.06.12-.12.26-.23.41-.11.16-.3.3-.47.37-.66.21-1.21.19-1.78.27-1.13.12-2.26.3-3.44.32-.58,0-1.19,0-1.79-.19-.58-.17-1.12-.52-1.53-.53-.37-.05-.76.41-1.01.84-.13.22-.18.46-.31.77-.13.31-.38.59-.62.77-2.01,1.36-4.29,1.86-6.44,2.58-2.15.72-4.23,1.66-6.33,2.56-2.09.9-4.21,1.85-6.43,2.46-1.1.33-2.2.66-3.35.87-.57.1-1.21.17-1.82.02-.6-.13-1.14-.38-1.65-.5-.27-.07-.47-.09-.79-.09-.31-.01-.62-.09-.85-.1-.4-.07-.74.39-1.03.82-.13.22-.22.45-.29.72-.04.14-.08.29-.16.45-.08.17-.22.33-.38.43-.65.37-1.23.33-1.82.39-.6.02-1.15-.04-1.69.05-.54.07-1.09.21-1.64.35-1.09.3-2.18.64-3.26.99-8.67,2.87-17.21,6.16-25.84,9.18-2.16.76-4.32,1.51-6.51,2.19-1.1.34-2.19.68-3.33.92-1.15.21-2.26.35-3.39.56l-13.51,2.39-1.7.27c-.25.04-.65.07-.86.09-.27.04-.54.09-.82.15-1.1.25-2.21.54-3.32.81-1.12.27-2.22.56-3.4.69-.59.04-1.14.05-1.68.14-.53.09-1.03.28-1.3.67-.3.37-.28.95-.47,1.54-.17.57-.39,1.09-.53,1.62-.14.53-.22,1.06-.15,1.58.07.52.29,1.02.57,1.48.6.96,1.26,1.88,2.02,2.71.38.42.78.81,1.2,1.19.1.09.22.18.34.33.11.13.24.42.1.69-.31.45-.69.41-1,.45-.65,0-1.26-.23-1.76-.58-.45-.3-.97-.53-1.48-.77-.52-.24-1.05-.48-1.55-.84-.25-.18-.49-.4-.66-.71-.08-.15-.14-.32-.16-.5-.01-.09-.01-.18-.01-.26v-.19c-.05-1.06-.61-2.1-.79-3.3-.04-.3-.06-.64.07-.98.15-.35.28-.51.41-.79.26-.5.49-1.02.72-1.54l.33-.78c.05-.12.11-.28.14-.38.03-.12.01-.09.03-.08-.07-.05-.4-.03-.65.02-.27.05-.54.12-.8.2l-.81.26c-.25.08-.6.19-.7.27,0,0-.11.19-.2.31-.09.13-.19.24-.3.35-.2.21-.4.44-.71.61-.6.31-1.23.31-1.81.31-.59-.01-1.15-.06-1.72-.09-1.13-.06-2.25-.03-3.32.28-2.07.72-4.07,1.99-6.18,2.86-1.05.46-2.07.94-3.1,1.45-.52.25-1.04.51-1.65.66-.63.14-1.27,0-1.82-.18-.55-.19-1.1-.4-1.62-.7-.51-.29-.98-.63-1.46-.92-.47-.29-.96-.52-1.48-.54-.51-.03-1.04.11-1.52.36-.98.47-1.84,1.26-2.77,1.92l-2.77,2.03-11.11,8.04c-.91.68-1.89,1.32-2.72,2.05-.83.74-1.55,1.62-2.22,2.54-.67.92-1.3,1.87-2.01,2.79-.7.9-1.55,1.81-2.59,2.34-.94.58-1.73,1.4-2.51,2.23-.79.81-1.55,1.74-2.71,2.23-.58.26-1.28.19-1.82.07-.57-.11-1.16-.27-1.69-.62-.53-.35-.91-.94-1.02-1.55-.12-.61-.08-1.22.02-1.8.46-2.32,1.55-4.36,2.51-6.44,1-2.06,2.04-4.1,3.1-6.13l3.15-6.09c.26-.51.51-1.02.75-1.53l.17-.38c.05-.11.11-.3.1-.27.02.07.11.11.07.09-.03,0-.09.01-.15.03-.12.03-.25.08-.37.14-1.02.45-2.02,1.04-3.09,1.49-.54.21-1.08.46-1.76.43-.39-.06-.59-.2-.88-.33-.27-.14-.52-.32-.75-.53-.46-.43-.73-1.09-.69-1.72.02-.63.24-1.2.5-1.73.56-1.05,1.26-1.94,1.92-2.88.67-.93,1.38-1.83,2.12-2.72,1.47-1.77,3.08-3.4,4.62-5.08.78-.84,1.48-1.71,2.16-2.64.7-.96,1.68-1.63,2.57-2.34,1.82-1.38,3.67-2.73,5.43-4.17.88-.72,1.74-1.47,2.58-2.24.83-.77,1.61-1.61,2.46-2.39,1.68-1.54,3.41-3.12,5.47-4.19,1.01-.55,2.01-1.07,2.92-1.74.91-.67,1.72-1.45,2.48-2.29.75-.84,1.49-1.74,2.27-2.57.78-.85,1.6-1.63,2.23-2.56.64-.93,1.21-1.92,1.79-2.9.57-.99,1.13-1.98,1.57-3.01.46-1.03.78-2.11,1.07-3.22.3-1.11.71-2.21,1.23-3.23.51-1.04,1.12-2.01,1.63-3.02.27-.5.5-1.02.75-1.54.24-.54.7-1.02,1.15-1.37.89-.73,1.83-1.4,2.67-2.13.41-.38.82-.77,1.16-1.21.35-.43.62-.91.95-1.41.32-.5.82-.93,1.36-1.18.54-.26,1.09-.45,1.64-.6,1.11-.31,2.18-.63,3.23-1.08.52-.22,1.06-.46,1.64-.59.58-.14,1.16-.2,1.73-.23,1.16-.08,2.3,0,3.42-.13.56-.07,1.11-.16,1.66-.3.55-.13,1.09-.34,1.71-.38.63-.04,1.23.2,1.73.49.51.29.98.64,1.44.98.91.69,1.83,1.38,2.65,2.22.82.84,1.4,1.91,1.75,3.02.36,1.11.56,2.24.82,3.35.25,1.12.51,2.23.64,3.39.13,1.15.07,2.36-.34,3.47-.2.56-.53,1.06-.71,1.56-.19.51-.22,1.05-.2,1.62.02.56.06,1.16-.06,1.75-.1.6-.38,1.14-.68,1.64-.65.98-1.48,1.81-2.36,2.55l-5.21,4.46c-1.74,1.49-3.54,2.9-5.34,4.31-1.8,1.41-3.62,2.8-5.48,4.13-1.87,1.31-3.65,2.74-5.38,4.23-.87.74-1.7,1.52-2.52,2.31-.83.78-1.66,1.61-2.71,2.16-1.05.57-2.23.75-3.37.85-.58.06-1.2.04-1.77-.22-.58-.26-.97-.85-1.09-1.44-.24-1.2.06-2.37.37-3.46l.05-.19c.32.3.25.07.21.21l-.25.34-.5.7-1.02,1.39c-1.39,1.81-2.82,3.64-4.64,5.08-.94.73-2.04,1.1-3.02,1.67-1.01.53-2.02,1.08-3.08,1.54-1.05.47-2.23.77-3.39.73-1.15.01-2.3-.05-3.44-.14l-1.71-.12c-.56-.04-1.13,0-1.71-.03-.58-.02-1.21-.19-1.69-.58-.48-.38-.82-.88-1.1-1.39-.27-.51-.55-.99-.91-1.4-.18-.2-.38-.4-.6-.5-.11-.05-.19-.04-.2-.02-.03.03-.05.16-.03.29.08.51.36,1.03.63,1.51.28.48.61.94,1.01,1.33.78.79,1.81,1.3,2.9,1.56,1.09.27,2.23.31,3.36.27,2.26-.2,4.56-.37,6.81-.66,1.12-.16,2.23-.42,3.23-.94.51-.25.95-.57,1.43-.9.49-.32,1-.6,1.53-.83,1.07-.45,2.21-.71,3.35-.87.57-.08,1.14-.13,1.71-.19l.86-.08c.15,0,.3-.02.48.02.08.01.25.1.25.28,0,.15-.07.22-.11.29-.42.48-.91.77-1.39,1.09-.49.31-.99.59-1.49.87-1.01.55-2.04,1.05-3.09,1.51-2.13.84-4.18,1.83-6.3,2.72-2.11.89-4.25,1.7-6.42,2.44-2.17.73-4.35,1.41-6.47,2.26-1.06.42-2.11.87-3.13,1.36-1.03.48-2.02,1.05-3.09,1.51-1.09.4-2.17.73-3.16,1.27-.12.07-.24.14-.31.22.01.08-.05-.16-.02-.08.04.01.11.01.17.01.27-.01.55-.06.83-.1.56-.1,1.1-.24,1.65-.41,4.34-1.39,8.47-3.42,12.79-4.91,2.13-.82,4.2-1.79,6.34-2.61.14-.05.27-.1.42-.14.07-.02.14-.04.23-.05.01-.13.4.16.24.3-.22.28-.44.4-.62.63-.37.41-.62.91-.84,1.44-.42,1.06-1.02,2.11-1.87,2.9-.84.8-1.81,1.43-2.45,2.35-.67.94-1.5,1.75-2.3,2.57-.8.81-1.53,1.68-2.19,2.61-.66.92-1.27,1.9-2.02,2.78l-1.15,1.27c-.19.21-.37.43-.54.65-.09.11-.17.22-.24.34-.06.01-.02.21-.1.02-.13-.02.03-.04.06-.08.9-.65,1.73-1.46,2.54-2.26,1.6-1.62,3.15-3.31,4.69-5l4.58-5.1,1.14-1.28c.38-.43.79-.83,1.08-1.31.3-.47.51-1,.69-1.53.19-.53.37-1.13.86-1.53.24-.2.53-.31.82-.38.27-.07.53-.16.78-.28.51-.24.99-.54,1.46-.85.95-.63,1.87-1.32,2.89-1.87.5-.28,1.07-.49,1.63-.6.54-.14,1.07-.35,1.58-.59,1.02-.49,2-1.09,2.9-1.77.45-.35.87-.72,1.25-1.15.19-.21.39-.42.6-.62.11-.1.19-.2.38-.29.22-.08.28.26.23.27-.01.08-.04.15-.06.23-.41,1.09-.95,2.09-1.49,3.11-1.08,2.02-2.46,3.88-3.98,5.59-.74.86-1.53,1.72-2.43,2.44-.44.37-.92.7-1.32,1.08-.2.19-.37.41-.38.65-.02.24.13.49.26.74.53.97,1.33,1.88,2.38,2.24.52.18,1.08.11,1.63,0,.54-.12,1.06-.35,1.59-.58.52-.23,1.05-.46,1.6-.65.55-.15,1.03-.44,1.52-.73.97-.6,1.92-1.23,2.92-1.8,1.97-1.12,4.24-2.05,6.58-1.76,1.12.1,2.29.25,3.37.04.26-.07.51-.18.69-.36.19-.18.32-.44.5-.67.37-.44.61-.93.9-1.44.29-.5.68-.98,1.21-1.27.54-.28,1.09-.41,1.67-.53.58-.11,1.2-.05,1.75.14.55.2,1.09.36,1.6.71.25.17.44.43.61.65.09.11.15.15.25.14.11,0,.24-.07.36-.13.49-.25.97-.58,1.42-.91.45-.32.86-.77,1.45-.97.58-.18,1.16-.18,1.73-.21.57,0,1.16,0,1.74.15.59.14,1.08.58,1.44.98.08,0-.27.25-.16.09-.03-.06-.07-.11-.11-.17-.08-.11-.16-.23-.25-.33-.18-.22-.37-.42-.57-.61-.41-.38-.87-.71-1.39-.86-.52-.18-1.04.05-1.57.26-.53.21-1.04.45-1.56.69l-1.55.73c-.26.12-.52.24-.82.32-.08.02-.15.04-.27.03-.12-.04-.14-.06-.22-.09l-.4-.15c-.54-.21-1.08-.39-1.58-.75-.06-.05-.12-.1-.18-.18-.04-.06-.13-.18-.05-.33.09-.16.19-.25.29-.36.2-.21.4-.41.61-.61.83-.79,1.68-1.56,2.53-2.33,3.39-3.07,6.88-6.04,10.14-9.22.41-.4.75-.83,1.1-1.29l1.04-1.36,2.07-2.73,4.11-5.49c1.36-1.84,2.71-3.68,4.03-5.54.65-.93,1.33-1.87,1.89-2.84.55-1,1.08-2.01,1.57-3.04.97-2.06,1.8-4.2,2.3-6.41.49-2.21.65-4.54,0-6.71-.31-1.08-.69-2.18-1.36-3.06-.34-.43-.78-.77-1.31-.89-.27-.08-.53-.04-.88-.21-.19-.1-.23-.37-.25-.46-.03-.13-.08-.26-.13-.39-.2-.52-.41-1.12-.31-1.74.09-.61.44-1.14.86-1.55.84-.84,1.92-1.34,2.92-1.86,1.02-.52,2-1.06,3-1.66.54-.26,1.07-.43,1.59-.67.52-.23,1.05-.46,1.6-.65.55-.18,1.14-.29,1.73-.28.59.02,1.14.03,1.71.03h3.43s13.71-.13,13.71-.13l6.86-.11c2.29-.06,4.56-.04,6.83-.35v.32c-10.9-.38-21.82-.74-32.74-.88h-4.09c-1.37.03-2.72-.03-4.04.31-1.32.29-2.63.67-3.91,1.12-1.27.46-2.55.96-3.66,1.71-.27.19-.53.4-.72.64-.09.12-.17.25-.19.38-.03.15-.05.36-.12.52-.11.36-.36.66-.53.91-.08.14-.11.23-.06.33.04.11.15.23.27.34.48.44,1.08.77,1.66,1.15.57.38,1.13.8,1.63,1.3,1.82,2.16,2.64,4.93,2.73,7.69.03.69.03,1.38-.02,2.07-.03.35-.07.69-.17,1.05l-.3.98c-.23.65-.51,1.31-.96,1.87-.43.57-1.14.95-1.79,1.11-.63.2-1.21.54-1.82.87-.31.16-.63.32-1.01.39-.37.07-.8-.03-1.1-.25-.55-.39-1.14-.72-1.71-1.14-.27-.22-.58-.42-.75-.83-.09-.21-.03-.5.11-.65.16-.18.22-.22.3-.37.26-.53.15-1.25.12-1.92-.04-.68-.07-1.38.03-2.08.09-.7.29-1.36.49-2.01.19-.64.37-1.31.18-1.9-.19-.57-.77-1.02-1.22-1.52-.47-.48-.96-.96-1.48-1.38-.52-.41-1.08-.81-1.69-.97-.31-.09-.57-.03-.96,0-.36.02-.74,0-1.1-.19-.35-.18-.6-.56-.66-.94-.06-.38,0-.75.08-1.09.16-.69.52-1.34.97-1.87.21-.27.48-.53.57-.76.1-.17-.18-.39-.46-.55-.57-.32-1.22-.58-1.82-.91-1.22-.58-2.38-1.59-3.66-.94-1.25.45-2.43,1.16-3.59,1.87-.58.35-1.16.72-1.79,1.03-.63.32-1.33.5-2.02.58-1.34.13-2.66.49-4,.78-1.33.31-2.66.62-4.01.86-.67.13-1.4.19-2.07.16l-2.05-.04c-.68-.01-1.38-.04-2.03-.03-.63.09-1.3.29-1.95.48-1.3.38-2.6.82-3.88,1.27-1.28.46-2.56.94-3.8,1.48-.6.28-1.27.56-1.73.94-.51.5-1.06.89-1.6,1.31-4.32,3.32-8.69,6.65-12.33,10.69-.88,1.02-1.74,2.09-2.36,3.28-.61,1.21-1.2,2.45-1.79,3.67l-3.53,7.39c-2.32,4.94-4.65,9.88-6.78,14.9-.26.63-.52,1.26-.75,1.89-.11.32-.23.64-.3.95-.02.09-.02.12-.02.2v.27c0,.18,0,.37-.04.55-.03.18-.09.36-.15.53-.07.15-.12.37-.11.3,0,0,.05.04.11.07.08.06.2.04.31.31.03.17-.08.28-.13.32-.06.05-.11.07-.16.1-.1.04-.19.07-.28.1-.18.05-.35.08-.55.1-.03,0-.13,0-.22-.03-.08-.03-.13-.07-.17-.11-.09-.08-.15-.16-.2-.25-.19-.34-.31-.72-.2-1.15.88-2.61,1.79-5.17,2.76-7.73.49-1.28.99-2.55,1.56-3.8.27-.62.6-1.25.95-1.84.34-.57.65-1.19.95-1.79,1.2-2.44,2.33-4.93,3.49-7.41,1.16-2.47,2.32-4.95,3.62-7.36.33-.6.67-1.2,1.05-1.78.39-.6.86-1.09,1.31-1.61.91-1.03,1.83-2.03,2.77-3.02.94-.99,1.89-1.97,2.88-2.93.49-.48.99-.95,1.52-1.4.27-.22.53-.44.86-.64.29-.17.55-.34.82-.56,2.1-1.7,4.1-3.62,6.52-4.99,1.2-.71,2.57-1.11,3.87-1.46,1.31-.37,2.64-.72,3.92-1.14.62-.22,1.32-.45,1.73-.83.1-.11.1-.13.13-.33l.06-.5.11-1.02c.15-1.37.42-2.73.85-4.05.85-2.59,1.71-5.2,2.84-7.7,1.14-2.49,2.47-4.95,4.39-6.97,1.92-2,4.26-3.53,6.7-4.8,2.46-1.24,5.07-2.17,7.77-2.73,1.35-.27,2.72-.44,4.1-.52,1.37-.06,2.75-.05,4.12,0,2.74.12,5.47.45,8.16.97,2.69.53,5.36,1.21,7.9,2.32,1.26.57,2.48,1.24,3.57,2.12.54.44,1.05.94,1.47,1.51l.15.21c.07.1.1.18.14.27.07.17.13.34.18.51.1.34.19.67.27,1,.09.34.14.66.29.92.13.29.35.54.47.98.07.23-.05.56-.22.71-.17.16-.34.24-.51.32-.33.15-.66.25-1,.35-1.33.38-2.64.69-3.9,1.18-1.25.52-2.59.96-3.91,1.29-.66.17-1.32.34-1.95.55-.64.22-1.3.45-1.98.61-.68.16-1.39.28-2.11.23-.73-.02-1.44-.35-2.03-.6-.63-.26-1.29-.52-1.89-.91-.61-.38-1.15-.92-1.47-1.59-.33-.67-.39-1.43-.34-2.14.06-.72.3-1.46.78-2.03.47-.58,1.13-.97,1.82-1.2.69-.23,1.39-.32,2.11-.33.72,0,1.45.14,2.11.47.66.33,1.23.88,1.54,1.55.33.67.43,1.42.4,2.12-.03.7-.1,1.41-.37,2.11-.26.71-.95,1.3-1.69,1.44-.72.18-1.45.13-2.12.1l-4.09-.15-2.04-.08c-.71-.01-1.4-.15-2.07-.26-1.35-.24-2.68-.52-4.02-.72-.65-.09-1.37-.19-1.93-.1-.3.07-.53.19-.71.41-.18.22-.35.55-.58.83-.91,1.18-2.28,1.75-3.46,2.35-1.2.58-2.31,1.41-2.51,2.69-.1.61-.14,1.38-.42,2.05-.14.34-.34.68-.61.95-.28.27-.6.47-.93.63-1.33.58-2.66.78-3.94,1.24-1.29.42-2.56.9-3.82,1.41-.63.26-1.25.52-1.86.81-.31.14-.6.29-.88.46-.12.08-.26.17-.39.27l-.18.15-.06.06c-.05.15.15-.23-.14-.37-.1-.02.05,0,.1-.03l.23-.06.48-.14.97-.32,1.93-.67c2.57-.91,5.11-1.89,7.65-2.89.62-.25,1.32-.48,1.9-.73.6-.26,1.13-.65,1.72-1.02.3-.18.61-.36.94-.5.34-.14.61-.26.98-.39.41-.12.75-.1,1.09-.13l1.02-.07c.67-.05,1.33-.16,2.04-.23.35-.02.79-.04,1.19.23.18.13.32.3.42.46l.28.42c.1.14.19.26.31.45.07.09.12.31.09.43,0,.06-.02.11-.03.16-.02.07-.06.2-.17.29-.24.2-.58.06-.67-.11-.11-.17-.11-.36-.08-.48.06-.27.19-.43.32-.58.25-.29.58-.51.83-.7.25-.2.49-.41.68-.66.36-.5.83-1.17,1.41-1.57.55-.41,1.22-.86,2.02-.86.36,0,.51-.06.76-.25.23-.2.44-.43.6-.69.18-.26.26-.58.6-.93.18-.17.45-.25.66-.26.21,0,.41.02.59.06.68.18,1.28.25,1.97.26.67.02,1.4,0,2.12.23.64.28,1.2.3,1.91.28.68-.02,1.4,0,2.1.14.35.06.7.18,1,.24.31.06.63.1.96.11.65.03,1.34-.06,2.07.02.73.06,1.47.41,2.01.84.55.39,1.15.83,1.6,1.35l.17.16s.05.03,0,0c-.07-.05-.27.05-.26.09-.01.05.02-.18,0-.3-.03-.3-.12-.62-.24-.9-.12-.29-.28-.56-.46-.72-.02-.01-.05-.04-.07-.05.01.49-.18-.72.1-.65.13,0,.21,0,.3,0l.52.03c1.37.11,2.73.25,4.09.39,10.86,1.17,21.71,2.46,32.55,3.75l-.08.66-38.82-5.22-2.87-.39,2.89-.29c3.76-.37,7.52-.8,11.27-1.28,3.75-.49,7.49-1.02,11.19-1.74,3.69-.72,7.29-1.91,10.89-3.05,3.59-1.17,7.17-2.4,10.72-3.69l.18.66-46.24,8.82-.18-.66c2.05-.72,4.09-1.45,6.12-2.2,1.03-.36,1.98-.8,3.04-1.18,1.03-.37,2.07-.69,3.1-1.03l3.09-.99.37-.13.07-.03s.05-.03-.02.01c-.04.04-.02.01-.08.11-.08.09,0,.37.1.41l.05.03c.08.03-.05,0-.09,0-.25-.02-.52-.02-.79-.03h-1.62c-1.08.02-2.17.05-3.23.14l-.38.04c-.06,0-.13.02-.14.03-.03,0,.05-.01.07-.04.04-.04-.04.04-.11.07-.07.03-.14.04-.22.03-.24-.07-.25-.16-.29-.2-.21-.34-.27-.57-.37-.84-.18-.53-.33-1.05-.47-1.59l-.11-.42.43-.02,38.09-1.52h-.04c4.88-.87,9.74-1.93,14.49-3.35,2.36-.73,4.73-1.52,6.86-2.69,1.03-.59,2.06-1.37,3.14-2,1.07-.64,2.16-1.26,3.26-1.85,2.2-1.18,4.44-2.28,6.69-3.34,1.13-.53,2.26-1.04,3.41-1.54,1.16-.49,2.25-1.01,3.54-1.38.57-.13,1.14-.35,1.71-.57l.86-.35.44-.18.23-.09.14-.04s.09-.02.13-.02c.02,0,0-.01.1,0,.07,0,.18.09.17.09.02.02.05.05.06.07.38.66.55,1.18.81,1.77l.7,1.73,2.69,6.97.02.04v.04c.1,1.23-.1,2.43-.65,3.53-.54,1.1-1.53,1.98-2.67,2.42-1.13.41-2.27.66-3.47.7-1.19.02-2.4-.12-3.52-.82l-.5-.31.56-.29c.96-.49,1.88-1.18,2.54-2.03.67-.84.97-1.92.68-2.92-.32-1-.88-2.05-1.79-2.49-.9-.46-2.04-.26-3.06.13-.26.1-.52.21-.77.32-.23.11-.44.25-.63.41-.39.34-.68.78-.87,1.27-.39.98-.37,2.11-.05,3.14.34,1.02.93,2,1.7,2.75.78.75,1.79,1.23,2.86,1.47,2.15.47,4.48.15,6.53-.67,2.02-.81,3.46-2.81,3.84-4.94.09-.53.12-1.08.04-1.61-.07-.51-.26-1.05-.45-1.58-.38-1.07-.81-2.13-1.25-3.18-.88-2.11-1.81-4.21-2.76-6.29l-.1-.23.19-.18c1.71-1.66,3.18-3.67,4.13-5.86.95-2.19,1.26-4.69.51-6.94-.77-2.23-2.25-4.29-4.26-5.55-1.99-1.27-4.5-1.77-6.81-1.49l.27-.48,2.1,5.2-.34-.22c1.64.02,3.26.4,4.66,1.29,1.41.89,2.37,2.44,2.61,4.06.26,1.6.2,3.24-.23,4.8-.46,1.56-1.23,3.01-2.48,4.16l-.36.33-.19-.47-5.05-12.2.44.2-1.4.45.22-.47,4.99,12.59.13.33-.33.13c-1.62.63-3.28,1.02-4.99,1.18-1.7.15-3.47.05-5.12-.51-.83-.28-1.62-.67-2.33-1.17-.36-.25-.69-.53-1.01-.82-.33-.28-.63-.58-.93-.89-1.2-1.23-2.15-2.73-2.7-4.38-.55-1.66-.63-3.44-.38-5.14.06-.42.14-.84.27-1.29.14-.41.29-.82.46-1.21.33-.79.7-1.54,1.07-2.3,1.51-3.02,3.16-5.95,4.85-8.86l.38-.65.27.7,2.57,6.67.09.23-.19.18c-1.23,1.14-2.28,2.56-2.97,4.1-.69,1.54-.99,3.27-.66,4.91.16.82.45,1.61.86,2.35.38.77.87,1.46,1.42,2.09.56.61,1.23,1.12,1.99,1.4.74.27,1.62.31,2.3.05l-.04.64c-1.16-.74-2.22-1.6-3.13-2.64-.44-.52-.88-1.11-1.12-1.8-.24-.67-.36-1.37-.39-2.07-.03-1.38.24-2.87,1.24-3.99.25-.27.56-.51.89-.68.3-.15.61-.3.91-.45.63-.28,1.24-.54,1.94-.73l-.25.49-5.04-11.99-.09-.21.16-.18c3.12-3.5,5.12-8.18,5.1-12.9,0-1.18-.13-2.36-.38-3.52-.13-.57-.28-1.15-.45-1.73-.16-.58-.33-1.15-.52-1.72-.75-2.25-1.66-4.51-3.12-6.33-.72-.89-1.65-1.67-2.71-1.81-1.04-.12-2.1.51-2.69,1.44-1.22,1.93-1.42,4.43-1.52,6.77-.07,4.75,1.05,9.53,2.81,13.93l-.63-.07.89-1.26-.06.29c-.33-1.62-.59-3.25-.77-4.9-.17-1.62-.26-3.37.1-5,.14-.81.31-1.63.55-2.44.25-.8.56-1.62,1.15-2.33.58-.71,1.59-1.17,2.59-.88.51.17.87.55,1.11.92.25.38.43.79.57,1.19.53,1.64.66,3.31.62,5-.08,1.72-.64,3.35-1.4,4.84-1.56,2.96-3.57,5.57-5.46,8.25-1.89,2.66-3.65,5.43-4.92,8.41-1.27,2.97-2.04,6.21-1.66,9.4.18,1.58.7,3.13,1.36,4.59.66,1.46,1.51,2.84,2.6,4.02,1.08,1.18,2.37,2.15,3.79,2.9,1.41.78,2.95,1.24,4.52,1.78,1.5.49,3.13.73,4.74.9,1.61.16,3.24.21,4.86.11,1.61-.1,3.22-.35,4.73-.87,1.52-.51,2.85-1.38,3.81-2.65,1.94-2.53,2.83-5.77,3.43-8.94.29-1.6.48-3.22.59-4.84.05-.81.09-1.63.07-2.42-.03-.83,0-1.67.09-2.51.19-1.66.67-3.39,1.85-4.72,1.15-1.37,3.07-1.95,4.78-1.67.43.06.84.16,1.27.3.44.16.82.4,1.16.68.68.56,1.22,1.23,1.68,1.95.46.72.83,1.48,1.11,2.29.25.81.51,1.66.27,2.64-.31.94-1.1,1.57-1.91,1.91-.82.35-1.7.49-2.58.43-.43-.03-.91-.13-1.3-.3-.39-.16-.77-.32-1.15-.51-.73-.36-1.62-.89-1.93-1.86-.15-.47-.14-.94-.08-1.38.06-.44.15-.86.34-1.29.19-.42.49-.82.89-1.1.4-.28.86-.42,1.3-.48.45-.06.88-.06,1.31-.03.41.04.85.06,1.29.2.86.27,1.59.7,2.28,1.23l-.6.23,4.08-22.9.06-.32.32.02,18.34.94.4.02-.07.4-3.8,22.84v-.04c-.09,1.03-.48,2.01-1.22,2.75-.74.74-1.8,1.07-2.78,1.11-1,.02-1.95-.14-2.89-.43-.92-.3-1.89-.8-2.45-1.72-.56-.93-.55-2.01-.34-2.99.31-1.09,1.21-1.75,2.09-2.17.9-.41,1.95-.61,2.95-.39.96.2,1.87.54,2.72,1.1l-.53.22,2.37-14.41.31.38-13.92-.72.34-.27-2.68,14.42v-.03c-.12,1.82-.1,3.67.12,5.48.11.91.29,1.8.56,2.66.28.85.64,1.68,1.25,2.3,1.26,1.26,2.88,2.21,4.52,3,1.66.78,3.4,1.37,5.19,1.78,3.57.8,7.33.8,10.87-.16,1.76-.48,3.46-1.2,5.04-2.11,1.58-.91,3.06-2.03,4.45-3.22,5.58-4.8,9.65-11.29,11.78-18.33.26-.88.49-1.77.66-2.67.09-.46.13-.87.13-1.33v-1.39s0-5.56,0-5.56l-.08-11.12v-.39s.36.12.36.12c1.55.54,3,1.3,4.25,2.38.62.54,1.17,1.18,1.57,1.91.42.73.6,1.58.69,2.38.16,1.64-.04,3.25-.3,4.83-.29,1.58-.66,3.14-1.15,4.68l-.48-.22c1.12-1.97,2.08-4.09,2.64-6.28.26-1.1.43-2.23.26-3.32-.2-1.06-.7-2.13-1.26-3.09-.59-.96-1.3-1.85-2.09-2.68-.76-.84-1.68-1.58-2.36-2.56-.35-.47-.67-.97-.95-1.48l-.42-.76c-.15-.28-.25-.58-.33-.87-.27-1.16-.35-2.32-.4-3.48l.25.25h-1.11s.25-.25.25-.25v25.28s-.01.33-.01.33l-.32-.1c-2.38-.74-5.19-.21-6.97,1.59-.89.86-1.47,2.07-1.46,3.29,0,.6.19,1.21.56,1.66.36.46.93.73,1.52.82.6.08,1.22,0,1.82-.18.6-.17,1.17-.44,1.79-.69,1.21-.49,2.46-.92,3.8-1.06.66-.06,1.37-.02,2.03.28.32.16.61.4.82.68.25.31.32.63.45.93.47,1.21.94,2.41,1.44,3.6,1.01,2.38,2.13,4.71,3.45,6.92,1.33,2.19,2.85,4.32,4.84,5.93.99.79,2.12,1.43,3.35,1.7.61.13,1.24.17,1.86.11.62-.06,1.25-.24,1.86-.39,1.22-.34,2.41-.87,3.34-1.71.94-.8,1.55-2.04,1.47-3.23v-.03s.21-24.94.21-24.94l.2.2h-1.26s.2-.2.2-.2l-.1,23.01v.26s-.26-.09-.26-.09c-1.82-.61-3.87-.65-5.7-.04-.91.32-1.8.76-2.44,1.46-.65.69-1.07,1.59-1.25,2.53-.36,1.9.23,3.9,1.37,5.46,1.14,1.58,2.8,2.72,4.6,3.47,1.8.74,3.79,1.01,5.73.84,1.95-.16,3.85-.74,5.64-1.54,3.58-1.63,6.71-4.13,9.52-6.88,2.94-2.65,4.76-6.29,5.87-10.05,1.1-3.78,1.63-7.73,1.59-11.67.02-1.97-.4-3.9-.67-5.87l-.83-5.88-1.59-11.76-.02-.12.12-.03,15.34-4.01.15-.04.02.15,2.02,15.98.02.19-.19-.05c-.99-.27-2.03-.4-3.05-.36-1.02.06-2.05.33-2.82,1.01-.76.67-1.27,1.63-1.36,2.63-.11,1.01.35,2.03,1.18,2.61.82.59,1.87.82,2.89.88,1.02.05,2.07-.1,3.02-.47.94-.37,1.86-.97,2.29-1.89.11-.23.18-.47.21-.71.02-.24,0-.5-.01-.76-.03-.52-.08-1.04-.13-1.56-.42-4.15-.96-8.29-1.48-12.43l-1.65-12.41.13.09-19.18,4.36.07-.1,2.74,24.79v.11s-.1-.02-.1-.02c-1.03-.15-2.08-.19-3.12-.1-1.03.09-2.08.31-2.94.9-.88.56-1.3,1.63-1.21,2.66.03,1.03.48,2.07,1.36,2.63.87.56,1.95.69,2.98.64,1.04-.06,2.07-.29,3.03-.68.98-.36,1.78-1.08,2.36-1.94.59-.86.9-1.88,1.5-2.77.3-.44.75-.8,1.27-.95.52-.14,1.07-.12,1.59-.04,1.05.16,2.04.54,3.02.93,1.94.81,3.81,1.79,5.65,2.8,3.69,1.96,7.15,4.54,11.27,5.47,2.04.46,4.18.44,6.22,0,2.05-.43,4.01-1.22,5.87-2.17.94-.47,1.84-1,2.74-1.54.88-.56,1.81-1.08,2.49-1.88,1.41-1.56,2.31-3.48,3.24-5.36.46-.94.92-1.89,1.44-2.8.52-.91,1.1-1.81,1.9-2.52.4-.35.86-.64,1.37-.78.52-.15,1.05-.13,1.57-.15,1.05-.02,2.11.02,3.15.18,2.07.31,4.12,1.2,5.55,2.78,1.44,1.56,2.23,3.6,2.65,5.65l-.07.02c-.42-2.04-1.2-4.07-2.64-5.61-1.41-1.56-3.44-2.44-5.5-2.75-1.03-.16-2.08-.2-3.13-.18-.52.02-1.05,0-1.55.15-.5.14-.95.42-1.34.77-.78.69-1.35,1.59-1.87,2.49-.51.91-.97,1.86-1.43,2.8-.93,1.87-1.83,3.81-3.25,5.38-.69.81-1.63,1.34-2.51,1.9-.9.54-1.81,1.07-2.75,1.55-1.87.96-3.84,1.75-5.9,2.19-2.06.45-4.21.47-6.27.01-4.16-.94-7.62-3.52-11.31-5.47-1.84-1-3.7-1.98-5.64-2.78-.97-.39-1.96-.76-2.99-.92-.51-.08-1.04-.1-1.53.04-.49.14-.9.47-1.19.9-.57.86-.89,1.89-1.49,2.77-.58.88-1.42,1.63-2.42,2-.98.4-2.02.64-3.08.7-1.05.06-2.16-.07-3.08-.66-.93-.59-1.4-1.69-1.43-2.75-.03-.53.04-1.08.25-1.58.21-.5.59-.92,1.03-1.22.89-.61,1.97-.83,3.02-.93,1.05-.09,2.11-.05,3.16.1l-.1.09-2.76-24.78v-.08s.07-.02.07-.02L384.47.03l.11-.03.02.11,1.66,12.41c.53,4.14,1.07,8.28,1.5,12.44.05.52.1,1.04.13,1.56.01.26.03.52.01.8-.04.27-.12.53-.23.78-.47,1-1.44,1.63-2.42,2.01-.99.38-2.06.53-3.12.49-1.05-.06-2.13-.29-3.02-.93-.9-.62-1.41-1.75-1.29-2.83.09-1.08.64-2.09,1.44-2.8.82-.73,1.92-1.01,2.97-1.07,1.06-.05,2.11.08,3.14.36l-.16.14-2.03-15.98.17.11-15.34,4.02.11-.16,1.6,11.76.84,5.87.45,2.93c.15.99.21,1.98.23,2.98.04,3.97-.48,7.95-1.59,11.76-.57,1.9-1.29,3.77-2.27,5.51-.95,1.75-2.23,3.33-3.68,4.69-2.83,2.77-5.97,5.3-9.61,6.96-1.82.82-3.75,1.41-5.75,1.58-1.99.17-4.04-.09-5.9-.86-1.84-.77-3.56-1.95-4.75-3.59-1.19-1.62-1.82-3.72-1.44-5.74.18-1,.63-1.97,1.34-2.72.71-.76,1.65-1.23,2.59-1.56,1.93-.64,4.03-.6,5.96.04l-.26.18.07-23.01v-.2s.2,0,.2,0h1.26s.2,0,.2,0v.2s-.19,24.94-.19,24.94v-.03c.09,1.42-.6,2.73-1.61,3.61-1,.9-2.25,1.46-3.51,1.81-.64.16-1.26.34-1.94.41-.67.07-1.35.02-2-.12-1.31-.29-2.5-.97-3.53-1.78-2.06-1.66-3.6-3.82-4.95-6.04-1.34-2.23-2.47-4.59-3.49-6.98-.51-1.19-.98-2.41-1.45-3.61-.13-.29-.22-.62-.39-.82-.18-.23-.4-.42-.66-.55-.53-.25-1.16-.3-1.78-.24-1.25.13-2.48.55-3.66,1.03-1.15.5-2.46,1.09-3.85.9-.68-.1-1.37-.42-1.82-.98-.45-.55-.66-1.26-.67-1.95-.02-1.39.63-2.7,1.59-3.63.95-.95,2.18-1.6,3.49-1.88,1.32-.28,2.67-.21,3.97.18l-.32.23V7.49s-.01-.25-.01-.25h.25s1.11,0,1.11,0h.24s.01.25.01.25c.05,1.13.13,2.29.39,3.37.07.27.15.52.28.74l.42.76c.28.5.58.97.91,1.43.64.92,1.54,1.65,2.32,2.51.8.84,1.54,1.76,2.16,2.76.6,1.02,1.11,2.07,1.34,3.28.18,1.2,0,2.39-.27,3.53-.58,2.28-1.54,4.4-2.69,6.43l-1.25,2.21.77-2.43c.47-1.5.85-3.05,1.13-4.61.26-1.55.44-3.14.29-4.69-.08-1.56-.9-2.93-2.08-3.94-1.16-1.01-2.59-1.76-4.05-2.26l.36-.27.09,11.12.02,5.56v1.39c0,.46-.05.98-.15,1.43-.17.93-.41,1.83-.67,2.73-2.16,7.14-6.27,13.73-11.94,18.61-1.42,1.21-2.91,2.35-4.54,3.29-1.63.94-3.37,1.68-5.18,2.18-3.63.99-7.5.99-11.16.17-1.83-.42-3.62-1.02-5.32-1.82-1.69-.82-3.33-1.76-4.7-3.13-.7-.71-1.1-1.64-1.4-2.53-.29-.91-.48-1.84-.59-2.77-.22-1.87-.25-3.74-.12-5.62h0s0-.03,0-.03l2.66-14.42.05-.28h.28s13.92.72,13.92.72l.37.02-.06.37-2.35,14.41-.08.52-.45-.3c-.71-.47-1.59-.81-2.46-.99-.84-.19-1.73-.02-2.53.34-.78.36-1.52.97-1.72,1.72-.17.83-.17,1.77.27,2.46.43.71,1.22,1.15,2.07,1.42.85.26,1.78.42,2.65.39.88-.03,1.73-.31,2.33-.91.6-.58.94-1.46,1.02-2.28v-.03s0,0,0,0l3.78-22.84.34.42-18.35-.93.38-.3-4.06,22.9-.11.6-.5-.38c-.61-.46-1.32-.87-2.03-1.09-.68-.18-1.57-.24-2.28-.15-.75.09-1.34.48-1.62,1.14-.27.65-.42,1.51-.23,2.14.19.64.84,1.08,1.55,1.42.35.17.73.34,1.1.49.36.15.69.22,1.08.25.75.05,1.54-.07,2.23-.37.69-.29,1.28-.8,1.49-1.44.17-.63-.02-1.45-.26-2.18-.25-.74-.61-1.46-1.03-2.13-.43-.66-.93-1.29-1.52-1.77-.29-.24-.61-.44-.95-.56-.35-.12-.74-.21-1.12-.26-1.53-.23-3.13.26-4.12,1.43-1.02,1.15-1.48,2.74-1.66,4.31-.09.79-.11,1.6-.09,2.4.02.85-.02,1.67-.07,2.5-.11,1.65-.31,3.29-.6,4.93-.62,3.23-1.5,6.54-3.58,9.27-.53.67-1.14,1.28-1.86,1.76-.71.49-1.49.84-2.29,1.13-1.6.56-3.27.81-4.93.91-1.66.1-3.33.05-4.98-.11-1.65-.18-3.29-.41-4.91-.94-1.53-.52-3.15-1.02-4.62-1.83-1.48-.79-2.85-1.81-3.99-3.06-1.14-1.24-2.04-2.69-2.72-4.21-.68-1.52-1.22-3.13-1.42-4.81-.41-3.37.41-6.73,1.71-9.77,1.31-3.06,3.09-5.87,5-8.55,1.9-2.68,3.9-5.3,5.41-8.15.73-1.42,1.25-2.97,1.32-4.54.04-1.59-.1-3.24-.58-4.73-.24-.72-.64-1.47-1.21-1.66-.26-.09-.67-.05-.97.05-.32.12-.6.33-.83.61-.93,1.17-1.24,2.85-1.53,4.42-.35,1.59-.26,3.17-.1,4.8.17,1.61.44,3.23.76,4.82l.03.16-.09.13-.89,1.26-.38.54-.25-.61c-.94-2.27-1.63-4.59-2.14-6.98-.51-2.38-.78-4.82-.74-7.26.04-1.22.13-2.44.35-3.65.23-1.21.59-2.43,1.29-3.51.69-1.08,1.98-1.93,3.39-1.76,1.38.2,2.4,1.12,3.18,2.07,1.57,1.96,2.48,4.27,3.25,6.57.2.58.37,1.16.53,1.74.17.58.33,1.17.46,1.77.25,1.2.39,2.43.39,3.66,0,4.95-2.03,9.74-5.31,13.41l.08-.39,5.03,11.99.16.38-.41.11c-.59.16-1.21.42-1.8.68-.3.14-.59.28-.88.43-.26.13-.49.31-.69.53-.81.88-1.09,2.22-1.05,3.47.02.63.13,1.26.35,1.85.2.58.57,1.08.99,1.57.84.96,1.88,1.8,2.96,2.5l.61.39-.65.25c-.97.37-1.94.29-2.84-.03-.9-.33-1.65-.92-2.27-1.59-.6-.69-1.12-1.44-1.53-2.24-.43-.79-.76-1.66-.93-2.56-.36-1.81-.03-3.7.71-5.34.75-1.65,1.82-3.11,3.16-4.35l-.1.4-2.57-6.67.65.05c-1.68,2.9-3.33,5.83-4.82,8.81-.37.75-.74,1.5-1.05,2.26-.17.38-.31.76-.44,1.14-.11.36-.19.77-.25,1.17-.24,1.62-.15,3.27.35,4.81.51,1.54,1.4,2.94,2.54,4.11.28.3.57.59.88.85.3.28.61.54.94.77.66.46,1.39.82,2.15,1.08,3.09,1.01,6.58.49,9.61-.65l-.19.46-4.99-12.59-.14-.36.36-.12,1.4-.45.31-.1.13.3,5.05,12.2-.56-.14c1.06-.97,1.83-2.37,2.25-3.8.4-1.45.46-3,.22-4.48-.23-1.47-1.06-2.79-2.3-3.59-1.23-.8-2.78-1.16-4.25-1.18h-.25s-.09-.22-.09-.22l-2.1-5.2-.17-.43.44-.05c2.55-.31,5.15.22,7.31,1.59,2.16,1.38,3.72,3.53,4.55,5.93.81,2.44.47,5.14-.53,7.44-1.01,2.32-2.5,4.36-4.31,6.11l.08-.41c.95,2.09,1.88,4.19,2.77,6.32.44,1.06.88,2.13,1.27,3.22.19.55.39,1.1.48,1.72.09.61.05,1.23-.05,1.82-.42,2.36-2,4.55-4.27,5.48-2.19.87-4.61,1.22-6.96.71-1.16-.26-2.3-.81-3.18-1.65-.88-.85-1.5-1.89-1.89-3.05-.37-1.15-.39-2.45.06-3.61.23-.58.58-1.12,1.06-1.54.24-.21.51-.38.8-.52.27-.12.54-.24.82-.34,1.08-.41,2.42-.71,3.62-.11.58.29,1.05.76,1.39,1.27.33.53.59,1.05.77,1.66.37,1.22-.03,2.6-.8,3.54-.76.97-1.72,1.68-2.8,2.23l.06-.6c.83.52,2,.72,3.08.68,1.09-.03,2.21-.28,3.22-.65,1-.39,1.83-1.13,2.31-2.09.48-.94.66-2.08.58-3.13l.02.08-2.68-6.96-.7-1.73c-.23-.55-.49-1.2-.72-1.62,0,0,.02.02.02.03-.02-.01.09.07.15.08.1.01.07,0,.08,0,0,0,.01,0,.02,0l-.08.03-.2.08-.43.17-.87.36c-.59.23-1.17.46-1.82.6-1.1.32-2.28.86-3.41,1.33-1.14.49-2.27,1.01-3.39,1.53-2.25,1.05-4.47,2.15-6.66,3.32-1.09.58-2.17,1.19-3.23,1.83-1.08.63-2.03,1.35-3.16,2.01-2.23,1.22-4.62,2.01-7,2.75-4.79,1.43-9.66,2.49-14.57,3.37h-.02s-.02,0-.02,0l-38.09,1.51.32-.43c.14.52.29,1.04.46,1.54.08.23.19.53.27.65,0,.02.04-.01-.14-.07-.06-.01-.12,0-.17.02-.05.02-.12.09-.06.04.05-.04.15-.09.16-.08.11-.03.18-.04.26-.05.15-.02.29-.03.43-.05,1.1-.09,2.19-.11,3.28-.13h1.64c.28,0,.55,0,.84.03.1.02.1,0,.31.06.03.02-.01-.02.07.04.11.05.19.34.12.44-.06.11-.07.1-.12.14-.1.07-.07.04-.11.06l-.12.05-.4.14-3.11,1c-1.03.33-2.07.66-3.08,1.02-.98.36-2.01.83-3.03,1.18-2.04.76-4.09,1.48-6.14,2.2l-.18-.66,46.24-8.82.18.66c-3.56,1.29-7.14,2.52-10.75,3.69-3.61,1.14-7.22,2.33-10.96,3.07-3.73.72-7.48,1.26-11.24,1.75-3.76.48-7.52.91-11.29,1.28v-.67s38.83,5.23,38.83,5.23l-.08.66c-10.84-1.3-21.69-2.6-32.54-3.77-1.36-.14-2.72-.29-4.07-.39l-.5-.03h-.21c.13.07.08-1.06.16-.54.05.03.09.06.14.1.34.29.51.63.65.97.14.35.23.7.28,1.07,0,.21.08.34-.08.71-.03.12-.32.26-.47.18-.14-.05-.19-.11-.22-.13-.07-.06-.14-.13-.21-.19-.45-.51-.96-.88-1.52-1.28-.54-.41-1.07-.66-1.71-.72-.63-.07-1.31.01-2.02-.02-.36-.01-.72-.06-1.07-.13-.37-.08-.67-.19-.99-.24-.64-.13-1.29-.14-1.97-.13-.34,0-.7,0-1.06-.03-.35-.03-.78-.18-1.05-.28-.59-.2-1.25-.19-1.94-.2-.68,0-1.44-.09-2.08-.27-.31-.07-.59-.07-.7.05-.15.13-.3.49-.49.79-.19.32-.44.6-.73.84-.15.12-.32.24-.54.31-.21.08-.43.08-.59.08-.6,0-1.14.34-1.67.73-.55.39-.87.86-1.3,1.46-.44.6-1.15.96-1.53,1.38-.09.1-.17.23-.18.3-.01.04,0,.04-.01,0,0-.03-.13-.1-.23-.01-.04.03-.05.07-.05.06l.02-.1s.01,0-.01-.06c-.06-.1-.18-.26-.27-.4l-.29-.43c-.08-.12-.17-.22-.26-.29-.18-.13-.46-.15-.79-.12-.65.06-1.35.17-2.03.22l-1.03.07c-.34.03-.7.02-.94.1-.27.1-.63.25-.92.37-.3.13-.58.28-.86.46-.56.35-1.14.77-1.8,1.06-.68.28-1.28.48-1.93.74-2.54,1-5.1,1.98-7.67,2.89l-1.94.68-.98.32-.5.15-.27.06c-.12,0-.14.06-.41.01-.4-.18-.13-.68-.13-.58.05-.05.09-.09.12-.12l.22-.17c.14-.11.28-.21.45-.31.31-.18.62-.34.94-.48.63-.29,1.26-.56,1.89-.82,1.27-.51,2.56-.99,3.86-1.42,1.29-.46,2.69-.69,3.87-1.21.59-.26,1.03-.68,1.25-1.27.24-.6.27-1.21.39-1.95.13-.73.52-1.42,1.05-1.92.53-.51,1.15-.86,1.77-1.18,1.23-.62,2.48-1.16,3.27-2.19.2-.25.34-.54.59-.85.25-.32.66-.53,1.02-.6.79-.12,1.45,0,2.15.09,1.36.2,2.7.48,4.04.72.67.11,1.33.24,1.99.25l2.05.08,4.1.15c.68.03,1.34.07,1.95-.09.61-.14,1.07-.53,1.3-1.11.23-.58.3-1.25.33-1.91.03-.65-.06-1.3-.34-1.86-.53-1.16-1.87-1.72-3.15-1.71-1.28.02-2.69.34-3.49,1.32-.4.48-.6,1.09-.66,1.73-.05.64,0,1.3.28,1.86.54,1.16,1.83,1.74,3.07,2.23.66.28,1.21.54,1.87.56.64.05,1.3-.06,1.94-.21.65-.16,1.28-.38,1.93-.6.66-.22,1.33-.39,1.99-.56,1.33-.33,2.59-.75,3.86-1.27,1.29-.5,2.65-.82,3.94-1.19.32-.1.64-.2.93-.33.14-.06.27-.14.35-.21.08-.08.09-.12.07-.22-.05-.22-.27-.53-.43-.85-.18-.34-.24-.71-.32-1.03-.19-.65-.28-1.36-.66-1.81-.38-.53-.86-1-1.38-1.42-1.04-.84-2.22-1.49-3.45-2.05-2.47-1.08-5.12-1.76-7.79-2.29-2.67-.52-5.37-.84-8.09-.96-1.36-.05-2.72-.06-4.07,0-1.35.07-2.69.24-4.02.51-2.65.55-5.22,1.46-7.64,2.68-2.4,1.24-4.7,2.75-6.56,4.69-1.85,1.95-3.17,4.37-4.3,6.83-1.12,2.47-1.98,5.06-2.83,7.65-.42,1.28-.69,2.61-.84,3.95l-.11,1.02-.06.52c0,.14-.1.46-.26.59-.61.55-1.27.71-1.93.95-1.31.43-2.63.77-3.94,1.14-1.33.36-2.6.73-3.77,1.42-2.36,1.33-4.33,3.22-6.47,4.95-.27.21-.58.42-.88.59-.26.16-.53.38-.78.59-.51.44-1.01.9-1.5,1.38-.98.95-1.93,1.92-2.86,2.91-.94.99-1.86,1.99-2.77,3.01-.44.52-.92,1.01-1.27,1.56-.37.56-.7,1.15-1.03,1.75-1.29,2.39-2.45,4.87-3.61,7.33-1.16,2.47-2.29,4.96-3.5,7.41-.31.61-.61,1.23-.97,1.83-.35.58-.65,1.17-.93,1.79-.56,1.24-1.06,2.5-1.55,3.77-.97,2.54-1.89,5.13-2.76,7.69-.07.23.01.57.16.81.08.13.16.21.19.18.15-.01.31-.04.46-.08.07-.02.15-.04.21-.07.07,0,.07-.12.04.06.05.1,0,0-.07,0-.09-.05-.2-.08-.3-.24-.1-.18-.04-.34-.02-.42l.09-.25c.06-.15.1-.3.13-.45.03-.15.04-.31.04-.47v-.24c-.02-.1,0-.23.02-.31.08-.36.2-.68.32-1.01.24-.65.5-1.28.76-1.91,2.14-5.03,4.48-9.97,6.8-14.91l3.53-7.39c.6-1.23,1.18-2.46,1.8-3.68.65-1.24,1.52-2.32,2.42-3.35,3.69-4.08,8.07-7.41,12.39-10.74.53-.42,1.1-.82,1.57-1.28.6-.49,1.22-.72,1.85-1.02,1.26-.55,2.54-1.03,3.83-1.49,1.29-.46,2.59-.89,3.9-1.28.67-.19,1.3-.39,2.03-.49.72-.02,1.38.02,2.07.03l2.04.04c.69.03,1.33-.03,2-.15,1.33-.23,2.66-.55,3.99-.86,1.33-.29,2.66-.65,4.04-.79,1.35-.1,2.49-.84,3.66-1.56,1.17-.71,2.35-1.42,3.67-1.9.33-.11.68-.21,1.05-.22.38,0,.74.1,1.07.24.65.29,1.22.64,1.83.95.6.32,1.22.57,1.84.92.15.09.31.19.45.34.15.13.27.43.17.65-.17.41-.43.61-.64.88-.43.51-.74,1.09-.9,1.73-.18.61-.14,1.34.39,1.61.26.13.58.17.9.15.29-.03.72-.1,1.07,0,.72.19,1.29.62,1.84,1.04.54.44,1.03.92,1.51,1.41l.71.75c.23.25.48.56.6.92.24.74,0,1.47-.17,2.12-.19.66-.39,1.3-.48,1.96-.09.66-.07,1.33-.03,2.01.02.67.17,1.39-.16,2.11-.07.17-.27.35-.34.42-.08.1-.1.19-.06.3.09.24.37.46.62.66.53.39,1.14.73,1.7,1.13.51.39,1.15.17,1.73-.15.59-.32,1.2-.68,1.87-.89,1.36-.26,2.13-1.49,2.53-2.75l.3-.97c.09-.3.13-.64.16-.97.05-.67.05-1.35.02-2.02-.07-1.35-.24-2.71-.69-3.97-.54-1.23-1-2.56-1.94-3.5-.47-.47-1.01-.88-1.57-1.25-.56-.38-1.17-.7-1.7-1.19-.13-.13-.27-.26-.35-.47-.1-.22-.01-.49.09-.64.21-.31.4-.55.5-.85.06-.15.07-.28.1-.47.04-.21.14-.38.25-.53.23-.29.51-.51.8-.72,1.17-.78,2.46-1.28,3.74-1.75,1.3-.45,2.61-.83,3.96-1.13,1.35-.34,2.76-.28,4.11-.32h4.1c10.92.15,21.84.53,32.75.91v.32c-2.25.31-4.57.29-6.85.35l-6.86.11-13.72.12h-3.43c-.56,0-1.16,0-1.71-.03-.55,0-1.11.09-1.64.27-.53.17-1.05.41-1.58.63-.52.24-1.08.43-1.57.66-.96.58-1.99,1.14-3,1.66-1.02.52-2.06,1.01-2.85,1.8-.39.39-.7.86-.78,1.39-.09.53.09,1.06.29,1.59.12.24.14.66.26.7.17.1.5.1.79.18.6.13,1.11.53,1.47.99.73.94,1.1,2.06,1.42,3.16.66,2.24.49,4.62,0,6.86-.51,2.25-1.34,4.4-2.32,6.47-.49,1.04-1.03,2.05-1.58,3.05-.59,1-1.25,1.93-1.91,2.87-1.32,1.87-2.68,3.71-4.04,5.54l-4.11,5.49-2.07,2.73-1.04,1.36c-.34.45-.71.92-1.12,1.32-3.28,3.2-6.77,6.16-10.16,9.23-.85.77-1.7,1.53-2.52,2.32-.2.2-.41.4-.6.6-.09.1-.2.21-.25.3-.03-.05.06.13.16.18.43.31.98.51,1.51.71l.4.15.18.07s.09,0,.15-.02c.26-.07.52-.19.78-.31l1.55-.73c.52-.24,1.04-.48,1.58-.7.27-.11.53-.21.82-.29.3-.08.62-.06.91.02.59.17,1.07.53,1.5.92.21.2.41.41.6.64.09.11.18.23.26.35.04.06.08.12.12.19.23-.02-.16.41-.24.22-.4-.43-.8-.79-1.34-.93-.53-.15-1.1-.15-1.66-.14-.56.02-1.14.03-1.66.19-.51.17-.91.59-1.38.93-.47.34-.94.67-1.46.94-.14.06-.27.13-.45.15-.19.03-.39-.11-.47-.23-.18-.24-.33-.44-.56-.6-.93-.52-2.08-1.01-3.16-.8-.54.11-1.11.25-1.59.5-.48.26-.84.7-1.12,1.18-.28.48-.54,1.03-.92,1.46-.17.22-.3.48-.52.7-.22.22-.52.36-.8.43-1.17.23-2.32.07-3.46-.03-2.27-.28-4.48.62-6.44,1.73-.99.56-1.94,1.19-2.92,1.79-.49.29-1.01.6-1.56.75-.54.18-1.06.41-1.58.64-1.03.45-2.19.94-3.38.6-1.14-.4-1.95-1.35-2.51-2.35-.12-.25-.3-.52-.28-.86.02-.34.24-.6.45-.8.43-.4.9-.73,1.33-1.09.89-.71,1.66-1.54,2.41-2.41,1.52-1.7,2.88-3.54,3.96-5.55.53-1,1.08-2.02,1.47-3.07.02-.06.04-.13.05-.19-.02-.1.03-.02.07-.02-.08.03-.2.14-.29.23-.2.19-.39.41-.59.62-.38.43-.82.82-1.27,1.17-.91.7-1.9,1.31-2.94,1.8-.52.24-1.06.46-1.62.61-.57.12-1.07.31-1.58.58-1,.53-1.91,1.22-2.87,1.86-.48.32-.97.62-1.49.87-.26.12-.54.22-.83.3-.26.07-.52.17-.72.34-.41.34-.59.89-.78,1.43-.19.54-.4,1.09-.72,1.58-.31.5-.73.91-1.1,1.34l-1.14,1.28-4.58,5.11c-1.54,1.69-3.08,3.38-4.69,5.01-.82.81-1.63,1.6-2.58,2.3-.1.02-.06.12-.33.07-.14-.32.02-.26.02-.37.08-.13.17-.25.26-.36.18-.23.36-.45.55-.66l1.15-1.27c.74-.86,1.34-1.83,2.01-2.76.67-.94,1.41-1.82,2.22-2.64.8-.82,1.62-1.61,2.27-2.54.67-.97,1.67-1.62,2.48-2.39.83-.77,1.39-1.75,1.81-2.81.22-.53.48-1.07.88-1.51.18-.22.46-.42.59-.59-.02-.02.14.19.02.11-.06,0-.12.02-.19.04-.13.04-.27.08-.4.13-2.12.81-4.2,1.79-6.34,2.61-4.32,1.5-8.43,3.52-12.81,4.93-.55.17-1.11.31-1.68.42-.29.05-.57.09-.87.11-.08,0-.15,0-.25-.02-.14.07-.27-.37-.12-.38.13-.13.26-.2.39-.28,1.02-.56,2.14-.91,3.19-1.29,1.03-.45,2.03-1.02,3.07-1.51,1.03-.49,2.09-.95,3.15-1.37,2.13-.86,4.32-1.54,6.48-2.27,2.16-.74,4.3-1.54,6.4-2.43,2.1-.89,4.17-1.88,6.29-2.72,1.04-.45,2.07-.96,3.07-1.5.5-.27.99-.56,1.47-.86.47-.3.98-.62,1.3-1.01.04-.04.06-.1.05-.1,0,.03.03.03-.03,0-.09-.03-.24-.02-.37-.01l-.85.08c-.57.05-1.13.11-1.7.19-1.12.15-2.23.41-3.27.85-.52.21-1.01.49-1.48.8-.46.31-.94.67-1.46.92-1.04.55-2.19.81-3.32.97-2.29.29-4.55.46-6.84.66-1.15.05-2.32.01-3.45-.27-1.13-.27-2.23-.8-3.06-1.64-.42-.41-.77-.89-1.06-1.4-.28-.51-.57-1.02-.67-1.64-.01-.16-.04-.34.11-.54.19-.21.46-.13.59-.07.3.15.51.37.71.59.39.44.69.96.95,1.46.26.49.59.95,1.01,1.28.42.34.95.48,1.5.51.55.03,1.13-.01,1.71.03l1.71.12c1.14.09,2.27.15,3.41.14,1.14.04,2.22-.25,3.26-.7,1.04-.45,2.04-1,3.05-1.53,1-.57,2.1-.96,2.97-1.64,1.77-1.4,3.19-3.22,4.57-5.02l1.01-1.38.5-.7.25-.35c0,.1.14-.49.42.07-.02.09-.04.15-.06.23-.31,1.08-.59,2.22-.36,3.29.11.52.42.98.9,1.2.47.22,1.04.24,1.59.19,1.12-.1,2.25-.28,3.23-.81.98-.52,1.8-1.32,2.63-2.11.82-.79,1.66-1.58,2.53-2.32,1.73-1.49,3.53-2.93,5.4-4.25,1.85-1.33,3.67-2.72,5.47-4.13,1.8-1.41,3.59-2.82,5.33-4.3l5.21-4.46c.86-.73,1.67-1.54,2.28-2.47.28-.47.53-.97.63-1.51.11-.54.07-1.09.05-1.67-.03-.57,0-1.2.22-1.76.22-.58.53-1.04.71-1.56.38-1.04.45-2.18.32-3.29-.12-1.12-.38-2.23-.63-3.34-.26-1.12-.47-2.24-.81-3.31-.34-1.07-.88-2.06-1.66-2.86-.78-.8-1.69-1.49-2.6-2.18-.46-.34-.91-.67-1.39-.95-.48-.28-.99-.47-1.52-.44-.52.03-1.07.23-1.63.36-.56.15-1.14.24-1.71.31-2.31.22-4.63-.17-6.68.92-1.06.46-2.18.79-3.27,1.1-1.07.32-2.2.68-2.77,1.62-.3.46-.6.98-.97,1.43-.36.46-.78.87-1.21,1.26-.88.77-1.81,1.43-2.68,2.14-.45.36-.81.72-1.04,1.23-.25.5-.49,1.03-.76,1.54-.52,1.03-1.13,2-1.62,3.02-.51,1.01-.9,2.07-1.2,3.16-.3,1.1-.62,2.22-1.09,3.28-.46,1.06-1.02,2.07-1.6,3.06-.58.99-1.16,1.98-1.81,2.93-.65.97-1.5,1.78-2.26,2.61-.78.83-1.5,1.71-2.26,2.57-.77.86-1.61,1.67-2.54,2.36-.93.69-1.97,1.23-2.96,1.77-2.02,1.04-3.7,2.58-5.38,4.13-.83.77-1.61,1.61-2.46,2.39-.84.78-1.71,1.53-2.59,2.26-1.77,1.46-3.62,2.81-5.44,4.19-.9.71-1.83,1.35-2.49,2.26-.67.91-1.41,1.83-2.18,2.67-1.55,1.69-3.15,3.32-4.6,5.07-.73.87-1.43,1.77-2.1,2.69-.65.92-1.36,1.85-1.88,2.82-.51.95-.72,2.18.09,2.9.35.34.92.64,1.35.73.47.03,1.03-.19,1.53-.4,1.04-.44,2.02-1.01,3.09-1.49.14-.06.27-.11.43-.16.08-.02.16-.04.27-.04.09-.02.36.06.4.29.01.31-.08.39-.12.55l-.18.4c-.24.53-.5,1.04-.76,1.55l-3.15,6.09c-1.05,2.03-2.09,4.06-3.09,6.12-.96,2.06-2.04,4.12-2.46,6.31-.2,1.07-.11,2.29.79,2.85.43.29.97.44,1.51.55.57.12,1.06.16,1.55-.05.98-.4,1.75-1.3,2.53-2.11.79-.83,1.6-1.68,2.61-2.31,1.98-1.08,3.08-3.18,4.45-5.01.68-.93,1.42-1.83,2.29-2.62.89-.78,1.84-1.39,2.76-2.08l11.11-8.04,2.76-2.03c.93-.65,1.77-1.44,2.86-1.97.53-.27,1.15-.45,1.78-.41.64.03,1.22.31,1.71.62.5.31.96.64,1.44.91.48.28.99.48,1.52.66.53.18,1.04.28,1.55.17.51-.12,1.02-.37,1.53-.62,1.02-.51,2.07-1,3.11-1.46,2.12-.87,4.01-2.1,6.25-2.89,1.14-.33,2.34-.36,3.49-.3.58.03,1.15.07,1.7.09.55,0,1.12-.02,1.54-.24.2-.1.38-.31.58-.51.09-.1.18-.2.26-.3.09-.1.09-.19.28-.4.37-.24.6-.25.88-.37l.82-.27c.28-.08.56-.16.86-.22.31-.03.58-.15,1.04.06.12.07.22.22.23.36.02.14,0,.24-.03.33-.05.17-.1.28-.16.42l-.33.8c-.23.53-.47,1.05-.73,1.57-.11.24-.31.55-.38.73-.07.2-.07.46-.04.72.15,1.07.72,2.11.8,3.35v.24c0,.06,0,.11,0,.16.01.11.05.21.1.31.11.2.29.38.51.53.43.31.95.55,1.46.79.52.24,1.05.47,1.56.81.44.3.94.49,1.45.49.23.01.52-.09.52-.15.04.03-.07-.18-.32-.37-.43-.39-.85-.79-1.24-1.22-.78-.86-1.46-1.81-2.08-2.78-.32-.51-.57-1.08-.65-1.7-.09-.61,0-1.24.16-1.81.16-.57.38-1.1.53-1.63.08-.28.12-.5.18-.81.06-.3.17-.62.37-.89.4-.57,1.07-.8,1.65-.89.59-.1,1.18-.11,1.73-.15,1.09-.12,2.21-.41,3.31-.67,1.11-.27,2.21-.57,3.34-.82.28-.06.57-.12.87-.16.36-.03.54-.04.85-.09l1.68-.27,13.5-2.4c1.12-.2,2.28-.35,3.38-.56,1.09-.23,2.19-.57,3.27-.91,2.17-.69,4.33-1.44,6.49-2.19,8.63-3.02,17.16-6.32,25.85-9.2,1.09-.36,2.18-.7,3.29-1,.56-.14,1.12-.29,1.71-.37.6-.09,1.2-.03,1.74-.05.53-.03,1.16-.07,1.51-.29.29-.13.29-.88.65-1.42.17-.28.34-.5.58-.74.22-.23.64-.42.99-.38.34.03.59.09.85.1.25,0,.63.03.91.11.6.15,1.11.39,1.63.5.51.12,1.03.07,1.59-.03,1.1-.2,2.19-.53,3.28-.85,2.2-.6,4.26-1.53,6.37-2.43,2.1-.9,4.19-1.85,6.38-2.59,1.09-.37,2.2-.67,3.26-1.05,1.04-.39,2.14-.83,2.99-1.44.21-.16.35-.33.44-.54.09-.21.18-.53.34-.81.16-.28.35-.52.58-.76.23-.23.6-.43.99-.4.74.07,1.18.43,1.7.56.49.16,1.05.17,1.6.16,1.11-.02,2.24-.2,3.38-.32.56-.07,1.18-.08,1.61-.23.09-.04.14-.07.2-.15.06-.08.12-.2.18-.33.13-.26.29-.53.47-.77.32-.54,1.02-.95,1.66-.95.64-.04,1.23.11,1.78.22.56.14,1.04.15,1.64.14.57,0,1.15.01,1.73.04.58.03,1.15.07,1.72.12.53.06,1.05-.04,1.6-.17,1.09-.27,2.2-.6,3.33-.83,2.25-.5,4.6-.63,6.85-.73,2.23-.24,4.43-.88,6.59-1.56,4.33-1.4,8.57-3.13,12.8-4.85,2.12-.86,4.22-1.75,6.39-2.52l1.62-.54c.51-.21,1.02-.43,1.46-.74.45-.3.84-.66,1.11-1.1.26-.42.4-.97.31-1.38l.64-.14c.13.74.28,1.52.54,2.2.06.16.16.34.2.37,0,0-.01-.02-.07-.02-.06,0-.1.02-.1.02,0,0,.05-.07.08-.13l.4-1.07c.55-1.46,1.1-2.91,1.61-4.38.5-1.48.98-2.93,1.29-4.46.49-1.62,1.45-2.88,2.36-4.16,1.88-2.54,3.98-4.79,5.87-7.31,2.04-2.42,4.68-4.36,7.64-5.51,2.96-1.15,6.11-1.62,9.24-1.83,3.14-.28,6.28.16,9.24-.71l4.51-1.24c.73-.21,1.44-.44,2.06-.84.62-.39,1.14-.92,1.55-1.54.82-1.24,1.15-2.81,1.97-4.21.86-1.35,1.73-2.61,2.59-3.92l.48-.73.1.86c.23,1.9.13,3.83-.54,5.65-.31.92-.93,1.73-1.37,2.47-.45.78-.84,1.63-1.27,2.46-.83,1.66-1.98,3.3-3.61,4.35-1.59,1.11-3.49,1.52-5.18,2.17-1.73.62-3.42,1.4-5.21,1.98-1.79.59-3.65.91-5.52,1.06-1.86.16-3.72.15-5.5.47-.44.09-.86.2-1.18.42-.3.2-.62.64-1.06.9-.86.55-1.81.7-2.55,1.13-1.58.82-1.97,2.81-3.02,4.38-.49.81-1.12,1.55-1.73,2.24-.6.69-1.17,1.41-1.65,2.17-.48.77-.87,1.58-1.16,2.44-.28.84-.53,1.82-1.03,2.63-.92,1.63-1.89,3.2-2.82,4.8-.45.79-.95,1.62-1.26,2.4-.02.03-.02.12-.02.03,0-.02-.02-.11-.12-.17-.11-.06-.17-.04-.19-.03-.04.01-.02,0-.01,0l.28-.19.55-.4c.37-.27.73-.56,1.09-.85,1.43-1.16,2.77-2.42,4.09-3.72.68-.65,1.46-1.29,2.43-1.57.95-.29,1.89-.3,2.8-.41.91-.1,1.81-.25,2.71-.45.87-.22,1.85-.45,2.79-.46,1.9-.06,3.75.27,5.58.61l5.45,1.07c3.63.68,7.3,1.14,10.99,1.13,1.83-.03,3.72-.05,5.57.06,1.86.13,3.71.31,5.55.6,3.68.55,7.3,1.42,10.9,2.31,3.6.9,7.17,1.84,10.83,2.42,3.74.67,7.06,2.65,10.03,4.87,1.49,1.12,2.91,2.33,4.31,3.54.7.6,1.41,1.2,2.13,1.76.74.56,1.44,1.07,2.34,1.2,1.77.34,3.64.36,5.48.36,1.84-.01,3.7-.09,5.54-.22l1.38-.1-1.24.61c-2.72,1.33-5.53,2.52-8.56,3.05-.75.1-1.55.19-2.33.03-.77-.15-1.49-.4-2.2-.69-1.41-.57-2.76-1.27-4.08-1.99-2.65-1.45-5.22-3.02-7.83-4.51-1.31-.72-2.62-1.49-3.99-2.01-1.39-.49-2.87-.77-4.34-1.01-5.93-.9-11.95-1.17-17.96-1.34-6.01-.24-12.01.22-18.01.63-3,.22-6,.46-8.99.74-2.99.3-5.99.55-8.92,1.16-1.47.28-2.94.62-4.43.89-1.49.27-2.99.46-4.49.6-2.99.21-5.93.83-8.77,1.77-1.43.49-2.79.99-4.11,1.78-.71.36-1.55.45-2.3.44-.66-.02-1.34.39-2.01.7-2.64,1.37-5.42,2.81-8.44,3.24-2.93.59-5.76,1.63-8.57,2.68l-2.12.76c-.68.26-1.32.63-1.94,1.04-1.23.82-2.38,1.8-3.43,2.85l-.32-.32c.17-.17.33-.42.36-.64.04-.22-.05-.42-.25-.58-.4-.32-.99-.47-1.55-.57-1.15-.19-2.34-.2-3.53-.18-2.36.06-4.7.6-6.99,1.2-4.6,1.26-9.07,2.95-13.59,4.49-2.27.75-4.54,1.54-6.95,1.88-2.35.27-4.65.92-6.94,1.59-4.57,1.37-9.09,2.92-13.69,4.24-2.3.66-4.62,1.27-6.97,1.72-2.34.45-4.68.95-6.99,1.54-4.63,1.16-9.17,2.63-13.62,4.36-4.46,1.72-8.95,3.35-13.44,5l-6.73,2.45-3.37,1.22c-1.12.39-2.25.85-3.44,1.08-4.7.97-9.43,1.62-14.16,2.33l-7.09,1.04c-1.19.19-2.37.31-3.5.65-1.14.32-2.27.71-3.38,1.12-4.46,1.67-8.82,3.65-13.15,5.65-4.33,2.02-8.63,4.1-12.92,6.21-2.14,1.08-4.33,2.02-6.4,3.2l-6.26,3.48c-4.16,2.35-8.3,4.73-12.39,7.2-1.02.62-2.03,1.25-3.03,1.9-.5.33-.99.66-1.47,1.01-.23.18-.48.36-.66.56l-.05.07s0,0-.02.06c-.02.08-.03.17-.07.24-.06.15-.14.29-.23.43-.38.51-.9.87-1.43,1.16-.54.28-1.12.5-1.74.58-1.2.01-2.3.49-3.4.92-2.21.9-4.28,2.07-6.38,3.23-2.13,1.1-4.33,2.05-6.56,2.91l-.15.06v-.16s.02-11.63.02-11.63v-.04s.03-.03.03-.03l8.78-7.57.03.12c-2.94-.7-5.8-1.69-8.56-2.9-2.76-1.22-5.41-2.69-7.83-4.5-2.41-1.81-4.57-4-6.13-6.59-.4-.64-.73-1.32-1.04-2.01-.3-.69-.54-1.41-.9-2.06-.72-1.31-1.81-2.4-3.03-3.26-2.49-1.7-5.42-2.6-8.36-3.21-2.95-.59-5.96-.87-8.96-.98-6.02-.2-12.05.18-18.01.99v-.07Z"/>
  </g>
</svg>