<?xml version="1.0" encoding="UTF-8"?>
<svg id="Layer_2" data-name="Layer 2" xmlns="http://www.w3.org/2000/svg" viewBox="0 0 437.98 196.66">
  <defs>
    <style>
      .cls-1 {
        fill: #1d1e1c;
        stroke-width: 0px;
      }
    </style>
  </defs>
  <g id="Layer_1-2" data-name="Layer 1">
    <path class="cls-1" d="M0,196.01c3.37.07,6.74.23,10.09.45.42.02.84.04,1.25.02.21,0,.41-.05.59-.11.17-.08.31-.22.44-.38.47-.68,1-1.37,1.6-1.96,1.2-1.2,2.56-2.21,3.95-3.17,2.78-1.93,5.8-3.46,8.54-5.4,2.76-1.91,5.38-4.03,7.85-6.31,9.87-9.2,17.36-20.52,25.31-31.37,3.97-5.44,8.09-10.8,12.68-15.75,4.58-4.95,9.7-9.45,15.45-13.02,5.76-3.55,12.1-6.08,18.59-7.93,6.5-1.85,13.16-3.03,19.83-3.97,13.35-1.85,26.81-2.98,40.28-3.39,3.37-.1,6.74-.15,10.11-.17,3.36-.06,6.78.24,9.96-.69,1.58-.45,3-1.32,4.24-2.42,1.25-1.09,2.36-2.36,3.59-3.54,1.21-1.19,2.6-2.27,4.2-2.96.8-.34,1.66-.61,2.59-.56.46.03.95.18,1.34.49.39.31.64.76.77,1.2.29.88.15,1.95-.49,2.68-.63.73-1.53,1.07-2.38,1.25-1.74.33-3.51.08-5.14-.46-1.66-.52-3.13-1.52-4.41-2.64-1.29-1.12-2.47-2.42-3.27-3.97-.81-1.54-1.16-3.4-.62-5.14.6-1.73,2.04-3,3.66-3.67.82-.32,1.75-.53,2.69-.26.46.14.91.43,1.19.84.28.42.41.88.45,1.36.02.49-.13,1.02-.49,1.4-.35.38-.82.58-1.26.69-.89.22-1.78.17-2.63.07-1.71-.22-3.36-.72-4.95-1.33-1.59-.62-3.12-1.38-4.57-2.29-1.44-.9-2.81-2.03-3.87-3.36-1.1-1.31-2.07-2.75-2.7-4.36-.63-1.6-.89-3.44-.38-5.15.48-1.71,1.69-3.15,3.16-4.08,1.47-.94,3.21-1.45,4.96-1.42,1.73.02,3.57.68,4.69,2.12v.02s.03.02.03.02c.1.18.18.42.14.66-.03.25-.17.45-.31.6-.29.29-.63.44-.95.58-.66.25-1.33.37-2,.46-1.34.17-2.69.18-4.02.09-2.66-.2-5.34-.73-7.76-1.99-.6-.32-1.18-.71-1.69-1.14-.51-.41-1.03-.81-1.56-1.21-1.05-.8-2.13-1.58-3.16-2.42-1.03-.84-2.04-1.74-2.9-2.78-.44-.51-.83-1.07-1.19-1.64-.35-.59-.64-1.19-.95-1.76-.62-1.16-1.28-2.31-1.86-3.52-.56-1.2-1.1-2.48-1.18-3.88-.03-.69.09-1.43.43-2.06.33-.64.85-1.14,1.44-1.53,1.21-.72,2.54-1.01,3.86-1.24,2.65-.42,5.33-.44,7.99-.14,1.33.17,2.65.42,3.92.89.63.24,1.26.54,1.81.98.55.43,1.03,1.08,1.06,1.85v.07s-.03.06-.03.06c-.22.46-.68.81-1.16.93-.49.12-.97.08-1.42,0-.91-.18-1.74-.54-2.54-.93-1.59-.81-3.06-1.81-4.47-2.87-2.82-2.14-5.41-4.55-7.83-7.12-2.41-2.57-4.66-5.31-6.6-8.28-.97-1.48-1.85-3.02-2.57-4.65-.71-1.62-1.29-3.34-1.41-5.14l-.03-.38.35.17c7.84,3.71,15.58,7.62,23.41,11.32l-.25.32c-4.28-5.36-9.53-9.86-14.44-14.66-2.46-2.4-4.87-4.88-7.05-7.54-2.19-2.66-4.16-5.52-5.71-8.61l-.04-.07.04-.09c.17-.39.61-.73,1.08-.71.45,0,.84.18,1.19.37.71.39,1.32.9,1.91,1.42,1.18,1.05,2.27,2.18,3.35,3.31,2.17,2.26,4.28,4.58,6.65,6.6,4.76,4.05,10.15,7.29,15.48,10.56,10.68,6.48,21.54,13,30.39,21.97,2.2,2.23,4.27,4.6,6.14,7.12,1.9,2.5,3.49,5.22,5.02,7.95,1.55,2.72,3.11,5.44,5.09,7.86,1.94,2.44,4.46,4.41,7.34,5.6,2.84,1.19,6.19,1.49,9.02.17,2.87-1.28,4.1-4.65,7.05-6.09,1.43-.67,2.94-1.19,4.52-1.35,1.58-.18,3.2.05,4.68.61,1.49.55,2.81,1.44,4.2,2.11.69.33,1.44.56,2.18.47.74-.11,1.41-.51,1.96-1.04l-.02.02c.16-.22.24-.47.12-.68-.11-.21-.36-.38-.62-.48-.53-.22-1.12-.3-1.71-.31-1.17-.01-2.4.24-3.32.94-.92.72-1.46,1.83-1.71,2.98-.24,1.16-.25,2.37-.16,3.56.05,1.19.35,2.4.19,3.63-.06,1.21-.18,2.41-.33,3.62-.31,2.4-.83,4.78-1.55,7.09-1.43,4.63-3.76,8.98-6.74,12.79-2.96,3.84-6.55,7.16-10.4,10.08-3.86,2.9-7.95,5.55-12.39,7.51-4.4,2.01-8.94,3.67-13.23,5.86-2.14,1.09-4.22,2.31-6.12,3.77-1.91,1.44-3.55,3.21-5.15,5.01-1.62,1.78-3.13,3.69-5.04,5.23-.96.75-2.09,1.39-3.35,1.57-1.26.18-2.53-.15-3.63-.68l-.27-.13.2-.23,7.76-8.89.35.33c-3.81,3.78-8.91,6.11-14.19,6.84-5.28.74-10.83-.11-15.53-2.71l-.33-.18.27-.25c4.5-4.14,9.83-7.37,15.58-9.45l.06.55c-2.96-.41-5.92.49-8.63,1.75-2.74,1.25-5.33,2.85-8.21,3.94-1.45.53-2.98.84-4.54.88-1.55.03-3.12-.24-4.56-.85-2.9-1.19-5.15-3.74-6.1-6.71l-.09-.27.26-.11c8.99-3.83,18.26-7.02,27.7-9.54,9.45-2.5,19.06-4.39,28.79-5.47,4.85-.46,9.95-.4,14.58,1.45,4.63,1.83,8.54,4.89,12.54,7.63,2,1.38,4.04,2.71,6.21,3.76,2.16,1.05,4.48,1.81,6.86,1.99,1.19.09,2.4.07,3.53-.2,1.13-.27,2.24-.77,2.97-1.62.36-.43.65-.92.73-1.44.08-.53,0-1.1-.22-1.61-.4-1.02-1.43-1.86-2.43-1.52l.09-.04c-.7.44-1.18,1.16-1.38,1.97-.19.81-.14,1.7.1,2.52.24.82.65,1.61,1.23,2.24.56.63,1.32,1.09,2.12,1.45,1.61.71,3.42.9,5.21.93,1.8.02,3.63-.03,5.43-.17,1.79-.16,3.58-.48,5.19-1.2.8-.36,1.55-.83,2.2-1.42.31-.31.64-.6.83-.95.21-.35.35-.75.45-1.17.36-1.69.13-3.53-.41-5.2-.28-.82-.66-1.66-1.24-2.2-.3-.26-.6-.36-.87-.22-.29.13-.56.47-.77.83l.03-.06c-.68,1.85-.35,3.96.58,5.71.93,1.77,2.41,3.24,4.19,4.15,1.78.94,3.79,1.41,5.82,1.61,2.03.2,4.09.14,6.14-.01,2.04-.16,4.07-.51,5.9-1.35,1.83-.82,3.35-2.26,4.12-4.09.38-.9.59-1.89.49-2.85-.08-.95-.5-1.87-1.02-2.73-.52-.83-1.18-1.64-2.01-2.01-.41-.18-.84-.2-1.22-.02-.39.17-.73.51-1.01.89l.07-.16c-.08.63,0,1.26.26,1.83.27.56.7,1.04,1.21,1.43,1.05.78,2.35,1.23,3.66,1.52,2.65.57,5.42.55,8.13.25,2.71-.32,5.4-.96,7.93-1.99,2.51-1.02,4.92-2.44,6.68-4.47l.24.6c-5.2-.5-10.13-3.19-13.38-7.29l-.54-.69.87.1c15.34,1.73,31.18-1.21,44.89-8.31l-.05.63c-2.39-1.86-5.55-2.38-8.58-2.23-3.06.13-6.09.81-9.13,1.43-6.13,1.35-12.48,1.17-18.64.38-12.38-1.61-24.23-5.59-36.23-8.61-3-.74-6.03-1.42-9.09-1.78-1.53-.17-3.07-.28-4.59-.17-1.51.1-3.04.41-4.29,1.2-1.26.78-2.1,2.09-2.43,3.55-.2.69-.11,1.43.43,1.77.54.35,1.33.33,2.03.17.73-.15,1.41-.45,2.11-.79l2.09-1.02,4.18-2.05c11.18-5.41,22.69-10.17,34.54-13.89,11.85-3.71,24.06-6.43,36.46-7.35,12.37-.91,25.02.04,36.83,4.06,2.94,1.01,5.83,2.17,8.6,3.59,2.77,1.42,5.39,3.13,7.83,5.05,2.46,1.91,4.73,4.03,7.09,6.04,2.35,2,4.9,3.84,7.82,4.87,1.45.51,2.97.83,4.51.98,1.53.15,3.09.1,4.64.21,3.1.19,6.21.68,9.13,1.79.73.27,1.44.59,2.16.88.36.13.73.27,1.1.27.37,0,.71-.19.97-.46.52-.56.88-1.25,1.26-1.93.37-.68.72-1.37,1.06-2.07,1.39-2.78,2.78-5.55,4.24-8.29l.07.04c-1.44,2.75-2.83,5.52-4.2,8.3-.35.69-.69,1.39-1.06,2.08-.37.68-.73,1.38-1.27,1.96-.27.29-.65.52-1.07.51-.41,0-.79-.14-1.15-.28-.73-.28-1.43-.6-2.16-.86-2.9-1.09-5.99-1.56-9.08-1.73-1.54-.1-3.1-.04-4.65-.19-1.55-.15-3.09-.47-4.57-.98-2.96-1.04-5.55-2.89-7.91-4.9-2.37-2.01-4.64-4.12-7.09-6.02-2.44-1.91-5.04-3.59-7.8-5-2.75-1.4-5.64-2.55-8.57-3.55-11.76-3.98-24.36-4.9-36.69-3.96-12.36.94-24.54,3.68-36.35,7.41-11.82,3.74-23.3,8.52-34.44,13.94l-4.17,2.05-2.09,1.03c-.69.34-1.44.67-2.24.84-.78.16-1.68.24-2.48-.25-.39-.25-.67-.68-.76-1.13-.09-.44-.04-.89.07-1.28.35-1.56,1.29-3.06,2.69-3.93,1.39-.87,3.01-1.19,4.57-1.3,1.58-.12,3.15,0,4.7.17,3.11.36,6.15,1.04,9.17,1.78,12.05,3.01,23.88,6.95,36.17,8.52,6.12.77,12.37.94,18.4-.38,3.03-.62,6.09-1.3,9.24-1.44,1.57-.06,3.17.02,4.72.38,1.55.36,3.05,1.03,4.33,2.01l.47.36-.52.27c-13.84,7.17-29.82,10.13-45.31,8.38l.33-.59c3.11,3.94,7.88,6.54,12.87,7.02l.7.07-.46.53c-1.88,2.16-4.38,3.62-6.96,4.67-2.6,1.05-5.34,1.7-8.11,2.03-2.77.31-5.6.33-8.37-.26-1.37-.31-2.75-.77-3.94-1.65-.58-.44-1.1-1.01-1.43-1.7-.32-.7-.42-1.48-.32-2.22v-.09s.07-.07.07-.07c.33-.44.74-.88,1.3-1.13.56-.26,1.26-.22,1.79.02,1.08.49,1.77,1.39,2.34,2.3.28.46.52.94.73,1.43.19.51.36,1.05.39,1.61.11,1.1-.12,2.21-.54,3.2-.84,2-2.54,3.59-4.48,4.46-1.95.9-4.06,1.25-6.14,1.41-2.08.15-4.17.21-6.26,0-2.08-.21-4.19-.69-6.08-1.69-1.9-.98-3.49-2.56-4.49-4.46-1-1.88-1.38-4.21-.61-6.28v-.03s.03-.02.03-.02c.25-.41.55-.85,1.09-1.12.27-.13.61-.16.9-.08.29.08.53.24.73.41.76.72,1.13,1.62,1.44,2.5.57,1.79.82,3.69.43,5.58-.11.47-.27.94-.53,1.37-.26.45-.63.77-.96,1.11-.7.64-1.52,1.15-2.38,1.54-1.72.77-3.58,1.1-5.42,1.26-1.84.15-3.66.19-5.5.18-1.83-.04-3.73-.23-5.48-1-.85-.39-1.7-.89-2.35-1.63-.65-.72-1.11-1.59-1.38-2.51-.27-.92-.33-1.92-.11-2.88.22-.96.82-1.87,1.68-2.4l.04-.02h.05c.69-.23,1.48-.07,2.04.33.57.4.98.96,1.23,1.58.25.62.36,1.3.26,1.98-.1.69-.47,1.29-.89,1.79-.87,1.01-2.12,1.55-3.34,1.84-1.24.29-2.51.31-3.74.22-2.49-.19-4.9-.98-7.11-2.05-2.23-1.08-4.29-2.43-6.3-3.81-4.02-2.76-7.9-5.79-12.4-7.56-4.49-1.8-9.46-1.87-14.27-1.41-9.67,1.07-19.27,2.95-28.68,5.45-9.42,2.5-18.66,5.66-27.63,9.47l.18-.39c.89,2.8,3.01,5.21,5.74,6.34,2.72,1.17,5.87.98,8.66-.03,2.8-1.04,5.4-2.64,8.17-3.9,2.74-1.28,5.83-2.22,8.94-1.78l1.14.16-1.08.39c-5.68,2.04-10.95,5.22-15.41,9.31l-.05-.43c4.58,2.54,10.02,3.39,15.2,2.67,5.18-.71,10.19-2.99,13.92-6.68l.35.33-7.77,8.87-.07-.36c1.06.5,2.23.81,3.37.65,1.15-.15,2.2-.74,3.13-1.47,1.85-1.49,3.38-3.39,5-5.17,1.61-1.8,3.27-3.59,5.22-5.05,1.93-1.48,4.03-2.71,6.19-3.8,4.32-2.19,8.87-3.85,13.25-5.85,4.41-1.94,8.47-4.56,12.33-7.45,3.83-2.9,7.4-6.2,10.34-10,2.96-3.78,5.27-8.09,6.69-12.68.72-2.29,1.24-4.65,1.55-7.03.16-1.19.28-2.39.34-3.59.15-1.19-.13-2.37-.19-3.59-.08-1.21-.08-2.44.17-3.65.25-1.19.83-2.39,1.83-3.16,1.02-.77,2.3-1.01,3.52-1,.62.01,1.24.1,1.83.34.29.13.59.3.77.63.19.34.05.75-.15,1.01h0s0,.02,0,.02c-.58.55-1.3,1-2.13,1.12-.83.09-1.63-.16-2.35-.5-1.43-.69-2.73-1.57-4.18-2.1-1.44-.55-3.01-.78-4.54-.6-1.54.16-3.03.67-4.43,1.32-2.82,1.34-4.06,4.72-7.06,6.08-2.92,1.36-6.35,1.03-9.23-.17-2.92-1.21-5.48-3.22-7.43-5.68-1.99-2.44-3.56-5.18-5.1-7.9-1.53-2.73-3.11-5.43-4.99-7.93-1.86-2.51-3.92-4.87-6.12-7.09-8.84-8.92-19.69-15.42-30.38-21.88-5.33-3.27-10.74-6.49-15.54-10.56-2.39-2.04-4.51-4.37-6.68-6.61-1.09-1.13-2.17-2.25-3.34-3.28-.58-.51-1.19-1-1.85-1.37-.33-.18-.69-.32-1.02-.33-.34,0-.61.2-.77.52v-.16c3.1,6.14,7.81,11.27,12.72,16.03,4.91,4.79,10.17,9.28,14.5,14.68l.56.7-.81-.38c-7.85-3.69-15.59-7.59-23.43-11.28l.32-.22c.12,1.72.67,3.39,1.38,4.98.71,1.59,1.59,3.11,2.54,4.58,1.92,2.93,4.16,5.65,6.56,8.2,2.41,2.55,4.99,4.94,7.78,7.06,1.4,1.05,2.85,2.04,4.4,2.82.77.38,1.58.72,2.4.88.41.07.83.1,1.2,0,.37-.1.66-.33.83-.67l-.03.13c-.03-.58-.38-1.1-.87-1.48-.49-.39-1.07-.67-1.67-.9-1.21-.45-2.51-.7-3.8-.86-2.6-.3-5.26-.27-7.84.14-1.28.22-2.59.52-3.66,1.17-.51.34-.97.79-1.25,1.33-.29.54-.39,1.16-.36,1.78.06,1.26.57,2.49,1.13,3.66.57,1.18,1.23,2.32,1.85,3.5.32.59.6,1.19.93,1.73.34.55.72,1.08,1.14,1.57.83,1,1.81,1.87,2.83,2.7,1.02.83,2.09,1.61,3.15,2.4.53.4,1.06.8,1.58,1.22.5.42,1.03.77,1.6,1.07,2.29,1.2,4.92,1.72,7.52,1.91,1.3.08,2.62.08,3.9-.09.64-.09,1.28-.21,1.86-.43.28-.11.56-.25.74-.43.17-.19.2-.33.08-.55l.03.04c-.98-1.26-2.62-1.86-4.23-1.88-1.62-.02-3.25.46-4.62,1.33-1.36.87-2.45,2.19-2.89,3.74-.46,1.55-.23,3.23.37,4.75.6,1.52,1.54,2.91,2.6,4.18,1.04,1.3,2.31,2.34,3.73,3.23,1.4.88,2.91,1.62,4.46,2.23,1.55.6,3.16,1.08,4.79,1.28.81.09,1.64.12,2.39-.06.77-.17,1.3-.69,1.24-1.42-.05-.73-.46-1.42-1.17-1.59-.7-.21-1.52-.05-2.25.24-1.46.6-2.77,1.78-3.27,3.26-.47,1.51-.18,3.21.57,4.63.74,1.45,1.86,2.7,3.11,3.78,1.25,1.09,2.62,2.02,4.19,2.52,1.55.52,3.23.74,4.81.45.78-.16,1.54-.47,2.02-1.03.48-.55.6-1.36.37-2.08-.2-.74-.79-1.22-1.56-1.25-.76-.05-1.56.19-2.3.5-1.51.65-2.82,1.67-4.02,2.83-1.2,1.15-2.32,2.42-3.61,3.55-1.27,1.14-2.8,2.07-4.47,2.54-3.35.97-6.79.64-10.13.7-3.37,0-6.73.06-10.09.15-13.46.39-26.89,1.5-40.23,3.33-6.66.93-13.3,2.1-19.77,3.93-6.46,1.82-12.76,4.33-18.48,7.85-5.71,3.54-10.81,8-15.38,12.92-4.57,4.93-8.69,10.27-12.67,15.7-7.96,10.82-15.48,22.17-25.4,31.39-2.49,2.28-5.12,4.41-7.91,6.32-2.77,1.95-5.79,3.46-8.57,5.35-1.39.94-2.75,1.94-3.94,3.11-.61.58-1.11,1.24-1.6,1.93-.13.17-.3.34-.51.43-.21.08-.43.12-.65.12-.43.02-.85,0-1.27-.03-3.36-.24-6.72-.44-10.09-.54v-.07Z"/>
  </g>
</svg>